%TF.GenerationSoftware,KiCad,Pcbnew,6.0.1-79c1e3a40b~116~ubuntu20.04.1*%
%TF.CreationDate,2022-02-18T15:29:32+02:00*%
%TF.ProjectId,colorlight-usb-phy-pmod,636f6c6f-726c-4696-9768-742d7573622d,rev?*%
%TF.SameCoordinates,Original*%
%TF.FileFunction,Copper,L1,Top*%
%TF.FilePolarity,Positive*%
%FSLAX46Y46*%
G04 Gerber Fmt 4.6, Leading zero omitted, Abs format (unit mm)*
G04 Created by KiCad (PCBNEW 6.0.1-79c1e3a40b~116~ubuntu20.04.1) date 2022-02-18 15:29:32*
%MOMM*%
%LPD*%
G01*
G04 APERTURE LIST*
G04 Aperture macros list*
%AMRoundRect*
0 Rectangle with rounded corners*
0 $1 Rounding radius*
0 $2 $3 $4 $5 $6 $7 $8 $9 X,Y pos of 4 corners*
0 Add a 4 corners polygon primitive as box body*
4,1,4,$2,$3,$4,$5,$6,$7,$8,$9,$2,$3,0*
0 Add four circle primitives for the rounded corners*
1,1,$1+$1,$2,$3*
1,1,$1+$1,$4,$5*
1,1,$1+$1,$6,$7*
1,1,$1+$1,$8,$9*
0 Add four rect primitives between the rounded corners*
20,1,$1+$1,$2,$3,$4,$5,0*
20,1,$1+$1,$4,$5,$6,$7,0*
20,1,$1+$1,$6,$7,$8,$9,0*
20,1,$1+$1,$8,$9,$2,$3,0*%
G04 Aperture macros list end*
%TA.AperFunction,SMDPad,CuDef*%
%ADD10RoundRect,0.150000X-0.150000X0.512500X-0.150000X-0.512500X0.150000X-0.512500X0.150000X0.512500X0*%
%TD*%
%TA.AperFunction,SMDPad,CuDef*%
%ADD11RoundRect,0.140000X-0.140000X-0.170000X0.140000X-0.170000X0.140000X0.170000X-0.140000X0.170000X0*%
%TD*%
%TA.AperFunction,SMDPad,CuDef*%
%ADD12RoundRect,0.062500X-0.062500X0.350000X-0.062500X-0.350000X0.062500X-0.350000X0.062500X0.350000X0*%
%TD*%
%TA.AperFunction,SMDPad,CuDef*%
%ADD13RoundRect,0.062500X-0.350000X0.062500X-0.350000X-0.062500X0.350000X-0.062500X0.350000X0.062500X0*%
%TD*%
%TA.AperFunction,ComponentPad*%
%ADD14C,0.500000*%
%TD*%
%TA.AperFunction,SMDPad,CuDef*%
%ADD15R,2.600000X2.600000*%
%TD*%
%TA.AperFunction,SMDPad,CuDef*%
%ADD16RoundRect,0.135000X-0.135000X-0.185000X0.135000X-0.185000X0.135000X0.185000X-0.135000X0.185000X0*%
%TD*%
%TA.AperFunction,SMDPad,CuDef*%
%ADD17RoundRect,0.140000X0.170000X-0.140000X0.170000X0.140000X-0.170000X0.140000X-0.170000X-0.140000X0*%
%TD*%
%TA.AperFunction,SMDPad,CuDef*%
%ADD18RoundRect,0.218750X-0.218750X-0.256250X0.218750X-0.256250X0.218750X0.256250X-0.218750X0.256250X0*%
%TD*%
%TA.AperFunction,SMDPad,CuDef*%
%ADD19RoundRect,0.200000X-0.250000X0.200000X-0.250000X-0.200000X0.250000X-0.200000X0.250000X0.200000X0*%
%TD*%
%TA.AperFunction,SMDPad,CuDef*%
%ADD20RoundRect,0.135000X-0.185000X0.135000X-0.185000X-0.135000X0.185000X-0.135000X0.185000X0.135000X0*%
%TD*%
%TA.AperFunction,SMDPad,CuDef*%
%ADD21R,1.450000X0.600000*%
%TD*%
%TA.AperFunction,SMDPad,CuDef*%
%ADD22R,1.450000X0.300000*%
%TD*%
%TA.AperFunction,ComponentPad*%
%ADD23O,2.100000X1.000000*%
%TD*%
%TA.AperFunction,ComponentPad*%
%ADD24O,1.600000X1.000000*%
%TD*%
%TA.AperFunction,SMDPad,CuDef*%
%ADD25RoundRect,0.135000X0.135000X0.185000X-0.135000X0.185000X-0.135000X-0.185000X0.135000X-0.185000X0*%
%TD*%
%TA.AperFunction,SMDPad,CuDef*%
%ADD26RoundRect,0.140000X0.140000X0.170000X-0.140000X0.170000X-0.140000X-0.170000X0.140000X-0.170000X0*%
%TD*%
%TA.AperFunction,ComponentPad*%
%ADD27R,1.700000X1.700000*%
%TD*%
%TA.AperFunction,ComponentPad*%
%ADD28O,1.700000X1.700000*%
%TD*%
%TA.AperFunction,SMDPad,CuDef*%
%ADD29R,0.300000X0.300000*%
%TD*%
%TA.AperFunction,SMDPad,CuDef*%
%ADD30R,0.700000X0.450000*%
%TD*%
%TA.AperFunction,SMDPad,CuDef*%
%ADD31RoundRect,0.218750X0.256250X-0.218750X0.256250X0.218750X-0.256250X0.218750X-0.256250X-0.218750X0*%
%TD*%
%TA.AperFunction,SMDPad,CuDef*%
%ADD32RoundRect,0.140000X-0.170000X0.140000X-0.170000X-0.140000X0.170000X-0.140000X0.170000X0.140000X0*%
%TD*%
%TA.AperFunction,SMDPad,CuDef*%
%ADD33RoundRect,0.135000X0.185000X-0.135000X0.185000X0.135000X-0.185000X0.135000X-0.185000X-0.135000X0*%
%TD*%
%TA.AperFunction,ViaPad*%
%ADD34C,0.600000*%
%TD*%
%TA.AperFunction,ViaPad*%
%ADD35C,0.800000*%
%TD*%
%TA.AperFunction,Conductor*%
%ADD36C,0.250000*%
%TD*%
%TA.AperFunction,Conductor*%
%ADD37C,0.200000*%
%TD*%
%TA.AperFunction,Conductor*%
%ADD38C,0.400000*%
%TD*%
%TA.AperFunction,Conductor*%
%ADD39C,0.175000*%
%TD*%
%TA.AperFunction,Conductor*%
%ADD40C,0.176000*%
%TD*%
G04 APERTURE END LIST*
D10*
%TO.P,U3,5,VOUT*%
%TO.N,+1V8*%
X56120000Y-113587500D03*
%TO.P,U3,4,NC*%
%TO.N,unconnected-(U3-Pad4)*%
X54220000Y-113587500D03*
%TO.P,U3,3,EN*%
%TO.N,+3V3*%
X54220000Y-111312500D03*
%TO.P,U3,2,GND*%
%TO.N,GND*%
X55170000Y-111312500D03*
%TO.P,U3,1,VIN*%
%TO.N,+3V3*%
X56120000Y-111312500D03*
%TD*%
D11*
%TO.P,C7,2*%
%TO.N,+1V8*%
X56125000Y-115225000D03*
%TO.P,C7,1*%
%TO.N,GND*%
X55165000Y-115225000D03*
%TD*%
%TO.P,C6,1*%
%TO.N,GND*%
X55290000Y-109900000D03*
%TO.P,C6,2*%
%TO.N,+3V3*%
X56250000Y-109900000D03*
%TD*%
D12*
%TO.P,U1,1,ID*%
%TO.N,unconnected-(U1-Pad1)*%
X53250000Y-103062500D03*
%TO.P,U1,2,VBUS*%
%TO.N,Net-(R2-Pad1)*%
X52750000Y-103062500D03*
%TO.P,U1,3,VBAT*%
%TO.N,+3V3*%
X52250000Y-103062500D03*
%TO.P,U1,4,VDD3.3*%
%TO.N,Net-(C1-Pad1)*%
X51750000Y-103062500D03*
%TO.P,U1,5,DM*%
%TO.N,/USB_D_N*%
X51250000Y-103062500D03*
%TO.P,U1,6,DP*%
%TO.N,/USB_D_P*%
X50750000Y-103062500D03*
D13*
%TO.P,U1,7,CPEN*%
%TO.N,unconnected-(U1-Pad7)*%
X50062500Y-103750000D03*
%TO.P,U1,8,DATA7*%
%TO.N,/D7*%
X50062500Y-104250000D03*
%TO.P,U1,9,DATA6*%
%TO.N,/D6*%
X50062500Y-104750000D03*
%TO.P,U1,10,DATA5*%
%TO.N,/D5*%
X50062500Y-105250000D03*
%TO.P,U1,11,DATA4*%
%TO.N,/D4*%
X50062500Y-105750000D03*
%TO.P,U1,12,CLKOUT*%
%TO.N,/CLKOUT*%
X50062500Y-106250000D03*
D12*
%TO.P,U1,13,DATA3*%
%TO.N,/D3*%
X50750000Y-106937500D03*
%TO.P,U1,14,DATA2*%
%TO.N,/D2*%
X51250000Y-106937500D03*
%TO.P,U1,15,DATA1*%
%TO.N,/D1*%
X51750000Y-106937500D03*
%TO.P,U1,16,DATA0*%
%TO.N,/D0*%
X52250000Y-106937500D03*
%TO.P,U1,17,VDDIO*%
%TO.N,+3V3*%
X52750000Y-106937500D03*
%TO.P,U1,18,NXT*%
%TO.N,/NXT*%
X53250000Y-106937500D03*
D13*
%TO.P,U1,19,DIR*%
%TO.N,/DIR*%
X53937500Y-106250000D03*
%TO.P,U1,20,STP*%
%TO.N,/STP*%
X53937500Y-105750000D03*
%TO.P,U1,21,VDD1.8*%
%TO.N,+1V8*%
X53937500Y-105250000D03*
%TO.P,U1,22,RESETB*%
%TO.N,/RST*%
X53937500Y-104750000D03*
%TO.P,U1,23,REFCLK*%
%TO.N,Net-(JP1-Pad1)*%
X53937500Y-104250000D03*
%TO.P,U1,24,RBIAS*%
%TO.N,Net-(R1-Pad2)*%
X53937500Y-103750000D03*
D14*
%TO.P,U1,25,GND*%
%TO.N,GND*%
X50950000Y-105000000D03*
X52000000Y-103950000D03*
X52000000Y-106050000D03*
X53050000Y-105000000D03*
X53050000Y-103950000D03*
X53050000Y-106050000D03*
X50950000Y-103950000D03*
D15*
X52000000Y-105000000D03*
D14*
X50950000Y-106050000D03*
X52000000Y-105000000D03*
%TD*%
D16*
%TO.P,R2,1*%
%TO.N,Net-(R2-Pad1)*%
X50320000Y-88950000D03*
%TO.P,R2,2*%
%TO.N,VBUS*%
X51340000Y-88950000D03*
%TD*%
D17*
%TO.P,C4,1*%
%TO.N,+3V3*%
X53900000Y-101580000D03*
%TO.P,C4,2*%
%TO.N,GND*%
X53900000Y-100620000D03*
%TD*%
D11*
%TO.P,C5,1*%
%TO.N,GND*%
X57820000Y-101800000D03*
%TO.P,C5,2*%
%TO.N,+3V3*%
X58780000Y-101800000D03*
%TD*%
D18*
%TO.P,D2,1,K*%
%TO.N,Net-(D2-Pad1)*%
X52112500Y-85900000D03*
%TO.P,D2,2,A*%
%TO.N,Net-(D2-Pad2)*%
X53687500Y-85900000D03*
%TD*%
D17*
%TO.P,C1,1*%
%TO.N,Net-(C1-Pad1)*%
X51900000Y-101580000D03*
%TO.P,C1,2*%
%TO.N,GND*%
X51900000Y-100620000D03*
%TD*%
D19*
%TO.P,X1,1,Tri-State*%
%TO.N,+3V3*%
X59625000Y-103075000D03*
%TO.P,X1,2,GND*%
%TO.N,GND*%
X57775000Y-103075000D03*
%TO.P,X1,3,OUT*%
%TO.N,Net-(JP1-Pad1)*%
X57775000Y-104525000D03*
%TO.P,X1,4,VDD*%
%TO.N,+3V3*%
X59625000Y-104525000D03*
%TD*%
D16*
%TO.P,R7,1*%
%TO.N,Net-(D2-Pad2)*%
X54890000Y-86000000D03*
%TO.P,R7,2*%
%TO.N,+3V3*%
X55910000Y-86000000D03*
%TD*%
D20*
%TO.P,R6,1*%
%TO.N,Net-(Q1-Pad1)*%
X45500000Y-85390000D03*
%TO.P,R6,2*%
%TO.N,/USR_LED*%
X45500000Y-86410000D03*
%TD*%
D21*
%TO.P,P1,A1,GND*%
%TO.N,GND*%
X53655000Y-95350000D03*
%TO.P,P1,A4,VBUS*%
%TO.N,VBUS*%
X53655000Y-94550000D03*
D22*
%TO.P,P1,A5,CC1*%
%TO.N,Net-(P1-PadA5)*%
X53655000Y-93350000D03*
%TO.P,P1,A6,D+*%
%TO.N,/USB_D_P*%
X53655000Y-92350000D03*
%TO.P,P1,A7,D-*%
%TO.N,/USB_D_N*%
X53655000Y-91850000D03*
%TO.P,P1,A8,SBU1*%
%TO.N,unconnected-(P1-PadA8)*%
X53655000Y-90850000D03*
D21*
%TO.P,P1,A9,VBUS*%
%TO.N,VBUS*%
X53655000Y-89650000D03*
%TO.P,P1,A12,GND*%
%TO.N,GND*%
X53655000Y-88850000D03*
%TO.P,P1,B1,GND*%
X53655000Y-88850000D03*
%TO.P,P1,B4,VBUS*%
%TO.N,VBUS*%
X53655000Y-89650000D03*
D22*
%TO.P,P1,B5,CC2*%
%TO.N,Net-(P1-PadB5)*%
X53655000Y-90350000D03*
%TO.P,P1,B6,D+*%
%TO.N,/USB_D_P*%
X53655000Y-91350000D03*
%TO.P,P1,B7,D-*%
%TO.N,/USB_D_N*%
X53655000Y-92850000D03*
%TO.P,P1,B8,SBU2*%
%TO.N,unconnected-(P1-PadB8)*%
X53655000Y-93850000D03*
D21*
%TO.P,P1,B9,VBUS*%
%TO.N,VBUS*%
X53655000Y-94550000D03*
%TO.P,P1,B12,GND*%
%TO.N,GND*%
X53655000Y-95350000D03*
D23*
%TO.P,P1,S1,SHIELD*%
X54570000Y-87780000D03*
D24*
X58750000Y-87780000D03*
D23*
X54570000Y-96420000D03*
D24*
X58750000Y-96420000D03*
%TD*%
D25*
%TO.P,R1,1*%
%TO.N,GND*%
X56210000Y-103100000D03*
%TO.P,R1,2*%
%TO.N,Net-(R1-Pad2)*%
X55190000Y-103100000D03*
%TD*%
D26*
%TO.P,C3,1*%
%TO.N,GND*%
X56180000Y-105400000D03*
%TO.P,C3,2*%
%TO.N,+1V8*%
X55220000Y-105400000D03*
%TD*%
D27*
%TO.P,J1,1,Pin_1*%
%TO.N,+3V3*%
X43000000Y-122500000D03*
D28*
%TO.P,J1,2,Pin_2*%
X40460000Y-122500000D03*
%TO.P,J1,3,Pin_3*%
%TO.N,GND*%
X43000000Y-119960000D03*
%TO.P,J1,4,Pin_4*%
X40460000Y-119960000D03*
%TO.P,J1,5,Pin_5*%
%TO.N,/D0*%
X43000000Y-117420000D03*
%TO.P,J1,6,Pin_6*%
%TO.N,/D4*%
X40460000Y-117420000D03*
%TO.P,J1,7,Pin_7*%
%TO.N,/D1*%
X43000000Y-114880000D03*
%TO.P,J1,8,Pin_8*%
%TO.N,/D5*%
X40460000Y-114880000D03*
%TO.P,J1,9,Pin_9*%
%TO.N,/D2*%
X43000000Y-112340000D03*
%TO.P,J1,10,Pin_10*%
%TO.N,/D6*%
X40460000Y-112340000D03*
%TO.P,J1,11,Pin_11*%
%TO.N,/D3*%
X43000000Y-109800000D03*
%TO.P,J1,12,Pin_12*%
%TO.N,/D7*%
X40460000Y-109800000D03*
%TO.P,J1,13,Pin_13*%
%TO.N,unconnected-(J1-Pad13)*%
X43000000Y-107260000D03*
%TO.P,J1,14,Pin_14*%
%TO.N,unconnected-(J1-Pad14)*%
X40460000Y-107260000D03*
%TO.P,J1,15,Pin_15*%
%TO.N,+5V*%
X43000000Y-104720000D03*
%TO.P,J1,16,Pin_16*%
%TO.N,unconnected-(J1-Pad16)*%
X40460000Y-104720000D03*
%TO.P,J1,17,Pin_17*%
%TO.N,unconnected-(J1-Pad17)*%
X43000000Y-102180000D03*
%TO.P,J1,18,Pin_18*%
%TO.N,unconnected-(J1-Pad18)*%
X40460000Y-102180000D03*
%TO.P,J1,19,Pin_19*%
%TO.N,+3V3*%
X43000000Y-99640000D03*
%TO.P,J1,20,Pin_20*%
X40460000Y-99640000D03*
%TO.P,J1,21,Pin_21*%
%TO.N,GND*%
X43000000Y-97100000D03*
%TO.P,J1,22,Pin_22*%
X40460000Y-97100000D03*
%TO.P,J1,23,Pin_23*%
%TO.N,/RST*%
X43000000Y-94560000D03*
%TO.P,J1,24,Pin_24*%
%TO.N,/CLKOUT*%
X40460000Y-94560000D03*
%TO.P,J1,25,Pin_25*%
%TO.N,/REFCLK*%
X43000000Y-92020000D03*
%TO.P,J1,26,Pin_26*%
%TO.N,/NXT*%
X40460000Y-92020000D03*
%TO.P,J1,27,Pin_27*%
%TO.N,unconnected-(J1-Pad27)*%
X43000000Y-89480000D03*
%TO.P,J1,28,Pin_28*%
%TO.N,/DIR*%
X40460000Y-89480000D03*
%TO.P,J1,29,Pin_29*%
%TO.N,/USR_LED*%
X43000000Y-86940000D03*
%TO.P,J1,30,Pin_30*%
%TO.N,/STP*%
X40460000Y-86940000D03*
%TD*%
D29*
%TO.P,U2,1,D+*%
%TO.N,/USB_D_P*%
X50513007Y-91224984D03*
%TO.P,U2,2,D-*%
%TO.N,/USB_D_N*%
X50513007Y-91924984D03*
%TO.P,U2,3,GND*%
%TO.N,GND*%
X51363007Y-91574984D03*
%TD*%
D30*
%TO.P,Q1,1,G*%
%TO.N,Net-(Q1-Pad1)*%
X47500000Y-85950000D03*
%TO.P,Q1,2,S*%
%TO.N,GND*%
X47500000Y-87250000D03*
%TO.P,Q1,3,D*%
%TO.N,Net-(D2-Pad1)*%
X49500000Y-86600000D03*
%TD*%
D25*
%TO.P,R4,1*%
%TO.N,Net-(P1-PadB5)*%
X51360000Y-90040000D03*
%TO.P,R4,2*%
%TO.N,GND*%
X50340000Y-90040000D03*
%TD*%
D16*
%TO.P,R3,1*%
%TO.N,GND*%
X50330000Y-93400000D03*
%TO.P,R3,2*%
%TO.N,Net-(P1-PadA5)*%
X51350000Y-93400000D03*
%TD*%
D31*
%TO.P,D1,1,K*%
%TO.N,GND*%
X59200000Y-112087500D03*
%TO.P,D1,2,A*%
%TO.N,Net-(D1-Pad2)*%
X59200000Y-110512500D03*
%TD*%
D32*
%TO.P,C2,1*%
%TO.N,GND*%
X52900000Y-100620000D03*
%TO.P,C2,2*%
%TO.N,+3V3*%
X52900000Y-101580000D03*
%TD*%
D33*
%TO.P,R5,1*%
%TO.N,Net-(D1-Pad2)*%
X59200000Y-109110000D03*
%TO.P,R5,2*%
%TO.N,+3V3*%
X59200000Y-108090000D03*
%TD*%
D34*
%TO.N,GND*%
X54200000Y-109750000D03*
X55100000Y-108875000D03*
X57975000Y-106975000D03*
%TO.N,+3V3*%
X56120000Y-110375000D03*
%TO.N,+1V8*%
X55539459Y-105968020D03*
X56795000Y-114725000D03*
%TO.N,GND*%
X54270000Y-115375000D03*
X54895000Y-110350000D03*
%TO.N,+3V3*%
X54600000Y-101750000D03*
X52900000Y-108650000D03*
X56200000Y-85100000D03*
X59550000Y-101850000D03*
%TO.N,/RST*%
X49200000Y-101400000D03*
X55789749Y-104624500D03*
D35*
%TO.N,/STP*%
X55500000Y-107000000D03*
D34*
%TO.N,/DIR*%
X55293979Y-107875591D03*
%TO.N,/NXT*%
X54100000Y-108550000D03*
X44650000Y-98500000D03*
D35*
%TO.N,/CLKOUT*%
X49200000Y-107900000D03*
%TO.N,/D4*%
X48000000Y-108500000D03*
%TO.N,/D5*%
X47000000Y-108500000D03*
%TO.N,/D6*%
X46000000Y-108500000D03*
D34*
%TO.N,GND*%
X57150000Y-102450000D03*
X47700000Y-96500000D03*
X45000000Y-105000000D03*
X52450000Y-88700000D03*
X50700000Y-95200000D03*
X57300000Y-99000000D03*
X49750000Y-93750000D03*
X58300000Y-113200000D03*
X47700000Y-91100000D03*
X52400000Y-95450000D03*
X51900000Y-99900000D03*
X49700000Y-90750000D03*
X53900000Y-99900000D03*
X46000000Y-93000000D03*
X52050000Y-113025000D03*
X47200000Y-88900000D03*
X56400000Y-102350000D03*
X52900000Y-99850000D03*
X56950000Y-101750000D03*
X46100000Y-119100000D03*
X48600000Y-100200000D03*
X56800000Y-105700000D03*
X51500000Y-87400000D03*
X51760000Y-91580000D03*
X52000000Y-98100000D03*
%TO.N,Net-(JP1-Pad1)*%
X56750000Y-104450000D03*
%TO.N,VBUS*%
X50400000Y-87600000D03*
%TO.N,Net-(R2-Pad1)*%
X49250000Y-89600000D03*
X55400000Y-101350000D03*
%TO.N,+5V*%
X46000000Y-87200000D03*
%TD*%
D36*
%TO.N,+3V3*%
X56125000Y-110612500D02*
X56125000Y-109675000D01*
%TO.N,+1V8*%
X55220000Y-105648561D02*
X55539459Y-105968020D01*
X55220000Y-105400000D02*
X55220000Y-105648561D01*
X56295000Y-115225000D02*
X56795000Y-114725000D01*
%TO.N,GND*%
X55165000Y-115225000D02*
X54420000Y-115225000D01*
%TO.N,+1V8*%
X56125000Y-115225000D02*
X56125000Y-113592500D01*
%TO.N,GND*%
X55290000Y-109955000D02*
X54895000Y-110350000D01*
X55170000Y-110625000D02*
X54895000Y-110350000D01*
X55175000Y-110612500D02*
X55175000Y-109925000D01*
%TO.N,+3V3*%
X56125000Y-110612500D02*
X56125000Y-110996072D01*
X54823448Y-112299520D02*
X54220000Y-111696072D01*
X56120000Y-111696072D02*
X55516552Y-112299520D01*
X55516552Y-112299520D02*
X54823448Y-112299520D01*
X55910000Y-86000000D02*
X55910000Y-85390000D01*
D37*
X59625000Y-104525000D02*
X59625000Y-103075000D01*
X58780000Y-102230000D02*
X59625000Y-103075000D01*
D36*
X55910000Y-85390000D02*
X56200000Y-85100000D01*
X54430000Y-101580000D02*
X54600000Y-101750000D01*
D37*
X59625000Y-107665000D02*
X59200000Y-108090000D01*
X58780000Y-101800000D02*
X59500000Y-101800000D01*
D36*
X53900000Y-101580000D02*
X52900000Y-101580000D01*
D37*
X59625000Y-104525000D02*
X59625000Y-107665000D01*
X59500000Y-101800000D02*
X59550000Y-101850000D01*
X52900000Y-108650000D02*
X52750000Y-108500000D01*
D36*
X53900000Y-101580000D02*
X54430000Y-101580000D01*
X52250000Y-103062500D02*
X52250000Y-102230000D01*
X52250000Y-102230000D02*
X52900000Y-101580000D01*
D37*
X52750000Y-108500000D02*
X52750000Y-106937500D01*
X58780000Y-101800000D02*
X58780000Y-102230000D01*
D36*
%TO.N,/D0*%
X52250000Y-110250000D02*
X45080000Y-117420000D01*
X52250000Y-106937500D02*
X52250000Y-110250000D01*
X45080000Y-117420000D02*
X43000000Y-117420000D01*
%TO.N,/D1*%
X51750000Y-106937500D02*
X51750000Y-109250000D01*
X46120000Y-114880000D02*
X43000000Y-114880000D01*
X51750000Y-109250000D02*
X46120000Y-114880000D01*
%TO.N,/D2*%
X51250000Y-108317859D02*
X47227859Y-112340000D01*
X51250000Y-106937500D02*
X51250000Y-108317859D01*
X47227859Y-112340000D02*
X43000000Y-112340000D01*
%TO.N,/D3*%
X48700000Y-109800000D02*
X50750000Y-107750000D01*
X43000000Y-109800000D02*
X48700000Y-109800000D01*
X50750000Y-107750000D02*
X50750000Y-106937500D01*
D37*
%TO.N,/RST*%
X45800000Y-99950000D02*
X47250000Y-101400000D01*
X45800000Y-97360000D02*
X45800000Y-99950000D01*
X47250000Y-101400000D02*
X49200000Y-101400000D01*
D36*
X53937500Y-104750000D02*
X55664249Y-104750000D01*
X55664249Y-104750000D02*
X55789749Y-104624500D01*
D37*
X43000000Y-94560000D02*
X45800000Y-97360000D01*
D36*
%TO.N,/STP*%
X54397328Y-105750000D02*
X53937500Y-105750000D01*
X55500000Y-106852672D02*
X54397328Y-105750000D01*
X55500000Y-107000000D02*
X55500000Y-106852672D01*
D37*
%TO.N,/DIR*%
X53937500Y-106250000D02*
X53937500Y-106519112D01*
X53937500Y-106519112D02*
X55293979Y-107875591D01*
%TO.N,/NXT*%
X53250000Y-107700000D02*
X54100000Y-108550000D01*
X44650000Y-98500000D02*
X44399511Y-98249511D01*
X53250000Y-106937500D02*
X53250000Y-107700000D01*
X41609511Y-97335166D02*
X41609511Y-93169511D01*
X44399511Y-98249511D02*
X42523856Y-98249511D01*
X41609511Y-93169511D02*
X40460000Y-92020000D01*
X42523856Y-98249511D02*
X41609511Y-97335166D01*
D36*
%TO.N,/CLKOUT*%
X49200000Y-107900000D02*
X50062500Y-107037500D01*
X50062500Y-107037500D02*
X50062500Y-106250000D01*
%TO.N,Net-(D2-Pad1)*%
X49500000Y-86600000D02*
X51412500Y-86600000D01*
X51412500Y-86600000D02*
X52112500Y-85900000D01*
%TO.N,/D4*%
X49602672Y-105750000D02*
X48000000Y-107352672D01*
X50062500Y-105750000D02*
X49602672Y-105750000D01*
X48000000Y-107352672D02*
X48000000Y-108500000D01*
%TO.N,/D5*%
X50062500Y-105250000D02*
X49062054Y-105250000D01*
X49062054Y-105250000D02*
X47656027Y-106656027D01*
X47000000Y-107312054D02*
X47000000Y-108500000D01*
X47656027Y-106656027D02*
X47000000Y-107312054D01*
%TO.N,/D6*%
X46000000Y-107676336D02*
X46000000Y-108500000D01*
X50062500Y-104750000D02*
X48926336Y-104750000D01*
X48926336Y-104750000D02*
X46000000Y-107676336D01*
%TO.N,/D7*%
X48676336Y-104250000D02*
X44300847Y-108625489D01*
X50062500Y-104250000D02*
X48676336Y-104250000D01*
X44300847Y-108625489D02*
X41634511Y-108625489D01*
X41634511Y-108625489D02*
X40460000Y-109800000D01*
D38*
%TO.N,GND*%
X59200000Y-112300000D02*
X58300000Y-113200000D01*
D37*
X56210000Y-102540000D02*
X56400000Y-102350000D01*
X50330000Y-93400000D02*
X50100000Y-93400000D01*
D36*
X52900000Y-100620000D02*
X52900000Y-99850000D01*
D38*
X59200000Y-112087500D02*
X59200000Y-112300000D01*
D37*
X57775000Y-103075000D02*
X57150000Y-102450000D01*
D36*
X53900000Y-100620000D02*
X53900000Y-99900000D01*
D37*
X56210000Y-103100000D02*
X56210000Y-102540000D01*
X57775000Y-103075000D02*
X56235000Y-103075000D01*
X56235000Y-103075000D02*
X56210000Y-103100000D01*
X50050000Y-90400000D02*
X49700000Y-90750000D01*
X57000000Y-101800000D02*
X56950000Y-101750000D01*
X50330000Y-90400000D02*
X50050000Y-90400000D01*
D36*
X47500000Y-87250000D02*
X47500000Y-88600000D01*
X51900000Y-100620000D02*
X51900000Y-99900000D01*
D37*
X53655000Y-95350000D02*
X52500000Y-95350000D01*
X53655000Y-88850000D02*
X52600000Y-88850000D01*
D36*
X47500000Y-88600000D02*
X47200000Y-88900000D01*
D37*
X56180000Y-105400000D02*
X56500000Y-105400000D01*
X52500000Y-95350000D02*
X52400000Y-95450000D01*
X50100000Y-93400000D02*
X49750000Y-93750000D01*
X56500000Y-105400000D02*
X56800000Y-105700000D01*
X57820000Y-101800000D02*
X57000000Y-101800000D01*
X52600000Y-88850000D02*
X52450000Y-88700000D01*
D36*
%TO.N,Net-(JP1-Pad1)*%
X54675718Y-104250000D02*
X54925718Y-104000000D01*
X56650000Y-104350000D02*
X56750000Y-104450000D01*
X54925718Y-104000000D02*
X56650000Y-104000000D01*
X57250000Y-104000000D02*
X57775000Y-104525000D01*
X56650000Y-104000000D02*
X56650000Y-104350000D01*
X53937500Y-104250000D02*
X54675718Y-104250000D01*
X56650000Y-104000000D02*
X57250000Y-104000000D01*
%TO.N,Net-(C1-Pad1)*%
X51750000Y-101730000D02*
X51900000Y-101580000D01*
X51750000Y-103062500D02*
X51750000Y-101730000D01*
%TO.N,+1V8*%
X55070000Y-105250000D02*
X55220000Y-105400000D01*
X53937500Y-105250000D02*
X55070000Y-105250000D01*
D39*
%TO.N,/USB_D_P*%
X54568011Y-91363011D02*
X54568011Y-92301989D01*
X54568011Y-92301989D02*
X54520000Y-92350000D01*
X54555000Y-91350000D02*
X54568011Y-91363011D01*
X52003149Y-90992989D02*
X52467660Y-91457500D01*
D40*
X50288006Y-91224984D02*
X50513007Y-91224984D01*
D39*
X50738008Y-91224984D02*
X50970003Y-90992989D01*
D40*
X47667000Y-92480766D02*
X48715782Y-91431984D01*
D39*
X53080000Y-91350000D02*
X53655000Y-91350000D01*
D40*
X50857000Y-98129234D02*
X47667000Y-94939234D01*
D39*
X52467660Y-91457500D02*
X52972500Y-91457500D01*
X50513007Y-91224984D02*
X50738008Y-91224984D01*
D40*
X50750000Y-103062500D02*
X50857000Y-102955500D01*
D39*
X52972500Y-91457500D02*
X53080000Y-91350000D01*
D40*
X50081006Y-91431984D02*
X50288006Y-91224984D01*
D39*
X54520000Y-92350000D02*
X53655000Y-92350000D01*
D40*
X47667000Y-94939234D02*
X47667000Y-92480766D01*
D39*
X50970003Y-90992989D02*
X52003149Y-90992989D01*
X53655000Y-91350000D02*
X54555000Y-91350000D01*
D40*
X48715782Y-91431984D02*
X50081006Y-91431984D01*
X50857000Y-102955500D02*
X50857000Y-98129234D01*
D36*
%TO.N,Net-(P1-PadB5)*%
X52050000Y-90350000D02*
X51740000Y-90040000D01*
X51740000Y-90040000D02*
X51360000Y-90040000D01*
X53655000Y-90350000D02*
X52050000Y-90350000D01*
D39*
%TO.N,/USB_D_N*%
X50513007Y-91924984D02*
X50738008Y-91924984D01*
D40*
X47953000Y-94820766D02*
X47953000Y-92599234D01*
X52754000Y-92850000D02*
X52741489Y-92837489D01*
D39*
X52003149Y-92167011D02*
X52427660Y-91742500D01*
X50980035Y-92167011D02*
X52003149Y-92167011D01*
D40*
X50081006Y-91717984D02*
X50288006Y-91924984D01*
D39*
X52972500Y-91742500D02*
X53080000Y-91850000D01*
D40*
X52902978Y-91850000D02*
X53655000Y-91850000D01*
X47953000Y-92599234D02*
X48834250Y-91717984D01*
X52741489Y-92011489D02*
X52902978Y-91850000D01*
X51143000Y-98010766D02*
X47953000Y-94820766D01*
X50288006Y-91924984D02*
X50513007Y-91924984D01*
D39*
X50738008Y-91924984D02*
X50980035Y-92167011D01*
D40*
X48834250Y-91717984D02*
X50081006Y-91717984D01*
D39*
X53080000Y-91850000D02*
X53655000Y-91850000D01*
X52427660Y-91742500D02*
X52972500Y-91742500D01*
D40*
X53655000Y-92850000D02*
X52754000Y-92850000D01*
X52741489Y-92837489D02*
X52741489Y-92011489D01*
X51143000Y-102955500D02*
X51143000Y-98010766D01*
X51250000Y-103062500D02*
X51143000Y-102955500D01*
D37*
%TO.N,Net-(P1-PadA5)*%
X51400000Y-93350000D02*
X53655000Y-93350000D01*
X51350000Y-93400000D02*
X51400000Y-93350000D01*
%TO.N,VBUS*%
X54429022Y-89650000D02*
X53655000Y-89650000D01*
D38*
X51350000Y-88940000D02*
X51340000Y-88950000D01*
X51350000Y-88550000D02*
X50400000Y-87600000D01*
D37*
X55050000Y-90270978D02*
X54429022Y-89650000D01*
X53655000Y-94550000D02*
X54400000Y-94550000D01*
D38*
X51340000Y-88950000D02*
X51720000Y-89330000D01*
X51350000Y-88550000D02*
X51350000Y-88940000D01*
D37*
X55050000Y-93900000D02*
X55050000Y-90270978D01*
D38*
X52040000Y-89330000D02*
X52360000Y-89650000D01*
X52360000Y-89650000D02*
X53655000Y-89650000D01*
X51720000Y-89330000D02*
X52040000Y-89330000D01*
D37*
X54400000Y-94550000D02*
X55050000Y-93900000D01*
D36*
%TO.N,Net-(R1-Pad2)*%
X53937500Y-103750000D02*
X54540000Y-103750000D01*
X54540000Y-103750000D02*
X55190000Y-103100000D01*
D37*
%TO.N,Net-(R2-Pad1)*%
X49250000Y-89600000D02*
X49670000Y-89600000D01*
X54848327Y-102349511D02*
X54351673Y-102349511D01*
X49670000Y-89600000D02*
X50320000Y-88950000D01*
X54351673Y-102349511D02*
X54302162Y-102300000D01*
X55400000Y-101350000D02*
X55400000Y-101797838D01*
X52950000Y-102300000D02*
X52674520Y-102575480D01*
X52674520Y-102575480D02*
X52674520Y-102987020D01*
X55400000Y-101797838D02*
X54848327Y-102349511D01*
X54302162Y-102300000D02*
X52950000Y-102300000D01*
X52674520Y-102987020D02*
X52750000Y-103062500D01*
D38*
%TO.N,Net-(D1-Pad2)*%
X59200000Y-109110000D02*
X59200000Y-110512500D01*
D36*
%TO.N,Net-(D2-Pad2)*%
X53687500Y-85900000D02*
X54790000Y-85900000D01*
X54790000Y-85900000D02*
X54890000Y-86000000D01*
%TO.N,/USR_LED*%
X43000000Y-86940000D02*
X44970000Y-86940000D01*
X44970000Y-86940000D02*
X45500000Y-86410000D01*
%TO.N,Net-(Q1-Pad1)*%
X45500000Y-85390000D02*
X46940000Y-85390000D01*
X46940000Y-85390000D02*
X47500000Y-85950000D01*
%TD*%
%TA.AperFunction,Conductor*%
%TO.N,GND*%
G36*
X44921509Y-84528002D02*
G01*
X44968002Y-84581658D01*
X44978106Y-84651932D01*
X44948612Y-84716512D01*
X44929585Y-84732354D01*
X44930549Y-84733597D01*
X44924280Y-84738460D01*
X44917459Y-84742494D01*
X44802494Y-84857459D01*
X44798460Y-84864280D01*
X44727338Y-84984542D01*
X44719731Y-84997404D01*
X44717520Y-85005015D01*
X44717519Y-85005017D01*
X44697991Y-85072232D01*
X44674371Y-85153534D01*
X44673867Y-85159941D01*
X44673866Y-85159945D01*
X44671804Y-85186147D01*
X44671500Y-85190011D01*
X44671501Y-85589988D01*
X44674371Y-85626466D01*
X44719731Y-85782596D01*
X44723767Y-85789421D01*
X44723769Y-85789425D01*
X44751231Y-85835861D01*
X44768691Y-85904677D01*
X44751231Y-85964139D01*
X44723769Y-86010575D01*
X44723767Y-86010579D01*
X44719731Y-86017404D01*
X44717520Y-86025015D01*
X44717519Y-86025017D01*
X44710456Y-86049328D01*
X44674371Y-86173534D01*
X44673867Y-86179943D01*
X44673866Y-86179946D01*
X44673045Y-86190383D01*
X44647761Y-86256725D01*
X44590624Y-86298866D01*
X44547433Y-86306500D01*
X44276805Y-86306500D01*
X44208684Y-86286498D01*
X44171013Y-86248940D01*
X44082822Y-86112617D01*
X44082820Y-86112614D01*
X44080014Y-86108277D01*
X43929670Y-85943051D01*
X43925619Y-85939852D01*
X43925615Y-85939848D01*
X43758414Y-85807800D01*
X43758410Y-85807798D01*
X43754359Y-85804598D01*
X43558789Y-85696638D01*
X43553920Y-85694914D01*
X43553916Y-85694912D01*
X43353087Y-85623795D01*
X43353083Y-85623794D01*
X43348212Y-85622069D01*
X43343119Y-85621162D01*
X43343116Y-85621161D01*
X43133373Y-85583800D01*
X43133367Y-85583799D01*
X43128284Y-85582894D01*
X43054452Y-85581992D01*
X42910081Y-85580228D01*
X42910079Y-85580228D01*
X42904911Y-85580165D01*
X42684091Y-85613955D01*
X42471756Y-85683357D01*
X42273607Y-85786507D01*
X42269474Y-85789610D01*
X42269471Y-85789612D01*
X42122448Y-85900000D01*
X42094965Y-85920635D01*
X42042150Y-85975903D01*
X41979379Y-86041589D01*
X41940629Y-86082138D01*
X41833201Y-86239621D01*
X41778293Y-86284621D01*
X41707768Y-86292792D01*
X41644021Y-86261538D01*
X41623324Y-86237054D01*
X41542822Y-86112617D01*
X41542820Y-86112614D01*
X41540014Y-86108277D01*
X41389670Y-85943051D01*
X41385619Y-85939852D01*
X41385615Y-85939848D01*
X41218414Y-85807800D01*
X41218410Y-85807798D01*
X41214359Y-85804598D01*
X41018789Y-85696638D01*
X41013920Y-85694914D01*
X41013916Y-85694912D01*
X40813087Y-85623795D01*
X40813083Y-85623794D01*
X40808212Y-85622069D01*
X40803119Y-85621162D01*
X40803116Y-85621161D01*
X40593373Y-85583800D01*
X40593367Y-85583799D01*
X40588284Y-85582894D01*
X40514452Y-85581992D01*
X40370081Y-85580228D01*
X40370079Y-85580228D01*
X40364911Y-85580165D01*
X40144091Y-85613955D01*
X39931756Y-85683357D01*
X39733607Y-85786507D01*
X39729474Y-85789610D01*
X39729471Y-85789612D01*
X39582448Y-85900000D01*
X39554965Y-85920635D01*
X39502150Y-85975903D01*
X39439379Y-86041589D01*
X39400629Y-86082138D01*
X39274743Y-86266680D01*
X39259803Y-86298866D01*
X39189919Y-86449419D01*
X39180688Y-86469305D01*
X39120989Y-86684570D01*
X39097251Y-86906695D01*
X39097548Y-86911848D01*
X39097548Y-86911851D01*
X39107428Y-87083207D01*
X39110110Y-87129715D01*
X39111247Y-87134761D01*
X39111248Y-87134767D01*
X39127945Y-87208856D01*
X39159222Y-87347639D01*
X39183390Y-87407158D01*
X39239570Y-87545513D01*
X39243266Y-87554616D01*
X39292285Y-87634608D01*
X39357291Y-87740688D01*
X39359987Y-87745088D01*
X39506250Y-87913938D01*
X39650866Y-88034000D01*
X39660949Y-88042371D01*
X39678126Y-88056632D01*
X39714726Y-88078019D01*
X39751445Y-88099476D01*
X39800169Y-88151114D01*
X39813240Y-88220897D01*
X39786509Y-88286669D01*
X39746055Y-88320027D01*
X39733607Y-88326507D01*
X39729474Y-88329610D01*
X39729471Y-88329612D01*
X39559100Y-88457530D01*
X39554965Y-88460635D01*
X39506219Y-88511645D01*
X39441727Y-88579132D01*
X39400629Y-88622138D01*
X39397720Y-88626403D01*
X39397714Y-88626411D01*
X39370294Y-88666607D01*
X39274743Y-88806680D01*
X39180688Y-89009305D01*
X39120989Y-89224570D01*
X39097251Y-89446695D01*
X39097548Y-89451848D01*
X39097548Y-89451851D01*
X39103011Y-89546590D01*
X39110110Y-89669715D01*
X39111247Y-89674761D01*
X39111248Y-89674767D01*
X39127696Y-89747751D01*
X39159222Y-89887639D01*
X39243266Y-90094616D01*
X39294019Y-90177438D01*
X39357291Y-90280688D01*
X39359987Y-90285088D01*
X39506250Y-90453938D01*
X39678126Y-90596632D01*
X39739093Y-90632258D01*
X39751445Y-90639476D01*
X39800169Y-90691114D01*
X39813240Y-90760897D01*
X39786509Y-90826669D01*
X39746055Y-90860027D01*
X39733607Y-90866507D01*
X39729474Y-90869610D01*
X39729471Y-90869612D01*
X39559100Y-90997530D01*
X39554965Y-91000635D01*
X39400629Y-91162138D01*
X39274743Y-91346680D01*
X39180688Y-91549305D01*
X39120989Y-91764570D01*
X39097251Y-91986695D01*
X39097548Y-91991848D01*
X39097548Y-91991851D01*
X39103202Y-92089908D01*
X39110110Y-92209715D01*
X39111247Y-92214761D01*
X39111248Y-92214767D01*
X39131119Y-92302939D01*
X39159222Y-92427639D01*
X39243266Y-92634616D01*
X39359987Y-92825088D01*
X39506250Y-92993938D01*
X39678126Y-93136632D01*
X39701022Y-93150011D01*
X39751445Y-93179476D01*
X39800169Y-93231114D01*
X39813240Y-93300897D01*
X39786509Y-93366669D01*
X39746055Y-93400027D01*
X39733607Y-93406507D01*
X39729474Y-93409610D01*
X39729471Y-93409612D01*
X39705247Y-93427800D01*
X39554965Y-93540635D01*
X39551393Y-93544373D01*
X39415606Y-93686466D01*
X39400629Y-93702138D01*
X39274743Y-93886680D01*
X39240069Y-93961379D01*
X39207215Y-94032158D01*
X39180688Y-94089305D01*
X39120989Y-94304570D01*
X39097251Y-94526695D01*
X39097548Y-94531848D01*
X39097548Y-94531851D01*
X39103011Y-94626590D01*
X39110110Y-94749715D01*
X39111247Y-94754761D01*
X39111248Y-94754767D01*
X39131119Y-94842939D01*
X39159222Y-94967639D01*
X39243266Y-95174616D01*
X39266948Y-95213261D01*
X39356147Y-95358821D01*
X39359987Y-95365088D01*
X39363367Y-95368990D01*
X39370544Y-95377275D01*
X39506250Y-95533938D01*
X39678126Y-95676632D01*
X39708064Y-95694126D01*
X39751955Y-95719774D01*
X39800679Y-95771412D01*
X39813750Y-95841195D01*
X39787019Y-95906967D01*
X39746562Y-95940327D01*
X39738457Y-95944546D01*
X39729738Y-95950036D01*
X39559433Y-96077905D01*
X39551726Y-96084748D01*
X39404590Y-96238717D01*
X39398104Y-96246727D01*
X39278098Y-96422649D01*
X39273000Y-96431623D01*
X39183338Y-96624783D01*
X39179775Y-96634470D01*
X39124389Y-96834183D01*
X39125912Y-96842607D01*
X39138292Y-96846000D01*
X40875011Y-96846000D01*
X40943132Y-96866002D01*
X40989625Y-96919658D01*
X41001011Y-96972000D01*
X41001011Y-97228000D01*
X40981009Y-97296121D01*
X40927353Y-97342614D01*
X40875011Y-97354000D01*
X39143225Y-97354000D01*
X39129694Y-97357973D01*
X39128257Y-97367966D01*
X39158565Y-97502446D01*
X39161645Y-97512275D01*
X39241770Y-97709603D01*
X39246413Y-97718794D01*
X39357694Y-97900388D01*
X39363777Y-97908699D01*
X39503213Y-98069667D01*
X39510580Y-98076883D01*
X39674434Y-98212916D01*
X39682881Y-98218831D01*
X39751969Y-98259203D01*
X39800693Y-98310842D01*
X39813764Y-98380625D01*
X39787033Y-98446396D01*
X39746584Y-98479752D01*
X39733607Y-98486507D01*
X39729474Y-98489610D01*
X39729471Y-98489612D01*
X39559100Y-98617530D01*
X39554965Y-98620635D01*
X39400629Y-98782138D01*
X39274743Y-98966680D01*
X39180688Y-99169305D01*
X39120989Y-99384570D01*
X39097251Y-99606695D01*
X39097548Y-99611848D01*
X39097548Y-99611851D01*
X39109812Y-99824547D01*
X39110110Y-99829715D01*
X39111247Y-99834761D01*
X39111248Y-99834767D01*
X39126367Y-99901851D01*
X39159222Y-100047639D01*
X39243266Y-100254616D01*
X39294019Y-100337438D01*
X39357291Y-100440688D01*
X39359987Y-100445088D01*
X39506250Y-100613938D01*
X39678126Y-100756632D01*
X39736884Y-100790967D01*
X39751445Y-100799476D01*
X39800169Y-100851114D01*
X39813240Y-100920897D01*
X39786509Y-100986669D01*
X39746055Y-101020027D01*
X39733607Y-101026507D01*
X39729474Y-101029610D01*
X39729471Y-101029612D01*
X39617727Y-101113512D01*
X39554965Y-101160635D01*
X39400629Y-101322138D01*
X39397720Y-101326403D01*
X39397714Y-101326411D01*
X39347515Y-101400000D01*
X39274743Y-101506680D01*
X39180688Y-101709305D01*
X39120989Y-101924570D01*
X39097251Y-102146695D01*
X39097548Y-102151848D01*
X39097548Y-102151851D01*
X39109340Y-102356358D01*
X39110110Y-102369715D01*
X39111247Y-102374761D01*
X39111248Y-102374767D01*
X39124626Y-102434128D01*
X39159222Y-102587639D01*
X39243266Y-102794616D01*
X39294019Y-102877438D01*
X39357291Y-102980688D01*
X39359987Y-102985088D01*
X39506250Y-103153938D01*
X39647398Y-103271121D01*
X39666297Y-103286811D01*
X39678126Y-103296632D01*
X39738025Y-103331634D01*
X39751445Y-103339476D01*
X39800169Y-103391114D01*
X39813240Y-103460897D01*
X39786509Y-103526669D01*
X39746055Y-103560027D01*
X39733607Y-103566507D01*
X39729474Y-103569610D01*
X39729471Y-103569612D01*
X39559100Y-103697530D01*
X39554965Y-103700635D01*
X39551393Y-103704373D01*
X39460010Y-103800000D01*
X39400629Y-103862138D01*
X39397720Y-103866403D01*
X39397714Y-103866411D01*
X39382798Y-103888277D01*
X39274743Y-104046680D01*
X39180688Y-104249305D01*
X39120989Y-104464570D01*
X39097251Y-104686695D01*
X39097548Y-104691848D01*
X39097548Y-104691851D01*
X39106663Y-104849925D01*
X39110110Y-104909715D01*
X39111247Y-104914761D01*
X39111248Y-104914767D01*
X39128298Y-104990420D01*
X39159222Y-105127639D01*
X39197461Y-105221811D01*
X39230710Y-105303693D01*
X39243266Y-105334616D01*
X39285161Y-105402982D01*
X39357291Y-105520688D01*
X39359987Y-105525088D01*
X39506250Y-105693938D01*
X39678126Y-105836632D01*
X39707865Y-105854010D01*
X39751445Y-105879476D01*
X39800169Y-105931114D01*
X39813240Y-106000897D01*
X39786509Y-106066669D01*
X39746055Y-106100027D01*
X39733607Y-106106507D01*
X39729474Y-106109610D01*
X39729471Y-106109612D01*
X39585237Y-106217906D01*
X39554965Y-106240635D01*
X39400629Y-106402138D01*
X39397720Y-106406403D01*
X39397714Y-106406411D01*
X39344645Y-106484207D01*
X39274743Y-106586680D01*
X39180688Y-106789305D01*
X39120989Y-107004570D01*
X39097251Y-107226695D01*
X39097548Y-107231848D01*
X39097548Y-107231851D01*
X39104794Y-107357519D01*
X39110110Y-107449715D01*
X39111247Y-107454761D01*
X39111248Y-107454767D01*
X39135304Y-107561508D01*
X39159222Y-107667639D01*
X39202586Y-107774432D01*
X39234706Y-107853534D01*
X39243266Y-107874616D01*
X39359987Y-108065088D01*
X39506250Y-108233938D01*
X39678126Y-108376632D01*
X39705627Y-108392702D01*
X39751445Y-108419476D01*
X39800169Y-108471114D01*
X39813240Y-108540897D01*
X39786509Y-108606669D01*
X39746055Y-108640027D01*
X39733607Y-108646507D01*
X39729474Y-108649610D01*
X39729471Y-108649612D01*
X39559100Y-108777530D01*
X39554965Y-108780635D01*
X39400629Y-108942138D01*
X39397715Y-108946410D01*
X39397714Y-108946411D01*
X39345763Y-109022568D01*
X39274743Y-109126680D01*
X39237252Y-109207448D01*
X39183260Y-109323765D01*
X39180688Y-109329305D01*
X39120989Y-109544570D01*
X39097251Y-109766695D01*
X39097548Y-109771848D01*
X39097548Y-109771851D01*
X39105180Y-109904208D01*
X39110110Y-109989715D01*
X39111247Y-109994761D01*
X39111248Y-109994767D01*
X39135304Y-110101508D01*
X39159222Y-110207639D01*
X39211514Y-110336419D01*
X39232290Y-110387584D01*
X39243266Y-110414616D01*
X39286434Y-110485060D01*
X39357291Y-110600688D01*
X39359987Y-110605088D01*
X39506250Y-110773938D01*
X39678126Y-110916632D01*
X39748595Y-110957811D01*
X39751445Y-110959476D01*
X39800169Y-111011114D01*
X39813240Y-111080897D01*
X39786509Y-111146669D01*
X39746055Y-111180027D01*
X39733607Y-111186507D01*
X39729474Y-111189610D01*
X39729471Y-111189612D01*
X39705247Y-111207800D01*
X39554965Y-111320635D01*
X39400629Y-111482138D01*
X39397720Y-111486403D01*
X39397714Y-111486411D01*
X39379838Y-111512617D01*
X39274743Y-111666680D01*
X39246646Y-111727210D01*
X39198084Y-111831829D01*
X39180688Y-111869305D01*
X39120989Y-112084570D01*
X39097251Y-112306695D01*
X39097548Y-112311848D01*
X39097548Y-112311851D01*
X39105386Y-112447790D01*
X39110110Y-112529715D01*
X39111247Y-112534761D01*
X39111248Y-112534767D01*
X39116069Y-112556157D01*
X39159222Y-112747639D01*
X39243266Y-112954616D01*
X39282997Y-113019452D01*
X39357291Y-113140688D01*
X39359987Y-113145088D01*
X39506250Y-113313938D01*
X39678126Y-113456632D01*
X39748595Y-113497811D01*
X39751445Y-113499476D01*
X39800169Y-113551114D01*
X39813240Y-113620897D01*
X39786509Y-113686669D01*
X39746055Y-113720027D01*
X39733607Y-113726507D01*
X39729474Y-113729610D01*
X39729471Y-113729612D01*
X39587456Y-113836240D01*
X39554965Y-113860635D01*
X39400629Y-114022138D01*
X39274743Y-114206680D01*
X39257596Y-114243621D01*
X39194242Y-114380106D01*
X39180688Y-114409305D01*
X39120989Y-114624570D01*
X39097251Y-114846695D01*
X39097548Y-114851848D01*
X39097548Y-114851851D01*
X39103366Y-114952746D01*
X39110110Y-115069715D01*
X39111247Y-115074761D01*
X39111248Y-115074767D01*
X39114752Y-115090314D01*
X39159222Y-115287639D01*
X39197461Y-115381811D01*
X39237604Y-115480671D01*
X39243266Y-115494616D01*
X39292285Y-115574608D01*
X39357291Y-115680688D01*
X39359987Y-115685088D01*
X39506250Y-115853938D01*
X39678126Y-115996632D01*
X39715648Y-116018558D01*
X39751445Y-116039476D01*
X39800169Y-116091114D01*
X39813240Y-116160897D01*
X39786509Y-116226669D01*
X39746055Y-116260027D01*
X39733607Y-116266507D01*
X39729474Y-116269610D01*
X39729471Y-116269612D01*
X39705247Y-116287800D01*
X39554965Y-116400635D01*
X39400629Y-116562138D01*
X39274743Y-116746680D01*
X39180688Y-116949305D01*
X39120989Y-117164570D01*
X39097251Y-117386695D01*
X39110110Y-117609715D01*
X39111247Y-117614761D01*
X39111248Y-117614767D01*
X39135304Y-117721508D01*
X39159222Y-117827639D01*
X39219014Y-117974890D01*
X39236662Y-118018351D01*
X39243266Y-118034616D01*
X39292285Y-118114608D01*
X39357291Y-118220688D01*
X39359987Y-118225088D01*
X39506250Y-118393938D01*
X39678126Y-118536632D01*
X39751955Y-118579774D01*
X39800679Y-118631412D01*
X39813750Y-118701195D01*
X39787019Y-118766967D01*
X39746562Y-118800327D01*
X39738457Y-118804546D01*
X39729738Y-118810036D01*
X39559433Y-118937905D01*
X39551726Y-118944748D01*
X39404590Y-119098717D01*
X39398104Y-119106727D01*
X39278098Y-119282649D01*
X39273000Y-119291623D01*
X39183338Y-119484783D01*
X39179775Y-119494470D01*
X39124389Y-119694183D01*
X39125912Y-119702607D01*
X39138292Y-119706000D01*
X44318344Y-119706000D01*
X44331875Y-119702027D01*
X44333180Y-119692947D01*
X44291214Y-119525875D01*
X44287894Y-119516124D01*
X44202972Y-119320814D01*
X44198105Y-119311739D01*
X44082426Y-119132926D01*
X44076136Y-119124757D01*
X43932806Y-118967240D01*
X43925273Y-118960215D01*
X43758139Y-118828222D01*
X43749556Y-118822520D01*
X43712602Y-118802120D01*
X43662631Y-118751687D01*
X43647859Y-118682245D01*
X43672975Y-118615839D01*
X43700327Y-118589232D01*
X43723797Y-118572491D01*
X43879860Y-118461173D01*
X44038096Y-118303489D01*
X44097594Y-118220689D01*
X44165435Y-118126277D01*
X44168453Y-118122077D01*
X44170746Y-118117437D01*
X44172446Y-118114608D01*
X44224674Y-118066518D01*
X44280451Y-118053500D01*
X45001233Y-118053500D01*
X45012416Y-118054027D01*
X45019909Y-118055702D01*
X45027835Y-118055453D01*
X45027836Y-118055453D01*
X45087986Y-118053562D01*
X45091945Y-118053500D01*
X45119856Y-118053500D01*
X45123791Y-118053003D01*
X45123856Y-118052995D01*
X45135693Y-118052062D01*
X45167951Y-118051048D01*
X45171970Y-118050922D01*
X45179889Y-118050673D01*
X45199343Y-118045021D01*
X45218700Y-118041013D01*
X45230930Y-118039468D01*
X45230931Y-118039468D01*
X45238797Y-118038474D01*
X45246168Y-118035555D01*
X45246170Y-118035555D01*
X45279912Y-118022196D01*
X45291142Y-118018351D01*
X45325983Y-118008229D01*
X45325984Y-118008229D01*
X45333593Y-118006018D01*
X45340412Y-118001985D01*
X45340417Y-118001983D01*
X45351028Y-117995707D01*
X45368776Y-117987012D01*
X45387617Y-117979552D01*
X45423387Y-117953564D01*
X45433307Y-117947048D01*
X45464535Y-117928580D01*
X45464538Y-117928578D01*
X45471362Y-117924542D01*
X45485683Y-117910221D01*
X45500717Y-117897380D01*
X45510694Y-117890131D01*
X45517107Y-117885472D01*
X45545298Y-117851395D01*
X45553288Y-117842616D01*
X47902129Y-115493775D01*
X54379937Y-115493775D01*
X54381688Y-115503359D01*
X54423357Y-115646784D01*
X54429604Y-115661220D01*
X54504876Y-115788499D01*
X54514516Y-115800926D01*
X54619074Y-115905484D01*
X54631501Y-115915124D01*
X54758780Y-115990396D01*
X54773216Y-115996643D01*
X54893605Y-116031619D01*
X54907705Y-116031579D01*
X54911000Y-116024309D01*
X54911000Y-115497115D01*
X54906525Y-115481876D01*
X54905135Y-115480671D01*
X54897452Y-115479000D01*
X54396576Y-115479000D01*
X54381781Y-115483344D01*
X54379937Y-115493775D01*
X47902129Y-115493775D01*
X49229402Y-114166502D01*
X53411500Y-114166502D01*
X53411693Y-114168950D01*
X53411693Y-114168958D01*
X53412331Y-114177054D01*
X53414438Y-114203831D01*
X53460855Y-114363601D01*
X53464892Y-114370427D01*
X53541509Y-114499980D01*
X53541511Y-114499983D01*
X53545547Y-114506807D01*
X53663193Y-114624453D01*
X53670017Y-114628489D01*
X53670020Y-114628491D01*
X53713781Y-114654371D01*
X53806399Y-114709145D01*
X53814010Y-114711356D01*
X53814012Y-114711357D01*
X53847418Y-114721062D01*
X53966169Y-114755562D01*
X53972574Y-114756066D01*
X53972579Y-114756067D01*
X54001042Y-114758307D01*
X54001050Y-114758307D01*
X54003498Y-114758500D01*
X54268532Y-114758500D01*
X54336653Y-114778502D01*
X54383146Y-114832158D01*
X54393250Y-114902432D01*
X54389528Y-114919655D01*
X54381688Y-114946638D01*
X54380232Y-114954609D01*
X54383052Y-114968031D01*
X54394513Y-114971000D01*
X54892885Y-114971000D01*
X54908124Y-114966525D01*
X54909329Y-114965135D01*
X54911000Y-114957452D01*
X54911000Y-114513298D01*
X54928547Y-114449159D01*
X54975107Y-114370430D01*
X54975109Y-114370426D01*
X54979145Y-114363601D01*
X55025562Y-114203831D01*
X55027670Y-114177054D01*
X55028307Y-114168958D01*
X55028307Y-114168950D01*
X55028500Y-114166502D01*
X55028500Y-113059020D01*
X55048502Y-112990899D01*
X55102158Y-112944406D01*
X55154500Y-112933020D01*
X55185500Y-112933020D01*
X55253621Y-112953022D01*
X55300114Y-113006678D01*
X55311500Y-113059020D01*
X55311500Y-114166502D01*
X55311693Y-114168950D01*
X55311693Y-114168958D01*
X55312331Y-114177054D01*
X55314438Y-114203831D01*
X55360855Y-114363601D01*
X55364891Y-114370426D01*
X55364893Y-114370430D01*
X55401453Y-114432250D01*
X55419000Y-114496389D01*
X55419000Y-114703621D01*
X55401454Y-114767760D01*
X55385106Y-114795403D01*
X55339394Y-114952746D01*
X55338890Y-114959151D01*
X55338889Y-114959156D01*
X55338191Y-114968031D01*
X55336500Y-114989516D01*
X55336500Y-115460484D01*
X55336693Y-115462932D01*
X55336693Y-115462940D01*
X55338810Y-115489829D01*
X55339394Y-115497254D01*
X55385106Y-115654597D01*
X55389141Y-115661419D01*
X55389141Y-115661420D01*
X55401454Y-115682240D01*
X55419000Y-115746379D01*
X55419000Y-116018558D01*
X55422973Y-116032089D01*
X55430871Y-116033224D01*
X55556784Y-115996643D01*
X55571222Y-115990395D01*
X55580372Y-115984984D01*
X55649188Y-115967526D01*
X55708647Y-115984985D01*
X55716531Y-115989647D01*
X55725403Y-115994894D01*
X55733014Y-115997105D01*
X55733016Y-115997106D01*
X55783995Y-116011916D01*
X55882746Y-116040606D01*
X55889151Y-116041110D01*
X55889156Y-116041111D01*
X55917060Y-116043307D01*
X55917068Y-116043307D01*
X55919516Y-116043500D01*
X56330484Y-116043500D01*
X56332932Y-116043307D01*
X56332940Y-116043307D01*
X56360844Y-116041111D01*
X56360849Y-116041110D01*
X56367254Y-116040606D01*
X56466005Y-116011916D01*
X56516984Y-115997106D01*
X56516986Y-115997105D01*
X56524597Y-115994894D01*
X56532205Y-115990395D01*
X56658808Y-115915522D01*
X56665629Y-115911488D01*
X56781488Y-115795629D01*
X56864894Y-115654597D01*
X56879053Y-115605860D01*
X56917266Y-115546026D01*
X56961114Y-115521181D01*
X57124409Y-115468124D01*
X57124412Y-115468123D01*
X57131108Y-115465947D01*
X57227513Y-115408478D01*
X57280860Y-115376677D01*
X57280862Y-115376676D01*
X57286912Y-115373069D01*
X57418266Y-115247982D01*
X57518643Y-115096902D01*
X57568697Y-114965135D01*
X57580555Y-114933920D01*
X57580556Y-114933918D01*
X57583055Y-114927338D01*
X57602556Y-114788580D01*
X57607748Y-114751639D01*
X57607748Y-114751636D01*
X57608299Y-114747717D01*
X57608616Y-114725000D01*
X57588397Y-114544745D01*
X57571558Y-114496389D01*
X57531064Y-114380106D01*
X57531062Y-114380103D01*
X57528745Y-114373448D01*
X57432626Y-114219624D01*
X57427664Y-114214627D01*
X57309778Y-114095915D01*
X57309774Y-114095912D01*
X57304815Y-114090918D01*
X57151666Y-113993727D01*
X57112253Y-113979693D01*
X57012233Y-113944077D01*
X56954769Y-113902383D01*
X56928969Y-113836240D01*
X56928500Y-113825378D01*
X56928500Y-113008498D01*
X56927115Y-112990899D01*
X56926067Y-112977579D01*
X56926066Y-112977574D01*
X56925562Y-112971169D01*
X56896528Y-112871231D01*
X56881357Y-112819012D01*
X56881356Y-112819010D01*
X56879145Y-112811399D01*
X56844268Y-112752425D01*
X56798491Y-112675020D01*
X56798489Y-112675017D01*
X56794453Y-112668193D01*
X56676807Y-112550547D01*
X56672998Y-112548294D01*
X56632345Y-112492004D01*
X56628494Y-112421112D01*
X56663582Y-112359391D01*
X56669433Y-112354321D01*
X58217158Y-112354321D01*
X58217337Y-112357782D01*
X58226804Y-112449021D01*
X58229697Y-112462417D01*
X58278830Y-112609687D01*
X58285004Y-112622866D01*
X58366470Y-112754514D01*
X58375506Y-112765915D01*
X58485080Y-112875298D01*
X58496491Y-112884310D01*
X58628291Y-112965553D01*
X58641468Y-112971697D01*
X58788843Y-113020579D01*
X58802210Y-113023445D01*
X58892270Y-113032672D01*
X58898685Y-113033000D01*
X58927885Y-113033000D01*
X58943124Y-113028525D01*
X58944329Y-113027135D01*
X58946000Y-113019452D01*
X58946000Y-113014885D01*
X59454000Y-113014885D01*
X59458475Y-113030124D01*
X59459865Y-113031329D01*
X59467548Y-113033000D01*
X59501266Y-113033000D01*
X59507782Y-113032663D01*
X59599021Y-113023196D01*
X59612417Y-113020303D01*
X59759687Y-112971170D01*
X59772866Y-112964996D01*
X59904514Y-112883530D01*
X59915915Y-112874494D01*
X60025298Y-112764920D01*
X60034310Y-112753509D01*
X60115553Y-112621709D01*
X60121697Y-112608532D01*
X60170579Y-112461157D01*
X60173445Y-112447790D01*
X60182614Y-112358300D01*
X60178525Y-112344376D01*
X60177135Y-112343171D01*
X60169452Y-112341500D01*
X59472115Y-112341500D01*
X59456876Y-112345975D01*
X59455671Y-112347365D01*
X59454000Y-112355048D01*
X59454000Y-113014885D01*
X58946000Y-113014885D01*
X58946000Y-112359615D01*
X58941525Y-112344376D01*
X58940135Y-112343171D01*
X58932452Y-112341500D01*
X58235115Y-112341500D01*
X58219876Y-112345975D01*
X58218671Y-112347365D01*
X58217158Y-112354321D01*
X56669433Y-112354321D01*
X56671276Y-112352724D01*
X56676807Y-112349453D01*
X56794453Y-112231807D01*
X56798489Y-112224983D01*
X56798491Y-112224980D01*
X56875108Y-112095427D01*
X56879145Y-112088601D01*
X56881764Y-112079588D01*
X56923767Y-111935008D01*
X56925562Y-111928831D01*
X56928500Y-111891502D01*
X56928500Y-110733498D01*
X56925562Y-110696169D01*
X56923768Y-110689992D01*
X56914343Y-110657553D01*
X56909258Y-110640050D01*
X56908274Y-110577370D01*
X56908055Y-110577339D01*
X56908251Y-110575942D01*
X56909401Y-110567765D01*
X56919682Y-110494608D01*
X56924711Y-110458820D01*
X56941031Y-110412220D01*
X56989894Y-110329597D01*
X56995653Y-110309776D01*
X57014347Y-110245428D01*
X57035606Y-110172254D01*
X57036817Y-110156876D01*
X57038307Y-110137940D01*
X57038307Y-110137932D01*
X57038500Y-110135484D01*
X57038500Y-109664516D01*
X57038307Y-109662060D01*
X57036111Y-109634156D01*
X57036110Y-109634151D01*
X57035606Y-109627746D01*
X56989894Y-109470403D01*
X56917291Y-109347637D01*
X56910522Y-109336192D01*
X56906488Y-109329371D01*
X56790629Y-109213512D01*
X56728725Y-109176902D01*
X56656420Y-109134141D01*
X56656419Y-109134141D01*
X56649597Y-109130106D01*
X56641986Y-109127895D01*
X56641984Y-109127894D01*
X56591005Y-109113084D01*
X56492254Y-109084394D01*
X56485849Y-109083890D01*
X56485844Y-109083889D01*
X56457940Y-109081693D01*
X56457932Y-109081693D01*
X56455484Y-109081500D01*
X56379773Y-109081500D01*
X56337515Y-109072054D01*
X56337032Y-109073542D01*
X56329487Y-109071090D01*
X56322318Y-109067717D01*
X56314535Y-109066232D01*
X56314534Y-109066232D01*
X56172879Y-109039210D01*
X56172878Y-109039210D01*
X56165094Y-109037725D01*
X56076600Y-109043292D01*
X56013262Y-109047277D01*
X56013260Y-109047277D01*
X56005350Y-109047775D01*
X55997814Y-109050224D01*
X55997812Y-109050224D01*
X55860667Y-109094785D01*
X55860664Y-109094786D01*
X55853125Y-109097236D01*
X55810827Y-109124079D01*
X55742596Y-109143690D01*
X55693279Y-109133331D01*
X55681784Y-109128357D01*
X55561395Y-109093381D01*
X55547295Y-109093421D01*
X55544000Y-109100691D01*
X55544000Y-109378621D01*
X55526454Y-109442760D01*
X55510106Y-109470403D01*
X55464394Y-109627746D01*
X55463890Y-109634151D01*
X55463889Y-109634156D01*
X55461693Y-109662060D01*
X55461500Y-109664516D01*
X55461500Y-109867125D01*
X55441411Y-109935380D01*
X55406395Y-109989715D01*
X55391235Y-110013238D01*
X55388826Y-110019858D01*
X55388824Y-110019861D01*
X55331606Y-110177066D01*
X55329197Y-110183685D01*
X55306463Y-110363640D01*
X55324163Y-110544160D01*
X55326386Y-110550841D01*
X55330158Y-110562181D01*
X55331597Y-110637107D01*
X55314438Y-110696169D01*
X55311500Y-110733498D01*
X55311500Y-111440500D01*
X55291498Y-111508621D01*
X55237842Y-111555114D01*
X55185500Y-111566500D01*
X55154500Y-111566500D01*
X55086379Y-111546498D01*
X55039886Y-111492842D01*
X55028500Y-111440500D01*
X55028500Y-110733498D01*
X55025562Y-110696169D01*
X54990633Y-110575942D01*
X54981357Y-110544012D01*
X54981356Y-110544010D01*
X54979145Y-110536399D01*
X54933547Y-110459297D01*
X54916000Y-110395158D01*
X54916000Y-110172115D01*
X54911525Y-110156876D01*
X54910135Y-110155671D01*
X54902452Y-110154000D01*
X54524676Y-110154000D01*
X54489523Y-110148997D01*
X54480008Y-110146232D01*
X54480003Y-110146231D01*
X54473831Y-110144438D01*
X54467426Y-110143934D01*
X54467421Y-110143933D01*
X54438958Y-110141693D01*
X54438950Y-110141693D01*
X54436502Y-110141500D01*
X54003498Y-110141500D01*
X54001050Y-110141693D01*
X54001042Y-110141693D01*
X53972579Y-110143933D01*
X53972574Y-110143934D01*
X53966169Y-110144438D01*
X53870903Y-110172115D01*
X53814012Y-110188643D01*
X53814010Y-110188644D01*
X53806399Y-110190855D01*
X53799572Y-110194892D01*
X53799573Y-110194892D01*
X53670020Y-110271509D01*
X53670017Y-110271511D01*
X53663193Y-110275547D01*
X53545547Y-110393193D01*
X53541511Y-110400017D01*
X53541509Y-110400020D01*
X53506453Y-110459297D01*
X53460855Y-110536399D01*
X53458644Y-110544010D01*
X53458643Y-110544012D01*
X53449367Y-110575942D01*
X53414438Y-110696169D01*
X53411500Y-110733498D01*
X53411500Y-111891502D01*
X53414438Y-111928831D01*
X53416233Y-111935008D01*
X53458237Y-112079588D01*
X53460855Y-112088601D01*
X53464892Y-112095427D01*
X53541509Y-112224980D01*
X53541511Y-112224983D01*
X53545547Y-112231807D01*
X53663193Y-112349453D01*
X53667002Y-112351706D01*
X53707655Y-112407996D01*
X53711506Y-112478888D01*
X53676418Y-112540609D01*
X53668724Y-112547276D01*
X53663193Y-112550547D01*
X53545547Y-112668193D01*
X53541511Y-112675017D01*
X53541509Y-112675020D01*
X53495732Y-112752425D01*
X53460855Y-112811399D01*
X53458644Y-112819010D01*
X53458643Y-112819012D01*
X53443472Y-112871231D01*
X53414438Y-112971169D01*
X53413934Y-112977574D01*
X53413933Y-112977579D01*
X53412885Y-112990899D01*
X53411500Y-113008498D01*
X53411500Y-114166502D01*
X49229402Y-114166502D01*
X52642247Y-110753657D01*
X52650537Y-110746113D01*
X52657018Y-110742000D01*
X52703659Y-110692332D01*
X52706413Y-110689491D01*
X52726134Y-110669770D01*
X52728612Y-110666575D01*
X52736318Y-110657553D01*
X52750912Y-110642012D01*
X52766586Y-110625321D01*
X52776346Y-110607568D01*
X52787199Y-110591045D01*
X52794753Y-110581306D01*
X52799613Y-110575041D01*
X52817176Y-110534457D01*
X52822383Y-110523827D01*
X52843695Y-110485060D01*
X52845666Y-110477383D01*
X52845668Y-110477378D01*
X52848732Y-110465442D01*
X52855138Y-110446730D01*
X52860033Y-110435419D01*
X52863181Y-110428145D01*
X52864421Y-110420317D01*
X52864423Y-110420310D01*
X52870099Y-110384476D01*
X52872505Y-110372856D01*
X52881528Y-110337711D01*
X52881528Y-110337710D01*
X52883500Y-110330030D01*
X52883500Y-110309776D01*
X52885051Y-110290065D01*
X52886980Y-110277886D01*
X52888220Y-110270057D01*
X52884059Y-110226038D01*
X52883500Y-110214181D01*
X52883500Y-109578442D01*
X52903502Y-109510321D01*
X52957158Y-109463828D01*
X52998080Y-109452961D01*
X53063600Y-109446998D01*
X53070302Y-109444820D01*
X53070304Y-109444820D01*
X53229409Y-109393124D01*
X53229412Y-109393123D01*
X53236108Y-109390947D01*
X53381790Y-109304103D01*
X53385860Y-109301677D01*
X53385862Y-109301676D01*
X53391912Y-109298069D01*
X53397011Y-109293213D01*
X53397018Y-109293208D01*
X53472176Y-109221635D01*
X53535300Y-109189142D01*
X53605971Y-109195935D01*
X53628061Y-109207448D01*
X53733159Y-109276222D01*
X53739763Y-109278678D01*
X53739765Y-109278679D01*
X53896558Y-109336990D01*
X53896560Y-109336990D01*
X53903168Y-109339448D01*
X53986995Y-109350633D01*
X54075980Y-109362507D01*
X54075984Y-109362507D01*
X54082961Y-109363438D01*
X54089972Y-109362800D01*
X54089976Y-109362800D01*
X54232459Y-109349832D01*
X54263600Y-109346998D01*
X54270300Y-109344821D01*
X54270305Y-109344820D01*
X54395619Y-109304103D01*
X54466587Y-109302076D01*
X54527385Y-109338738D01*
X54558710Y-109402451D01*
X54550190Y-109473980D01*
X54548358Y-109478213D01*
X54506688Y-109621641D01*
X54505232Y-109629609D01*
X54508052Y-109643031D01*
X54519513Y-109646000D01*
X55017885Y-109646000D01*
X55033124Y-109641525D01*
X55034329Y-109640135D01*
X55036000Y-109632452D01*
X55036000Y-109106442D01*
X55032027Y-109092911D01*
X55024129Y-109091776D01*
X54965742Y-109108739D01*
X54894746Y-109108536D01*
X54835129Y-109069982D01*
X54805821Y-109005318D01*
X54818523Y-108930147D01*
X54819746Y-108927768D01*
X54823643Y-108921902D01*
X54840476Y-108877591D01*
X54885555Y-108758920D01*
X54885556Y-108758918D01*
X54888055Y-108752338D01*
X54889035Y-108745367D01*
X54890788Y-108738538D01*
X54893473Y-108739227D01*
X54917565Y-108686005D01*
X54977163Y-108647423D01*
X55048160Y-108647186D01*
X55056981Y-108650101D01*
X55097147Y-108665039D01*
X55180974Y-108676224D01*
X55269959Y-108688098D01*
X55269963Y-108688098D01*
X55276940Y-108689029D01*
X55283951Y-108688391D01*
X55283955Y-108688391D01*
X55426438Y-108675423D01*
X55457579Y-108672589D01*
X55464281Y-108670411D01*
X55464283Y-108670411D01*
X55623388Y-108618715D01*
X55623391Y-108618714D01*
X55630087Y-108616538D01*
X55785891Y-108523660D01*
X55917245Y-108398573D01*
X56017622Y-108247493D01*
X56082034Y-108077929D01*
X56083290Y-108068990D01*
X56106727Y-107902230D01*
X56106727Y-107902227D01*
X56107278Y-107898308D01*
X56107595Y-107875591D01*
X56094690Y-107760544D01*
X56106974Y-107690619D01*
X56126269Y-107662189D01*
X56234621Y-107541852D01*
X56234622Y-107541851D01*
X56239040Y-107536944D01*
X56297314Y-107436010D01*
X56331223Y-107377279D01*
X56331224Y-107377278D01*
X56334527Y-107371556D01*
X56393542Y-107189928D01*
X56413504Y-107000000D01*
X56393542Y-106810072D01*
X56334527Y-106628444D01*
X56331223Y-106622721D01*
X56251252Y-106484207D01*
X56234514Y-106415212D01*
X56255421Y-106351483D01*
X56263102Y-106339922D01*
X56278733Y-106298774D01*
X56321622Y-106242196D01*
X56386635Y-106217906D01*
X56415756Y-106215614D01*
X56428359Y-106213312D01*
X56571784Y-106171643D01*
X56586220Y-106165396D01*
X56713499Y-106090124D01*
X56725926Y-106080484D01*
X56830484Y-105975926D01*
X56840124Y-105963499D01*
X56915396Y-105836220D01*
X56921643Y-105821784D01*
X56963312Y-105678359D01*
X56964768Y-105670391D01*
X56961948Y-105656969D01*
X56950487Y-105654000D01*
X56366499Y-105654000D01*
X56298378Y-105633998D01*
X56259645Y-105594769D01*
X56187112Y-105478690D01*
X56167976Y-105410322D01*
X56188841Y-105342461D01*
X56229450Y-105303693D01*
X56275602Y-105276181D01*
X56275603Y-105276181D01*
X56281661Y-105272569D01*
X56325909Y-105230432D01*
X56389034Y-105197939D01*
X56456719Y-105203579D01*
X56553168Y-105239448D01*
X56636995Y-105250633D01*
X56725980Y-105262507D01*
X56725984Y-105262507D01*
X56732961Y-105263438D01*
X56739972Y-105262800D01*
X56739976Y-105262800D01*
X56882459Y-105249832D01*
X56913600Y-105246998D01*
X56939326Y-105238639D01*
X57010293Y-105236611D01*
X57067357Y-105269377D01*
X57084619Y-105286639D01*
X57231301Y-105375472D01*
X57238548Y-105377743D01*
X57238550Y-105377744D01*
X57245293Y-105379857D01*
X57394938Y-105426753D01*
X57468365Y-105433500D01*
X57471263Y-105433500D01*
X57775795Y-105433499D01*
X58081634Y-105433499D01*
X58084492Y-105433236D01*
X58084501Y-105433236D01*
X58120004Y-105429974D01*
X58155062Y-105426753D01*
X58163984Y-105423957D01*
X58311450Y-105377744D01*
X58311452Y-105377743D01*
X58318699Y-105375472D01*
X58465381Y-105286639D01*
X58586639Y-105165381D01*
X58592224Y-105156159D01*
X58593940Y-105154590D01*
X58595262Y-105152904D01*
X58595543Y-105153124D01*
X58644621Y-105108252D01*
X58714601Y-105096279D01*
X58779945Y-105124040D01*
X58807776Y-105156159D01*
X58813361Y-105165381D01*
X58934619Y-105286639D01*
X58941120Y-105290576D01*
X58955771Y-105299449D01*
X59003678Y-105351846D01*
X59016500Y-105407225D01*
X59016500Y-107191161D01*
X58996498Y-107259282D01*
X58942842Y-107305775D01*
X58916142Y-107314166D01*
X58913534Y-107314371D01*
X58907358Y-107316165D01*
X58907354Y-107316166D01*
X58765017Y-107357519D01*
X58765015Y-107357520D01*
X58757404Y-107359731D01*
X58617459Y-107442494D01*
X58502494Y-107557459D01*
X58498460Y-107564280D01*
X58462480Y-107625120D01*
X58419731Y-107697404D01*
X58374371Y-107853534D01*
X58373867Y-107859941D01*
X58373866Y-107859945D01*
X58372635Y-107875591D01*
X58371500Y-107890011D01*
X58371501Y-108289988D01*
X58374371Y-108326466D01*
X58419731Y-108482596D01*
X58423767Y-108489421D01*
X58423769Y-108489425D01*
X58451231Y-108535861D01*
X58468691Y-108604677D01*
X58451231Y-108664139D01*
X58423769Y-108710575D01*
X58423767Y-108710579D01*
X58419731Y-108717404D01*
X58374371Y-108873534D01*
X58373867Y-108879941D01*
X58373866Y-108879945D01*
X58371693Y-108907556D01*
X58371500Y-108910011D01*
X58371501Y-109309988D01*
X58374371Y-109346466D01*
X58390636Y-109402451D01*
X58402946Y-109444820D01*
X58419731Y-109502596D01*
X58423767Y-109509421D01*
X58423769Y-109509425D01*
X58473953Y-109594282D01*
X58491500Y-109658421D01*
X58491500Y-109665243D01*
X58471498Y-109733364D01*
X58454674Y-109754260D01*
X58369136Y-109839947D01*
X58280151Y-109984308D01*
X58277846Y-109991256D01*
X58277846Y-109991257D01*
X58230008Y-110135484D01*
X58226762Y-110145269D01*
X58216500Y-110245428D01*
X58216500Y-110779572D01*
X58227022Y-110880982D01*
X58280692Y-111041849D01*
X58369929Y-111186055D01*
X58375107Y-111191224D01*
X58395159Y-111211241D01*
X58429238Y-111273523D01*
X58424235Y-111344343D01*
X58395314Y-111389432D01*
X58374702Y-111410080D01*
X58365690Y-111421491D01*
X58284447Y-111553291D01*
X58278303Y-111566468D01*
X58229421Y-111713843D01*
X58226555Y-111727210D01*
X58217386Y-111816700D01*
X58221475Y-111830624D01*
X58222865Y-111831829D01*
X58230548Y-111833500D01*
X60164885Y-111833500D01*
X60180124Y-111829025D01*
X60181329Y-111827635D01*
X60182842Y-111820679D01*
X60182663Y-111817218D01*
X60173196Y-111725979D01*
X60170303Y-111712583D01*
X60121170Y-111565313D01*
X60114996Y-111552134D01*
X60033530Y-111420486D01*
X60024494Y-111409085D01*
X60004842Y-111389467D01*
X59970763Y-111327184D01*
X59975766Y-111256364D01*
X60004686Y-111211277D01*
X60025692Y-111190234D01*
X60030864Y-111185053D01*
X60119849Y-111040692D01*
X60129660Y-111011114D01*
X60171072Y-110886262D01*
X60171072Y-110886260D01*
X60173238Y-110879731D01*
X60183500Y-110779572D01*
X60183500Y-110245428D01*
X60172978Y-110144018D01*
X60119308Y-109983151D01*
X60030071Y-109838945D01*
X59945482Y-109754503D01*
X59911403Y-109692220D01*
X59908500Y-109665330D01*
X59908500Y-109658421D01*
X59926047Y-109594282D01*
X59976231Y-109509425D01*
X59976233Y-109509421D01*
X59980269Y-109502596D01*
X59997055Y-109444820D01*
X60020698Y-109363438D01*
X60025629Y-109346466D01*
X60026135Y-109340047D01*
X60028307Y-109312444D01*
X60028307Y-109312438D01*
X60028500Y-109309989D01*
X60028499Y-108910012D01*
X60025629Y-108873534D01*
X59980269Y-108717404D01*
X59976233Y-108710579D01*
X59976231Y-108710575D01*
X59948769Y-108664139D01*
X59931309Y-108595323D01*
X59948769Y-108535861D01*
X59976231Y-108489425D01*
X59976233Y-108489421D01*
X59980269Y-108482596D01*
X60025629Y-108326466D01*
X60026135Y-108320047D01*
X60028307Y-108292444D01*
X60028307Y-108292438D01*
X60028500Y-108289989D01*
X60028500Y-108180140D01*
X60048502Y-108112019D01*
X60058998Y-108098995D01*
X60058987Y-108098987D01*
X60083474Y-108067075D01*
X60083481Y-108067067D01*
X60088375Y-108060689D01*
X60156524Y-107971876D01*
X60217838Y-107823851D01*
X60224920Y-107770057D01*
X60233500Y-107704885D01*
X60233500Y-107704880D01*
X60238750Y-107665000D01*
X60234578Y-107633307D01*
X60233500Y-107616864D01*
X60233500Y-105407225D01*
X60253502Y-105339104D01*
X60294222Y-105299453D01*
X60300726Y-105295514D01*
X60369352Y-105277333D01*
X60436916Y-105299140D01*
X60481965Y-105354013D01*
X60492000Y-105403288D01*
X60492000Y-122950672D01*
X60490500Y-122970056D01*
X60486814Y-122993730D01*
X60487978Y-123002632D01*
X60487978Y-123002634D01*
X60488805Y-123008959D01*
X60489548Y-123034287D01*
X60477457Y-123203343D01*
X60474899Y-123221137D01*
X60436120Y-123399404D01*
X60433480Y-123411538D01*
X60428414Y-123428788D01*
X60360318Y-123611358D01*
X60352851Y-123627710D01*
X60259469Y-123798729D01*
X60249752Y-123813848D01*
X60214033Y-123861564D01*
X60132977Y-123969842D01*
X60121204Y-123983428D01*
X59983428Y-124121204D01*
X59969841Y-124132977D01*
X59813848Y-124249752D01*
X59798734Y-124259466D01*
X59693020Y-124317190D01*
X59627710Y-124352851D01*
X59611358Y-124360318D01*
X59428788Y-124428414D01*
X59411540Y-124433479D01*
X59248022Y-124469051D01*
X59221137Y-124474899D01*
X59203342Y-124477457D01*
X59154443Y-124480954D01*
X59041369Y-124489041D01*
X59023467Y-124488297D01*
X59015142Y-124488195D01*
X59006270Y-124486814D01*
X58997368Y-124487978D01*
X58997365Y-124487978D01*
X58974749Y-124490936D01*
X58958411Y-124492000D01*
X40049328Y-124492000D01*
X40029943Y-124490500D01*
X40029661Y-124490456D01*
X40027117Y-124490060D01*
X40015141Y-124488195D01*
X40015139Y-124488195D01*
X40006270Y-124486814D01*
X39997368Y-124487978D01*
X39997366Y-124487978D01*
X39991041Y-124488805D01*
X39965718Y-124489548D01*
X39796657Y-124477457D01*
X39778863Y-124474899D01*
X39751978Y-124469051D01*
X39588460Y-124433479D01*
X39571212Y-124428414D01*
X39388642Y-124360318D01*
X39372290Y-124352851D01*
X39306980Y-124317190D01*
X39201266Y-124259466D01*
X39186152Y-124249752D01*
X39030159Y-124132977D01*
X39016572Y-124121204D01*
X38878796Y-123983428D01*
X38867023Y-123969842D01*
X38785967Y-123861564D01*
X38750248Y-123813848D01*
X38740531Y-123798729D01*
X38647149Y-123627710D01*
X38639682Y-123611358D01*
X38571586Y-123428788D01*
X38566520Y-123411538D01*
X38563881Y-123399404D01*
X38525101Y-123221137D01*
X38522543Y-123203342D01*
X38510959Y-123041371D01*
X38511703Y-123023467D01*
X38511805Y-123015142D01*
X38513186Y-123006270D01*
X38511547Y-122993730D01*
X38509064Y-122974749D01*
X38508000Y-122958411D01*
X38508000Y-122466695D01*
X39097251Y-122466695D01*
X39110110Y-122689715D01*
X39111247Y-122694761D01*
X39111248Y-122694767D01*
X39135304Y-122801508D01*
X39159222Y-122907639D01*
X39243266Y-123114616D01*
X39359987Y-123305088D01*
X39506250Y-123473938D01*
X39678126Y-123616632D01*
X39871000Y-123729338D01*
X40079692Y-123809030D01*
X40084760Y-123810061D01*
X40084763Y-123810062D01*
X40192017Y-123831883D01*
X40298597Y-123853567D01*
X40303772Y-123853757D01*
X40303774Y-123853757D01*
X40516673Y-123861564D01*
X40516677Y-123861564D01*
X40521837Y-123861753D01*
X40526957Y-123861097D01*
X40526959Y-123861097D01*
X40738288Y-123834025D01*
X40738289Y-123834025D01*
X40743416Y-123833368D01*
X40748366Y-123831883D01*
X40952429Y-123770661D01*
X40952434Y-123770659D01*
X40957384Y-123769174D01*
X41157994Y-123670896D01*
X41339860Y-123541173D01*
X41448091Y-123433319D01*
X41510462Y-123399404D01*
X41581268Y-123404592D01*
X41638030Y-123447238D01*
X41655012Y-123478341D01*
X41699385Y-123596705D01*
X41786739Y-123713261D01*
X41903295Y-123800615D01*
X42039684Y-123851745D01*
X42101866Y-123858500D01*
X43898134Y-123858500D01*
X43960316Y-123851745D01*
X44096705Y-123800615D01*
X44213261Y-123713261D01*
X44300615Y-123596705D01*
X44351745Y-123460316D01*
X44358500Y-123398134D01*
X44358500Y-121601866D01*
X44351745Y-121539684D01*
X44300615Y-121403295D01*
X44213261Y-121286739D01*
X44096705Y-121199385D01*
X43977687Y-121154767D01*
X43920923Y-121112125D01*
X43896223Y-121045564D01*
X43911430Y-120976215D01*
X43932977Y-120947535D01*
X44034052Y-120846812D01*
X44040730Y-120838965D01*
X44165003Y-120666020D01*
X44170313Y-120657183D01*
X44264670Y-120466267D01*
X44268469Y-120456672D01*
X44330377Y-120252910D01*
X44332555Y-120242837D01*
X44333986Y-120231962D01*
X44331775Y-120217778D01*
X44318617Y-120214000D01*
X39143225Y-120214000D01*
X39129694Y-120217973D01*
X39128257Y-120227966D01*
X39158565Y-120362446D01*
X39161645Y-120372275D01*
X39241770Y-120569603D01*
X39246413Y-120578794D01*
X39357694Y-120760388D01*
X39363777Y-120768699D01*
X39503213Y-120929667D01*
X39510580Y-120936883D01*
X39674434Y-121072916D01*
X39682881Y-121078831D01*
X39751969Y-121119203D01*
X39800693Y-121170842D01*
X39813764Y-121240625D01*
X39787033Y-121306396D01*
X39746584Y-121339752D01*
X39733607Y-121346507D01*
X39729474Y-121349610D01*
X39729471Y-121349612D01*
X39559100Y-121477530D01*
X39554965Y-121480635D01*
X39515525Y-121521907D01*
X39461280Y-121578671D01*
X39400629Y-121642138D01*
X39274743Y-121826680D01*
X39180688Y-122029305D01*
X39120989Y-122244570D01*
X39097251Y-122466695D01*
X38508000Y-122466695D01*
X38508000Y-86049328D01*
X38509500Y-86029943D01*
X38511805Y-86015141D01*
X38511805Y-86015139D01*
X38513186Y-86006270D01*
X38512022Y-85997366D01*
X38511195Y-85991041D01*
X38510452Y-85965713D01*
X38511211Y-85955114D01*
X38522543Y-85796657D01*
X38525101Y-85778863D01*
X38560974Y-85613955D01*
X38566521Y-85588460D01*
X38571586Y-85571212D01*
X38639682Y-85388642D01*
X38647149Y-85372290D01*
X38689152Y-85295366D01*
X38740534Y-85201266D01*
X38750248Y-85186152D01*
X38867023Y-85030158D01*
X38878796Y-85016572D01*
X39016572Y-84878796D01*
X39030158Y-84867023D01*
X39089198Y-84822826D01*
X39186152Y-84750248D01*
X39201266Y-84740534D01*
X39363530Y-84651932D01*
X39372290Y-84647149D01*
X39388642Y-84639682D01*
X39571212Y-84571586D01*
X39588460Y-84566521D01*
X39778863Y-84525101D01*
X39796658Y-84522543D01*
X39849959Y-84518731D01*
X39958631Y-84510959D01*
X39976533Y-84511703D01*
X39984858Y-84511805D01*
X39993730Y-84513186D01*
X40002632Y-84512022D01*
X40002635Y-84512022D01*
X40025251Y-84509064D01*
X40041589Y-84508000D01*
X44853388Y-84508000D01*
X44921509Y-84528002D01*
G37*
%TD.AperFunction*%
%TA.AperFunction,Conductor*%
G36*
X55456634Y-84528002D02*
G01*
X55503127Y-84581658D01*
X55513231Y-84651932D01*
X55494425Y-84702254D01*
X55471235Y-84738238D01*
X55468826Y-84744858D01*
X55468824Y-84744861D01*
X55420076Y-84878796D01*
X55409197Y-84908685D01*
X55399533Y-84985182D01*
X55384935Y-85030101D01*
X55383646Y-85032445D01*
X55372801Y-85048953D01*
X55360386Y-85064959D01*
X55357241Y-85072228D01*
X55357238Y-85072232D01*
X55342826Y-85105537D01*
X55337605Y-85116195D01*
X55331864Y-85126639D01*
X55329580Y-85130793D01*
X55279236Y-85180852D01*
X55209819Y-85195746D01*
X55184017Y-85191091D01*
X55126466Y-85174371D01*
X55120059Y-85173867D01*
X55120055Y-85173866D01*
X55092444Y-85171693D01*
X55092438Y-85171693D01*
X55089989Y-85171500D01*
X54890122Y-85171500D01*
X54690012Y-85171501D01*
X54653534Y-85174371D01*
X54579352Y-85195923D01*
X54508356Y-85195720D01*
X54455183Y-85164100D01*
X54360053Y-85069136D01*
X54215692Y-84980151D01*
X54208743Y-84977846D01*
X54061262Y-84928928D01*
X54061260Y-84928928D01*
X54054731Y-84926762D01*
X53954572Y-84916500D01*
X53420428Y-84916500D01*
X53417182Y-84916837D01*
X53417178Y-84916837D01*
X53389153Y-84919745D01*
X53319018Y-84927022D01*
X53158151Y-84980692D01*
X53013945Y-85069929D01*
X52989113Y-85094805D01*
X52926832Y-85128884D01*
X52856012Y-85123882D01*
X52810922Y-85094960D01*
X52790233Y-85074307D01*
X52785053Y-85069136D01*
X52640692Y-84980151D01*
X52633743Y-84977846D01*
X52486262Y-84928928D01*
X52486260Y-84928928D01*
X52479731Y-84926762D01*
X52379572Y-84916500D01*
X51845428Y-84916500D01*
X51842182Y-84916837D01*
X51842178Y-84916837D01*
X51814153Y-84919745D01*
X51744018Y-84927022D01*
X51583151Y-84980692D01*
X51438945Y-85069929D01*
X51433777Y-85075106D01*
X51433776Y-85075107D01*
X51392758Y-85116197D01*
X51319136Y-85189947D01*
X51230151Y-85334308D01*
X51227846Y-85341256D01*
X51227846Y-85341257D01*
X51184513Y-85471902D01*
X51176762Y-85495269D01*
X51166500Y-85595428D01*
X51166500Y-85840500D01*
X51146498Y-85908621D01*
X51092842Y-85955114D01*
X51040500Y-85966500D01*
X50194874Y-85966500D01*
X50126753Y-85946498D01*
X50119327Y-85941339D01*
X50096705Y-85924385D01*
X49960316Y-85873255D01*
X49898134Y-85866500D01*
X49101866Y-85866500D01*
X49039684Y-85873255D01*
X48903295Y-85924385D01*
X48786739Y-86011739D01*
X48699385Y-86128295D01*
X48648255Y-86264684D01*
X48641500Y-86326866D01*
X48641500Y-86873134D01*
X48648255Y-86935316D01*
X48699385Y-87071705D01*
X48786739Y-87188261D01*
X48903295Y-87275615D01*
X49039684Y-87326745D01*
X49101866Y-87333500D01*
X49475776Y-87333500D01*
X49543897Y-87353502D01*
X49590390Y-87407158D01*
X49600782Y-87475292D01*
X49594376Y-87526000D01*
X49586463Y-87588640D01*
X49604163Y-87769160D01*
X49661418Y-87941273D01*
X49665065Y-87947295D01*
X49665066Y-87947297D01*
X49744234Y-88078019D01*
X49755380Y-88096424D01*
X49760267Y-88101485D01*
X49760272Y-88101491D01*
X49761806Y-88103079D01*
X49762465Y-88104338D01*
X49764572Y-88107074D01*
X49764091Y-88107444D01*
X49794734Y-88165978D01*
X49788429Y-88236694D01*
X49760258Y-88279695D01*
X49672494Y-88367459D01*
X49668460Y-88374280D01*
X49594989Y-88498514D01*
X49589731Y-88507404D01*
X49587520Y-88515015D01*
X49587519Y-88515017D01*
X49567388Y-88584309D01*
X49544371Y-88663534D01*
X49543866Y-88669947D01*
X49543865Y-88669954D01*
X49542396Y-88688611D01*
X49517110Y-88754951D01*
X49459971Y-88797090D01*
X49401867Y-88803836D01*
X49255680Y-88786404D01*
X49248677Y-88787140D01*
X49248676Y-88787140D01*
X49082288Y-88804628D01*
X49082286Y-88804629D01*
X49075288Y-88805364D01*
X48903579Y-88863818D01*
X48845766Y-88899385D01*
X48755095Y-88955166D01*
X48755092Y-88955168D01*
X48749088Y-88958862D01*
X48744053Y-88963793D01*
X48744050Y-88963795D01*
X48624525Y-89080843D01*
X48619493Y-89085771D01*
X48521235Y-89238238D01*
X48518826Y-89244858D01*
X48518824Y-89244861D01*
X48512396Y-89262522D01*
X48459197Y-89408685D01*
X48436463Y-89588640D01*
X48454163Y-89769160D01*
X48511418Y-89941273D01*
X48515065Y-89947295D01*
X48515066Y-89947297D01*
X48582399Y-90058477D01*
X48605380Y-90096424D01*
X48610269Y-90101487D01*
X48610270Y-90101488D01*
X48639276Y-90131524D01*
X48731382Y-90226902D01*
X48737278Y-90230760D01*
X48827788Y-90289988D01*
X48883159Y-90326222D01*
X48889763Y-90328678D01*
X48889765Y-90328679D01*
X49046558Y-90386990D01*
X49046560Y-90386990D01*
X49053168Y-90389448D01*
X49136995Y-90400633D01*
X49225980Y-90412507D01*
X49225984Y-90412507D01*
X49232961Y-90413438D01*
X49239972Y-90412800D01*
X49239976Y-90412800D01*
X49382459Y-90399832D01*
X49413600Y-90396998D01*
X49420300Y-90394821D01*
X49420305Y-90394820D01*
X49446907Y-90386176D01*
X49517875Y-90384149D01*
X49578673Y-90420811D01*
X49606839Y-90470853D01*
X49607980Y-90474781D01*
X49614230Y-90489222D01*
X49688854Y-90615404D01*
X49701927Y-90632258D01*
X49727874Y-90698344D01*
X49713973Y-90767966D01*
X49664638Y-90819021D01*
X49602367Y-90835484D01*
X48763143Y-90835484D01*
X48746697Y-90834406D01*
X48723970Y-90831414D01*
X48715782Y-90830336D01*
X48560064Y-90850837D01*
X48552432Y-90853998D01*
X48552433Y-90853998D01*
X48422589Y-90907781D01*
X48422586Y-90907783D01*
X48414959Y-90910942D01*
X48339037Y-90969199D01*
X48290353Y-91006555D01*
X48285330Y-91013101D01*
X48271371Y-91031293D01*
X48260503Y-91043684D01*
X47278700Y-92025487D01*
X47266310Y-92036354D01*
X47241571Y-92055337D01*
X47217566Y-92086621D01*
X47145958Y-92179943D01*
X47085854Y-92325048D01*
X47065353Y-92480766D01*
X47066431Y-92488954D01*
X47069422Y-92511674D01*
X47070500Y-92528120D01*
X47070500Y-94891881D01*
X47069422Y-94908327D01*
X47065353Y-94939234D01*
X47085854Y-95094952D01*
X47145958Y-95240057D01*
X47192426Y-95300615D01*
X47241571Y-95364663D01*
X47248121Y-95369689D01*
X47266306Y-95383643D01*
X47278697Y-95394510D01*
X48758740Y-96874552D01*
X50223595Y-98339407D01*
X50257621Y-98401719D01*
X50260500Y-98428502D01*
X50260500Y-101347344D01*
X50242047Y-101410189D01*
X50259160Y-101447349D01*
X50260500Y-101465676D01*
X50260500Y-102288237D01*
X50240498Y-102356358D01*
X50234475Y-102364924D01*
X50188733Y-102424537D01*
X50131197Y-102563439D01*
X50130120Y-102571623D01*
X50130119Y-102571625D01*
X50117038Y-102670988D01*
X50116500Y-102675075D01*
X50116501Y-102886994D01*
X50116501Y-102990500D01*
X50096499Y-103058620D01*
X50042844Y-103105113D01*
X49990501Y-103116500D01*
X49689063Y-103116501D01*
X49675076Y-103116501D01*
X49670992Y-103117039D01*
X49670986Y-103117039D01*
X49571626Y-103130119D01*
X49571624Y-103130120D01*
X49563439Y-103131197D01*
X49424536Y-103188733D01*
X49417985Y-103193760D01*
X49317166Y-103271121D01*
X49305258Y-103280258D01*
X49213733Y-103399537D01*
X49156197Y-103538439D01*
X49152906Y-103537076D01*
X49124476Y-103583727D01*
X49060618Y-103614754D01*
X49039713Y-103616500D01*
X48755103Y-103616500D01*
X48743920Y-103615973D01*
X48736427Y-103614298D01*
X48728501Y-103614547D01*
X48728500Y-103614547D01*
X48668337Y-103616438D01*
X48664379Y-103616500D01*
X48636480Y-103616500D01*
X48632490Y-103617004D01*
X48620656Y-103617936D01*
X48576447Y-103619326D01*
X48568833Y-103621538D01*
X48568828Y-103621539D01*
X48556995Y-103624977D01*
X48537632Y-103628988D01*
X48517539Y-103631526D01*
X48510172Y-103634443D01*
X48510167Y-103634444D01*
X48476428Y-103647802D01*
X48465201Y-103651646D01*
X48422743Y-103663982D01*
X48415917Y-103668019D01*
X48405308Y-103674293D01*
X48387560Y-103682988D01*
X48368719Y-103690448D01*
X48362303Y-103695110D01*
X48362302Y-103695110D01*
X48332949Y-103716436D01*
X48323029Y-103722952D01*
X48291801Y-103741420D01*
X48291798Y-103741422D01*
X48284974Y-103745458D01*
X48270653Y-103759779D01*
X48255620Y-103772619D01*
X48239229Y-103784528D01*
X48217006Y-103811391D01*
X48211038Y-103818605D01*
X48203048Y-103827384D01*
X44572096Y-107458335D01*
X44509784Y-107492361D01*
X44438968Y-107487296D01*
X44382133Y-107444749D01*
X44357322Y-107378229D01*
X44358079Y-107352792D01*
X44361529Y-107326590D01*
X44361784Y-107316166D01*
X44363074Y-107263365D01*
X44363074Y-107263361D01*
X44363156Y-107260000D01*
X44344852Y-107037361D01*
X44290431Y-106820702D01*
X44201354Y-106615840D01*
X44080014Y-106428277D01*
X43929670Y-106263051D01*
X43925619Y-106259852D01*
X43925615Y-106259848D01*
X43758414Y-106127800D01*
X43758410Y-106127798D01*
X43754359Y-106124598D01*
X43713053Y-106101796D01*
X43663084Y-106051364D01*
X43648312Y-105981921D01*
X43673428Y-105915516D01*
X43700780Y-105888909D01*
X43749707Y-105854010D01*
X43879860Y-105761173D01*
X44038096Y-105603489D01*
X44085290Y-105537812D01*
X44165435Y-105426277D01*
X44168453Y-105422077D01*
X44175794Y-105407225D01*
X44265136Y-105226453D01*
X44265137Y-105226451D01*
X44267430Y-105221811D01*
X44332370Y-105008069D01*
X44361529Y-104786590D01*
X44363156Y-104720000D01*
X44344852Y-104497361D01*
X44290431Y-104280702D01*
X44201354Y-104075840D01*
X44139143Y-103979677D01*
X44082822Y-103892617D01*
X44082820Y-103892614D01*
X44080014Y-103888277D01*
X43929670Y-103723051D01*
X43925619Y-103719852D01*
X43925615Y-103719848D01*
X43758414Y-103587800D01*
X43758410Y-103587798D01*
X43754359Y-103584598D01*
X43713053Y-103561796D01*
X43663084Y-103511364D01*
X43648312Y-103441921D01*
X43673428Y-103375516D01*
X43700780Y-103348909D01*
X43744654Y-103317614D01*
X43879860Y-103221173D01*
X44038096Y-103063489D01*
X44097594Y-102980689D01*
X44165435Y-102886277D01*
X44168453Y-102882077D01*
X44184301Y-102850012D01*
X44265136Y-102686453D01*
X44265137Y-102686451D01*
X44267430Y-102681811D01*
X44311465Y-102536876D01*
X44330865Y-102473023D01*
X44330865Y-102473021D01*
X44332370Y-102468069D01*
X44361529Y-102246590D01*
X44361611Y-102243240D01*
X44363074Y-102183365D01*
X44363074Y-102183361D01*
X44363156Y-102180000D01*
X44344852Y-101957361D01*
X44290431Y-101740702D01*
X44201354Y-101535840D01*
X44144107Y-101447349D01*
X44082822Y-101352617D01*
X44082820Y-101352614D01*
X44080014Y-101348277D01*
X43929670Y-101183051D01*
X43925619Y-101179852D01*
X43925615Y-101179848D01*
X43758414Y-101047800D01*
X43758410Y-101047798D01*
X43754359Y-101044598D01*
X43713053Y-101021796D01*
X43663084Y-100971364D01*
X43648312Y-100901921D01*
X43673428Y-100835516D01*
X43700780Y-100808909D01*
X43761051Y-100765918D01*
X43879860Y-100681173D01*
X43888558Y-100672506D01*
X44001213Y-100560243D01*
X44038096Y-100523489D01*
X44097594Y-100440689D01*
X44165435Y-100346277D01*
X44168453Y-100342077D01*
X44189320Y-100299857D01*
X44265136Y-100146453D01*
X44265137Y-100146451D01*
X44267430Y-100141811D01*
X44332370Y-99928069D01*
X44361529Y-99706590D01*
X44363156Y-99640000D01*
X44345835Y-99429321D01*
X44360188Y-99359793D01*
X44409853Y-99309060D01*
X44479063Y-99293232D01*
X44488075Y-99294106D01*
X44625979Y-99312507D01*
X44625984Y-99312507D01*
X44632961Y-99313438D01*
X44639972Y-99312800D01*
X44639976Y-99312800D01*
X44782459Y-99299832D01*
X44813600Y-99296998D01*
X44820302Y-99294820D01*
X44820304Y-99294820D01*
X44979409Y-99243124D01*
X44979412Y-99243123D01*
X44986108Y-99240947D01*
X45000984Y-99232079D01*
X45069739Y-99214380D01*
X45137148Y-99236663D01*
X45181810Y-99291852D01*
X45191500Y-99340309D01*
X45191500Y-99901864D01*
X45190422Y-99918307D01*
X45186250Y-99950000D01*
X45191500Y-99989880D01*
X45191500Y-99989885D01*
X45204609Y-100089457D01*
X45207162Y-100108851D01*
X45268476Y-100256876D01*
X45273503Y-100263427D01*
X45273504Y-100263429D01*
X45341520Y-100352069D01*
X45341526Y-100352075D01*
X45366013Y-100383987D01*
X45372568Y-100389017D01*
X45391379Y-100403452D01*
X45403770Y-100414319D01*
X46785685Y-101796234D01*
X46796552Y-101808625D01*
X46816013Y-101833987D01*
X46822563Y-101839013D01*
X46847921Y-101858471D01*
X46847937Y-101858485D01*
X46894369Y-101894113D01*
X46943124Y-101931524D01*
X47091149Y-101992838D01*
X47250000Y-102013751D01*
X47281699Y-102009578D01*
X47298144Y-102008500D01*
X48615699Y-102008500D01*
X48684692Y-102029068D01*
X48800290Y-102104713D01*
X48833159Y-102126222D01*
X48839763Y-102128678D01*
X48839765Y-102128679D01*
X48996558Y-102186990D01*
X48996560Y-102186990D01*
X49003168Y-102189448D01*
X49081598Y-102199913D01*
X49175980Y-102212507D01*
X49175984Y-102212507D01*
X49182961Y-102213438D01*
X49189972Y-102212800D01*
X49189976Y-102212800D01*
X49332459Y-102199832D01*
X49363600Y-102196998D01*
X49370302Y-102194820D01*
X49370304Y-102194820D01*
X49529409Y-102143124D01*
X49529412Y-102143123D01*
X49536108Y-102140947D01*
X49641100Y-102078359D01*
X49685860Y-102051677D01*
X49685862Y-102051676D01*
X49691912Y-102048069D01*
X49823266Y-101922982D01*
X49923643Y-101771902D01*
X49988055Y-101602338D01*
X50009726Y-101448140D01*
X50028676Y-101406294D01*
X50013604Y-101382842D01*
X50009285Y-101361389D01*
X50007566Y-101346062D01*
X49993397Y-101219745D01*
X49980619Y-101183051D01*
X49936064Y-101055106D01*
X49936062Y-101055103D01*
X49933745Y-101048448D01*
X49893720Y-100984394D01*
X49841359Y-100900598D01*
X49837626Y-100894624D01*
X49824834Y-100881742D01*
X49714778Y-100770915D01*
X49714774Y-100770912D01*
X49709815Y-100765918D01*
X49699296Y-100759242D01*
X49614085Y-100705166D01*
X49556666Y-100668727D01*
X49527463Y-100658328D01*
X49392425Y-100610243D01*
X49392420Y-100610242D01*
X49385790Y-100607881D01*
X49378802Y-100607048D01*
X49378799Y-100607047D01*
X49255698Y-100592368D01*
X49205680Y-100586404D01*
X49198677Y-100587140D01*
X49198676Y-100587140D01*
X49032288Y-100604628D01*
X49032286Y-100604629D01*
X49025288Y-100605364D01*
X48853579Y-100663818D01*
X48699088Y-100758862D01*
X48694054Y-100763791D01*
X48692776Y-100764790D01*
X48626782Y-100790967D01*
X48615204Y-100791500D01*
X47554239Y-100791500D01*
X47486118Y-100771498D01*
X47465144Y-100754595D01*
X46445405Y-99734856D01*
X46411379Y-99672544D01*
X46408500Y-99645761D01*
X46408500Y-97408136D01*
X46409578Y-97391690D01*
X46410744Y-97382837D01*
X46413750Y-97360000D01*
X46408500Y-97320120D01*
X46408500Y-97320115D01*
X46392838Y-97201150D01*
X46331524Y-97053125D01*
X46331524Y-97053124D01*
X46258477Y-96957928D01*
X46258474Y-96957925D01*
X46233987Y-96926013D01*
X46225705Y-96919658D01*
X46208621Y-96906548D01*
X46196230Y-96895681D01*
X44342979Y-95042430D01*
X44308953Y-94980118D01*
X44311516Y-94916706D01*
X44327905Y-94862766D01*
X44332370Y-94848069D01*
X44361529Y-94626590D01*
X44363156Y-94560000D01*
X44344852Y-94337361D01*
X44290431Y-94120702D01*
X44201354Y-93915840D01*
X44080014Y-93728277D01*
X43929670Y-93563051D01*
X43925619Y-93559852D01*
X43925615Y-93559848D01*
X43758414Y-93427800D01*
X43758410Y-93427798D01*
X43754359Y-93424598D01*
X43713053Y-93401796D01*
X43663084Y-93351364D01*
X43648312Y-93281921D01*
X43673428Y-93215516D01*
X43700780Y-93188909D01*
X43765100Y-93143030D01*
X43879860Y-93061173D01*
X44038096Y-92903489D01*
X44090629Y-92830382D01*
X44165435Y-92726277D01*
X44168453Y-92722077D01*
X44178132Y-92702494D01*
X44265136Y-92526453D01*
X44265137Y-92526451D01*
X44267430Y-92521811D01*
X44332370Y-92308069D01*
X44361529Y-92086590D01*
X44362293Y-92055337D01*
X44363074Y-92023365D01*
X44363074Y-92023361D01*
X44363156Y-92020000D01*
X44344852Y-91797361D01*
X44290431Y-91580702D01*
X44201354Y-91375840D01*
X44080014Y-91188277D01*
X43929670Y-91023051D01*
X43925619Y-91019852D01*
X43925615Y-91019848D01*
X43758414Y-90887800D01*
X43758410Y-90887798D01*
X43754359Y-90884598D01*
X43713053Y-90861796D01*
X43663084Y-90811364D01*
X43648312Y-90741921D01*
X43673428Y-90675516D01*
X43700780Y-90648909D01*
X43747752Y-90615404D01*
X43879860Y-90521173D01*
X43926415Y-90474781D01*
X44014513Y-90386990D01*
X44038096Y-90363489D01*
X44063110Y-90328679D01*
X44165435Y-90186277D01*
X44168453Y-90182077D01*
X44189320Y-90139857D01*
X44265136Y-89986453D01*
X44265137Y-89986451D01*
X44267430Y-89981811D01*
X44304518Y-89859742D01*
X44330865Y-89773023D01*
X44330865Y-89773021D01*
X44332370Y-89768069D01*
X44361529Y-89546590D01*
X44363156Y-89480000D01*
X44344852Y-89257361D01*
X44290431Y-89040702D01*
X44201354Y-88835840D01*
X44140105Y-88741164D01*
X44082822Y-88652617D01*
X44082820Y-88652614D01*
X44080014Y-88648277D01*
X43929670Y-88483051D01*
X43925619Y-88479852D01*
X43925615Y-88479848D01*
X43758414Y-88347800D01*
X43758410Y-88347798D01*
X43754359Y-88344598D01*
X43713053Y-88321796D01*
X43663084Y-88271364D01*
X43648312Y-88201921D01*
X43673428Y-88135516D01*
X43700780Y-88108909D01*
X43751170Y-88072966D01*
X43879860Y-87981173D01*
X43923847Y-87937340D01*
X44018309Y-87843207D01*
X44038096Y-87823489D01*
X44094428Y-87745095D01*
X44165435Y-87646277D01*
X44168453Y-87642077D01*
X44170746Y-87637437D01*
X44172446Y-87634608D01*
X44224674Y-87586518D01*
X44280451Y-87573500D01*
X44891233Y-87573500D01*
X44902416Y-87574027D01*
X44909909Y-87575702D01*
X44917835Y-87575453D01*
X44917836Y-87575453D01*
X44977986Y-87573562D01*
X44981945Y-87573500D01*
X45009856Y-87573500D01*
X45013791Y-87573003D01*
X45013856Y-87572995D01*
X45025693Y-87572062D01*
X45057951Y-87571048D01*
X45061970Y-87570922D01*
X45069889Y-87570673D01*
X45089343Y-87565021D01*
X45108700Y-87561013D01*
X45120930Y-87559468D01*
X45120931Y-87559468D01*
X45128797Y-87558474D01*
X45136168Y-87555555D01*
X45136170Y-87555555D01*
X45145170Y-87551992D01*
X45215870Y-87545513D01*
X45278850Y-87578286D01*
X45299329Y-87603872D01*
X45355380Y-87696424D01*
X45360269Y-87701487D01*
X45360270Y-87701488D01*
X45402381Y-87745095D01*
X45481382Y-87826902D01*
X45487278Y-87830760D01*
X45623324Y-87919786D01*
X45633159Y-87926222D01*
X45639763Y-87928678D01*
X45639765Y-87928679D01*
X45796558Y-87986990D01*
X45796560Y-87986990D01*
X45803168Y-87989448D01*
X45886995Y-88000633D01*
X45975980Y-88012507D01*
X45975984Y-88012507D01*
X45982961Y-88013438D01*
X45989972Y-88012800D01*
X45989976Y-88012800D01*
X46132459Y-87999832D01*
X46163600Y-87996998D01*
X46170302Y-87994820D01*
X46170304Y-87994820D01*
X46329409Y-87943124D01*
X46329412Y-87943123D01*
X46336108Y-87940947D01*
X46491912Y-87848069D01*
X46497018Y-87843207D01*
X46565925Y-87777588D01*
X46629050Y-87745095D01*
X46699720Y-87751888D01*
X46753643Y-87793268D01*
X46781714Y-87830723D01*
X46794276Y-87843285D01*
X46896351Y-87919786D01*
X46911946Y-87928324D01*
X47032394Y-87973478D01*
X47047649Y-87977105D01*
X47098514Y-87982631D01*
X47105328Y-87983000D01*
X47256885Y-87983000D01*
X47272124Y-87978525D01*
X47273329Y-87977135D01*
X47275000Y-87969452D01*
X47275000Y-87964884D01*
X47725000Y-87964884D01*
X47729475Y-87980123D01*
X47730865Y-87981328D01*
X47738548Y-87982999D01*
X47894669Y-87982999D01*
X47901490Y-87982629D01*
X47952352Y-87977105D01*
X47967604Y-87973479D01*
X48088054Y-87928324D01*
X48103649Y-87919786D01*
X48205724Y-87843285D01*
X48218285Y-87830724D01*
X48294786Y-87728649D01*
X48303324Y-87713054D01*
X48348478Y-87592606D01*
X48352105Y-87577351D01*
X48357631Y-87526486D01*
X48358000Y-87519672D01*
X48358000Y-87493115D01*
X48353525Y-87477876D01*
X48352135Y-87476671D01*
X48344452Y-87475000D01*
X47743115Y-87475000D01*
X47727876Y-87479475D01*
X47726671Y-87480865D01*
X47725000Y-87488548D01*
X47725000Y-87964884D01*
X47275000Y-87964884D01*
X47275000Y-87151000D01*
X47295002Y-87082879D01*
X47348658Y-87036386D01*
X47401000Y-87025000D01*
X48339884Y-87025000D01*
X48355123Y-87020525D01*
X48356328Y-87019135D01*
X48357999Y-87011452D01*
X48357999Y-86980331D01*
X48357629Y-86973510D01*
X48352105Y-86922648D01*
X48348479Y-86907396D01*
X48303324Y-86786946D01*
X48294786Y-86771351D01*
X48223311Y-86675982D01*
X48198463Y-86609475D01*
X48213516Y-86540093D01*
X48223311Y-86524852D01*
X48295229Y-86428892D01*
X48295230Y-86428890D01*
X48300615Y-86421705D01*
X48351745Y-86285316D01*
X48358500Y-86223134D01*
X48358500Y-85676866D01*
X48351745Y-85614684D01*
X48300615Y-85478295D01*
X48213261Y-85361739D01*
X48096705Y-85274385D01*
X47960316Y-85223255D01*
X47898134Y-85216500D01*
X47714595Y-85216500D01*
X47646474Y-85196498D01*
X47625500Y-85179595D01*
X47443652Y-84997747D01*
X47436112Y-84989461D01*
X47432000Y-84982982D01*
X47382348Y-84936356D01*
X47379507Y-84933602D01*
X47359770Y-84913865D01*
X47356573Y-84911385D01*
X47347551Y-84903680D01*
X47321100Y-84878841D01*
X47315321Y-84873414D01*
X47308375Y-84869595D01*
X47308372Y-84869593D01*
X47297566Y-84863652D01*
X47281047Y-84852801D01*
X47279825Y-84851853D01*
X47265041Y-84840386D01*
X47257772Y-84837241D01*
X47257768Y-84837238D01*
X47224463Y-84822826D01*
X47213813Y-84817609D01*
X47175060Y-84796305D01*
X47155437Y-84791267D01*
X47136734Y-84784863D01*
X47125420Y-84779967D01*
X47125419Y-84779967D01*
X47118145Y-84776819D01*
X47110322Y-84775580D01*
X47110312Y-84775577D01*
X47074476Y-84769901D01*
X47062856Y-84767495D01*
X47020031Y-84756500D01*
X47020652Y-84754081D01*
X46966871Y-84730626D01*
X46927469Y-84671567D01*
X46926251Y-84600581D01*
X46963604Y-84540205D01*
X47027670Y-84509608D01*
X47047738Y-84508000D01*
X55388513Y-84508000D01*
X55456634Y-84528002D01*
G37*
%TD.AperFunction*%
%TA.AperFunction,Conductor*%
G36*
X52038439Y-103968803D02*
G01*
X52112924Y-103978609D01*
X52145981Y-103982961D01*
X52150075Y-103983500D01*
X52193014Y-103983500D01*
X52334861Y-103983499D01*
X52402982Y-104003501D01*
X52423957Y-104020404D01*
X52512188Y-104108635D01*
X52526132Y-104116249D01*
X52527965Y-104116118D01*
X52534580Y-104111867D01*
X52626042Y-104020405D01*
X52688354Y-103986379D01*
X52715136Y-103983500D01*
X52838014Y-103983499D01*
X52849924Y-103983499D01*
X52878956Y-103979677D01*
X52949102Y-103990616D01*
X53002201Y-104037744D01*
X53021391Y-104106098D01*
X53020322Y-104121041D01*
X53016500Y-104150075D01*
X53016501Y-104249305D01*
X53016501Y-104284861D01*
X52996499Y-104352982D01*
X52979596Y-104373957D01*
X52891365Y-104462188D01*
X52883751Y-104476132D01*
X52883882Y-104477965D01*
X52888133Y-104484580D01*
X52979595Y-104576042D01*
X53013621Y-104638354D01*
X53016500Y-104665136D01*
X53016501Y-104849924D01*
X53031197Y-104961561D01*
X53033875Y-104968026D01*
X53033875Y-105031974D01*
X53031197Y-105038439D01*
X53016500Y-105150075D01*
X53016501Y-105247637D01*
X53016501Y-105334861D01*
X52996499Y-105402982D01*
X52979596Y-105423957D01*
X52891365Y-105512188D01*
X52883751Y-105526132D01*
X52883882Y-105527965D01*
X52888133Y-105534580D01*
X52979595Y-105626042D01*
X53013621Y-105688354D01*
X53016500Y-105715136D01*
X53016501Y-105787765D01*
X53016501Y-105849924D01*
X53017039Y-105854010D01*
X53017039Y-105854011D01*
X53020323Y-105878954D01*
X53009384Y-105949102D01*
X52962256Y-106002201D01*
X52893902Y-106021391D01*
X52878959Y-106020322D01*
X52849925Y-106016500D01*
X52838018Y-106016500D01*
X52715138Y-106016501D01*
X52647018Y-105996499D01*
X52626043Y-105979596D01*
X52537812Y-105891365D01*
X52523868Y-105883751D01*
X52522035Y-105883882D01*
X52515420Y-105888133D01*
X52423958Y-105979595D01*
X52361646Y-106013621D01*
X52334864Y-106016500D01*
X52193027Y-106016501D01*
X52150076Y-106016501D01*
X52145991Y-106017039D01*
X52145987Y-106017039D01*
X52079656Y-106025771D01*
X52038439Y-106031197D01*
X52031974Y-106033875D01*
X51968026Y-106033875D01*
X51961561Y-106031197D01*
X51867992Y-106018879D01*
X51854012Y-106017038D01*
X51854011Y-106017038D01*
X51849925Y-106016500D01*
X51806986Y-106016500D01*
X51665139Y-106016501D01*
X51597018Y-105996499D01*
X51576043Y-105979596D01*
X51487812Y-105891365D01*
X51473868Y-105883751D01*
X51472035Y-105883882D01*
X51465420Y-105888133D01*
X51373958Y-105979595D01*
X51311646Y-106013621D01*
X51284864Y-106016500D01*
X51161986Y-106016501D01*
X51150076Y-106016501D01*
X51121044Y-106020323D01*
X51050898Y-106009384D01*
X50997799Y-105962256D01*
X50978609Y-105893902D01*
X50979678Y-105878954D01*
X50982962Y-105854010D01*
X50983500Y-105849925D01*
X50983499Y-105715138D01*
X51003501Y-105647018D01*
X51020404Y-105626043D01*
X51108635Y-105537812D01*
X51115013Y-105526132D01*
X51833751Y-105526132D01*
X51833882Y-105527965D01*
X51838133Y-105534580D01*
X51987188Y-105683635D01*
X52001132Y-105691249D01*
X52002965Y-105691118D01*
X52009580Y-105686867D01*
X52158635Y-105537812D01*
X52166249Y-105523868D01*
X52166118Y-105522035D01*
X52161867Y-105515420D01*
X52012812Y-105366365D01*
X51998868Y-105358751D01*
X51997035Y-105358882D01*
X51990420Y-105363133D01*
X51841365Y-105512188D01*
X51833751Y-105526132D01*
X51115013Y-105526132D01*
X51116249Y-105523868D01*
X51116118Y-105522035D01*
X51111867Y-105515420D01*
X51020405Y-105423958D01*
X50986379Y-105361646D01*
X50983500Y-105334864D01*
X50983499Y-105154199D01*
X50983499Y-105150076D01*
X50981176Y-105132425D01*
X50969881Y-105046629D01*
X50968803Y-105038439D01*
X50966125Y-105031974D01*
X50966125Y-105001132D01*
X51308751Y-105001132D01*
X51308882Y-105002965D01*
X51313133Y-105009580D01*
X51462188Y-105158635D01*
X51476132Y-105166249D01*
X51477965Y-105166118D01*
X51484580Y-105161867D01*
X51633635Y-105012812D01*
X51640013Y-105001132D01*
X52358751Y-105001132D01*
X52358882Y-105002965D01*
X52363133Y-105009580D01*
X52512188Y-105158635D01*
X52526132Y-105166249D01*
X52527965Y-105166118D01*
X52534580Y-105161867D01*
X52683635Y-105012812D01*
X52691249Y-104998868D01*
X52691118Y-104997035D01*
X52686867Y-104990420D01*
X52537812Y-104841365D01*
X52523868Y-104833751D01*
X52522035Y-104833882D01*
X52515420Y-104838133D01*
X52366365Y-104987188D01*
X52358751Y-105001132D01*
X51640013Y-105001132D01*
X51641249Y-104998868D01*
X51641118Y-104997035D01*
X51636867Y-104990420D01*
X51487812Y-104841365D01*
X51473868Y-104833751D01*
X51472035Y-104833882D01*
X51465420Y-104838133D01*
X51316365Y-104987188D01*
X51308751Y-105001132D01*
X50966125Y-105001132D01*
X50966125Y-104968026D01*
X50968803Y-104961561D01*
X50983500Y-104849925D01*
X50983499Y-104665139D01*
X51003501Y-104597018D01*
X51020404Y-104576043D01*
X51108635Y-104487812D01*
X51115013Y-104476132D01*
X51833751Y-104476132D01*
X51833882Y-104477965D01*
X51838133Y-104484580D01*
X51987188Y-104633635D01*
X52001132Y-104641249D01*
X52002965Y-104641118D01*
X52009580Y-104636867D01*
X52158635Y-104487812D01*
X52166249Y-104473868D01*
X52166118Y-104472035D01*
X52161867Y-104465420D01*
X52012812Y-104316365D01*
X51998868Y-104308751D01*
X51997035Y-104308882D01*
X51990420Y-104313133D01*
X51841365Y-104462188D01*
X51833751Y-104476132D01*
X51115013Y-104476132D01*
X51116249Y-104473868D01*
X51116118Y-104472035D01*
X51111867Y-104465420D01*
X51020405Y-104373958D01*
X50986379Y-104311646D01*
X50983500Y-104284864D01*
X50983499Y-104154199D01*
X50983499Y-104150076D01*
X50979677Y-104121044D01*
X50990616Y-104050898D01*
X51037744Y-103997799D01*
X51106098Y-103978609D01*
X51121041Y-103979678D01*
X51150075Y-103983500D01*
X51161982Y-103983500D01*
X51284862Y-103983499D01*
X51352982Y-104003501D01*
X51373957Y-104020404D01*
X51462188Y-104108635D01*
X51476132Y-104116249D01*
X51477965Y-104116118D01*
X51484580Y-104111867D01*
X51576042Y-104020405D01*
X51638354Y-103986379D01*
X51665136Y-103983500D01*
X51806973Y-103983499D01*
X51849924Y-103983499D01*
X51854009Y-103982961D01*
X51854013Y-103982961D01*
X51920344Y-103974229D01*
X51961561Y-103968803D01*
X51968026Y-103966125D01*
X52031974Y-103966125D01*
X52038439Y-103968803D01*
G37*
%TD.AperFunction*%
%TA.AperFunction,Conductor*%
G36*
X58970056Y-84509500D02*
G01*
X58972284Y-84509847D01*
X58984859Y-84511805D01*
X58984861Y-84511805D01*
X58993730Y-84513186D01*
X59002632Y-84512022D01*
X59002634Y-84512022D01*
X59008959Y-84511195D01*
X59034282Y-84510452D01*
X59198126Y-84522170D01*
X59203343Y-84522543D01*
X59221137Y-84525101D01*
X59411540Y-84566521D01*
X59428788Y-84571586D01*
X59611358Y-84639682D01*
X59627710Y-84647149D01*
X59636470Y-84651932D01*
X59798734Y-84740534D01*
X59813848Y-84750248D01*
X59910802Y-84822826D01*
X59969842Y-84867023D01*
X59983428Y-84878796D01*
X60121204Y-85016572D01*
X60132977Y-85030158D01*
X60249752Y-85186152D01*
X60259466Y-85201266D01*
X60310848Y-85295366D01*
X60352851Y-85372290D01*
X60360318Y-85388642D01*
X60428414Y-85571212D01*
X60433479Y-85588460D01*
X60439026Y-85613955D01*
X60474899Y-85778863D01*
X60477457Y-85796657D01*
X60488790Y-85955114D01*
X60489041Y-85958629D01*
X60488297Y-85976533D01*
X60488195Y-85984858D01*
X60486814Y-85993730D01*
X60487978Y-86002632D01*
X60487978Y-86002635D01*
X60490936Y-86025251D01*
X60492000Y-86041589D01*
X60492000Y-101392312D01*
X60471998Y-101460433D01*
X60418342Y-101506926D01*
X60348068Y-101517030D01*
X60283488Y-101487536D01*
X60259146Y-101459081D01*
X60191359Y-101350598D01*
X60187626Y-101344624D01*
X60169532Y-101326403D01*
X60064778Y-101220915D01*
X60064774Y-101220912D01*
X60059815Y-101215918D01*
X59906666Y-101118727D01*
X59877463Y-101108328D01*
X59742425Y-101060243D01*
X59742420Y-101060242D01*
X59735790Y-101057881D01*
X59728802Y-101057048D01*
X59728799Y-101057047D01*
X59603481Y-101042104D01*
X59555680Y-101036404D01*
X59548677Y-101037140D01*
X59548676Y-101037140D01*
X59382288Y-101054628D01*
X59382286Y-101054629D01*
X59375288Y-101055364D01*
X59333055Y-101069741D01*
X59262124Y-101072759D01*
X59228312Y-101058916D01*
X59186423Y-101034143D01*
X59186424Y-101034143D01*
X59179597Y-101030106D01*
X59171986Y-101027895D01*
X59171984Y-101027894D01*
X59098144Y-101006442D01*
X59022254Y-100984394D01*
X59015849Y-100983890D01*
X59015844Y-100983889D01*
X58987940Y-100981693D01*
X58987932Y-100981693D01*
X58985484Y-100981500D01*
X58574516Y-100981500D01*
X58572068Y-100981693D01*
X58572060Y-100981693D01*
X58544156Y-100983889D01*
X58544151Y-100983890D01*
X58537746Y-100984394D01*
X58461856Y-101006442D01*
X58388016Y-101027894D01*
X58388014Y-101027895D01*
X58380403Y-101030106D01*
X58373576Y-101034143D01*
X58373577Y-101034143D01*
X58363647Y-101040015D01*
X58294830Y-101057474D01*
X58235372Y-101040016D01*
X58226222Y-101034605D01*
X58211784Y-101028357D01*
X58091395Y-100993381D01*
X58077295Y-100993421D01*
X58074000Y-101000691D01*
X58074000Y-101278621D01*
X58056454Y-101342760D01*
X58040106Y-101370403D01*
X58037895Y-101378014D01*
X58037894Y-101378016D01*
X58023084Y-101428995D01*
X57994394Y-101527746D01*
X57993890Y-101534151D01*
X57993889Y-101534156D01*
X57993191Y-101543031D01*
X57991500Y-101564516D01*
X57991500Y-102035484D01*
X57991693Y-102037932D01*
X57991693Y-102037940D01*
X57993184Y-102056876D01*
X57994394Y-102072254D01*
X58040106Y-102229597D01*
X58044141Y-102236419D01*
X58044141Y-102236420D01*
X58056454Y-102257240D01*
X58074000Y-102321379D01*
X58074000Y-102566865D01*
X58053998Y-102634986D01*
X58043225Y-102649377D01*
X58030671Y-102663865D01*
X58029000Y-102671548D01*
X58029000Y-103203000D01*
X58008998Y-103271121D01*
X57955342Y-103317614D01*
X57903000Y-103329000D01*
X57046115Y-103329000D01*
X57001720Y-103342035D01*
X56991043Y-103348897D01*
X56955548Y-103354000D01*
X56094500Y-103354000D01*
X56026379Y-103333998D01*
X55979886Y-103280342D01*
X55968500Y-103228000D01*
X55968499Y-102852484D01*
X55968499Y-102850012D01*
X55966758Y-102827885D01*
X56464000Y-102827885D01*
X56468475Y-102843124D01*
X56469865Y-102844329D01*
X56477548Y-102846000D01*
X56758885Y-102846000D01*
X56803280Y-102832965D01*
X56813957Y-102826103D01*
X56849452Y-102821000D01*
X57502885Y-102821000D01*
X57518124Y-102816525D01*
X57519329Y-102815135D01*
X57521000Y-102807452D01*
X57521000Y-102218135D01*
X57541002Y-102150014D01*
X57551775Y-102135623D01*
X57564329Y-102121135D01*
X57566000Y-102113452D01*
X57566000Y-102072115D01*
X57561525Y-102056876D01*
X57560135Y-102055671D01*
X57552452Y-102054000D01*
X57051576Y-102054000D01*
X57036781Y-102058344D01*
X57034937Y-102068775D01*
X57036688Y-102078359D01*
X57079753Y-102226589D01*
X57079550Y-102297585D01*
X57047851Y-102350837D01*
X56969130Y-102429558D01*
X56968843Y-102429924D01*
X56968567Y-102430121D01*
X56963758Y-102434930D01*
X56962956Y-102434128D01*
X56911065Y-102471182D01*
X56840153Y-102474654D01*
X56780602Y-102441262D01*
X56747841Y-102408501D01*
X56735405Y-102398854D01*
X56609222Y-102324230D01*
X56594783Y-102317981D01*
X56481395Y-102285039D01*
X56467295Y-102285079D01*
X56464000Y-102292349D01*
X56464000Y-102827885D01*
X55966758Y-102827885D01*
X55965629Y-102813534D01*
X55961413Y-102799020D01*
X55961003Y-102797610D01*
X55956000Y-102762458D01*
X55956000Y-102298100D01*
X55951525Y-102282861D01*
X55947127Y-102279050D01*
X55908743Y-102219324D01*
X55908743Y-102148327D01*
X55923581Y-102119119D01*
X55922367Y-102118418D01*
X55926499Y-102111262D01*
X55931524Y-102104713D01*
X55942411Y-102078431D01*
X55989678Y-101964317D01*
X55992838Y-101956688D01*
X55995643Y-101935381D01*
X56022976Y-101873258D01*
X56023266Y-101872982D01*
X56032903Y-101858478D01*
X56074257Y-101796234D01*
X56123643Y-101721902D01*
X56188055Y-101552338D01*
X56191249Y-101529609D01*
X57035232Y-101529609D01*
X57038052Y-101543031D01*
X57049513Y-101546000D01*
X57547885Y-101546000D01*
X57563124Y-101541525D01*
X57564329Y-101540135D01*
X57566000Y-101532452D01*
X57566000Y-101006442D01*
X57562027Y-100992911D01*
X57554129Y-100991776D01*
X57428216Y-101028357D01*
X57413780Y-101034604D01*
X57286501Y-101109876D01*
X57274074Y-101119516D01*
X57169516Y-101224074D01*
X57159876Y-101236501D01*
X57084604Y-101363780D01*
X57078357Y-101378216D01*
X57036688Y-101521641D01*
X57035232Y-101529609D01*
X56191249Y-101529609D01*
X56191511Y-101527746D01*
X56212748Y-101376639D01*
X56212748Y-101376636D01*
X56213299Y-101372717D01*
X56213616Y-101350000D01*
X56193397Y-101169745D01*
X56176947Y-101122506D01*
X56136064Y-101005106D01*
X56136062Y-101005103D01*
X56133745Y-100998448D01*
X56037626Y-100844624D01*
X56028835Y-100835771D01*
X55914778Y-100720915D01*
X55914774Y-100720912D01*
X55909815Y-100715918D01*
X55898697Y-100708862D01*
X55824140Y-100661547D01*
X55756666Y-100618727D01*
X55717071Y-100604628D01*
X55592425Y-100560243D01*
X55592420Y-100560242D01*
X55585790Y-100557881D01*
X55578802Y-100557048D01*
X55578799Y-100557047D01*
X55455698Y-100542368D01*
X55405680Y-100536404D01*
X55398677Y-100537140D01*
X55398676Y-100537140D01*
X55232288Y-100554628D01*
X55232286Y-100554629D01*
X55225288Y-100555364D01*
X55053579Y-100613818D01*
X55047575Y-100617512D01*
X54905095Y-100705166D01*
X54905092Y-100705168D01*
X54899088Y-100708862D01*
X54894053Y-100713793D01*
X54894050Y-100713795D01*
X54769493Y-100835771D01*
X54767800Y-100834042D01*
X54718576Y-100867787D01*
X54679498Y-100874000D01*
X54421379Y-100874000D01*
X54357240Y-100856454D01*
X54336420Y-100844141D01*
X54336419Y-100844141D01*
X54329597Y-100840106D01*
X54321986Y-100837895D01*
X54321984Y-100837894D01*
X54271005Y-100823084D01*
X54172254Y-100794394D01*
X54165849Y-100793890D01*
X54165844Y-100793889D01*
X54137940Y-100791693D01*
X54137932Y-100791693D01*
X54135484Y-100791500D01*
X53664516Y-100791500D01*
X53662068Y-100791693D01*
X53662060Y-100791693D01*
X53634156Y-100793889D01*
X53634151Y-100793890D01*
X53627746Y-100794394D01*
X53528995Y-100823084D01*
X53478016Y-100837894D01*
X53478014Y-100837895D01*
X53470403Y-100840106D01*
X53463581Y-100844141D01*
X53456303Y-100847290D01*
X53455722Y-100845947D01*
X53395315Y-100861269D01*
X53344149Y-100846245D01*
X53343697Y-100847290D01*
X53336419Y-100844141D01*
X53329597Y-100840106D01*
X53321986Y-100837895D01*
X53321984Y-100837894D01*
X53271005Y-100823084D01*
X53172254Y-100794394D01*
X53165849Y-100793890D01*
X53165844Y-100793889D01*
X53137940Y-100791693D01*
X53137932Y-100791693D01*
X53135484Y-100791500D01*
X52664516Y-100791500D01*
X52662068Y-100791693D01*
X52662060Y-100791693D01*
X52634156Y-100793889D01*
X52634151Y-100793890D01*
X52627746Y-100794394D01*
X52528995Y-100823084D01*
X52478016Y-100837894D01*
X52478014Y-100837895D01*
X52470403Y-100840106D01*
X52463581Y-100844141D01*
X52456303Y-100847290D01*
X52455722Y-100845947D01*
X52395315Y-100861269D01*
X52344149Y-100846245D01*
X52343697Y-100847290D01*
X52336419Y-100844141D01*
X52329597Y-100840106D01*
X52321986Y-100837895D01*
X52321984Y-100837894D01*
X52271005Y-100823084D01*
X52172254Y-100794394D01*
X52165849Y-100793890D01*
X52165844Y-100793889D01*
X52137940Y-100791693D01*
X52137932Y-100791693D01*
X52135484Y-100791500D01*
X51865500Y-100791500D01*
X51797379Y-100771498D01*
X51750886Y-100717842D01*
X51739500Y-100665500D01*
X51739500Y-100347885D01*
X52154000Y-100347885D01*
X52158475Y-100363124D01*
X52159865Y-100364329D01*
X52167548Y-100366000D01*
X52627885Y-100366000D01*
X52643124Y-100361525D01*
X52644329Y-100360135D01*
X52646000Y-100352452D01*
X52646000Y-100347885D01*
X53154000Y-100347885D01*
X53158475Y-100363124D01*
X53159865Y-100364329D01*
X53167548Y-100366000D01*
X53627885Y-100366000D01*
X53643124Y-100361525D01*
X53644329Y-100360135D01*
X53646000Y-100352452D01*
X53646000Y-100347885D01*
X54154000Y-100347885D01*
X54158475Y-100363124D01*
X54159865Y-100364329D01*
X54167548Y-100366000D01*
X54693558Y-100366000D01*
X54707089Y-100362027D01*
X54708224Y-100354129D01*
X54671643Y-100228216D01*
X54665396Y-100213780D01*
X54590124Y-100086501D01*
X54580484Y-100074074D01*
X54475926Y-99969516D01*
X54463499Y-99959876D01*
X54336220Y-99884604D01*
X54321784Y-99878357D01*
X54178359Y-99836688D01*
X54170391Y-99835232D01*
X54156969Y-99838052D01*
X54154000Y-99849513D01*
X54154000Y-100347885D01*
X53646000Y-100347885D01*
X53646000Y-99851576D01*
X53641656Y-99836781D01*
X53631225Y-99834937D01*
X53621641Y-99836688D01*
X53478216Y-99878357D01*
X53456503Y-99887753D01*
X53455947Y-99886469D01*
X53395326Y-99901851D01*
X53343927Y-99886759D01*
X53343497Y-99887753D01*
X53321784Y-99878357D01*
X53178359Y-99836688D01*
X53170391Y-99835232D01*
X53156969Y-99838052D01*
X53154000Y-99849513D01*
X53154000Y-100347885D01*
X52646000Y-100347885D01*
X52646000Y-99851576D01*
X52641656Y-99836781D01*
X52631225Y-99834937D01*
X52621641Y-99836688D01*
X52478216Y-99878357D01*
X52456503Y-99887753D01*
X52455947Y-99886469D01*
X52395326Y-99901851D01*
X52343927Y-99886759D01*
X52343497Y-99887753D01*
X52321784Y-99878357D01*
X52178359Y-99836688D01*
X52170391Y-99835232D01*
X52156969Y-99838052D01*
X52154000Y-99849513D01*
X52154000Y-100347885D01*
X51739500Y-100347885D01*
X51739500Y-98058119D01*
X51740578Y-98041673D01*
X51743569Y-98018954D01*
X51744647Y-98010766D01*
X51724146Y-97855047D01*
X51688391Y-97768727D01*
X51664042Y-97709943D01*
X51608119Y-97637062D01*
X51573456Y-97591888D01*
X51573455Y-97591887D01*
X51568429Y-97585337D01*
X51561879Y-97580311D01*
X51561876Y-97580308D01*
X51543690Y-97566354D01*
X51531299Y-97555487D01*
X50661580Y-96685768D01*
X53047425Y-96685768D01*
X53079138Y-96793521D01*
X53083731Y-96804889D01*
X53169607Y-96969154D01*
X53176321Y-96979415D01*
X53292468Y-97123873D01*
X53301046Y-97132632D01*
X53443039Y-97251778D01*
X53453159Y-97258708D01*
X53615585Y-97348002D01*
X53626858Y-97352834D01*
X53803538Y-97408880D01*
X53815532Y-97411430D01*
X53959761Y-97427607D01*
X53966785Y-97428000D01*
X54297885Y-97428000D01*
X54313124Y-97423525D01*
X54314329Y-97422135D01*
X54316000Y-97414452D01*
X54316000Y-97409885D01*
X54824000Y-97409885D01*
X54828475Y-97425124D01*
X54829865Y-97426329D01*
X54837548Y-97428000D01*
X55166657Y-97428000D01*
X55172805Y-97427699D01*
X55310603Y-97414188D01*
X55322638Y-97411805D01*
X55500076Y-97358233D01*
X55511416Y-97353559D01*
X55675077Y-97266540D01*
X55685294Y-97259751D01*
X55828933Y-97142603D01*
X55837637Y-97133959D01*
X55955784Y-96991144D01*
X55962644Y-96980973D01*
X56050804Y-96817924D01*
X56055556Y-96806619D01*
X56091250Y-96691308D01*
X56091331Y-96685768D01*
X57477425Y-96685768D01*
X57509138Y-96793521D01*
X57513731Y-96804889D01*
X57599607Y-96969154D01*
X57606321Y-96979415D01*
X57722468Y-97123873D01*
X57731046Y-97132632D01*
X57873039Y-97251778D01*
X57883159Y-97258708D01*
X58045585Y-97348002D01*
X58056858Y-97352834D01*
X58233538Y-97408880D01*
X58245532Y-97411430D01*
X58389761Y-97427607D01*
X58396785Y-97428000D01*
X58477885Y-97428000D01*
X58493124Y-97423525D01*
X58494329Y-97422135D01*
X58496000Y-97414452D01*
X58496000Y-97409885D01*
X59004000Y-97409885D01*
X59008475Y-97425124D01*
X59009865Y-97426329D01*
X59017548Y-97428000D01*
X59096657Y-97428000D01*
X59102805Y-97427699D01*
X59240603Y-97414188D01*
X59252638Y-97411805D01*
X59430076Y-97358233D01*
X59441416Y-97353559D01*
X59605077Y-97266540D01*
X59615294Y-97259751D01*
X59758933Y-97142603D01*
X59767637Y-97133959D01*
X59885784Y-96991144D01*
X59892644Y-96980973D01*
X59980804Y-96817924D01*
X59985556Y-96806619D01*
X60021250Y-96691308D01*
X60021456Y-96677205D01*
X60014701Y-96674000D01*
X59022115Y-96674000D01*
X59006876Y-96678475D01*
X59005671Y-96679865D01*
X59004000Y-96687548D01*
X59004000Y-97409885D01*
X58496000Y-97409885D01*
X58496000Y-96692115D01*
X58491525Y-96676876D01*
X58490135Y-96675671D01*
X58482452Y-96674000D01*
X57492076Y-96674000D01*
X57478545Y-96677973D01*
X57477425Y-96685768D01*
X56091331Y-96685768D01*
X56091456Y-96677205D01*
X56084701Y-96674000D01*
X54842115Y-96674000D01*
X54826876Y-96678475D01*
X54825671Y-96679865D01*
X54824000Y-96687548D01*
X54824000Y-97409885D01*
X54316000Y-97409885D01*
X54316000Y-96692115D01*
X54311525Y-96676876D01*
X54310135Y-96675671D01*
X54302452Y-96674000D01*
X53062076Y-96674000D01*
X53048545Y-96677973D01*
X53047425Y-96685768D01*
X50661580Y-96685768D01*
X48586405Y-94610592D01*
X48552379Y-94548280D01*
X48549500Y-94521497D01*
X48549500Y-93670003D01*
X49553579Y-93670003D01*
X49554363Y-93679977D01*
X49556662Y-93692564D01*
X49597981Y-93834783D01*
X49604230Y-93849222D01*
X49678854Y-93975405D01*
X49688501Y-93987841D01*
X49792159Y-94091499D01*
X49804595Y-94101146D01*
X49930778Y-94175770D01*
X49945217Y-94182019D01*
X50058605Y-94214961D01*
X50072705Y-94214921D01*
X50076000Y-94207651D01*
X50076000Y-93672115D01*
X50071525Y-93656876D01*
X50070135Y-93655671D01*
X50062452Y-93654000D01*
X49570434Y-93654000D01*
X49555639Y-93658344D01*
X49553579Y-93670003D01*
X48549500Y-93670003D01*
X48549500Y-92898503D01*
X48569502Y-92830382D01*
X48586405Y-92809408D01*
X49044424Y-92351389D01*
X49106736Y-92317363D01*
X49133519Y-92314484D01*
X49775981Y-92314484D01*
X49844102Y-92334486D01*
X49860490Y-92347693D01*
X49862577Y-92350413D01*
X49869123Y-92355436D01*
X49945865Y-92414322D01*
X49987732Y-92471660D01*
X49991954Y-92542531D01*
X49957190Y-92604434D01*
X49933301Y-92622738D01*
X49804592Y-92698857D01*
X49792159Y-92708501D01*
X49688501Y-92812159D01*
X49678854Y-92824595D01*
X49604230Y-92950778D01*
X49597981Y-92965217D01*
X49556662Y-93107436D01*
X49554363Y-93120023D01*
X49553740Y-93127943D01*
X49556910Y-93143030D01*
X49568374Y-93146000D01*
X50445500Y-93146000D01*
X50513621Y-93166002D01*
X50560114Y-93219658D01*
X50571500Y-93272000D01*
X50571501Y-93537530D01*
X50571501Y-93649988D01*
X50574371Y-93686466D01*
X50576167Y-93692648D01*
X50576168Y-93692653D01*
X50578997Y-93702390D01*
X50584000Y-93737542D01*
X50584000Y-94201900D01*
X50587973Y-94215431D01*
X50595871Y-94216566D01*
X50714783Y-94182019D01*
X50729220Y-94175771D01*
X50775370Y-94148478D01*
X50844187Y-94131018D01*
X50903646Y-94148477D01*
X50957404Y-94180269D01*
X50965015Y-94182480D01*
X50965017Y-94182481D01*
X51031741Y-94201866D01*
X51113534Y-94225629D01*
X51119941Y-94226133D01*
X51119945Y-94226134D01*
X51147556Y-94228307D01*
X51147562Y-94228307D01*
X51150011Y-94228500D01*
X51349878Y-94228500D01*
X51549988Y-94228499D01*
X51586466Y-94225629D01*
X51692215Y-94194906D01*
X51734983Y-94182481D01*
X51734985Y-94182480D01*
X51742596Y-94180269D01*
X51750204Y-94175770D01*
X51875720Y-94101540D01*
X51882541Y-94097506D01*
X51984642Y-93995405D01*
X52046954Y-93961379D01*
X52073737Y-93958500D01*
X52298709Y-93958500D01*
X52366830Y-93978502D01*
X52413323Y-94032158D01*
X52423972Y-94070892D01*
X52428255Y-94110316D01*
X52425826Y-94110580D01*
X52425826Y-94139420D01*
X52428255Y-94139684D01*
X52421500Y-94201866D01*
X52421500Y-94898134D01*
X52425909Y-94938720D01*
X52425909Y-94965933D01*
X52422369Y-94998517D01*
X52422000Y-95005328D01*
X52422000Y-95077885D01*
X52426475Y-95093124D01*
X52427865Y-95094329D01*
X52441410Y-95097275D01*
X52503722Y-95131299D01*
X52515444Y-95144818D01*
X52566739Y-95213261D01*
X52683295Y-95300615D01*
X52819684Y-95351745D01*
X52827536Y-95352598D01*
X52827540Y-95352599D01*
X52828815Y-95352737D01*
X52829741Y-95353122D01*
X52835222Y-95354425D01*
X52835011Y-95355312D01*
X52894377Y-95379979D01*
X52934804Y-95438341D01*
X52937260Y-95509296D01*
X52900965Y-95570314D01*
X52837443Y-95602023D01*
X52815208Y-95604000D01*
X52440116Y-95604000D01*
X52424877Y-95608475D01*
X52423672Y-95609865D01*
X52422001Y-95617548D01*
X52422001Y-95694669D01*
X52422371Y-95701490D01*
X52427895Y-95752352D01*
X52431521Y-95767604D01*
X52476676Y-95888054D01*
X52485214Y-95903649D01*
X52561715Y-96005724D01*
X52574276Y-96018285D01*
X52676351Y-96094786D01*
X52691946Y-96103324D01*
X52812394Y-96148478D01*
X52827649Y-96152105D01*
X52878514Y-96157631D01*
X52885328Y-96158000D01*
X53010066Y-96158000D01*
X53044108Y-96165665D01*
X53048352Y-96166000D01*
X53382885Y-96166000D01*
X53398124Y-96161525D01*
X53399329Y-96160135D01*
X53401000Y-96152452D01*
X53401000Y-95622115D01*
X53396525Y-95606876D01*
X53385947Y-95597710D01*
X53341786Y-95573596D01*
X53307761Y-95511284D01*
X53312825Y-95440468D01*
X53355372Y-95383632D01*
X53421892Y-95358821D01*
X53430881Y-95358500D01*
X53783000Y-95358500D01*
X53851121Y-95378502D01*
X53897614Y-95432158D01*
X53909000Y-95484500D01*
X53909000Y-96147885D01*
X53913475Y-96163124D01*
X53914865Y-96164329D01*
X53922548Y-96166000D01*
X54297885Y-96166000D01*
X54313124Y-96161525D01*
X54314329Y-96160135D01*
X54316000Y-96152452D01*
X54316000Y-95694126D01*
X54336002Y-95626005D01*
X54389658Y-95579512D01*
X54459932Y-95569408D01*
X54520539Y-95598824D01*
X54521813Y-95597157D01*
X54660257Y-95703006D01*
X54660261Y-95703009D01*
X54665678Y-95707150D01*
X54671858Y-95710032D01*
X54671860Y-95710033D01*
X54751250Y-95747053D01*
X54804535Y-95793970D01*
X54824000Y-95861248D01*
X54824000Y-96147885D01*
X54828475Y-96163124D01*
X54829865Y-96164329D01*
X54837548Y-96166000D01*
X56077924Y-96166000D01*
X56088839Y-96162795D01*
X57478544Y-96162795D01*
X57485299Y-96166000D01*
X58477885Y-96166000D01*
X58493124Y-96161525D01*
X58494329Y-96160135D01*
X58496000Y-96152452D01*
X58496000Y-96147885D01*
X59004000Y-96147885D01*
X59008475Y-96163124D01*
X59009865Y-96164329D01*
X59017548Y-96166000D01*
X60007924Y-96166000D01*
X60021455Y-96162027D01*
X60022575Y-96154232D01*
X59990862Y-96046479D01*
X59986269Y-96035111D01*
X59900393Y-95870846D01*
X59893679Y-95860585D01*
X59777532Y-95716127D01*
X59768954Y-95707368D01*
X59626961Y-95588222D01*
X59616841Y-95581292D01*
X59454415Y-95491998D01*
X59443142Y-95487166D01*
X59266462Y-95431120D01*
X59254468Y-95428570D01*
X59110239Y-95412393D01*
X59103215Y-95412000D01*
X59022115Y-95412000D01*
X59006876Y-95416475D01*
X59005671Y-95417865D01*
X59004000Y-95425548D01*
X59004000Y-96147885D01*
X58496000Y-96147885D01*
X58496000Y-95430115D01*
X58491525Y-95414876D01*
X58490135Y-95413671D01*
X58482452Y-95412000D01*
X58403343Y-95412000D01*
X58397195Y-95412301D01*
X58259397Y-95425812D01*
X58247362Y-95428195D01*
X58069924Y-95481767D01*
X58058584Y-95486441D01*
X57894923Y-95573460D01*
X57884706Y-95580249D01*
X57741067Y-95697397D01*
X57732363Y-95706041D01*
X57614216Y-95848856D01*
X57607356Y-95859027D01*
X57519196Y-96022076D01*
X57514444Y-96033381D01*
X57478750Y-96148692D01*
X57478544Y-96162795D01*
X56088839Y-96162795D01*
X56091455Y-96162027D01*
X56092575Y-96154232D01*
X56060862Y-96046479D01*
X56056269Y-96035111D01*
X55970393Y-95870846D01*
X55963679Y-95860585D01*
X55847532Y-95716127D01*
X55838955Y-95707368D01*
X55786890Y-95663681D01*
X55747564Y-95604572D01*
X55746437Y-95533584D01*
X55763669Y-95496336D01*
X55836442Y-95389255D01*
X55840277Y-95383612D01*
X55907530Y-95215466D01*
X55908644Y-95208738D01*
X55908645Y-95208734D01*
X55935993Y-95043539D01*
X55935993Y-95043536D01*
X55937108Y-95036802D01*
X55935459Y-95005328D01*
X55927987Y-94862766D01*
X55927630Y-94855953D01*
X55925459Y-94848069D01*
X55881352Y-94687941D01*
X55879539Y-94681359D01*
X55795078Y-94521164D01*
X55790673Y-94515951D01*
X55790670Y-94515947D01*
X55682594Y-94388057D01*
X55682590Y-94388053D01*
X55678187Y-94382843D01*
X55626362Y-94343220D01*
X55584394Y-94285956D01*
X55580049Y-94215092D01*
X55586482Y-94194906D01*
X55594408Y-94175771D01*
X55642838Y-94058851D01*
X55648153Y-94018476D01*
X55658500Y-93939885D01*
X55658500Y-93939880D01*
X55663750Y-93900000D01*
X55659578Y-93868307D01*
X55658500Y-93851864D01*
X55658500Y-90319122D01*
X55659578Y-90302676D01*
X55662673Y-90279166D01*
X55663751Y-90270978D01*
X55642838Y-90112128D01*
X55596189Y-89999506D01*
X55588600Y-89928919D01*
X55620379Y-89865432D01*
X55626025Y-89859742D01*
X55733527Y-89758082D01*
X55733529Y-89758080D01*
X55738485Y-89753393D01*
X55742317Y-89747755D01*
X55742320Y-89747751D01*
X55836442Y-89609255D01*
X55840277Y-89603612D01*
X55907530Y-89435466D01*
X55908644Y-89428738D01*
X55908645Y-89428734D01*
X55935993Y-89263539D01*
X55935993Y-89263536D01*
X55937108Y-89256802D01*
X55936483Y-89244861D01*
X55928455Y-89091693D01*
X55927630Y-89075953D01*
X55919303Y-89045720D01*
X55881352Y-88907941D01*
X55879539Y-88901359D01*
X55795078Y-88741164D01*
X55790673Y-88735951D01*
X55790670Y-88735947D01*
X55772306Y-88714217D01*
X55743614Y-88649276D01*
X55754587Y-88579132D01*
X55788908Y-88535246D01*
X55828933Y-88502603D01*
X55837637Y-88493959D01*
X55955784Y-88351144D01*
X55962644Y-88340973D01*
X56050804Y-88177924D01*
X56055556Y-88166619D01*
X56091250Y-88051308D01*
X56091331Y-88045768D01*
X57477425Y-88045768D01*
X57509138Y-88153521D01*
X57513731Y-88164889D01*
X57599607Y-88329154D01*
X57606321Y-88339415D01*
X57722468Y-88483873D01*
X57731046Y-88492632D01*
X57873039Y-88611778D01*
X57883159Y-88618708D01*
X58045585Y-88708002D01*
X58056858Y-88712834D01*
X58233538Y-88768880D01*
X58245532Y-88771430D01*
X58389761Y-88787607D01*
X58396785Y-88788000D01*
X58477885Y-88788000D01*
X58493124Y-88783525D01*
X58494329Y-88782135D01*
X58496000Y-88774452D01*
X58496000Y-88769885D01*
X59004000Y-88769885D01*
X59008475Y-88785124D01*
X59009865Y-88786329D01*
X59017548Y-88788000D01*
X59096657Y-88788000D01*
X59102805Y-88787699D01*
X59240603Y-88774188D01*
X59252638Y-88771805D01*
X59430076Y-88718233D01*
X59441416Y-88713559D01*
X59605077Y-88626540D01*
X59615294Y-88619751D01*
X59758933Y-88502603D01*
X59767637Y-88493959D01*
X59885784Y-88351144D01*
X59892644Y-88340973D01*
X59980804Y-88177924D01*
X59985556Y-88166619D01*
X60021250Y-88051308D01*
X60021456Y-88037205D01*
X60014701Y-88034000D01*
X59022115Y-88034000D01*
X59006876Y-88038475D01*
X59005671Y-88039865D01*
X59004000Y-88047548D01*
X59004000Y-88769885D01*
X58496000Y-88769885D01*
X58496000Y-88052115D01*
X58491525Y-88036876D01*
X58490135Y-88035671D01*
X58482452Y-88034000D01*
X57492076Y-88034000D01*
X57478545Y-88037973D01*
X57477425Y-88045768D01*
X56091331Y-88045768D01*
X56091456Y-88037205D01*
X56084701Y-88034000D01*
X54842115Y-88034000D01*
X54826876Y-88038475D01*
X54825671Y-88039865D01*
X54824000Y-88047548D01*
X54824000Y-88334170D01*
X54803998Y-88402291D01*
X54751782Y-88447743D01*
X54748325Y-88448906D01*
X54742480Y-88452418D01*
X54742478Y-88452419D01*
X54691498Y-88483051D01*
X54593095Y-88542177D01*
X54588138Y-88546865D01*
X54588135Y-88546867D01*
X54528573Y-88603193D01*
X54465336Y-88635465D01*
X54394689Y-88628425D01*
X54339063Y-88584309D01*
X54316000Y-88511645D01*
X54316000Y-88052115D01*
X54311525Y-88036876D01*
X54310135Y-88035671D01*
X54302452Y-88034000D01*
X53927115Y-88034000D01*
X53911876Y-88038475D01*
X53910671Y-88039865D01*
X53909000Y-88047548D01*
X53909000Y-88715500D01*
X53888998Y-88783621D01*
X53835342Y-88830114D01*
X53783000Y-88841500D01*
X53423137Y-88841500D01*
X53355016Y-88821498D01*
X53308523Y-88767842D01*
X53298419Y-88697568D01*
X53327913Y-88632988D01*
X53387639Y-88594604D01*
X53398124Y-88591525D01*
X53399329Y-88590135D01*
X53401000Y-88582452D01*
X53401000Y-88052115D01*
X53396525Y-88036876D01*
X53395135Y-88035671D01*
X53387452Y-88034000D01*
X53062076Y-88034000D01*
X53052210Y-88036897D01*
X53016712Y-88042001D01*
X52885331Y-88042001D01*
X52878510Y-88042371D01*
X52827648Y-88047895D01*
X52812396Y-88051521D01*
X52691946Y-88096676D01*
X52676351Y-88105214D01*
X52574276Y-88181715D01*
X52561715Y-88194276D01*
X52485214Y-88296351D01*
X52476676Y-88311946D01*
X52431522Y-88432394D01*
X52427895Y-88447649D01*
X52422369Y-88498514D01*
X52422000Y-88505328D01*
X52422000Y-88531211D01*
X52401998Y-88599332D01*
X52348342Y-88645825D01*
X52278068Y-88655929D01*
X52259568Y-88651728D01*
X52253427Y-88648955D01*
X52245963Y-88647571D01*
X52243416Y-88646773D01*
X52227152Y-88642141D01*
X52224572Y-88641478D01*
X52217491Y-88638718D01*
X52209960Y-88637727D01*
X52209958Y-88637726D01*
X52185672Y-88634529D01*
X52120745Y-88605806D01*
X52081122Y-88544760D01*
X52072481Y-88515017D01*
X52072480Y-88515015D01*
X52070269Y-88507404D01*
X52066234Y-88500581D01*
X52063086Y-88493306D01*
X52064698Y-88492609D01*
X52054315Y-88464450D01*
X52051738Y-88449687D01*
X52050774Y-88443157D01*
X52043102Y-88379758D01*
X52040419Y-88372657D01*
X52039778Y-88370048D01*
X52035309Y-88353715D01*
X52034548Y-88351195D01*
X52033243Y-88343717D01*
X52029052Y-88334170D01*
X52007559Y-88285204D01*
X52005068Y-88279099D01*
X51985175Y-88226456D01*
X51985173Y-88226452D01*
X51982487Y-88219344D01*
X51978184Y-88213083D01*
X51976947Y-88210717D01*
X51968720Y-88195937D01*
X51967369Y-88193652D01*
X51964315Y-88186695D01*
X51959695Y-88180675D01*
X51959692Y-88180669D01*
X51925421Y-88136009D01*
X51921541Y-88130668D01*
X51889661Y-88084280D01*
X51889656Y-88084275D01*
X51885357Y-88078019D01*
X51838829Y-88036564D01*
X51833554Y-88031584D01*
X51251184Y-87449214D01*
X51217158Y-87386902D01*
X51222223Y-87316087D01*
X51264770Y-87259251D01*
X51331290Y-87234440D01*
X51347596Y-87234626D01*
X51352409Y-87235702D01*
X51360333Y-87235453D01*
X51360334Y-87235453D01*
X51420486Y-87233562D01*
X51424445Y-87233500D01*
X51452356Y-87233500D01*
X51456291Y-87233003D01*
X51456356Y-87232995D01*
X51468193Y-87232062D01*
X51500451Y-87231048D01*
X51504470Y-87230922D01*
X51512389Y-87230673D01*
X51531843Y-87225021D01*
X51551200Y-87221013D01*
X51563430Y-87219468D01*
X51563431Y-87219468D01*
X51571297Y-87218474D01*
X51578668Y-87215555D01*
X51578670Y-87215555D01*
X51612412Y-87202196D01*
X51623642Y-87198351D01*
X51658483Y-87188229D01*
X51658484Y-87188229D01*
X51666093Y-87186018D01*
X51672912Y-87181985D01*
X51672917Y-87181983D01*
X51683528Y-87175707D01*
X51701276Y-87167012D01*
X51720117Y-87159552D01*
X51755887Y-87133564D01*
X51765807Y-87127048D01*
X51797035Y-87108580D01*
X51797038Y-87108578D01*
X51803862Y-87104542D01*
X51818183Y-87090221D01*
X51833217Y-87077380D01*
X51843194Y-87070131D01*
X51849607Y-87065472D01*
X51877798Y-87031395D01*
X51885788Y-87022616D01*
X51987999Y-86920405D01*
X52050311Y-86886379D01*
X52077094Y-86883500D01*
X52379572Y-86883500D01*
X52382818Y-86883163D01*
X52382822Y-86883163D01*
X52416603Y-86879658D01*
X52480982Y-86872978D01*
X52641849Y-86819308D01*
X52786055Y-86730071D01*
X52810887Y-86705195D01*
X52873168Y-86671116D01*
X52943988Y-86676118D01*
X52989078Y-86705040D01*
X53014947Y-86730864D01*
X53159308Y-86819849D01*
X53166256Y-86822154D01*
X53166257Y-86822154D01*
X53257802Y-86852519D01*
X53316162Y-86892951D01*
X53343398Y-86958515D01*
X53330864Y-87028396D01*
X53306918Y-87061517D01*
X53302368Y-87066036D01*
X53184216Y-87208856D01*
X53177356Y-87219027D01*
X53089196Y-87382076D01*
X53084444Y-87393381D01*
X53048750Y-87508692D01*
X53048544Y-87522795D01*
X53055299Y-87526000D01*
X56077924Y-87526000D01*
X56088839Y-87522795D01*
X57478544Y-87522795D01*
X57485299Y-87526000D01*
X58477885Y-87526000D01*
X58493124Y-87521525D01*
X58494329Y-87520135D01*
X58496000Y-87512452D01*
X58496000Y-87507885D01*
X59004000Y-87507885D01*
X59008475Y-87523124D01*
X59009865Y-87524329D01*
X59017548Y-87526000D01*
X60007924Y-87526000D01*
X60021455Y-87522027D01*
X60022575Y-87514232D01*
X59990862Y-87406479D01*
X59986269Y-87395111D01*
X59900393Y-87230846D01*
X59893679Y-87220585D01*
X59777532Y-87076127D01*
X59768954Y-87067368D01*
X59626961Y-86948222D01*
X59616841Y-86941292D01*
X59454415Y-86851998D01*
X59443142Y-86847166D01*
X59266462Y-86791120D01*
X59254468Y-86788570D01*
X59110239Y-86772393D01*
X59103215Y-86772000D01*
X59022115Y-86772000D01*
X59006876Y-86776475D01*
X59005671Y-86777865D01*
X59004000Y-86785548D01*
X59004000Y-87507885D01*
X58496000Y-87507885D01*
X58496000Y-86790115D01*
X58491525Y-86774876D01*
X58490135Y-86773671D01*
X58482452Y-86772000D01*
X58403343Y-86772000D01*
X58397195Y-86772301D01*
X58259397Y-86785812D01*
X58247362Y-86788195D01*
X58069924Y-86841767D01*
X58058584Y-86846441D01*
X57894923Y-86933460D01*
X57884706Y-86940249D01*
X57741067Y-87057397D01*
X57732363Y-87066041D01*
X57614216Y-87208856D01*
X57607356Y-87219027D01*
X57519196Y-87382076D01*
X57514444Y-87393381D01*
X57478750Y-87508692D01*
X57478544Y-87522795D01*
X56088839Y-87522795D01*
X56091455Y-87522027D01*
X56092575Y-87514232D01*
X56060862Y-87406479D01*
X56056269Y-87395111D01*
X55970393Y-87230846D01*
X55963679Y-87220585D01*
X55847532Y-87076127D01*
X55838950Y-87067363D01*
X55819475Y-87051022D01*
X55780148Y-86991913D01*
X55779021Y-86920925D01*
X55816451Y-86860597D01*
X55880556Y-86830083D01*
X55900464Y-86828500D01*
X56104861Y-86828499D01*
X56109988Y-86828499D01*
X56146466Y-86825629D01*
X56284426Y-86785548D01*
X56294983Y-86782481D01*
X56294985Y-86782480D01*
X56302596Y-86780269D01*
X56387477Y-86730071D01*
X56435720Y-86701540D01*
X56442541Y-86697506D01*
X56557506Y-86582541D01*
X56640269Y-86442596D01*
X56644251Y-86428892D01*
X56674879Y-86323469D01*
X56685629Y-86286466D01*
X56687187Y-86266680D01*
X56688307Y-86252444D01*
X56688307Y-86252438D01*
X56688500Y-86249989D01*
X56688499Y-85805323D01*
X56708501Y-85737202D01*
X56727607Y-85714077D01*
X56823266Y-85622982D01*
X56923643Y-85471902D01*
X56988055Y-85302338D01*
X56998679Y-85226747D01*
X57012748Y-85126639D01*
X57012748Y-85126636D01*
X57013299Y-85122717D01*
X57013616Y-85100000D01*
X56993397Y-84919745D01*
X56990488Y-84911392D01*
X56936064Y-84755106D01*
X56936062Y-84755103D01*
X56933745Y-84748448D01*
X56903951Y-84700768D01*
X56884816Y-84632400D01*
X56905681Y-84564539D01*
X56959923Y-84518731D01*
X57010806Y-84508000D01*
X58950672Y-84508000D01*
X58970056Y-84509500D01*
G37*
%TD.AperFunction*%
%TA.AperFunction,Conductor*%
G36*
X44400408Y-96842751D02*
G01*
X44454003Y-96874552D01*
X45142627Y-97563176D01*
X45176653Y-97625488D01*
X45171588Y-97696303D01*
X45129041Y-97753139D01*
X45062521Y-97777950D01*
X45007195Y-97767242D01*
X45006666Y-97768727D01*
X44842425Y-97710243D01*
X44842420Y-97710242D01*
X44835790Y-97707881D01*
X44828802Y-97707048D01*
X44828799Y-97707047D01*
X44705698Y-97692368D01*
X44655680Y-97686404D01*
X44653481Y-97686635D01*
X44608896Y-97677605D01*
X44558362Y-97656673D01*
X44550175Y-97655595D01*
X44550174Y-97655595D01*
X44538969Y-97654120D01*
X44507773Y-97650013D01*
X44439396Y-97641011D01*
X44439393Y-97641011D01*
X44439385Y-97641010D01*
X44409394Y-97637062D01*
X44344467Y-97608341D01*
X44305374Y-97549076D01*
X44305280Y-97475512D01*
X44330379Y-97392903D01*
X44332555Y-97382837D01*
X44333986Y-97371962D01*
X44331775Y-97357778D01*
X44318617Y-97354000D01*
X42541084Y-97354000D01*
X42472963Y-97333998D01*
X42451989Y-97317095D01*
X42254916Y-97120022D01*
X42220890Y-97057710D01*
X42218011Y-97030927D01*
X42218011Y-96972000D01*
X42238013Y-96903879D01*
X42291669Y-96857386D01*
X42344011Y-96846000D01*
X44318342Y-96846000D01*
X44329411Y-96842750D01*
X44400408Y-96842751D01*
G37*
%TD.AperFunction*%
%TA.AperFunction,Conductor*%
G36*
X52883329Y-88616002D02*
G01*
X52929822Y-88669658D01*
X52939926Y-88739932D01*
X52910432Y-88804512D01*
X52850706Y-88842896D01*
X52828815Y-88847263D01*
X52827540Y-88847401D01*
X52827536Y-88847402D01*
X52819684Y-88848255D01*
X52706932Y-88890524D01*
X52636124Y-88895707D01*
X52573607Y-88861637D01*
X52561450Y-88849480D01*
X52555597Y-88843215D01*
X52522111Y-88804830D01*
X52492402Y-88740348D01*
X52502271Y-88670041D01*
X52548584Y-88616230D01*
X52617059Y-88596000D01*
X52815208Y-88596000D01*
X52883329Y-88616002D01*
G37*
%TD.AperFunction*%
%TD*%
M02*
