%TF.GenerationSoftware,KiCad,Pcbnew,6.0.1-79c1e3a40b~116~ubuntu20.04.1*%
%TF.CreationDate,2022-02-18T15:29:33+02:00*%
%TF.ProjectId,colorlight-usb-phy-pmod,636f6c6f-726c-4696-9768-742d7573622d,rev?*%
%TF.SameCoordinates,Original*%
%TF.FileFunction,Soldermask,Top*%
%TF.FilePolarity,Negative*%
%FSLAX46Y46*%
G04 Gerber Fmt 4.6, Leading zero omitted, Abs format (unit mm)*
G04 Created by KiCad (PCBNEW 6.0.1-79c1e3a40b~116~ubuntu20.04.1) date 2022-02-18 15:29:33*
%MOMM*%
%LPD*%
G01*
G04 APERTURE LIST*
G04 Aperture macros list*
%AMRoundRect*
0 Rectangle with rounded corners*
0 $1 Rounding radius*
0 $2 $3 $4 $5 $6 $7 $8 $9 X,Y pos of 4 corners*
0 Add a 4 corners polygon primitive as box body*
4,1,4,$2,$3,$4,$5,$6,$7,$8,$9,$2,$3,0*
0 Add four circle primitives for the rounded corners*
1,1,$1+$1,$2,$3*
1,1,$1+$1,$4,$5*
1,1,$1+$1,$6,$7*
1,1,$1+$1,$8,$9*
0 Add four rect primitives between the rounded corners*
20,1,$1+$1,$2,$3,$4,$5,0*
20,1,$1+$1,$4,$5,$6,$7,0*
20,1,$1+$1,$6,$7,$8,$9,0*
20,1,$1+$1,$8,$9,$2,$3,0*%
G04 Aperture macros list end*
%ADD10C,0.150000*%
%ADD11RoundRect,0.150000X-0.150000X0.512500X-0.150000X-0.512500X0.150000X-0.512500X0.150000X0.512500X0*%
%ADD12RoundRect,0.140000X-0.140000X-0.170000X0.140000X-0.170000X0.140000X0.170000X-0.140000X0.170000X0*%
%ADD13RoundRect,0.062500X-0.062500X0.350000X-0.062500X-0.350000X0.062500X-0.350000X0.062500X0.350000X0*%
%ADD14RoundRect,0.062500X-0.350000X0.062500X-0.350000X-0.062500X0.350000X-0.062500X0.350000X0.062500X0*%
%ADD15R,2.600000X2.600000*%
%ADD16RoundRect,0.135000X-0.135000X-0.185000X0.135000X-0.185000X0.135000X0.185000X-0.135000X0.185000X0*%
%ADD17RoundRect,0.140000X0.170000X-0.140000X0.170000X0.140000X-0.170000X0.140000X-0.170000X-0.140000X0*%
%ADD18RoundRect,0.218750X-0.218750X-0.256250X0.218750X-0.256250X0.218750X0.256250X-0.218750X0.256250X0*%
%ADD19RoundRect,0.200000X-0.250000X0.200000X-0.250000X-0.200000X0.250000X-0.200000X0.250000X0.200000X0*%
%ADD20RoundRect,0.135000X-0.185000X0.135000X-0.185000X-0.135000X0.185000X-0.135000X0.185000X0.135000X0*%
%ADD21C,0.650000*%
%ADD22R,1.450000X0.600000*%
%ADD23R,1.450000X0.300000*%
%ADD24O,2.100000X1.000000*%
%ADD25O,1.600000X1.000000*%
%ADD26RoundRect,0.135000X0.135000X0.185000X-0.135000X0.185000X-0.135000X-0.185000X0.135000X-0.185000X0*%
%ADD27RoundRect,0.140000X0.140000X0.170000X-0.140000X0.170000X-0.140000X-0.170000X0.140000X-0.170000X0*%
%ADD28R,1.700000X1.700000*%
%ADD29O,1.700000X1.700000*%
%ADD30R,0.300000X0.300000*%
%ADD31R,0.700000X0.450000*%
%ADD32RoundRect,0.218750X0.256250X-0.218750X0.256250X0.218750X-0.256250X0.218750X-0.256250X-0.218750X0*%
%ADD33RoundRect,0.140000X-0.170000X0.140000X-0.170000X-0.140000X0.170000X-0.140000X0.170000X0.140000X0*%
%ADD34RoundRect,0.135000X0.185000X-0.135000X0.185000X0.135000X-0.185000X0.135000X-0.185000X-0.135000X0*%
G04 APERTURE END LIST*
D10*
X51976190Y-123452380D02*
X51642857Y-122976190D01*
X51404761Y-123452380D02*
X51404761Y-122452380D01*
X51785714Y-122452380D01*
X51880952Y-122500000D01*
X51928571Y-122547619D01*
X51976190Y-122642857D01*
X51976190Y-122785714D01*
X51928571Y-122880952D01*
X51880952Y-122928571D01*
X51785714Y-122976190D01*
X51404761Y-122976190D01*
X52261904Y-122452380D02*
X52595238Y-123452380D01*
X52928571Y-122452380D01*
X53214285Y-122547619D02*
X53261904Y-122500000D01*
X53357142Y-122452380D01*
X53595238Y-122452380D01*
X53690476Y-122500000D01*
X53738095Y-122547619D01*
X53785714Y-122642857D01*
X53785714Y-122738095D01*
X53738095Y-122880952D01*
X53166666Y-123452380D01*
X53785714Y-123452380D01*
X54404761Y-122452380D02*
X54500000Y-122452380D01*
X54595238Y-122500000D01*
X54642857Y-122547619D01*
X54690476Y-122642857D01*
X54738095Y-122833333D01*
X54738095Y-123071428D01*
X54690476Y-123261904D01*
X54642857Y-123357142D01*
X54595238Y-123404761D01*
X54500000Y-123452380D01*
X54404761Y-123452380D01*
X54309523Y-123404761D01*
X54261904Y-123357142D01*
X54214285Y-123261904D01*
X54166666Y-123071428D01*
X54166666Y-122833333D01*
X54214285Y-122642857D01*
X54261904Y-122547619D01*
X54309523Y-122500000D01*
X54404761Y-122452380D01*
X55119047Y-122547619D02*
X55166666Y-122500000D01*
X55261904Y-122452380D01*
X55500000Y-122452380D01*
X55595238Y-122500000D01*
X55642857Y-122547619D01*
X55690476Y-122642857D01*
X55690476Y-122738095D01*
X55642857Y-122880952D01*
X55071428Y-123452380D01*
X55690476Y-123452380D01*
X56071428Y-122547619D02*
X56119047Y-122500000D01*
X56214285Y-122452380D01*
X56452380Y-122452380D01*
X56547619Y-122500000D01*
X56595238Y-122547619D01*
X56642857Y-122642857D01*
X56642857Y-122738095D01*
X56595238Y-122880952D01*
X56023809Y-123452380D01*
X56642857Y-123452380D01*
D11*
%TO.C,U3*%
X56120000Y-113587500D03*
X54220000Y-113587500D03*
X54220000Y-111312500D03*
X55170000Y-111312500D03*
X56120000Y-111312500D03*
%TD*%
D12*
%TO.C,C7*%
X56125000Y-115225000D03*
X55165000Y-115225000D03*
%TD*%
%TO.C,C6*%
X55290000Y-109900000D03*
X56250000Y-109900000D03*
%TD*%
D13*
%TO.C,U1*%
X53250000Y-103062500D03*
X52750000Y-103062500D03*
X52250000Y-103062500D03*
X51750000Y-103062500D03*
X51250000Y-103062500D03*
X50750000Y-103062500D03*
D14*
X50062500Y-103750000D03*
X50062500Y-104250000D03*
X50062500Y-104750000D03*
X50062500Y-105250000D03*
X50062500Y-105750000D03*
X50062500Y-106250000D03*
D13*
X50750000Y-106937500D03*
X51250000Y-106937500D03*
X51750000Y-106937500D03*
X52250000Y-106937500D03*
X52750000Y-106937500D03*
X53250000Y-106937500D03*
D14*
X53937500Y-106250000D03*
X53937500Y-105750000D03*
X53937500Y-105250000D03*
X53937500Y-104750000D03*
X53937500Y-104250000D03*
X53937500Y-103750000D03*
D15*
X52000000Y-105000000D03*
%TD*%
D16*
%TO.C,R2*%
X50320000Y-88950000D03*
X51340000Y-88950000D03*
%TD*%
D17*
%TO.C,C4*%
X53900000Y-101580000D03*
X53900000Y-100620000D03*
%TD*%
D12*
%TO.C,C5*%
X57820000Y-101800000D03*
X58780000Y-101800000D03*
%TD*%
D18*
%TO.C,D2*%
X52112500Y-85900000D03*
X53687500Y-85900000D03*
%TD*%
D17*
%TO.C,C1*%
X51900000Y-101580000D03*
X51900000Y-100620000D03*
%TD*%
D19*
%TO.C,X1*%
X59625000Y-103075000D03*
X57775000Y-103075000D03*
X57775000Y-104525000D03*
X59625000Y-104525000D03*
%TD*%
D16*
%TO.C,R7*%
X54890000Y-86000000D03*
X55910000Y-86000000D03*
%TD*%
D20*
%TO.C,R6*%
X45500000Y-85390000D03*
X45500000Y-86410000D03*
%TD*%
D21*
%TO.C,P1*%
X55100000Y-94990000D03*
X55100000Y-89210000D03*
D22*
X53655000Y-95350000D03*
X53655000Y-94550000D03*
D23*
X53655000Y-93350000D03*
X53655000Y-92350000D03*
X53655000Y-91850000D03*
X53655000Y-90850000D03*
D22*
X53655000Y-89650000D03*
X53655000Y-88850000D03*
X53655000Y-88850000D03*
X53655000Y-89650000D03*
D23*
X53655000Y-90350000D03*
X53655000Y-91350000D03*
X53655000Y-92850000D03*
X53655000Y-93850000D03*
D22*
X53655000Y-94550000D03*
X53655000Y-95350000D03*
D24*
X54570000Y-87780000D03*
D25*
X58750000Y-87780000D03*
D24*
X54570000Y-96420000D03*
D25*
X58750000Y-96420000D03*
%TD*%
D26*
%TO.C,R1*%
X56210000Y-103100000D03*
X55190000Y-103100000D03*
%TD*%
D27*
%TO.C,C3*%
X56180000Y-105400000D03*
X55220000Y-105400000D03*
%TD*%
D28*
%TO.C,J1*%
X43000000Y-122500000D03*
D29*
X40460000Y-122500000D03*
X43000000Y-119960000D03*
X40460000Y-119960000D03*
X43000000Y-117420000D03*
X40460000Y-117420000D03*
X43000000Y-114880000D03*
X40460000Y-114880000D03*
X43000000Y-112340000D03*
X40460000Y-112340000D03*
X43000000Y-109800000D03*
X40460000Y-109800000D03*
X43000000Y-107260000D03*
X40460000Y-107260000D03*
X43000000Y-104720000D03*
X40460000Y-104720000D03*
X43000000Y-102180000D03*
X40460000Y-102180000D03*
X43000000Y-99640000D03*
X40460000Y-99640000D03*
X43000000Y-97100000D03*
X40460000Y-97100000D03*
X43000000Y-94560000D03*
X40460000Y-94560000D03*
X43000000Y-92020000D03*
X40460000Y-92020000D03*
X43000000Y-89480000D03*
X40460000Y-89480000D03*
X43000000Y-86940000D03*
X40460000Y-86940000D03*
%TD*%
D30*
%TO.C,U2*%
X50513007Y-91224984D03*
X50513007Y-91924984D03*
X51363007Y-91574984D03*
%TD*%
D31*
%TO.C,Q1*%
X47500000Y-85950000D03*
X47500000Y-87250000D03*
X49500000Y-86600000D03*
%TD*%
D26*
%TO.C,R4*%
X51360000Y-90040000D03*
X50340000Y-90040000D03*
%TD*%
D16*
%TO.C,R3*%
X50330000Y-93400000D03*
X51350000Y-93400000D03*
%TD*%
D32*
%TO.C,D1*%
X59200000Y-112087500D03*
X59200000Y-110512500D03*
%TD*%
D33*
%TO.C,C2*%
X52900000Y-100620000D03*
X52900000Y-101580000D03*
%TD*%
D34*
%TO.C,R5*%
X59200000Y-109110000D03*
X59200000Y-108090000D03*
%TD*%
M02*
