%TF.GenerationSoftware,KiCad,Pcbnew,6.0.1-79c1e3a40b~116~ubuntu20.04.1*%
%TF.CreationDate,2022-02-18T15:29:32+02:00*%
%TF.ProjectId,colorlight-usb-phy-pmod,636f6c6f-726c-4696-9768-742d7573622d,rev?*%
%TF.SameCoordinates,Original*%
%TF.FileFunction,Copper,L2,Inr*%
%TF.FilePolarity,Positive*%
%FSLAX46Y46*%
G04 Gerber Fmt 4.6, Leading zero omitted, Abs format (unit mm)*
G04 Created by KiCad (PCBNEW 6.0.1-79c1e3a40b~116~ubuntu20.04.1) date 2022-02-18 15:29:32*
%MOMM*%
%LPD*%
G01*
G04 APERTURE LIST*
%TA.AperFunction,ComponentPad*%
%ADD10C,0.500000*%
%TD*%
%TA.AperFunction,ComponentPad*%
%ADD11O,2.100000X1.000000*%
%TD*%
%TA.AperFunction,ComponentPad*%
%ADD12O,1.600000X1.000000*%
%TD*%
%TA.AperFunction,ComponentPad*%
%ADD13R,1.700000X1.700000*%
%TD*%
%TA.AperFunction,ComponentPad*%
%ADD14O,1.700000X1.700000*%
%TD*%
%TA.AperFunction,ViaPad*%
%ADD15C,0.600000*%
%TD*%
%TA.AperFunction,ViaPad*%
%ADD16C,0.800000*%
%TD*%
G04 APERTURE END LIST*
D10*
%TO.N,GND*%
%TO.C,U1*%
X50950000Y-105000000D03*
X52000000Y-103950000D03*
X52000000Y-106050000D03*
X53050000Y-105000000D03*
X53050000Y-103950000D03*
X53050000Y-106050000D03*
X50950000Y-103950000D03*
X50950000Y-106050000D03*
X52000000Y-105000000D03*
%TD*%
D11*
%TO.N,GND*%
%TO.C,P1*%
X54570000Y-87780000D03*
D12*
X58750000Y-87780000D03*
D11*
X54570000Y-96420000D03*
D12*
X58750000Y-96420000D03*
%TD*%
D13*
%TO.N,+3V3*%
%TO.C,J1*%
X43000000Y-122500000D03*
D14*
X40460000Y-122500000D03*
%TO.N,GND*%
X43000000Y-119960000D03*
X40460000Y-119960000D03*
%TO.N,/D0*%
X43000000Y-117420000D03*
%TO.N,/D4*%
X40460000Y-117420000D03*
%TO.N,/D1*%
X43000000Y-114880000D03*
%TO.N,/D5*%
X40460000Y-114880000D03*
%TO.N,/D2*%
X43000000Y-112340000D03*
%TO.N,/D6*%
X40460000Y-112340000D03*
%TO.N,/D3*%
X43000000Y-109800000D03*
%TO.N,/D7*%
X40460000Y-109800000D03*
%TO.N,unconnected-(J1-Pad13)*%
X43000000Y-107260000D03*
%TO.N,unconnected-(J1-Pad14)*%
X40460000Y-107260000D03*
%TO.N,+5V*%
X43000000Y-104720000D03*
%TO.N,unconnected-(J1-Pad16)*%
X40460000Y-104720000D03*
%TO.N,unconnected-(J1-Pad17)*%
X43000000Y-102180000D03*
%TO.N,unconnected-(J1-Pad18)*%
X40460000Y-102180000D03*
%TO.N,+3V3*%
X43000000Y-99640000D03*
X40460000Y-99640000D03*
%TO.N,GND*%
X43000000Y-97100000D03*
X40460000Y-97100000D03*
%TO.N,/RST*%
X43000000Y-94560000D03*
%TO.N,/CLKOUT*%
X40460000Y-94560000D03*
%TO.N,/REFCLK*%
X43000000Y-92020000D03*
%TO.N,/NXT*%
X40460000Y-92020000D03*
%TO.N,unconnected-(J1-Pad27)*%
X43000000Y-89480000D03*
%TO.N,/DIR*%
X40460000Y-89480000D03*
%TO.N,/USR_LED*%
X43000000Y-86940000D03*
%TO.N,/STP*%
X40460000Y-86940000D03*
%TD*%
D15*
%TO.N,GND*%
X54200000Y-109750000D03*
X55100000Y-108875000D03*
X57975000Y-106975000D03*
%TO.N,+3V3*%
X56120000Y-110375000D03*
%TO.N,+1V8*%
X55539459Y-105968020D03*
X56795000Y-114725000D03*
%TO.N,GND*%
X54270000Y-115375000D03*
X54895000Y-110350000D03*
%TO.N,+3V3*%
X54600000Y-101750000D03*
X52900000Y-108650000D03*
X56200000Y-85100000D03*
X59550000Y-101850000D03*
%TO.N,/RST*%
X49200000Y-101400000D03*
X55789749Y-104624500D03*
D16*
%TO.N,/STP*%
X55500000Y-107000000D03*
D15*
%TO.N,/DIR*%
X55293979Y-107875591D03*
%TO.N,/NXT*%
X54100000Y-108550000D03*
X44650000Y-98500000D03*
D16*
%TO.N,/CLKOUT*%
X49200000Y-107900000D03*
%TO.N,/D4*%
X48000000Y-108500000D03*
%TO.N,/D5*%
X47000000Y-108500000D03*
%TO.N,/D6*%
X46000000Y-108500000D03*
D15*
%TO.N,GND*%
X57150000Y-102450000D03*
X47700000Y-96500000D03*
X45000000Y-105000000D03*
X52450000Y-88700000D03*
X50700000Y-95200000D03*
X57300000Y-99000000D03*
X49750000Y-93750000D03*
X58300000Y-113200000D03*
X47700000Y-91100000D03*
X52400000Y-95450000D03*
X51900000Y-99900000D03*
X49700000Y-90750000D03*
X53900000Y-99900000D03*
X46000000Y-93000000D03*
X52050000Y-113025000D03*
X47200000Y-88900000D03*
X56400000Y-102350000D03*
X52900000Y-99850000D03*
X56950000Y-101750000D03*
X46100000Y-119100000D03*
X48600000Y-100200000D03*
X56800000Y-105700000D03*
X51500000Y-87400000D03*
X51760000Y-91580000D03*
X52000000Y-98100000D03*
%TO.N,Net-(JP1-Pad1)*%
X56750000Y-104450000D03*
%TO.N,VBUS*%
X50400000Y-87600000D03*
%TO.N,Net-(R2-Pad1)*%
X49250000Y-89600000D03*
X55400000Y-101350000D03*
%TO.N,+5V*%
X46000000Y-87200000D03*
%TD*%
%TA.AperFunction,Conductor*%
%TO.N,GND*%
G36*
X58988227Y-84202518D02*
G01*
X58999642Y-84205143D01*
X59010517Y-84202682D01*
X59021664Y-84202702D01*
X59021664Y-84202863D01*
X59031669Y-84202076D01*
X59103759Y-84206801D01*
X59228475Y-84214975D01*
X59241302Y-84216663D01*
X59459516Y-84260068D01*
X59472016Y-84263418D01*
X59682691Y-84334933D01*
X59694653Y-84339889D01*
X59776954Y-84380475D01*
X59894180Y-84438284D01*
X59905386Y-84444753D01*
X60090385Y-84568365D01*
X60100639Y-84576233D01*
X60264819Y-84720216D01*
X60267914Y-84722930D01*
X60277069Y-84732085D01*
X60423767Y-84899361D01*
X60431635Y-84909615D01*
X60555247Y-85094614D01*
X60561716Y-85105820D01*
X60660111Y-85305346D01*
X60665067Y-85317308D01*
X60720585Y-85480857D01*
X60736581Y-85527980D01*
X60739932Y-85540484D01*
X60752123Y-85601770D01*
X60783336Y-85758691D01*
X60785025Y-85771523D01*
X60797891Y-85967816D01*
X60797101Y-85977628D01*
X60797375Y-85977628D01*
X60797355Y-85988778D01*
X60794857Y-85999642D01*
X60797317Y-86010514D01*
X60797317Y-86010516D01*
X60797559Y-86011583D01*
X60800000Y-86033432D01*
X60800000Y-122966040D01*
X60797482Y-122988227D01*
X60794857Y-122999642D01*
X60797318Y-123010517D01*
X60797298Y-123021664D01*
X60797137Y-123021664D01*
X60797924Y-123031669D01*
X60785026Y-123228469D01*
X60783337Y-123241302D01*
X60746155Y-123428231D01*
X60739933Y-123459511D01*
X60736582Y-123472016D01*
X60665067Y-123682691D01*
X60660111Y-123694654D01*
X60561716Y-123894180D01*
X60555247Y-123905386D01*
X60431635Y-124090385D01*
X60423767Y-124100639D01*
X60291003Y-124252027D01*
X60277070Y-124267914D01*
X60267915Y-124277069D01*
X60100639Y-124423767D01*
X60090385Y-124431635D01*
X59905386Y-124555247D01*
X59894180Y-124561716D01*
X59715697Y-124649734D01*
X59694654Y-124660111D01*
X59682692Y-124665067D01*
X59472016Y-124736582D01*
X59459516Y-124739932D01*
X59241302Y-124783337D01*
X59228477Y-124785025D01*
X59032181Y-124797891D01*
X59022372Y-124797101D01*
X59022372Y-124797375D01*
X59011222Y-124797355D01*
X59000358Y-124794857D01*
X58989486Y-124797317D01*
X58989484Y-124797317D01*
X58988417Y-124797559D01*
X58966568Y-124800000D01*
X40033960Y-124800000D01*
X40011773Y-124797482D01*
X40000358Y-124794857D01*
X39989483Y-124797318D01*
X39978336Y-124797298D01*
X39978336Y-124797137D01*
X39968331Y-124797924D01*
X39896241Y-124793199D01*
X39771525Y-124785025D01*
X39758698Y-124783337D01*
X39540484Y-124739932D01*
X39527984Y-124736582D01*
X39317308Y-124665067D01*
X39305346Y-124660111D01*
X39284304Y-124649734D01*
X39105820Y-124561716D01*
X39094614Y-124555247D01*
X38909615Y-124431635D01*
X38899361Y-124423767D01*
X38732085Y-124277069D01*
X38722930Y-124267914D01*
X38708997Y-124252027D01*
X38576233Y-124100639D01*
X38568365Y-124090385D01*
X38444753Y-123905386D01*
X38438284Y-123894180D01*
X38339889Y-123694654D01*
X38334933Y-123682691D01*
X38263418Y-123472016D01*
X38260067Y-123459511D01*
X38253845Y-123428231D01*
X38216663Y-123241302D01*
X38214974Y-123228470D01*
X38207350Y-123112138D01*
X38202109Y-123032181D01*
X38202899Y-123022372D01*
X38202625Y-123022372D01*
X38202645Y-123011222D01*
X38205143Y-123000358D01*
X38202683Y-122989486D01*
X38202683Y-122989484D01*
X38202441Y-122988417D01*
X38200000Y-122966568D01*
X38200000Y-120227014D01*
X39128043Y-120227014D01*
X39158807Y-120363524D01*
X39161231Y-120371258D01*
X39242183Y-120570620D01*
X39245840Y-120577860D01*
X39358266Y-120761322D01*
X39363056Y-120767867D01*
X39503935Y-120930502D01*
X39509729Y-120936176D01*
X39675292Y-121073629D01*
X39681921Y-121078270D01*
X39867713Y-121186838D01*
X39875008Y-121190334D01*
X40076038Y-121267099D01*
X40083808Y-121269357D01*
X40187991Y-121290553D01*
X40241244Y-121320682D01*
X40266618Y-121376359D01*
X40254419Y-121436316D01*
X40209309Y-121477652D01*
X40196206Y-121482538D01*
X40064572Y-121521280D01*
X40060288Y-121523519D01*
X40060287Y-121523520D01*
X40049428Y-121529197D01*
X39882002Y-121616726D01*
X39878231Y-121619758D01*
X39725220Y-121742781D01*
X39725217Y-121742783D01*
X39721447Y-121745815D01*
X39718333Y-121749526D01*
X39718332Y-121749527D01*
X39709585Y-121759952D01*
X39589024Y-121903630D01*
X39586689Y-121907878D01*
X39586688Y-121907879D01*
X39579955Y-121920126D01*
X39489776Y-122084162D01*
X39427484Y-122280532D01*
X39426944Y-122285344D01*
X39426944Y-122285345D01*
X39425865Y-122294970D01*
X39404520Y-122485262D01*
X39421759Y-122690553D01*
X39478544Y-122888586D01*
X39572712Y-123071818D01*
X39700677Y-123233270D01*
X39704357Y-123236402D01*
X39704359Y-123236404D01*
X39817017Y-123332283D01*
X39857564Y-123366791D01*
X39861787Y-123369151D01*
X39861791Y-123369154D01*
X39901342Y-123391258D01*
X40037398Y-123467297D01*
X40041996Y-123468791D01*
X40228724Y-123529463D01*
X40228726Y-123529464D01*
X40233329Y-123530959D01*
X40437894Y-123555351D01*
X40442716Y-123554980D01*
X40442719Y-123554980D01*
X40513259Y-123549552D01*
X40643300Y-123539546D01*
X40841725Y-123484145D01*
X40846038Y-123481966D01*
X40846044Y-123481964D01*
X41021289Y-123393441D01*
X41021291Y-123393440D01*
X41025610Y-123391258D01*
X41060943Y-123363653D01*
X41184135Y-123267406D01*
X41184139Y-123267402D01*
X41187951Y-123264424D01*
X41207904Y-123241309D01*
X41247313Y-123195651D01*
X41322564Y-123108472D01*
X41341231Y-123075613D01*
X41421934Y-122933550D01*
X41421935Y-122933547D01*
X41424323Y-122929344D01*
X41437882Y-122888586D01*
X41487824Y-122738454D01*
X41487824Y-122738452D01*
X41489351Y-122733863D01*
X41515171Y-122529474D01*
X41515583Y-122500000D01*
X41495480Y-122294970D01*
X41435935Y-122097749D01*
X41339218Y-121915849D01*
X41209011Y-121756200D01*
X41062639Y-121635110D01*
X41054002Y-121627965D01*
X41054000Y-121627964D01*
X41050275Y-121624882D01*
X40869055Y-121526897D01*
X40815038Y-121510176D01*
X40732061Y-121484490D01*
X40682063Y-121449220D01*
X40662346Y-121391299D01*
X40680439Y-121332850D01*
X40729432Y-121296199D01*
X40740752Y-121293081D01*
X40747202Y-121291710D01*
X40953304Y-121229876D01*
X40960852Y-121226918D01*
X41154087Y-121132253D01*
X41161046Y-121128104D01*
X41336231Y-121003148D01*
X41342412Y-120997924D01*
X41494831Y-120846035D01*
X41500088Y-120839858D01*
X41625651Y-120665119D01*
X41629823Y-120658176D01*
X41641990Y-120633557D01*
X41684723Y-120589767D01*
X41745033Y-120579458D01*
X41799885Y-120606568D01*
X41815153Y-120625694D01*
X41898266Y-120761322D01*
X41903056Y-120767867D01*
X42043935Y-120930502D01*
X42049729Y-120936176D01*
X42215292Y-121073629D01*
X42221921Y-121078270D01*
X42407713Y-121186838D01*
X42415008Y-121190334D01*
X42592246Y-121258014D01*
X42639863Y-121296436D01*
X42655802Y-121355509D01*
X42633975Y-121412668D01*
X42582719Y-121446082D01*
X42556929Y-121449500D01*
X42130252Y-121449500D01*
X42104005Y-121454721D01*
X42081334Y-121459230D01*
X42081332Y-121459231D01*
X42071769Y-121461133D01*
X42005448Y-121505448D01*
X41961133Y-121571769D01*
X41949500Y-121630252D01*
X41949500Y-123369748D01*
X41961133Y-123428231D01*
X42005448Y-123494552D01*
X42071769Y-123538867D01*
X42081332Y-123540769D01*
X42081334Y-123540770D01*
X42104005Y-123545279D01*
X42130252Y-123550500D01*
X43869748Y-123550500D01*
X43895995Y-123545279D01*
X43918666Y-123540770D01*
X43918668Y-123540769D01*
X43928231Y-123538867D01*
X43994552Y-123494552D01*
X44038867Y-123428231D01*
X44050500Y-123369748D01*
X44050500Y-121630252D01*
X44038867Y-121571769D01*
X43994552Y-121505448D01*
X43928231Y-121461133D01*
X43918668Y-121459231D01*
X43918666Y-121459230D01*
X43895995Y-121454721D01*
X43869748Y-121449500D01*
X43435758Y-121449500D01*
X43377567Y-121430593D01*
X43341603Y-121381093D01*
X43341603Y-121319907D01*
X43377567Y-121270407D01*
X43407309Y-121255676D01*
X43493304Y-121229876D01*
X43500852Y-121226918D01*
X43694087Y-121132253D01*
X43701046Y-121128104D01*
X43876231Y-121003148D01*
X43882412Y-120997924D01*
X44034831Y-120846035D01*
X44040088Y-120839858D01*
X44165651Y-120665119D01*
X44169823Y-120658176D01*
X44265164Y-120465268D01*
X44268144Y-120457744D01*
X44330701Y-120251843D01*
X44332410Y-120243938D01*
X44334304Y-120229547D01*
X44331873Y-120216431D01*
X44330571Y-120215195D01*
X44325290Y-120214000D01*
X39140790Y-120214000D01*
X39128460Y-120218006D01*
X39128043Y-120227014D01*
X38200000Y-120227014D01*
X38200000Y-119695384D01*
X39124056Y-119695384D01*
X39125756Y-119703462D01*
X39127566Y-119705098D01*
X39131792Y-119706000D01*
X44320779Y-119706000D01*
X44332730Y-119702117D01*
X44333058Y-119692462D01*
X44290946Y-119524809D01*
X44288333Y-119517133D01*
X44202534Y-119319807D01*
X44198701Y-119312660D01*
X44081826Y-119131997D01*
X44076880Y-119125575D01*
X43932065Y-118966426D01*
X43926139Y-118960899D01*
X43757269Y-118827534D01*
X43750525Y-118823054D01*
X43562141Y-118719060D01*
X43554749Y-118715738D01*
X43351920Y-118643912D01*
X43344081Y-118641841D01*
X43274589Y-118629463D01*
X43220616Y-118600644D01*
X43193890Y-118545605D01*
X43204619Y-118485367D01*
X43248706Y-118442941D01*
X43265327Y-118436644D01*
X43309867Y-118424208D01*
X43381725Y-118404145D01*
X43386038Y-118401966D01*
X43386044Y-118401964D01*
X43561289Y-118313441D01*
X43561291Y-118313440D01*
X43565610Y-118311258D01*
X43600943Y-118283653D01*
X43724135Y-118187406D01*
X43724139Y-118187402D01*
X43727951Y-118184424D01*
X43862564Y-118028472D01*
X43881231Y-117995613D01*
X43961934Y-117853550D01*
X43961935Y-117853547D01*
X43964323Y-117849344D01*
X43977882Y-117808586D01*
X44027824Y-117658454D01*
X44027824Y-117658452D01*
X44029351Y-117653863D01*
X44055171Y-117449474D01*
X44055583Y-117420000D01*
X44035480Y-117214970D01*
X43975935Y-117017749D01*
X43879218Y-116835849D01*
X43749011Y-116676200D01*
X43590275Y-116544882D01*
X43409055Y-116446897D01*
X43345855Y-116427333D01*
X43216875Y-116387407D01*
X43216871Y-116387406D01*
X43212254Y-116385977D01*
X43207446Y-116385472D01*
X43207443Y-116385471D01*
X43012185Y-116364949D01*
X43012183Y-116364949D01*
X43007369Y-116364443D01*
X42947354Y-116369905D01*
X42807022Y-116382675D01*
X42807017Y-116382676D01*
X42802203Y-116383114D01*
X42604572Y-116441280D01*
X42600288Y-116443519D01*
X42600287Y-116443520D01*
X42589428Y-116449197D01*
X42422002Y-116536726D01*
X42418231Y-116539758D01*
X42265220Y-116662781D01*
X42265217Y-116662783D01*
X42261447Y-116665815D01*
X42258333Y-116669526D01*
X42258332Y-116669527D01*
X42249585Y-116679952D01*
X42129024Y-116823630D01*
X42126689Y-116827878D01*
X42126688Y-116827879D01*
X42119955Y-116840126D01*
X42029776Y-117004162D01*
X41967484Y-117200532D01*
X41966944Y-117205344D01*
X41966944Y-117205345D01*
X41965865Y-117214970D01*
X41944520Y-117405262D01*
X41961759Y-117610553D01*
X42018544Y-117808586D01*
X42112712Y-117991818D01*
X42240677Y-118153270D01*
X42244357Y-118156402D01*
X42244359Y-118156404D01*
X42357017Y-118252283D01*
X42397564Y-118286791D01*
X42401787Y-118289151D01*
X42401791Y-118289154D01*
X42441342Y-118311258D01*
X42577398Y-118387297D01*
X42731944Y-118437512D01*
X42781444Y-118473476D01*
X42800351Y-118531667D01*
X42781444Y-118589858D01*
X42731944Y-118625822D01*
X42716327Y-118629528D01*
X42688226Y-118633828D01*
X42680341Y-118635707D01*
X42475807Y-118702558D01*
X42468350Y-118705693D01*
X42277479Y-118805054D01*
X42270627Y-118809369D01*
X42098544Y-118938573D01*
X42092491Y-118943947D01*
X41943830Y-119099513D01*
X41938727Y-119105814D01*
X41817466Y-119283575D01*
X41815023Y-119287876D01*
X41769841Y-119329134D01*
X41709037Y-119335954D01*
X41655836Y-119305732D01*
X41645821Y-119292750D01*
X41541826Y-119131997D01*
X41536880Y-119125575D01*
X41392065Y-118966426D01*
X41386139Y-118960899D01*
X41217269Y-118827534D01*
X41210525Y-118823054D01*
X41022141Y-118719060D01*
X41014749Y-118715738D01*
X40811920Y-118643912D01*
X40804081Y-118641841D01*
X40734589Y-118629463D01*
X40680616Y-118600644D01*
X40653890Y-118545605D01*
X40664619Y-118485367D01*
X40708706Y-118442941D01*
X40725327Y-118436644D01*
X40769867Y-118424208D01*
X40841725Y-118404145D01*
X40846038Y-118401966D01*
X40846044Y-118401964D01*
X41021289Y-118313441D01*
X41021291Y-118313440D01*
X41025610Y-118311258D01*
X41060943Y-118283653D01*
X41184135Y-118187406D01*
X41184139Y-118187402D01*
X41187951Y-118184424D01*
X41322564Y-118028472D01*
X41341231Y-117995613D01*
X41421934Y-117853550D01*
X41421935Y-117853547D01*
X41424323Y-117849344D01*
X41437882Y-117808586D01*
X41487824Y-117658454D01*
X41487824Y-117658452D01*
X41489351Y-117653863D01*
X41515171Y-117449474D01*
X41515583Y-117420000D01*
X41495480Y-117214970D01*
X41435935Y-117017749D01*
X41339218Y-116835849D01*
X41209011Y-116676200D01*
X41050275Y-116544882D01*
X40869055Y-116446897D01*
X40805855Y-116427333D01*
X40676875Y-116387407D01*
X40676871Y-116387406D01*
X40672254Y-116385977D01*
X40667446Y-116385472D01*
X40667443Y-116385471D01*
X40472185Y-116364949D01*
X40472183Y-116364949D01*
X40467369Y-116364443D01*
X40407354Y-116369905D01*
X40267022Y-116382675D01*
X40267017Y-116382676D01*
X40262203Y-116383114D01*
X40064572Y-116441280D01*
X40060288Y-116443519D01*
X40060287Y-116443520D01*
X40049428Y-116449197D01*
X39882002Y-116536726D01*
X39878231Y-116539758D01*
X39725220Y-116662781D01*
X39725217Y-116662783D01*
X39721447Y-116665815D01*
X39718333Y-116669526D01*
X39718332Y-116669527D01*
X39709585Y-116679952D01*
X39589024Y-116823630D01*
X39586689Y-116827878D01*
X39586688Y-116827879D01*
X39579955Y-116840126D01*
X39489776Y-117004162D01*
X39427484Y-117200532D01*
X39426944Y-117205344D01*
X39426944Y-117205345D01*
X39425865Y-117214970D01*
X39404520Y-117405262D01*
X39421759Y-117610553D01*
X39478544Y-117808586D01*
X39572712Y-117991818D01*
X39700677Y-118153270D01*
X39704357Y-118156402D01*
X39704359Y-118156404D01*
X39817017Y-118252283D01*
X39857564Y-118286791D01*
X39861787Y-118289151D01*
X39861791Y-118289154D01*
X39901342Y-118311258D01*
X40037398Y-118387297D01*
X40191944Y-118437512D01*
X40241444Y-118473476D01*
X40260351Y-118531667D01*
X40241444Y-118589858D01*
X40191944Y-118625822D01*
X40176327Y-118629528D01*
X40148226Y-118633828D01*
X40140341Y-118635707D01*
X39935807Y-118702558D01*
X39928350Y-118705693D01*
X39737479Y-118805054D01*
X39730627Y-118809369D01*
X39558544Y-118938573D01*
X39552491Y-118943947D01*
X39403830Y-119099513D01*
X39398727Y-119105814D01*
X39277466Y-119283575D01*
X39273468Y-119290613D01*
X39182871Y-119485790D01*
X39180073Y-119493394D01*
X39124056Y-119695384D01*
X38200000Y-119695384D01*
X38200000Y-114865262D01*
X39404520Y-114865262D01*
X39408000Y-114906699D01*
X39416925Y-115012982D01*
X39421759Y-115070553D01*
X39423092Y-115075201D01*
X39423092Y-115075202D01*
X39466022Y-115224915D01*
X39478544Y-115268586D01*
X39572712Y-115451818D01*
X39700677Y-115613270D01*
X39704357Y-115616402D01*
X39704359Y-115616404D01*
X39817017Y-115712283D01*
X39857564Y-115746791D01*
X39861787Y-115749151D01*
X39861791Y-115749154D01*
X39901342Y-115771258D01*
X40037398Y-115847297D01*
X40041996Y-115848791D01*
X40228724Y-115909463D01*
X40228726Y-115909464D01*
X40233329Y-115910959D01*
X40437894Y-115935351D01*
X40442716Y-115934980D01*
X40442719Y-115934980D01*
X40510541Y-115929761D01*
X40643300Y-115919546D01*
X40841725Y-115864145D01*
X40846038Y-115861966D01*
X40846044Y-115861964D01*
X41021289Y-115773441D01*
X41021291Y-115773440D01*
X41025610Y-115771258D01*
X41060943Y-115743653D01*
X41184135Y-115647406D01*
X41184139Y-115647402D01*
X41187951Y-115644424D01*
X41322564Y-115488472D01*
X41341231Y-115455613D01*
X41421934Y-115313550D01*
X41421935Y-115313547D01*
X41424323Y-115309344D01*
X41437882Y-115268586D01*
X41487824Y-115118454D01*
X41487824Y-115118452D01*
X41489351Y-115113863D01*
X41490363Y-115105857D01*
X41514823Y-114912228D01*
X41515171Y-114909474D01*
X41515583Y-114880000D01*
X41514138Y-114865262D01*
X41944520Y-114865262D01*
X41948000Y-114906699D01*
X41956925Y-115012982D01*
X41961759Y-115070553D01*
X41963092Y-115075201D01*
X41963092Y-115075202D01*
X42006022Y-115224915D01*
X42018544Y-115268586D01*
X42112712Y-115451818D01*
X42240677Y-115613270D01*
X42244357Y-115616402D01*
X42244359Y-115616404D01*
X42357017Y-115712283D01*
X42397564Y-115746791D01*
X42401787Y-115749151D01*
X42401791Y-115749154D01*
X42441342Y-115771258D01*
X42577398Y-115847297D01*
X42581996Y-115848791D01*
X42768724Y-115909463D01*
X42768726Y-115909464D01*
X42773329Y-115910959D01*
X42977894Y-115935351D01*
X42982716Y-115934980D01*
X42982719Y-115934980D01*
X43050541Y-115929761D01*
X43183300Y-115919546D01*
X43381725Y-115864145D01*
X43386038Y-115861966D01*
X43386044Y-115861964D01*
X43561289Y-115773441D01*
X43561291Y-115773440D01*
X43565610Y-115771258D01*
X43600943Y-115743653D01*
X43724135Y-115647406D01*
X43724139Y-115647402D01*
X43727951Y-115644424D01*
X43862564Y-115488472D01*
X43881231Y-115455613D01*
X43961934Y-115313550D01*
X43961935Y-115313547D01*
X43964323Y-115309344D01*
X43977882Y-115268586D01*
X44027824Y-115118454D01*
X44027824Y-115118452D01*
X44029351Y-115113863D01*
X44030363Y-115105857D01*
X44054823Y-114912228D01*
X44055171Y-114909474D01*
X44055583Y-114880000D01*
X44053032Y-114853982D01*
X44039780Y-114718823D01*
X56289391Y-114718823D01*
X56290306Y-114725820D01*
X56290306Y-114725821D01*
X56291814Y-114737354D01*
X56307980Y-114860979D01*
X56310821Y-114867435D01*
X56310821Y-114867436D01*
X56318586Y-114885082D01*
X56365720Y-114992203D01*
X56378792Y-115007754D01*
X56453431Y-115096549D01*
X56453434Y-115096551D01*
X56457970Y-115101948D01*
X56463841Y-115105856D01*
X56463842Y-115105857D01*
X56468654Y-115109060D01*
X56577313Y-115181390D01*
X56677920Y-115212821D01*
X56707425Y-115222039D01*
X56707426Y-115222039D01*
X56714157Y-115224142D01*
X56785828Y-115225456D01*
X56850445Y-115226641D01*
X56850447Y-115226641D01*
X56857499Y-115226770D01*
X56864302Y-115224915D01*
X56864304Y-115224915D01*
X56939503Y-115204413D01*
X56995817Y-115189060D01*
X57117991Y-115114045D01*
X57125403Y-115105857D01*
X57209468Y-115012982D01*
X57214200Y-115007754D01*
X57276710Y-114878733D01*
X57278166Y-114870082D01*
X57299862Y-114741124D01*
X57299862Y-114741120D01*
X57300496Y-114737354D01*
X57300647Y-114725000D01*
X57280323Y-114583082D01*
X57232431Y-114477749D01*
X57223905Y-114458996D01*
X57223904Y-114458995D01*
X57220984Y-114452572D01*
X57127400Y-114343963D01*
X57007095Y-114265985D01*
X56869739Y-114224907D01*
X56786497Y-114224398D01*
X56733427Y-114224074D01*
X56733426Y-114224074D01*
X56726376Y-114224031D01*
X56719599Y-114225968D01*
X56719598Y-114225968D01*
X56595309Y-114261490D01*
X56595307Y-114261491D01*
X56588529Y-114263428D01*
X56467280Y-114339930D01*
X56462613Y-114345214D01*
X56462611Y-114345216D01*
X56377044Y-114442103D01*
X56377042Y-114442105D01*
X56372377Y-114447388D01*
X56369381Y-114453770D01*
X56369380Y-114453771D01*
X56358122Y-114477749D01*
X56311447Y-114577163D01*
X56289391Y-114718823D01*
X44039780Y-114718823D01*
X44035952Y-114679780D01*
X44035951Y-114679776D01*
X44035480Y-114674970D01*
X43975935Y-114477749D01*
X43879218Y-114295849D01*
X43749011Y-114136200D01*
X43590275Y-114004882D01*
X43409055Y-113906897D01*
X43345855Y-113887333D01*
X43216875Y-113847407D01*
X43216871Y-113847406D01*
X43212254Y-113845977D01*
X43207446Y-113845472D01*
X43207443Y-113845471D01*
X43012185Y-113824949D01*
X43012183Y-113824949D01*
X43007369Y-113824443D01*
X42947354Y-113829905D01*
X42807022Y-113842675D01*
X42807017Y-113842676D01*
X42802203Y-113843114D01*
X42604572Y-113901280D01*
X42600288Y-113903519D01*
X42600287Y-113903520D01*
X42589428Y-113909197D01*
X42422002Y-113996726D01*
X42418231Y-113999758D01*
X42265220Y-114122781D01*
X42265217Y-114122783D01*
X42261447Y-114125815D01*
X42258333Y-114129526D01*
X42258332Y-114129527D01*
X42145976Y-114263428D01*
X42129024Y-114283630D01*
X42126689Y-114287878D01*
X42126688Y-114287879D01*
X42119955Y-114300126D01*
X42029776Y-114464162D01*
X41967484Y-114660532D01*
X41966944Y-114665344D01*
X41966944Y-114665345D01*
X41959296Y-114733533D01*
X41944520Y-114865262D01*
X41514138Y-114865262D01*
X41513032Y-114853982D01*
X41495952Y-114679780D01*
X41495951Y-114679776D01*
X41495480Y-114674970D01*
X41435935Y-114477749D01*
X41339218Y-114295849D01*
X41209011Y-114136200D01*
X41050275Y-114004882D01*
X40869055Y-113906897D01*
X40805855Y-113887333D01*
X40676875Y-113847407D01*
X40676871Y-113847406D01*
X40672254Y-113845977D01*
X40667446Y-113845472D01*
X40667443Y-113845471D01*
X40472185Y-113824949D01*
X40472183Y-113824949D01*
X40467369Y-113824443D01*
X40407354Y-113829905D01*
X40267022Y-113842675D01*
X40267017Y-113842676D01*
X40262203Y-113843114D01*
X40064572Y-113901280D01*
X40060288Y-113903519D01*
X40060287Y-113903520D01*
X40049428Y-113909197D01*
X39882002Y-113996726D01*
X39878231Y-113999758D01*
X39725220Y-114122781D01*
X39725217Y-114122783D01*
X39721447Y-114125815D01*
X39718333Y-114129526D01*
X39718332Y-114129527D01*
X39605976Y-114263428D01*
X39589024Y-114283630D01*
X39586689Y-114287878D01*
X39586688Y-114287879D01*
X39579955Y-114300126D01*
X39489776Y-114464162D01*
X39427484Y-114660532D01*
X39426944Y-114665344D01*
X39426944Y-114665345D01*
X39419296Y-114733533D01*
X39404520Y-114865262D01*
X38200000Y-114865262D01*
X38200000Y-112325262D01*
X39404520Y-112325262D01*
X39421759Y-112530553D01*
X39478544Y-112728586D01*
X39572712Y-112911818D01*
X39700677Y-113073270D01*
X39704357Y-113076402D01*
X39704359Y-113076404D01*
X39817017Y-113172283D01*
X39857564Y-113206791D01*
X39861787Y-113209151D01*
X39861791Y-113209154D01*
X39901342Y-113231258D01*
X40037398Y-113307297D01*
X40041996Y-113308791D01*
X40228724Y-113369463D01*
X40228726Y-113369464D01*
X40233329Y-113370959D01*
X40437894Y-113395351D01*
X40442716Y-113394980D01*
X40442719Y-113394980D01*
X40510541Y-113389761D01*
X40643300Y-113379546D01*
X40841725Y-113324145D01*
X40846038Y-113321966D01*
X40846044Y-113321964D01*
X41021289Y-113233441D01*
X41021291Y-113233440D01*
X41025610Y-113231258D01*
X41060943Y-113203653D01*
X41184135Y-113107406D01*
X41184139Y-113107402D01*
X41187951Y-113104424D01*
X41322564Y-112948472D01*
X41341231Y-112915613D01*
X41421934Y-112773550D01*
X41421935Y-112773547D01*
X41424323Y-112769344D01*
X41437882Y-112728586D01*
X41487824Y-112578454D01*
X41487824Y-112578452D01*
X41489351Y-112573863D01*
X41515171Y-112369474D01*
X41515583Y-112340000D01*
X41514138Y-112325262D01*
X41944520Y-112325262D01*
X41961759Y-112530553D01*
X42018544Y-112728586D01*
X42112712Y-112911818D01*
X42240677Y-113073270D01*
X42244357Y-113076402D01*
X42244359Y-113076404D01*
X42357017Y-113172283D01*
X42397564Y-113206791D01*
X42401787Y-113209151D01*
X42401791Y-113209154D01*
X42441342Y-113231258D01*
X42577398Y-113307297D01*
X42581996Y-113308791D01*
X42768724Y-113369463D01*
X42768726Y-113369464D01*
X42773329Y-113370959D01*
X42977894Y-113395351D01*
X42982716Y-113394980D01*
X42982719Y-113394980D01*
X43050541Y-113389761D01*
X43183300Y-113379546D01*
X43381725Y-113324145D01*
X43386038Y-113321966D01*
X43386044Y-113321964D01*
X43561289Y-113233441D01*
X43561291Y-113233440D01*
X43565610Y-113231258D01*
X43600943Y-113203653D01*
X43724135Y-113107406D01*
X43724139Y-113107402D01*
X43727951Y-113104424D01*
X43862564Y-112948472D01*
X43881231Y-112915613D01*
X43961934Y-112773550D01*
X43961935Y-112773547D01*
X43964323Y-112769344D01*
X43977882Y-112728586D01*
X44027824Y-112578454D01*
X44027824Y-112578452D01*
X44029351Y-112573863D01*
X44055171Y-112369474D01*
X44055583Y-112340000D01*
X44035480Y-112134970D01*
X43975935Y-111937749D01*
X43879218Y-111755849D01*
X43749011Y-111596200D01*
X43590275Y-111464882D01*
X43409055Y-111366897D01*
X43345855Y-111347333D01*
X43216875Y-111307407D01*
X43216871Y-111307406D01*
X43212254Y-111305977D01*
X43207446Y-111305472D01*
X43207443Y-111305471D01*
X43012185Y-111284949D01*
X43012183Y-111284949D01*
X43007369Y-111284443D01*
X42947354Y-111289905D01*
X42807022Y-111302675D01*
X42807017Y-111302676D01*
X42802203Y-111303114D01*
X42604572Y-111361280D01*
X42600288Y-111363519D01*
X42600287Y-111363520D01*
X42589428Y-111369197D01*
X42422002Y-111456726D01*
X42418231Y-111459758D01*
X42265220Y-111582781D01*
X42265217Y-111582783D01*
X42261447Y-111585815D01*
X42258333Y-111589526D01*
X42258332Y-111589527D01*
X42249585Y-111599952D01*
X42129024Y-111743630D01*
X42126689Y-111747878D01*
X42126688Y-111747879D01*
X42119955Y-111760126D01*
X42029776Y-111924162D01*
X41967484Y-112120532D01*
X41966944Y-112125344D01*
X41966944Y-112125345D01*
X41965865Y-112134970D01*
X41944520Y-112325262D01*
X41514138Y-112325262D01*
X41495480Y-112134970D01*
X41435935Y-111937749D01*
X41339218Y-111755849D01*
X41209011Y-111596200D01*
X41050275Y-111464882D01*
X40869055Y-111366897D01*
X40805855Y-111347333D01*
X40676875Y-111307407D01*
X40676871Y-111307406D01*
X40672254Y-111305977D01*
X40667446Y-111305472D01*
X40667443Y-111305471D01*
X40472185Y-111284949D01*
X40472183Y-111284949D01*
X40467369Y-111284443D01*
X40407354Y-111289905D01*
X40267022Y-111302675D01*
X40267017Y-111302676D01*
X40262203Y-111303114D01*
X40064572Y-111361280D01*
X40060288Y-111363519D01*
X40060287Y-111363520D01*
X40049428Y-111369197D01*
X39882002Y-111456726D01*
X39878231Y-111459758D01*
X39725220Y-111582781D01*
X39725217Y-111582783D01*
X39721447Y-111585815D01*
X39718333Y-111589526D01*
X39718332Y-111589527D01*
X39709585Y-111599952D01*
X39589024Y-111743630D01*
X39586689Y-111747878D01*
X39586688Y-111747879D01*
X39579955Y-111760126D01*
X39489776Y-111924162D01*
X39427484Y-112120532D01*
X39426944Y-112125344D01*
X39426944Y-112125345D01*
X39425865Y-112134970D01*
X39404520Y-112325262D01*
X38200000Y-112325262D01*
X38200000Y-109785262D01*
X39404520Y-109785262D01*
X39404925Y-109790082D01*
X39415820Y-109919823D01*
X39421759Y-109990553D01*
X39423092Y-109995201D01*
X39423092Y-109995202D01*
X39454224Y-110103771D01*
X39478544Y-110188586D01*
X39572712Y-110371818D01*
X39700677Y-110533270D01*
X39704357Y-110536402D01*
X39704359Y-110536404D01*
X39817017Y-110632283D01*
X39857564Y-110666791D01*
X39861787Y-110669151D01*
X39861791Y-110669154D01*
X39901342Y-110691258D01*
X40037398Y-110767297D01*
X40041996Y-110768791D01*
X40228724Y-110829463D01*
X40228726Y-110829464D01*
X40233329Y-110830959D01*
X40437894Y-110855351D01*
X40442716Y-110854980D01*
X40442719Y-110854980D01*
X40510541Y-110849761D01*
X40643300Y-110839546D01*
X40841725Y-110784145D01*
X40846038Y-110781966D01*
X40846044Y-110781964D01*
X41021289Y-110693441D01*
X41021291Y-110693440D01*
X41025610Y-110691258D01*
X41061802Y-110662982D01*
X41184135Y-110567406D01*
X41184139Y-110567402D01*
X41187951Y-110564424D01*
X41218759Y-110528733D01*
X41247313Y-110495651D01*
X41322564Y-110408472D01*
X41334561Y-110387354D01*
X41421934Y-110233550D01*
X41421935Y-110233547D01*
X41424323Y-110229344D01*
X41427174Y-110220776D01*
X41487824Y-110038454D01*
X41487824Y-110038452D01*
X41489351Y-110033863D01*
X41493717Y-109999307D01*
X41514823Y-109832228D01*
X41515171Y-109829474D01*
X41515583Y-109800000D01*
X41514138Y-109785262D01*
X41944520Y-109785262D01*
X41944925Y-109790082D01*
X41955820Y-109919823D01*
X41961759Y-109990553D01*
X41963092Y-109995201D01*
X41963092Y-109995202D01*
X41994224Y-110103771D01*
X42018544Y-110188586D01*
X42112712Y-110371818D01*
X42240677Y-110533270D01*
X42244357Y-110536402D01*
X42244359Y-110536404D01*
X42357017Y-110632283D01*
X42397564Y-110666791D01*
X42401787Y-110669151D01*
X42401791Y-110669154D01*
X42441342Y-110691258D01*
X42577398Y-110767297D01*
X42581996Y-110768791D01*
X42768724Y-110829463D01*
X42768726Y-110829464D01*
X42773329Y-110830959D01*
X42977894Y-110855351D01*
X42982716Y-110854980D01*
X42982719Y-110854980D01*
X43050541Y-110849761D01*
X43183300Y-110839546D01*
X43381725Y-110784145D01*
X43386038Y-110781966D01*
X43386044Y-110781964D01*
X43561289Y-110693441D01*
X43561291Y-110693440D01*
X43565610Y-110691258D01*
X43601802Y-110662982D01*
X43724135Y-110567406D01*
X43724139Y-110567402D01*
X43727951Y-110564424D01*
X43758759Y-110528733D01*
X43787313Y-110495651D01*
X43862564Y-110408472D01*
X43874561Y-110387354D01*
X43885088Y-110368823D01*
X55614391Y-110368823D01*
X55615306Y-110375820D01*
X55615306Y-110375821D01*
X55616814Y-110387354D01*
X55632980Y-110510979D01*
X55635821Y-110517435D01*
X55635821Y-110517436D01*
X55643586Y-110535082D01*
X55690720Y-110642203D01*
X55713375Y-110669154D01*
X55778431Y-110746549D01*
X55778434Y-110746551D01*
X55782970Y-110751948D01*
X55788841Y-110755856D01*
X55788842Y-110755857D01*
X55801143Y-110764045D01*
X55902313Y-110831390D01*
X56002920Y-110862821D01*
X56032425Y-110872039D01*
X56032426Y-110872039D01*
X56039157Y-110874142D01*
X56110828Y-110875456D01*
X56175445Y-110876641D01*
X56175447Y-110876641D01*
X56182499Y-110876770D01*
X56189302Y-110874915D01*
X56189304Y-110874915D01*
X56264503Y-110854413D01*
X56320817Y-110839060D01*
X56442991Y-110764045D01*
X56450403Y-110755857D01*
X56534468Y-110662982D01*
X56539200Y-110657754D01*
X56601710Y-110528733D01*
X56605875Y-110503982D01*
X56624862Y-110391124D01*
X56624862Y-110391120D01*
X56625496Y-110387354D01*
X56625647Y-110375000D01*
X56605323Y-110233082D01*
X56545984Y-110102572D01*
X56452400Y-109993963D01*
X56332095Y-109915985D01*
X56194739Y-109874907D01*
X56111497Y-109874398D01*
X56058427Y-109874074D01*
X56058426Y-109874074D01*
X56051376Y-109874031D01*
X56044599Y-109875968D01*
X56044598Y-109875968D01*
X55920309Y-109911490D01*
X55920307Y-109911491D01*
X55913529Y-109913428D01*
X55792280Y-109989930D01*
X55787613Y-109995214D01*
X55787611Y-109995216D01*
X55702044Y-110092103D01*
X55702042Y-110092105D01*
X55697377Y-110097388D01*
X55636447Y-110227163D01*
X55614391Y-110368823D01*
X43885088Y-110368823D01*
X43961934Y-110233550D01*
X43961935Y-110233547D01*
X43964323Y-110229344D01*
X43967174Y-110220776D01*
X44027824Y-110038454D01*
X44027824Y-110038452D01*
X44029351Y-110033863D01*
X44033717Y-109999307D01*
X44054823Y-109832228D01*
X44055171Y-109829474D01*
X44055583Y-109800000D01*
X44035480Y-109594970D01*
X43975935Y-109397749D01*
X43879218Y-109215849D01*
X43749011Y-109056200D01*
X43713737Y-109027019D01*
X43594002Y-108927965D01*
X43594000Y-108927964D01*
X43590275Y-108924882D01*
X43478123Y-108864242D01*
X43413309Y-108829197D01*
X43413308Y-108829197D01*
X43409055Y-108826897D01*
X43311976Y-108796846D01*
X43216875Y-108767407D01*
X43216871Y-108767406D01*
X43212254Y-108765977D01*
X43207446Y-108765472D01*
X43207443Y-108765471D01*
X43012185Y-108744949D01*
X43012183Y-108744949D01*
X43007369Y-108744443D01*
X42947354Y-108749905D01*
X42807022Y-108762675D01*
X42807017Y-108762676D01*
X42802203Y-108763114D01*
X42604572Y-108821280D01*
X42600288Y-108823519D01*
X42600287Y-108823520D01*
X42589428Y-108829197D01*
X42422002Y-108916726D01*
X42418231Y-108919758D01*
X42265220Y-109042781D01*
X42265217Y-109042783D01*
X42261447Y-109045815D01*
X42258333Y-109049526D01*
X42258332Y-109049527D01*
X42176510Y-109147039D01*
X42129024Y-109203630D01*
X42126689Y-109207878D01*
X42126688Y-109207879D01*
X42119955Y-109220126D01*
X42029776Y-109384162D01*
X41967484Y-109580532D01*
X41966944Y-109585344D01*
X41966944Y-109585345D01*
X41965865Y-109594970D01*
X41944520Y-109785262D01*
X41514138Y-109785262D01*
X41495480Y-109594970D01*
X41435935Y-109397749D01*
X41339218Y-109215849D01*
X41209011Y-109056200D01*
X41173737Y-109027019D01*
X41054002Y-108927965D01*
X41054000Y-108927964D01*
X41050275Y-108924882D01*
X40938123Y-108864242D01*
X40873309Y-108829197D01*
X40873308Y-108829197D01*
X40869055Y-108826897D01*
X40771976Y-108796846D01*
X40676875Y-108767407D01*
X40676871Y-108767406D01*
X40672254Y-108765977D01*
X40667446Y-108765472D01*
X40667443Y-108765471D01*
X40472185Y-108744949D01*
X40472183Y-108744949D01*
X40467369Y-108744443D01*
X40407354Y-108749905D01*
X40267022Y-108762675D01*
X40267017Y-108762676D01*
X40262203Y-108763114D01*
X40064572Y-108821280D01*
X40060288Y-108823519D01*
X40060287Y-108823520D01*
X40049428Y-108829197D01*
X39882002Y-108916726D01*
X39878231Y-108919758D01*
X39725220Y-109042781D01*
X39725217Y-109042783D01*
X39721447Y-109045815D01*
X39718333Y-109049526D01*
X39718332Y-109049527D01*
X39636510Y-109147039D01*
X39589024Y-109203630D01*
X39586689Y-109207878D01*
X39586688Y-109207879D01*
X39579955Y-109220126D01*
X39489776Y-109384162D01*
X39427484Y-109580532D01*
X39426944Y-109585344D01*
X39426944Y-109585345D01*
X39425865Y-109594970D01*
X39404520Y-109785262D01*
X38200000Y-109785262D01*
X38200000Y-108500000D01*
X45394318Y-108500000D01*
X45414956Y-108656762D01*
X45475464Y-108802841D01*
X45571718Y-108928282D01*
X45697159Y-109024536D01*
X45843238Y-109085044D01*
X46000000Y-109105682D01*
X46156762Y-109085044D01*
X46302841Y-109024536D01*
X46428282Y-108928282D01*
X46430852Y-108924933D01*
X46484513Y-108897592D01*
X46544945Y-108907163D01*
X46568826Y-108924513D01*
X46571718Y-108928282D01*
X46697159Y-109024536D01*
X46843238Y-109085044D01*
X47000000Y-109105682D01*
X47156762Y-109085044D01*
X47302841Y-109024536D01*
X47428282Y-108928282D01*
X47430852Y-108924933D01*
X47484513Y-108897592D01*
X47544945Y-108907163D01*
X47568826Y-108924513D01*
X47571718Y-108928282D01*
X47697159Y-109024536D01*
X47843238Y-109085044D01*
X48000000Y-109105682D01*
X48156762Y-109085044D01*
X48302841Y-109024536D01*
X48428282Y-108928282D01*
X48524536Y-108802841D01*
X48585044Y-108656762D01*
X48586747Y-108643823D01*
X52394391Y-108643823D01*
X52395306Y-108650820D01*
X52395306Y-108650821D01*
X52400748Y-108692436D01*
X52412980Y-108785979D01*
X52415821Y-108792435D01*
X52415821Y-108792436D01*
X52433562Y-108832754D01*
X52470720Y-108917203D01*
X52516845Y-108972076D01*
X52558431Y-109021549D01*
X52558434Y-109021551D01*
X52562970Y-109026948D01*
X52568841Y-109030856D01*
X52568842Y-109030857D01*
X52581143Y-109039045D01*
X52682313Y-109106390D01*
X52782920Y-109137821D01*
X52812425Y-109147039D01*
X52812426Y-109147039D01*
X52819157Y-109149142D01*
X52890828Y-109150456D01*
X52955445Y-109151641D01*
X52955447Y-109151641D01*
X52962499Y-109151770D01*
X52969302Y-109149915D01*
X52969304Y-109149915D01*
X53044503Y-109129413D01*
X53100817Y-109114060D01*
X53222991Y-109039045D01*
X53230403Y-109030857D01*
X53314468Y-108937982D01*
X53319200Y-108932754D01*
X53366650Y-108834817D01*
X53378634Y-108810082D01*
X53381710Y-108803733D01*
X53385875Y-108778982D01*
X53404862Y-108666124D01*
X53404862Y-108666120D01*
X53405496Y-108662354D01*
X53405647Y-108650000D01*
X53390441Y-108543823D01*
X53594391Y-108543823D01*
X53595306Y-108550820D01*
X53595306Y-108550821D01*
X53609159Y-108656762D01*
X53612980Y-108685979D01*
X53615821Y-108692435D01*
X53615821Y-108692436D01*
X53667587Y-108810082D01*
X53670720Y-108817203D01*
X53688187Y-108837982D01*
X53758431Y-108921549D01*
X53758434Y-108921551D01*
X53762970Y-108926948D01*
X53768841Y-108930856D01*
X53768842Y-108930857D01*
X53779546Y-108937982D01*
X53882313Y-109006390D01*
X53960629Y-109030857D01*
X54012425Y-109047039D01*
X54012426Y-109047039D01*
X54019157Y-109049142D01*
X54090828Y-109050456D01*
X54155445Y-109051641D01*
X54155447Y-109051641D01*
X54162499Y-109051770D01*
X54169302Y-109049915D01*
X54169304Y-109049915D01*
X54253284Y-109027019D01*
X54300817Y-109014060D01*
X54422991Y-108939045D01*
X54430403Y-108930857D01*
X54514468Y-108837982D01*
X54519200Y-108832754D01*
X54581710Y-108703733D01*
X54585875Y-108678982D01*
X54604862Y-108566124D01*
X54604862Y-108566120D01*
X54605496Y-108562354D01*
X54605647Y-108550000D01*
X54585323Y-108408082D01*
X54555052Y-108341505D01*
X54528905Y-108283996D01*
X54528904Y-108283995D01*
X54525984Y-108277572D01*
X54452259Y-108192010D01*
X54437005Y-108174307D01*
X54437004Y-108174306D01*
X54432400Y-108168963D01*
X54312095Y-108090985D01*
X54174739Y-108049907D01*
X54091497Y-108049398D01*
X54038427Y-108049074D01*
X54038426Y-108049074D01*
X54031376Y-108049031D01*
X54024599Y-108050968D01*
X54024598Y-108050968D01*
X53900309Y-108086490D01*
X53900307Y-108086491D01*
X53893529Y-108088428D01*
X53772280Y-108164930D01*
X53767613Y-108170214D01*
X53767611Y-108170216D01*
X53682044Y-108267103D01*
X53682042Y-108267105D01*
X53677377Y-108272388D01*
X53616447Y-108402163D01*
X53615362Y-108409132D01*
X53615361Y-108409135D01*
X53612577Y-108427019D01*
X53594391Y-108543823D01*
X53390441Y-108543823D01*
X53385323Y-108508082D01*
X53345541Y-108420585D01*
X53328905Y-108383996D01*
X53328904Y-108383995D01*
X53325984Y-108377572D01*
X53248432Y-108287569D01*
X53237005Y-108274307D01*
X53237004Y-108274306D01*
X53232400Y-108268963D01*
X53112095Y-108190985D01*
X52974739Y-108149907D01*
X52891497Y-108149398D01*
X52838427Y-108149074D01*
X52838426Y-108149074D01*
X52831376Y-108149031D01*
X52824599Y-108150968D01*
X52824598Y-108150968D01*
X52700309Y-108186490D01*
X52700307Y-108186491D01*
X52693529Y-108188428D01*
X52572280Y-108264930D01*
X52567613Y-108270214D01*
X52567611Y-108270216D01*
X52482044Y-108367103D01*
X52482042Y-108367105D01*
X52477377Y-108372388D01*
X52416447Y-108502163D01*
X52415362Y-108509132D01*
X52415361Y-108509135D01*
X52409589Y-108546209D01*
X52394391Y-108643823D01*
X48586747Y-108643823D01*
X48605682Y-108500000D01*
X48595227Y-108420585D01*
X48592232Y-108397833D01*
X48603382Y-108337672D01*
X48647765Y-108295555D01*
X48708427Y-108287569D01*
X48762197Y-108316764D01*
X48766867Y-108322232D01*
X48767764Y-108323129D01*
X48771718Y-108328282D01*
X48897159Y-108424536D01*
X49043238Y-108485044D01*
X49200000Y-108505682D01*
X49356762Y-108485044D01*
X49502841Y-108424536D01*
X49628282Y-108328282D01*
X49724536Y-108202841D01*
X49785044Y-108056762D01*
X49805682Y-107900000D01*
X49801655Y-107869414D01*
X54788370Y-107869414D01*
X54789285Y-107876411D01*
X54789285Y-107876412D01*
X54794325Y-107914956D01*
X54806959Y-108011570D01*
X54809800Y-108018026D01*
X54809800Y-108018027D01*
X54857658Y-108126791D01*
X54864699Y-108142794D01*
X54901429Y-108186490D01*
X54952410Y-108247140D01*
X54952413Y-108247142D01*
X54956949Y-108252539D01*
X54962820Y-108256447D01*
X54962821Y-108256448D01*
X54986524Y-108272226D01*
X55076292Y-108331981D01*
X55176899Y-108363412D01*
X55206404Y-108372630D01*
X55206405Y-108372630D01*
X55213136Y-108374733D01*
X55284807Y-108376047D01*
X55349424Y-108377232D01*
X55349426Y-108377232D01*
X55356478Y-108377361D01*
X55363281Y-108375506D01*
X55363283Y-108375506D01*
X55481639Y-108343238D01*
X55494796Y-108339651D01*
X55616970Y-108264636D01*
X55624382Y-108256448D01*
X55708447Y-108163573D01*
X55713179Y-108158345D01*
X55765717Y-108049907D01*
X55772613Y-108035673D01*
X55775689Y-108029324D01*
X55779854Y-108004573D01*
X55798841Y-107891715D01*
X55798841Y-107891711D01*
X55799475Y-107887945D01*
X55799626Y-107875591D01*
X55779302Y-107733673D01*
X55773707Y-107721367D01*
X55745409Y-107659127D01*
X55738536Y-107598329D01*
X55768712Y-107545103D01*
X55791441Y-107530637D01*
X55791226Y-107530264D01*
X55796846Y-107527019D01*
X55802841Y-107524536D01*
X55928282Y-107428282D01*
X56024536Y-107302841D01*
X56085044Y-107156762D01*
X56105682Y-107000000D01*
X56085044Y-106843238D01*
X56024536Y-106697159D01*
X55928282Y-106571718D01*
X55857279Y-106517236D01*
X55822624Y-106466813D01*
X55824225Y-106405649D01*
X55854308Y-106362525D01*
X55856439Y-106360756D01*
X55862450Y-106357065D01*
X55958659Y-106250774D01*
X56021169Y-106121753D01*
X56025334Y-106097002D01*
X56044321Y-105984144D01*
X56044321Y-105984140D01*
X56044955Y-105980374D01*
X56045106Y-105968020D01*
X56024782Y-105826102D01*
X55979891Y-105727369D01*
X55968364Y-105702016D01*
X55968363Y-105702015D01*
X55965443Y-105695592D01*
X55871859Y-105586983D01*
X55751554Y-105509005D01*
X55614198Y-105467927D01*
X55530956Y-105467418D01*
X55477886Y-105467094D01*
X55477885Y-105467094D01*
X55470835Y-105467051D01*
X55464058Y-105468988D01*
X55464057Y-105468988D01*
X55339768Y-105504510D01*
X55339766Y-105504511D01*
X55332988Y-105506448D01*
X55211739Y-105582950D01*
X55207072Y-105588234D01*
X55207070Y-105588236D01*
X55121503Y-105685123D01*
X55121501Y-105685125D01*
X55116836Y-105690408D01*
X55113840Y-105696790D01*
X55113839Y-105696791D01*
X55101774Y-105722489D01*
X55055906Y-105820183D01*
X55054821Y-105827152D01*
X55054820Y-105827155D01*
X55045579Y-105886509D01*
X55033850Y-105961843D01*
X55034765Y-105968840D01*
X55034765Y-105968841D01*
X55036273Y-105980374D01*
X55052439Y-106103999D01*
X55055280Y-106110455D01*
X55055280Y-106110456D01*
X55106111Y-106225977D01*
X55110179Y-106235223D01*
X55155549Y-106289197D01*
X55200443Y-106342606D01*
X55223413Y-106399316D01*
X55208662Y-106458697D01*
X55184927Y-106484850D01*
X55071718Y-106571718D01*
X54975464Y-106697159D01*
X54914956Y-106843238D01*
X54894318Y-107000000D01*
X54914956Y-107156762D01*
X54975464Y-107302841D01*
X54979413Y-107307987D01*
X54979415Y-107307991D01*
X55003435Y-107339295D01*
X55023859Y-107396971D01*
X55006481Y-107455637D01*
X54977721Y-107483289D01*
X54966259Y-107490521D01*
X54961592Y-107495805D01*
X54961590Y-107495807D01*
X54876023Y-107592694D01*
X54876021Y-107592696D01*
X54871356Y-107597979D01*
X54810426Y-107727754D01*
X54809341Y-107734723D01*
X54809340Y-107734726D01*
X54808417Y-107740657D01*
X54788370Y-107869414D01*
X49801655Y-107869414D01*
X49785044Y-107743238D01*
X49724536Y-107597159D01*
X49628282Y-107471718D01*
X49502841Y-107375464D01*
X49356762Y-107314956D01*
X49200000Y-107294318D01*
X49043238Y-107314956D01*
X48897159Y-107375464D01*
X48771718Y-107471718D01*
X48675464Y-107597159D01*
X48614956Y-107743238D01*
X48594318Y-107900000D01*
X48595165Y-107906434D01*
X48607768Y-108002167D01*
X48596618Y-108062328D01*
X48552235Y-108104445D01*
X48491573Y-108112431D01*
X48437803Y-108083236D01*
X48433133Y-108077768D01*
X48432236Y-108076871D01*
X48428282Y-108071718D01*
X48302841Y-107975464D01*
X48156762Y-107914956D01*
X48000000Y-107894318D01*
X47843238Y-107914956D01*
X47697159Y-107975464D01*
X47571718Y-108071718D01*
X47569148Y-108075067D01*
X47515487Y-108102408D01*
X47455055Y-108092837D01*
X47431174Y-108075487D01*
X47428282Y-108071718D01*
X47302841Y-107975464D01*
X47156762Y-107914956D01*
X47000000Y-107894318D01*
X46843238Y-107914956D01*
X46697159Y-107975464D01*
X46571718Y-108071718D01*
X46569148Y-108075067D01*
X46515487Y-108102408D01*
X46455055Y-108092837D01*
X46431174Y-108075487D01*
X46428282Y-108071718D01*
X46302841Y-107975464D01*
X46156762Y-107914956D01*
X46000000Y-107894318D01*
X45843238Y-107914956D01*
X45697159Y-107975464D01*
X45571718Y-108071718D01*
X45475464Y-108197159D01*
X45414956Y-108343238D01*
X45394318Y-108500000D01*
X38200000Y-108500000D01*
X38200000Y-107245262D01*
X39404520Y-107245262D01*
X39410581Y-107317440D01*
X39417260Y-107396971D01*
X39421759Y-107450553D01*
X39423092Y-107455201D01*
X39423092Y-107455202D01*
X39465517Y-107603154D01*
X39478544Y-107648586D01*
X39572712Y-107831818D01*
X39700677Y-107993270D01*
X39704357Y-107996402D01*
X39704359Y-107996404D01*
X39767175Y-108049864D01*
X39857564Y-108126791D01*
X39861787Y-108129151D01*
X39861791Y-108129154D01*
X39967850Y-108188428D01*
X40037398Y-108227297D01*
X40041996Y-108228791D01*
X40228724Y-108289463D01*
X40228726Y-108289464D01*
X40233329Y-108290959D01*
X40437894Y-108315351D01*
X40442716Y-108314980D01*
X40442719Y-108314980D01*
X40510541Y-108309761D01*
X40643300Y-108299546D01*
X40841725Y-108244145D01*
X40846038Y-108241966D01*
X40846044Y-108241964D01*
X41021289Y-108153441D01*
X41021291Y-108153440D01*
X41025610Y-108151258D01*
X41029533Y-108148193D01*
X41184135Y-108027406D01*
X41184139Y-108027402D01*
X41187951Y-108024424D01*
X41199047Y-108011570D01*
X41282440Y-107914956D01*
X41322564Y-107868472D01*
X41341231Y-107835613D01*
X41421934Y-107693550D01*
X41421935Y-107693547D01*
X41424323Y-107689344D01*
X41437882Y-107648586D01*
X41487824Y-107498454D01*
X41487824Y-107498452D01*
X41489351Y-107493863D01*
X41515171Y-107289474D01*
X41515583Y-107260000D01*
X41514138Y-107245262D01*
X41944520Y-107245262D01*
X41950581Y-107317440D01*
X41957260Y-107396971D01*
X41961759Y-107450553D01*
X41963092Y-107455201D01*
X41963092Y-107455202D01*
X42005517Y-107603154D01*
X42018544Y-107648586D01*
X42112712Y-107831818D01*
X42240677Y-107993270D01*
X42244357Y-107996402D01*
X42244359Y-107996404D01*
X42307175Y-108049864D01*
X42397564Y-108126791D01*
X42401787Y-108129151D01*
X42401791Y-108129154D01*
X42507850Y-108188428D01*
X42577398Y-108227297D01*
X42581996Y-108228791D01*
X42768724Y-108289463D01*
X42768726Y-108289464D01*
X42773329Y-108290959D01*
X42977894Y-108315351D01*
X42982716Y-108314980D01*
X42982719Y-108314980D01*
X43050541Y-108309761D01*
X43183300Y-108299546D01*
X43381725Y-108244145D01*
X43386038Y-108241966D01*
X43386044Y-108241964D01*
X43561289Y-108153441D01*
X43561291Y-108153440D01*
X43565610Y-108151258D01*
X43569533Y-108148193D01*
X43724135Y-108027406D01*
X43724139Y-108027402D01*
X43727951Y-108024424D01*
X43739047Y-108011570D01*
X43822440Y-107914956D01*
X43862564Y-107868472D01*
X43881231Y-107835613D01*
X43961934Y-107693550D01*
X43961935Y-107693547D01*
X43964323Y-107689344D01*
X43977882Y-107648586D01*
X44027824Y-107498454D01*
X44027824Y-107498452D01*
X44029351Y-107493863D01*
X44055171Y-107289474D01*
X44055583Y-107260000D01*
X44035480Y-107054970D01*
X44018884Y-107000000D01*
X43977333Y-106862380D01*
X43975935Y-106857749D01*
X43910365Y-106734428D01*
X50624102Y-106734428D01*
X50629098Y-106739424D01*
X50760274Y-106788208D01*
X50770953Y-106790871D01*
X50928539Y-106811897D01*
X50939533Y-106812128D01*
X51097872Y-106797717D01*
X51108642Y-106795507D01*
X51259849Y-106746377D01*
X51268334Y-106742527D01*
X51275424Y-106734428D01*
X51674102Y-106734428D01*
X51679098Y-106739424D01*
X51810274Y-106788208D01*
X51820953Y-106790871D01*
X51978539Y-106811897D01*
X51989533Y-106812128D01*
X52147872Y-106797717D01*
X52158642Y-106795507D01*
X52309849Y-106746377D01*
X52318334Y-106742527D01*
X52325424Y-106734428D01*
X52724102Y-106734428D01*
X52729098Y-106739424D01*
X52860274Y-106788208D01*
X52870953Y-106790871D01*
X53028539Y-106811897D01*
X53039533Y-106812128D01*
X53197872Y-106797717D01*
X53208642Y-106795507D01*
X53359849Y-106746377D01*
X53368334Y-106742527D01*
X53376192Y-106733551D01*
X53371503Y-106725056D01*
X53061086Y-106414639D01*
X53049203Y-106408585D01*
X53044172Y-106409381D01*
X52729273Y-106724280D01*
X52724102Y-106734428D01*
X52325424Y-106734428D01*
X52326192Y-106733551D01*
X52321503Y-106725056D01*
X52011086Y-106414639D01*
X51999203Y-106408585D01*
X51994172Y-106409381D01*
X51679273Y-106724280D01*
X51674102Y-106734428D01*
X51275424Y-106734428D01*
X51276192Y-106733551D01*
X51271503Y-106725056D01*
X50961086Y-106414639D01*
X50949203Y-106408585D01*
X50944172Y-106409381D01*
X50629273Y-106724280D01*
X50624102Y-106734428D01*
X43910365Y-106734428D01*
X43879218Y-106675849D01*
X43749011Y-106516200D01*
X43732790Y-106502781D01*
X43594002Y-106387965D01*
X43594000Y-106387964D01*
X43590275Y-106384882D01*
X43409055Y-106286897D01*
X43345855Y-106267333D01*
X43216875Y-106227407D01*
X43216871Y-106227406D01*
X43212254Y-106225977D01*
X43207446Y-106225472D01*
X43207443Y-106225471D01*
X43012185Y-106204949D01*
X43012183Y-106204949D01*
X43007369Y-106204443D01*
X42947354Y-106209905D01*
X42807022Y-106222675D01*
X42807017Y-106222676D01*
X42802203Y-106223114D01*
X42604572Y-106281280D01*
X42600288Y-106283519D01*
X42600287Y-106283520D01*
X42589428Y-106289197D01*
X42422002Y-106376726D01*
X42418231Y-106379758D01*
X42265220Y-106502781D01*
X42265217Y-106502783D01*
X42261447Y-106505815D01*
X42258333Y-106509526D01*
X42258332Y-106509527D01*
X42201824Y-106576871D01*
X42129024Y-106663630D01*
X42126689Y-106667878D01*
X42126688Y-106667879D01*
X42119955Y-106680126D01*
X42029776Y-106844162D01*
X41967484Y-107040532D01*
X41966944Y-107045344D01*
X41966944Y-107045345D01*
X41955169Y-107150326D01*
X41944520Y-107245262D01*
X41514138Y-107245262D01*
X41495480Y-107054970D01*
X41478884Y-107000000D01*
X41437333Y-106862380D01*
X41435935Y-106857749D01*
X41339218Y-106675849D01*
X41209011Y-106516200D01*
X41192790Y-106502781D01*
X41054002Y-106387965D01*
X41054000Y-106387964D01*
X41050275Y-106384882D01*
X40869055Y-106286897D01*
X40805855Y-106267333D01*
X40676875Y-106227407D01*
X40676871Y-106227406D01*
X40672254Y-106225977D01*
X40667446Y-106225472D01*
X40667443Y-106225471D01*
X40472185Y-106204949D01*
X40472183Y-106204949D01*
X40467369Y-106204443D01*
X40407354Y-106209905D01*
X40267022Y-106222675D01*
X40267017Y-106222676D01*
X40262203Y-106223114D01*
X40064572Y-106281280D01*
X40060288Y-106283519D01*
X40060287Y-106283520D01*
X40049428Y-106289197D01*
X39882002Y-106376726D01*
X39878231Y-106379758D01*
X39725220Y-106502781D01*
X39725217Y-106502783D01*
X39721447Y-106505815D01*
X39718333Y-106509526D01*
X39718332Y-106509527D01*
X39661824Y-106576871D01*
X39589024Y-106663630D01*
X39586689Y-106667878D01*
X39586688Y-106667879D01*
X39579955Y-106680126D01*
X39489776Y-106844162D01*
X39427484Y-107040532D01*
X39426944Y-107045344D01*
X39426944Y-107045345D01*
X39415169Y-107150326D01*
X39404520Y-107245262D01*
X38200000Y-107245262D01*
X38200000Y-106044859D01*
X50187818Y-106044859D01*
X50203333Y-106203086D01*
X50205619Y-106213843D01*
X50255804Y-106364704D01*
X50258089Y-106369650D01*
X50266150Y-106376608D01*
X50274470Y-106371977D01*
X50585361Y-106061086D01*
X50590603Y-106050797D01*
X51308585Y-106050797D01*
X51309381Y-106055828D01*
X51463914Y-106210361D01*
X51475797Y-106216415D01*
X51480828Y-106215619D01*
X51635361Y-106061086D01*
X51640603Y-106050797D01*
X52358585Y-106050797D01*
X52359381Y-106055828D01*
X52513914Y-106210361D01*
X52525797Y-106216415D01*
X52530828Y-106215619D01*
X52685361Y-106061086D01*
X52690603Y-106050797D01*
X53408585Y-106050797D01*
X53409381Y-106055828D01*
X53723904Y-106370351D01*
X53734052Y-106375522D01*
X53739188Y-106370386D01*
X53786868Y-106244868D01*
X53789601Y-106234222D01*
X53812065Y-106074384D01*
X53812542Y-106068185D01*
X53812753Y-106053117D01*
X53812449Y-106046905D01*
X53794457Y-105886509D01*
X53792018Y-105875772D01*
X53740338Y-105727369D01*
X53734521Y-105722489D01*
X53726557Y-105726996D01*
X53414639Y-106038914D01*
X53408585Y-106050797D01*
X52690603Y-106050797D01*
X52691415Y-106049203D01*
X52690619Y-106044172D01*
X52536086Y-105889639D01*
X52524203Y-105883585D01*
X52519172Y-105884381D01*
X52364639Y-106038914D01*
X52358585Y-106050797D01*
X51640603Y-106050797D01*
X51641415Y-106049203D01*
X51640619Y-106044172D01*
X51486086Y-105889639D01*
X51474203Y-105883585D01*
X51469172Y-105884381D01*
X51314639Y-106038914D01*
X51308585Y-106050797D01*
X50590603Y-106050797D01*
X50591415Y-106049203D01*
X50590619Y-106044172D01*
X50275313Y-105728866D01*
X50265165Y-105723695D01*
X50260305Y-105728555D01*
X50210485Y-105865435D01*
X50207898Y-105876129D01*
X50187972Y-106033858D01*
X50187818Y-106044859D01*
X38200000Y-106044859D01*
X38200000Y-104705262D01*
X39404520Y-104705262D01*
X39404925Y-104710082D01*
X39415363Y-104834381D01*
X39421759Y-104910553D01*
X39423092Y-104915201D01*
X39423092Y-104915202D01*
X39472802Y-105088560D01*
X39478544Y-105108586D01*
X39572712Y-105291818D01*
X39700677Y-105453270D01*
X39704357Y-105456402D01*
X39704359Y-105456404D01*
X39797986Y-105536086D01*
X39857564Y-105586791D01*
X39861787Y-105589151D01*
X39861791Y-105589154D01*
X39901342Y-105611258D01*
X40037398Y-105687297D01*
X40041996Y-105688791D01*
X40228724Y-105749463D01*
X40228726Y-105749464D01*
X40233329Y-105750959D01*
X40437894Y-105775351D01*
X40442716Y-105774980D01*
X40442719Y-105774980D01*
X40510541Y-105769761D01*
X40643300Y-105759546D01*
X40841725Y-105704145D01*
X40846038Y-105701966D01*
X40846044Y-105701964D01*
X41021289Y-105613441D01*
X41021291Y-105613440D01*
X41025610Y-105611258D01*
X41061843Y-105582950D01*
X41184135Y-105487406D01*
X41184139Y-105487402D01*
X41187951Y-105484424D01*
X41200446Y-105469949D01*
X41247313Y-105415651D01*
X41322564Y-105328472D01*
X41326254Y-105321977D01*
X41421934Y-105153550D01*
X41421935Y-105153547D01*
X41424323Y-105149344D01*
X41437882Y-105108586D01*
X41487824Y-104958454D01*
X41487824Y-104958452D01*
X41489351Y-104953863D01*
X41496522Y-104897102D01*
X41514823Y-104752228D01*
X41515171Y-104749474D01*
X41515583Y-104720000D01*
X41514138Y-104705262D01*
X41944520Y-104705262D01*
X41944925Y-104710082D01*
X41955363Y-104834381D01*
X41961759Y-104910553D01*
X41963092Y-104915201D01*
X41963092Y-104915202D01*
X42012802Y-105088560D01*
X42018544Y-105108586D01*
X42112712Y-105291818D01*
X42240677Y-105453270D01*
X42244357Y-105456402D01*
X42244359Y-105456404D01*
X42337986Y-105536086D01*
X42397564Y-105586791D01*
X42401787Y-105589151D01*
X42401791Y-105589154D01*
X42441342Y-105611258D01*
X42577398Y-105687297D01*
X42581996Y-105688791D01*
X42768724Y-105749463D01*
X42768726Y-105749464D01*
X42773329Y-105750959D01*
X42977894Y-105775351D01*
X42982716Y-105774980D01*
X42982719Y-105774980D01*
X43050541Y-105769761D01*
X43183300Y-105759546D01*
X43381725Y-105704145D01*
X43386038Y-105701966D01*
X43386044Y-105701964D01*
X43561289Y-105613441D01*
X43561291Y-105613440D01*
X43565610Y-105611258D01*
X43601843Y-105582950D01*
X43674996Y-105525797D01*
X50783585Y-105525797D01*
X50784381Y-105530828D01*
X50938914Y-105685361D01*
X50950797Y-105691415D01*
X50955828Y-105690619D01*
X51110361Y-105536086D01*
X51115603Y-105525797D01*
X51833585Y-105525797D01*
X51834381Y-105530828D01*
X51988914Y-105685361D01*
X52000797Y-105691415D01*
X52005828Y-105690619D01*
X52160361Y-105536086D01*
X52165603Y-105525797D01*
X52883585Y-105525797D01*
X52884381Y-105530828D01*
X53038914Y-105685361D01*
X53050797Y-105691415D01*
X53055828Y-105690619D01*
X53210361Y-105536086D01*
X53216415Y-105524203D01*
X53215619Y-105519172D01*
X53061086Y-105364639D01*
X53049203Y-105358585D01*
X53044172Y-105359381D01*
X52889639Y-105513914D01*
X52883585Y-105525797D01*
X52165603Y-105525797D01*
X52166415Y-105524203D01*
X52165619Y-105519172D01*
X52011086Y-105364639D01*
X51999203Y-105358585D01*
X51994172Y-105359381D01*
X51839639Y-105513914D01*
X51833585Y-105525797D01*
X51115603Y-105525797D01*
X51116415Y-105524203D01*
X51115619Y-105519172D01*
X50961086Y-105364639D01*
X50949203Y-105358585D01*
X50944172Y-105359381D01*
X50789639Y-105513914D01*
X50783585Y-105525797D01*
X43674996Y-105525797D01*
X43724135Y-105487406D01*
X43724139Y-105487402D01*
X43727951Y-105484424D01*
X43740446Y-105469949D01*
X43787313Y-105415651D01*
X43862564Y-105328472D01*
X43866254Y-105321977D01*
X43961934Y-105153550D01*
X43961935Y-105153547D01*
X43964323Y-105149344D01*
X43977882Y-105108586D01*
X44015714Y-104994859D01*
X50187818Y-104994859D01*
X50203333Y-105153086D01*
X50205619Y-105163843D01*
X50255804Y-105314704D01*
X50258089Y-105319650D01*
X50266150Y-105326608D01*
X50274470Y-105321977D01*
X50585361Y-105011086D01*
X50590603Y-105000797D01*
X51308585Y-105000797D01*
X51309381Y-105005828D01*
X51463914Y-105160361D01*
X51475797Y-105166415D01*
X51480828Y-105165619D01*
X51635361Y-105011086D01*
X51640603Y-105000797D01*
X52358585Y-105000797D01*
X52359381Y-105005828D01*
X52513914Y-105160361D01*
X52525797Y-105166415D01*
X52530828Y-105165619D01*
X52685361Y-105011086D01*
X52690603Y-105000797D01*
X53408585Y-105000797D01*
X53409381Y-105005828D01*
X53723904Y-105320351D01*
X53734052Y-105325522D01*
X53739188Y-105320386D01*
X53786868Y-105194868D01*
X53789601Y-105184222D01*
X53812065Y-105024384D01*
X53812542Y-105018185D01*
X53812753Y-105003117D01*
X53812449Y-104996905D01*
X53794457Y-104836509D01*
X53792018Y-104825772D01*
X53740338Y-104677369D01*
X53734521Y-104672489D01*
X53726557Y-104676996D01*
X53414639Y-104988914D01*
X53408585Y-105000797D01*
X52690603Y-105000797D01*
X52691415Y-104999203D01*
X52690619Y-104994172D01*
X52536086Y-104839639D01*
X52524203Y-104833585D01*
X52519172Y-104834381D01*
X52364639Y-104988914D01*
X52358585Y-105000797D01*
X51640603Y-105000797D01*
X51641415Y-104999203D01*
X51640619Y-104994172D01*
X51486086Y-104839639D01*
X51474203Y-104833585D01*
X51469172Y-104834381D01*
X51314639Y-104988914D01*
X51308585Y-105000797D01*
X50590603Y-105000797D01*
X50591415Y-104999203D01*
X50590619Y-104994172D01*
X50275313Y-104678866D01*
X50265165Y-104673695D01*
X50260305Y-104678555D01*
X50210485Y-104815435D01*
X50207898Y-104826129D01*
X50187972Y-104983858D01*
X50187818Y-104994859D01*
X44015714Y-104994859D01*
X44027824Y-104958454D01*
X44027824Y-104958452D01*
X44029351Y-104953863D01*
X44036522Y-104897102D01*
X44054823Y-104752228D01*
X44055171Y-104749474D01*
X44055583Y-104720000D01*
X44051550Y-104678866D01*
X44035952Y-104519780D01*
X44035951Y-104519776D01*
X44035480Y-104514970D01*
X44026760Y-104486086D01*
X44023653Y-104475797D01*
X50783585Y-104475797D01*
X50784381Y-104480828D01*
X50938914Y-104635361D01*
X50950797Y-104641415D01*
X50955828Y-104640619D01*
X51110361Y-104486086D01*
X51115603Y-104475797D01*
X51833585Y-104475797D01*
X51834381Y-104480828D01*
X51988914Y-104635361D01*
X52000797Y-104641415D01*
X52005828Y-104640619D01*
X52160361Y-104486086D01*
X52165603Y-104475797D01*
X52883585Y-104475797D01*
X52884381Y-104480828D01*
X53038914Y-104635361D01*
X53050797Y-104641415D01*
X53055828Y-104640619D01*
X53078124Y-104618323D01*
X55284140Y-104618323D01*
X55285055Y-104625320D01*
X55285055Y-104625321D01*
X55299787Y-104737982D01*
X55302729Y-104760479D01*
X55305570Y-104766935D01*
X55305570Y-104766936D01*
X55335247Y-104834381D01*
X55360469Y-104891703D01*
X55406594Y-104946576D01*
X55448180Y-104996049D01*
X55448183Y-104996051D01*
X55452719Y-105001448D01*
X55458590Y-105005356D01*
X55458591Y-105005357D01*
X55467198Y-105011086D01*
X55572062Y-105080890D01*
X55645804Y-105103928D01*
X55702174Y-105121539D01*
X55702175Y-105121539D01*
X55708906Y-105123642D01*
X55780577Y-105124956D01*
X55845194Y-105126141D01*
X55845196Y-105126141D01*
X55852248Y-105126270D01*
X55859051Y-105124415D01*
X55859053Y-105124415D01*
X55934252Y-105103913D01*
X55990566Y-105088560D01*
X56112740Y-105013545D01*
X56120152Y-105005357D01*
X56204217Y-104912482D01*
X56208949Y-104907254D01*
X56219611Y-104885247D01*
X56241632Y-104839797D01*
X56284020Y-104795673D01*
X56344248Y-104784891D01*
X56399311Y-104811569D01*
X56406502Y-104819253D01*
X56412970Y-104826948D01*
X56418841Y-104830856D01*
X56418842Y-104830857D01*
X56436689Y-104842737D01*
X56532313Y-104906390D01*
X56632920Y-104937821D01*
X56662425Y-104947039D01*
X56662426Y-104947039D01*
X56669157Y-104949142D01*
X56740828Y-104950456D01*
X56805445Y-104951641D01*
X56805447Y-104951641D01*
X56812499Y-104951770D01*
X56819302Y-104949915D01*
X56819304Y-104949915D01*
X56894503Y-104929413D01*
X56950817Y-104914060D01*
X57072991Y-104839045D01*
X57080403Y-104830857D01*
X57164468Y-104737982D01*
X57169200Y-104732754D01*
X57231710Y-104603733D01*
X57245835Y-104519780D01*
X57254862Y-104466124D01*
X57254862Y-104466120D01*
X57255496Y-104462354D01*
X57255647Y-104450000D01*
X57235323Y-104308082D01*
X57175984Y-104177572D01*
X57082400Y-104068963D01*
X56962095Y-103990985D01*
X56824739Y-103949907D01*
X56741497Y-103949398D01*
X56688427Y-103949074D01*
X56688426Y-103949074D01*
X56681376Y-103949031D01*
X56674599Y-103950968D01*
X56674598Y-103950968D01*
X56550309Y-103986490D01*
X56550307Y-103986491D01*
X56543529Y-103988428D01*
X56422280Y-104064930D01*
X56417613Y-104070214D01*
X56417611Y-104070216D01*
X56332044Y-104167103D01*
X56332042Y-104167105D01*
X56327377Y-104172388D01*
X56298304Y-104234311D01*
X56256459Y-104278949D01*
X56196367Y-104290466D01*
X56140982Y-104264462D01*
X56133700Y-104256868D01*
X56122149Y-104243463D01*
X56001844Y-104165485D01*
X55864488Y-104124407D01*
X55781246Y-104123898D01*
X55728176Y-104123574D01*
X55728175Y-104123574D01*
X55721125Y-104123531D01*
X55714348Y-104125468D01*
X55714347Y-104125468D01*
X55590058Y-104160990D01*
X55590056Y-104160991D01*
X55583278Y-104162928D01*
X55462029Y-104239430D01*
X55457362Y-104244714D01*
X55457360Y-104244716D01*
X55371793Y-104341603D01*
X55371791Y-104341605D01*
X55367126Y-104346888D01*
X55306196Y-104476663D01*
X55305111Y-104483632D01*
X55305110Y-104483635D01*
X55299483Y-104519780D01*
X55284140Y-104618323D01*
X53078124Y-104618323D01*
X53210361Y-104486086D01*
X53216415Y-104474203D01*
X53215619Y-104469172D01*
X53061086Y-104314639D01*
X53049203Y-104308585D01*
X53044172Y-104309381D01*
X52889639Y-104463914D01*
X52883585Y-104475797D01*
X52165603Y-104475797D01*
X52166415Y-104474203D01*
X52165619Y-104469172D01*
X52011086Y-104314639D01*
X51999203Y-104308585D01*
X51994172Y-104309381D01*
X51839639Y-104463914D01*
X51833585Y-104475797D01*
X51115603Y-104475797D01*
X51116415Y-104474203D01*
X51115619Y-104469172D01*
X50961086Y-104314639D01*
X50949203Y-104308585D01*
X50944172Y-104309381D01*
X50789639Y-104463914D01*
X50783585Y-104475797D01*
X44023653Y-104475797D01*
X43977333Y-104322380D01*
X43975935Y-104317749D01*
X43879218Y-104135849D01*
X43749011Y-103976200D01*
X43724386Y-103955828D01*
X43711127Y-103944859D01*
X50187818Y-103944859D01*
X50203333Y-104103086D01*
X50205619Y-104113843D01*
X50255804Y-104264704D01*
X50258089Y-104269650D01*
X50266150Y-104276608D01*
X50274470Y-104271977D01*
X50585361Y-103961086D01*
X50590603Y-103950797D01*
X51308585Y-103950797D01*
X51309381Y-103955828D01*
X51463914Y-104110361D01*
X51475797Y-104116415D01*
X51480828Y-104115619D01*
X51635361Y-103961086D01*
X51640603Y-103950797D01*
X52358585Y-103950797D01*
X52359381Y-103955828D01*
X52513914Y-104110361D01*
X52525797Y-104116415D01*
X52530828Y-104115619D01*
X52685361Y-103961086D01*
X52690603Y-103950797D01*
X53408585Y-103950797D01*
X53409381Y-103955828D01*
X53723904Y-104270351D01*
X53734052Y-104275522D01*
X53739188Y-104270386D01*
X53786868Y-104144868D01*
X53789601Y-104134222D01*
X53812065Y-103974384D01*
X53812542Y-103968185D01*
X53812753Y-103953117D01*
X53812449Y-103946905D01*
X53794457Y-103786509D01*
X53792018Y-103775772D01*
X53740338Y-103627369D01*
X53734521Y-103622489D01*
X53726557Y-103626996D01*
X53414639Y-103938914D01*
X53408585Y-103950797D01*
X52690603Y-103950797D01*
X52691415Y-103949203D01*
X52690619Y-103944172D01*
X52536086Y-103789639D01*
X52524203Y-103783585D01*
X52519172Y-103784381D01*
X52364639Y-103938914D01*
X52358585Y-103950797D01*
X51640603Y-103950797D01*
X51641415Y-103949203D01*
X51640619Y-103944172D01*
X51486086Y-103789639D01*
X51474203Y-103783585D01*
X51469172Y-103784381D01*
X51314639Y-103938914D01*
X51308585Y-103950797D01*
X50590603Y-103950797D01*
X50591415Y-103949203D01*
X50590619Y-103944172D01*
X50275313Y-103628866D01*
X50265165Y-103623695D01*
X50260305Y-103628555D01*
X50210485Y-103765435D01*
X50207898Y-103776129D01*
X50187972Y-103933858D01*
X50187818Y-103944859D01*
X43711127Y-103944859D01*
X43594002Y-103847965D01*
X43594000Y-103847964D01*
X43590275Y-103844882D01*
X43462458Y-103775772D01*
X43413309Y-103749197D01*
X43413308Y-103749197D01*
X43409055Y-103746897D01*
X43345855Y-103727333D01*
X43216875Y-103687407D01*
X43216871Y-103687406D01*
X43212254Y-103685977D01*
X43207446Y-103685472D01*
X43207443Y-103685471D01*
X43012185Y-103664949D01*
X43012183Y-103664949D01*
X43007369Y-103664443D01*
X42947354Y-103669905D01*
X42807022Y-103682675D01*
X42807017Y-103682676D01*
X42802203Y-103683114D01*
X42604572Y-103741280D01*
X42600288Y-103743519D01*
X42600287Y-103743520D01*
X42532528Y-103778944D01*
X42422002Y-103836726D01*
X42418231Y-103839758D01*
X42265220Y-103962781D01*
X42265217Y-103962783D01*
X42261447Y-103965815D01*
X42258333Y-103969526D01*
X42258332Y-103969527D01*
X42146263Y-104103086D01*
X42129024Y-104123630D01*
X42126689Y-104127878D01*
X42126688Y-104127879D01*
X42119955Y-104140126D01*
X42029776Y-104304162D01*
X42028313Y-104308775D01*
X42028311Y-104308779D01*
X41992260Y-104422429D01*
X41967484Y-104500532D01*
X41966944Y-104505344D01*
X41966944Y-104505345D01*
X41947481Y-104678866D01*
X41944520Y-104705262D01*
X41514138Y-104705262D01*
X41511550Y-104678866D01*
X41495952Y-104519780D01*
X41495951Y-104519776D01*
X41495480Y-104514970D01*
X41486760Y-104486086D01*
X41437333Y-104322380D01*
X41435935Y-104317749D01*
X41339218Y-104135849D01*
X41209011Y-103976200D01*
X41184386Y-103955828D01*
X41054002Y-103847965D01*
X41054000Y-103847964D01*
X41050275Y-103844882D01*
X40922458Y-103775772D01*
X40873309Y-103749197D01*
X40873308Y-103749197D01*
X40869055Y-103746897D01*
X40805855Y-103727333D01*
X40676875Y-103687407D01*
X40676871Y-103687406D01*
X40672254Y-103685977D01*
X40667446Y-103685472D01*
X40667443Y-103685471D01*
X40472185Y-103664949D01*
X40472183Y-103664949D01*
X40467369Y-103664443D01*
X40407354Y-103669905D01*
X40267022Y-103682675D01*
X40267017Y-103682676D01*
X40262203Y-103683114D01*
X40064572Y-103741280D01*
X40060288Y-103743519D01*
X40060287Y-103743520D01*
X39992528Y-103778944D01*
X39882002Y-103836726D01*
X39878231Y-103839758D01*
X39725220Y-103962781D01*
X39725217Y-103962783D01*
X39721447Y-103965815D01*
X39718333Y-103969526D01*
X39718332Y-103969527D01*
X39606263Y-104103086D01*
X39589024Y-104123630D01*
X39586689Y-104127878D01*
X39586688Y-104127879D01*
X39579955Y-104140126D01*
X39489776Y-104304162D01*
X39488313Y-104308775D01*
X39488311Y-104308779D01*
X39452260Y-104422429D01*
X39427484Y-104500532D01*
X39426944Y-104505344D01*
X39426944Y-104505345D01*
X39407481Y-104678866D01*
X39404520Y-104705262D01*
X38200000Y-104705262D01*
X38200000Y-103265826D01*
X50622954Y-103265826D01*
X50627525Y-103273972D01*
X50938914Y-103585361D01*
X50950797Y-103591415D01*
X50955828Y-103590619D01*
X51271573Y-103274874D01*
X51276183Y-103265826D01*
X51672954Y-103265826D01*
X51677525Y-103273972D01*
X51988914Y-103585361D01*
X52000797Y-103591415D01*
X52005828Y-103590619D01*
X52321573Y-103274874D01*
X52326183Y-103265826D01*
X52722954Y-103265826D01*
X52727525Y-103273972D01*
X53038914Y-103585361D01*
X53050797Y-103591415D01*
X53055828Y-103590619D01*
X53371573Y-103274874D01*
X53376744Y-103264726D01*
X53372016Y-103259998D01*
X53229394Y-103209213D01*
X53218695Y-103206703D01*
X53060821Y-103187878D01*
X53049820Y-103187802D01*
X52891701Y-103204420D01*
X52880964Y-103206781D01*
X52730453Y-103258019D01*
X52729026Y-103258691D01*
X52722954Y-103265826D01*
X52326183Y-103265826D01*
X52326744Y-103264726D01*
X52322016Y-103259998D01*
X52179394Y-103209213D01*
X52168695Y-103206703D01*
X52010821Y-103187878D01*
X51999820Y-103187802D01*
X51841701Y-103204420D01*
X51830964Y-103206781D01*
X51680453Y-103258019D01*
X51679026Y-103258691D01*
X51672954Y-103265826D01*
X51276183Y-103265826D01*
X51276744Y-103264726D01*
X51272016Y-103259998D01*
X51129394Y-103209213D01*
X51118695Y-103206703D01*
X50960821Y-103187878D01*
X50949820Y-103187802D01*
X50791701Y-103204420D01*
X50780964Y-103206781D01*
X50630453Y-103258019D01*
X50629026Y-103258691D01*
X50622954Y-103265826D01*
X38200000Y-103265826D01*
X38200000Y-102165262D01*
X39404520Y-102165262D01*
X39409247Y-102221549D01*
X39420182Y-102351770D01*
X39421759Y-102370553D01*
X39478544Y-102568586D01*
X39572712Y-102751818D01*
X39700677Y-102913270D01*
X39704357Y-102916402D01*
X39704359Y-102916404D01*
X39817017Y-103012283D01*
X39857564Y-103046791D01*
X39861787Y-103049151D01*
X39861791Y-103049154D01*
X39901342Y-103071258D01*
X40037398Y-103147297D01*
X40041996Y-103148791D01*
X40228724Y-103209463D01*
X40228726Y-103209464D01*
X40233329Y-103210959D01*
X40437894Y-103235351D01*
X40442716Y-103234980D01*
X40442719Y-103234980D01*
X40510541Y-103229761D01*
X40643300Y-103219546D01*
X40841725Y-103164145D01*
X40846038Y-103161966D01*
X40846044Y-103161964D01*
X41021289Y-103073441D01*
X41021291Y-103073440D01*
X41025610Y-103071258D01*
X41060943Y-103043653D01*
X41184135Y-102947406D01*
X41184139Y-102947402D01*
X41187951Y-102944424D01*
X41322564Y-102788472D01*
X41341231Y-102755613D01*
X41421934Y-102613550D01*
X41421935Y-102613547D01*
X41424323Y-102609344D01*
X41437882Y-102568586D01*
X41487824Y-102418454D01*
X41487824Y-102418452D01*
X41489351Y-102413863D01*
X41497212Y-102351641D01*
X41512470Y-102230857D01*
X41515171Y-102209474D01*
X41515583Y-102180000D01*
X41514138Y-102165262D01*
X41944520Y-102165262D01*
X41949247Y-102221549D01*
X41960182Y-102351770D01*
X41961759Y-102370553D01*
X42018544Y-102568586D01*
X42112712Y-102751818D01*
X42240677Y-102913270D01*
X42244357Y-102916402D01*
X42244359Y-102916404D01*
X42357017Y-103012283D01*
X42397564Y-103046791D01*
X42401787Y-103049151D01*
X42401791Y-103049154D01*
X42441342Y-103071258D01*
X42577398Y-103147297D01*
X42581996Y-103148791D01*
X42768724Y-103209463D01*
X42768726Y-103209464D01*
X42773329Y-103210959D01*
X42977894Y-103235351D01*
X42982716Y-103234980D01*
X42982719Y-103234980D01*
X43050541Y-103229761D01*
X43183300Y-103219546D01*
X43381725Y-103164145D01*
X43386038Y-103161966D01*
X43386044Y-103161964D01*
X43561289Y-103073441D01*
X43561291Y-103073440D01*
X43565610Y-103071258D01*
X43600943Y-103043653D01*
X43724135Y-102947406D01*
X43724139Y-102947402D01*
X43727951Y-102944424D01*
X43862564Y-102788472D01*
X43881231Y-102755613D01*
X43961934Y-102613550D01*
X43961935Y-102613547D01*
X43964323Y-102609344D01*
X43977882Y-102568586D01*
X44027824Y-102418454D01*
X44027824Y-102418452D01*
X44029351Y-102413863D01*
X44037212Y-102351641D01*
X44052470Y-102230857D01*
X44055171Y-102209474D01*
X44055583Y-102180000D01*
X44053667Y-102160454D01*
X44035952Y-101979780D01*
X44035951Y-101979776D01*
X44035480Y-101974970D01*
X44013380Y-101901770D01*
X43977333Y-101782380D01*
X43975935Y-101777749D01*
X43879218Y-101595849D01*
X43749011Y-101436200D01*
X43720186Y-101412354D01*
X43697786Y-101393823D01*
X48694391Y-101393823D01*
X48695306Y-101400820D01*
X48695306Y-101400821D01*
X48704915Y-101474307D01*
X48712980Y-101535979D01*
X48715821Y-101542435D01*
X48715821Y-101542436D01*
X48742102Y-101602163D01*
X48770720Y-101667203D01*
X48810953Y-101715066D01*
X48858431Y-101771549D01*
X48858434Y-101771551D01*
X48862970Y-101776948D01*
X48868841Y-101780856D01*
X48868842Y-101780857D01*
X48881143Y-101789045D01*
X48982313Y-101856390D01*
X49077024Y-101885979D01*
X49112425Y-101897039D01*
X49112426Y-101897039D01*
X49119157Y-101899142D01*
X49190828Y-101900456D01*
X49255445Y-101901641D01*
X49255447Y-101901641D01*
X49262499Y-101901770D01*
X49269302Y-101899915D01*
X49269304Y-101899915D01*
X49393246Y-101866124D01*
X49400817Y-101864060D01*
X49522991Y-101789045D01*
X49530403Y-101780857D01*
X49563924Y-101743823D01*
X54094391Y-101743823D01*
X54095306Y-101750820D01*
X54095306Y-101750821D01*
X54109111Y-101856390D01*
X54112980Y-101885979D01*
X54115821Y-101892435D01*
X54115821Y-101892436D01*
X54167587Y-102010082D01*
X54170720Y-102017203D01*
X54183792Y-102032754D01*
X54258431Y-102121549D01*
X54258434Y-102121551D01*
X54262970Y-102126948D01*
X54268841Y-102130856D01*
X54268842Y-102130857D01*
X54279546Y-102137982D01*
X54382313Y-102206390D01*
X54448117Y-102226948D01*
X54512425Y-102247039D01*
X54512426Y-102247039D01*
X54519157Y-102249142D01*
X54590828Y-102250456D01*
X54655445Y-102251641D01*
X54655447Y-102251641D01*
X54662499Y-102251770D01*
X54669302Y-102249915D01*
X54669304Y-102249915D01*
X54744503Y-102229413D01*
X54800817Y-102214060D01*
X54922991Y-102139045D01*
X54930403Y-102130857D01*
X55014468Y-102037982D01*
X55019200Y-102032754D01*
X55081710Y-101903733D01*
X55083465Y-101893301D01*
X55084815Y-101890712D01*
X55085024Y-101890059D01*
X55085137Y-101890095D01*
X55111766Y-101839054D01*
X55166548Y-101811802D01*
X55210615Y-101815232D01*
X55312425Y-101847039D01*
X55312426Y-101847039D01*
X55319157Y-101849142D01*
X55390828Y-101850456D01*
X55455445Y-101851641D01*
X55455447Y-101851641D01*
X55462499Y-101851770D01*
X55469302Y-101849915D01*
X55469304Y-101849915D01*
X55491649Y-101843823D01*
X59044391Y-101843823D01*
X59045306Y-101850820D01*
X59045306Y-101850821D01*
X59051968Y-101901770D01*
X59062980Y-101985979D01*
X59065821Y-101992435D01*
X59065821Y-101992436D01*
X59083562Y-102032754D01*
X59120720Y-102117203D01*
X59157076Y-102160454D01*
X59208431Y-102221549D01*
X59208434Y-102221551D01*
X59212970Y-102226948D01*
X59218841Y-102230856D01*
X59218842Y-102230857D01*
X59231143Y-102239045D01*
X59332313Y-102306390D01*
X59432920Y-102337821D01*
X59462425Y-102347039D01*
X59462426Y-102347039D01*
X59469157Y-102349142D01*
X59540828Y-102350456D01*
X59605445Y-102351641D01*
X59605447Y-102351641D01*
X59612499Y-102351770D01*
X59619302Y-102349915D01*
X59619304Y-102349915D01*
X59694503Y-102329413D01*
X59750817Y-102314060D01*
X59872991Y-102239045D01*
X59880403Y-102230857D01*
X59964468Y-102137982D01*
X59969200Y-102132754D01*
X60015117Y-102037982D01*
X60028634Y-102010082D01*
X60031710Y-102003733D01*
X60035875Y-101978982D01*
X60054862Y-101866124D01*
X60054862Y-101866120D01*
X60055496Y-101862354D01*
X60055647Y-101850000D01*
X60035323Y-101708082D01*
X59975984Y-101577572D01*
X59912360Y-101503733D01*
X59887005Y-101474307D01*
X59887004Y-101474306D01*
X59882400Y-101468963D01*
X59762095Y-101390985D01*
X59624739Y-101349907D01*
X59541497Y-101349398D01*
X59488427Y-101349074D01*
X59488426Y-101349074D01*
X59481376Y-101349031D01*
X59474599Y-101350968D01*
X59474598Y-101350968D01*
X59350309Y-101386490D01*
X59350307Y-101386491D01*
X59343529Y-101388428D01*
X59222280Y-101464930D01*
X59217613Y-101470214D01*
X59217611Y-101470216D01*
X59132044Y-101567103D01*
X59132042Y-101567105D01*
X59127377Y-101572388D01*
X59066447Y-101702163D01*
X59065362Y-101709132D01*
X59065361Y-101709135D01*
X59053957Y-101782380D01*
X59044391Y-101843823D01*
X55491649Y-101843823D01*
X55544503Y-101829413D01*
X55600817Y-101814060D01*
X55722991Y-101739045D01*
X55819200Y-101632754D01*
X55881710Y-101503733D01*
X55888206Y-101465126D01*
X55904862Y-101366124D01*
X55904862Y-101366120D01*
X55905496Y-101362354D01*
X55905647Y-101350000D01*
X55885323Y-101208082D01*
X55847525Y-101124949D01*
X55828905Y-101083996D01*
X55828904Y-101083995D01*
X55825984Y-101077572D01*
X55732400Y-100968963D01*
X55612095Y-100890985D01*
X55474739Y-100849907D01*
X55391497Y-100849398D01*
X55338427Y-100849074D01*
X55338426Y-100849074D01*
X55331376Y-100849031D01*
X55324599Y-100850968D01*
X55324598Y-100850968D01*
X55200309Y-100886490D01*
X55200307Y-100886491D01*
X55193529Y-100888428D01*
X55072280Y-100964930D01*
X55067613Y-100970214D01*
X55067611Y-100970216D01*
X54982044Y-101067103D01*
X54982042Y-101067105D01*
X54977377Y-101072388D01*
X54916447Y-101202163D01*
X54915361Y-101209136D01*
X54913300Y-101215878D01*
X54910791Y-101215111D01*
X54888406Y-101259316D01*
X54833958Y-101287229D01*
X54789862Y-101284336D01*
X54682283Y-101252163D01*
X54674739Y-101249907D01*
X54591497Y-101249398D01*
X54538427Y-101249074D01*
X54538426Y-101249074D01*
X54531376Y-101249031D01*
X54524599Y-101250968D01*
X54524598Y-101250968D01*
X54400309Y-101286490D01*
X54400307Y-101286491D01*
X54393529Y-101288428D01*
X54272280Y-101364930D01*
X54267613Y-101370214D01*
X54267611Y-101370216D01*
X54182044Y-101467103D01*
X54182042Y-101467105D01*
X54177377Y-101472388D01*
X54116447Y-101602163D01*
X54115362Y-101609132D01*
X54115361Y-101609135D01*
X54106320Y-101667203D01*
X54094391Y-101743823D01*
X49563924Y-101743823D01*
X49614468Y-101687982D01*
X49619200Y-101682754D01*
X49681710Y-101553733D01*
X49685875Y-101528982D01*
X49704862Y-101416124D01*
X49704862Y-101416120D01*
X49705496Y-101412354D01*
X49705647Y-101400000D01*
X49685323Y-101258082D01*
X49656994Y-101195776D01*
X49628905Y-101133996D01*
X49628904Y-101133995D01*
X49625984Y-101127572D01*
X49532400Y-101018963D01*
X49412095Y-100940985D01*
X49274739Y-100899907D01*
X49191497Y-100899398D01*
X49138427Y-100899074D01*
X49138426Y-100899074D01*
X49131376Y-100899031D01*
X49124599Y-100900968D01*
X49124598Y-100900968D01*
X49000309Y-100936490D01*
X49000307Y-100936491D01*
X48993529Y-100938428D01*
X48872280Y-101014930D01*
X48867613Y-101020214D01*
X48867611Y-101020216D01*
X48782044Y-101117103D01*
X48782042Y-101117105D01*
X48777377Y-101122388D01*
X48716447Y-101252163D01*
X48715362Y-101259132D01*
X48715361Y-101259135D01*
X48708597Y-101302581D01*
X48694391Y-101393823D01*
X43697786Y-101393823D01*
X43594002Y-101307965D01*
X43594000Y-101307964D01*
X43590275Y-101304882D01*
X43409055Y-101206897D01*
X43345855Y-101187333D01*
X43216875Y-101147407D01*
X43216871Y-101147406D01*
X43212254Y-101145977D01*
X43207446Y-101145472D01*
X43207443Y-101145471D01*
X43012185Y-101124949D01*
X43012183Y-101124949D01*
X43007369Y-101124443D01*
X42959811Y-101128771D01*
X42807022Y-101142675D01*
X42807017Y-101142676D01*
X42802203Y-101143114D01*
X42604572Y-101201280D01*
X42600288Y-101203519D01*
X42600287Y-101203520D01*
X42591561Y-101208082D01*
X42422002Y-101296726D01*
X42418231Y-101299758D01*
X42265220Y-101422781D01*
X42265217Y-101422783D01*
X42261447Y-101425815D01*
X42258333Y-101429526D01*
X42258332Y-101429527D01*
X42154111Y-101553733D01*
X42129024Y-101583630D01*
X42126689Y-101587878D01*
X42126688Y-101587879D01*
X42105506Y-101626409D01*
X42029776Y-101764162D01*
X42028313Y-101768775D01*
X42028311Y-101768779D01*
X41989839Y-101890059D01*
X41967484Y-101960532D01*
X41966944Y-101965344D01*
X41966944Y-101965345D01*
X41947047Y-102142737D01*
X41944520Y-102165262D01*
X41514138Y-102165262D01*
X41513667Y-102160454D01*
X41495952Y-101979780D01*
X41495951Y-101979776D01*
X41495480Y-101974970D01*
X41473380Y-101901770D01*
X41437333Y-101782380D01*
X41435935Y-101777749D01*
X41339218Y-101595849D01*
X41209011Y-101436200D01*
X41180186Y-101412354D01*
X41054002Y-101307965D01*
X41054000Y-101307964D01*
X41050275Y-101304882D01*
X40869055Y-101206897D01*
X40805855Y-101187333D01*
X40676875Y-101147407D01*
X40676871Y-101147406D01*
X40672254Y-101145977D01*
X40667446Y-101145472D01*
X40667443Y-101145471D01*
X40472185Y-101124949D01*
X40472183Y-101124949D01*
X40467369Y-101124443D01*
X40419811Y-101128771D01*
X40267022Y-101142675D01*
X40267017Y-101142676D01*
X40262203Y-101143114D01*
X40064572Y-101201280D01*
X40060288Y-101203519D01*
X40060287Y-101203520D01*
X40051561Y-101208082D01*
X39882002Y-101296726D01*
X39878231Y-101299758D01*
X39725220Y-101422781D01*
X39725217Y-101422783D01*
X39721447Y-101425815D01*
X39718333Y-101429526D01*
X39718332Y-101429527D01*
X39614111Y-101553733D01*
X39589024Y-101583630D01*
X39586689Y-101587878D01*
X39586688Y-101587879D01*
X39565506Y-101626409D01*
X39489776Y-101764162D01*
X39488313Y-101768775D01*
X39488311Y-101768779D01*
X39449839Y-101890059D01*
X39427484Y-101960532D01*
X39426944Y-101965344D01*
X39426944Y-101965345D01*
X39407047Y-102142737D01*
X39404520Y-102165262D01*
X38200000Y-102165262D01*
X38200000Y-97367014D01*
X39128043Y-97367014D01*
X39158807Y-97503524D01*
X39161231Y-97511258D01*
X39242183Y-97710620D01*
X39245840Y-97717860D01*
X39358266Y-97901322D01*
X39363056Y-97907867D01*
X39503935Y-98070502D01*
X39509729Y-98076176D01*
X39675292Y-98213629D01*
X39681921Y-98218270D01*
X39867713Y-98326838D01*
X39875008Y-98330334D01*
X40076038Y-98407099D01*
X40083808Y-98409357D01*
X40187991Y-98430553D01*
X40241244Y-98460682D01*
X40266618Y-98516359D01*
X40254419Y-98576316D01*
X40209309Y-98617652D01*
X40196206Y-98622538D01*
X40064572Y-98661280D01*
X40060288Y-98663519D01*
X40060287Y-98663520D01*
X40049428Y-98669197D01*
X39882002Y-98756726D01*
X39878231Y-98759758D01*
X39725220Y-98882781D01*
X39725217Y-98882783D01*
X39721447Y-98885815D01*
X39718333Y-98889526D01*
X39718332Y-98889527D01*
X39626246Y-98999271D01*
X39589024Y-99043630D01*
X39586689Y-99047878D01*
X39586688Y-99047879D01*
X39579955Y-99060126D01*
X39489776Y-99224162D01*
X39427484Y-99420532D01*
X39426944Y-99425344D01*
X39426944Y-99425345D01*
X39425865Y-99434970D01*
X39404520Y-99625262D01*
X39421759Y-99830553D01*
X39478544Y-100028586D01*
X39572712Y-100211818D01*
X39700677Y-100373270D01*
X39704357Y-100376402D01*
X39704359Y-100376404D01*
X39817017Y-100472283D01*
X39857564Y-100506791D01*
X39861787Y-100509151D01*
X39861791Y-100509154D01*
X39901342Y-100531258D01*
X40037398Y-100607297D01*
X40041996Y-100608791D01*
X40228724Y-100669463D01*
X40228726Y-100669464D01*
X40233329Y-100670959D01*
X40437894Y-100695351D01*
X40442716Y-100694980D01*
X40442719Y-100694980D01*
X40510541Y-100689761D01*
X40643300Y-100679546D01*
X40841725Y-100624145D01*
X40846038Y-100621966D01*
X40846044Y-100621964D01*
X41021289Y-100533441D01*
X41021291Y-100533440D01*
X41025610Y-100531258D01*
X41060943Y-100503653D01*
X41184135Y-100407406D01*
X41184139Y-100407402D01*
X41187951Y-100404424D01*
X41322564Y-100248472D01*
X41341231Y-100215613D01*
X41421934Y-100073550D01*
X41421935Y-100073547D01*
X41424323Y-100069344D01*
X41437882Y-100028586D01*
X41487824Y-99878454D01*
X41487824Y-99878452D01*
X41489351Y-99873863D01*
X41515171Y-99669474D01*
X41515583Y-99640000D01*
X41495480Y-99434970D01*
X41435935Y-99237749D01*
X41339218Y-99055849D01*
X41209011Y-98896200D01*
X41190465Y-98880857D01*
X41054002Y-98767965D01*
X41054000Y-98767964D01*
X41050275Y-98764882D01*
X40869055Y-98666897D01*
X40790034Y-98642436D01*
X40732061Y-98624490D01*
X40682063Y-98589220D01*
X40662346Y-98531299D01*
X40680439Y-98472850D01*
X40729432Y-98436199D01*
X40740752Y-98433081D01*
X40747202Y-98431710D01*
X40953304Y-98369876D01*
X40960852Y-98366918D01*
X41154087Y-98272253D01*
X41161046Y-98268104D01*
X41336231Y-98143148D01*
X41342412Y-98137924D01*
X41494831Y-97986035D01*
X41500088Y-97979858D01*
X41625651Y-97805119D01*
X41629823Y-97798176D01*
X41641990Y-97773557D01*
X41684723Y-97729767D01*
X41745033Y-97719458D01*
X41799885Y-97746568D01*
X41815153Y-97765694D01*
X41898266Y-97901322D01*
X41903056Y-97907867D01*
X42043935Y-98070502D01*
X42049729Y-98076176D01*
X42215292Y-98213629D01*
X42221921Y-98218270D01*
X42407713Y-98326838D01*
X42415008Y-98330334D01*
X42616038Y-98407099D01*
X42623808Y-98409357D01*
X42727991Y-98430553D01*
X42781244Y-98460682D01*
X42806618Y-98516359D01*
X42794419Y-98576316D01*
X42749309Y-98617652D01*
X42736206Y-98622538D01*
X42604572Y-98661280D01*
X42600288Y-98663519D01*
X42600287Y-98663520D01*
X42589428Y-98669197D01*
X42422002Y-98756726D01*
X42418231Y-98759758D01*
X42265220Y-98882781D01*
X42265217Y-98882783D01*
X42261447Y-98885815D01*
X42258333Y-98889526D01*
X42258332Y-98889527D01*
X42166246Y-98999271D01*
X42129024Y-99043630D01*
X42126689Y-99047878D01*
X42126688Y-99047879D01*
X42119955Y-99060126D01*
X42029776Y-99224162D01*
X41967484Y-99420532D01*
X41966944Y-99425344D01*
X41966944Y-99425345D01*
X41965865Y-99434970D01*
X41944520Y-99625262D01*
X41961759Y-99830553D01*
X42018544Y-100028586D01*
X42112712Y-100211818D01*
X42240677Y-100373270D01*
X42244357Y-100376402D01*
X42244359Y-100376404D01*
X42357017Y-100472283D01*
X42397564Y-100506791D01*
X42401787Y-100509151D01*
X42401791Y-100509154D01*
X42441342Y-100531258D01*
X42577398Y-100607297D01*
X42581996Y-100608791D01*
X42768724Y-100669463D01*
X42768726Y-100669464D01*
X42773329Y-100670959D01*
X42977894Y-100695351D01*
X42982716Y-100694980D01*
X42982719Y-100694980D01*
X43050541Y-100689761D01*
X43183300Y-100679546D01*
X43381725Y-100624145D01*
X43386038Y-100621966D01*
X43386044Y-100621964D01*
X43561289Y-100533441D01*
X43561291Y-100533440D01*
X43565610Y-100531258D01*
X43600943Y-100503653D01*
X43724135Y-100407406D01*
X43724139Y-100407402D01*
X43727951Y-100404424D01*
X43862564Y-100248472D01*
X43881231Y-100215613D01*
X43961934Y-100073550D01*
X43961935Y-100073547D01*
X43964323Y-100069344D01*
X43977882Y-100028586D01*
X44027824Y-99878454D01*
X44027824Y-99878452D01*
X44029351Y-99873863D01*
X44055171Y-99669474D01*
X44055583Y-99640000D01*
X44035480Y-99434970D01*
X43975935Y-99237749D01*
X43879218Y-99055849D01*
X43749011Y-98896200D01*
X43730465Y-98880857D01*
X43594002Y-98767965D01*
X43594000Y-98767964D01*
X43590275Y-98764882D01*
X43409055Y-98666897D01*
X43330034Y-98642436D01*
X43272061Y-98624490D01*
X43222063Y-98589220D01*
X43202346Y-98531299D01*
X43213947Y-98493823D01*
X44144391Y-98493823D01*
X44145306Y-98500820D01*
X44145306Y-98500821D01*
X44155178Y-98576316D01*
X44162980Y-98635979D01*
X44165821Y-98642435D01*
X44165821Y-98642436D01*
X44215124Y-98754484D01*
X44220720Y-98767203D01*
X44233792Y-98782754D01*
X44308431Y-98871549D01*
X44308434Y-98871551D01*
X44312970Y-98876948D01*
X44318841Y-98880856D01*
X44318842Y-98880857D01*
X44331143Y-98889045D01*
X44432313Y-98956390D01*
X44532920Y-98987821D01*
X44562425Y-98997039D01*
X44562426Y-98997039D01*
X44569157Y-98999142D01*
X44640828Y-99000456D01*
X44705445Y-99001641D01*
X44705447Y-99001641D01*
X44712499Y-99001770D01*
X44719302Y-98999915D01*
X44719304Y-98999915D01*
X44794503Y-98979413D01*
X44850817Y-98964060D01*
X44972991Y-98889045D01*
X44980403Y-98880857D01*
X45064468Y-98787982D01*
X45069200Y-98782754D01*
X45125332Y-98666897D01*
X45128634Y-98660082D01*
X45131710Y-98653733D01*
X45135875Y-98628982D01*
X45154862Y-98516124D01*
X45154862Y-98516120D01*
X45155496Y-98512354D01*
X45155647Y-98500000D01*
X45135323Y-98358082D01*
X45075984Y-98227572D01*
X44982400Y-98118963D01*
X44862095Y-98040985D01*
X44724739Y-97999907D01*
X44641497Y-97999398D01*
X44588427Y-97999074D01*
X44588426Y-97999074D01*
X44581376Y-97999031D01*
X44574599Y-98000968D01*
X44574598Y-98000968D01*
X44450309Y-98036490D01*
X44450307Y-98036491D01*
X44443529Y-98038428D01*
X44322280Y-98114930D01*
X44317613Y-98120214D01*
X44317611Y-98120216D01*
X44232044Y-98217103D01*
X44232042Y-98217105D01*
X44227377Y-98222388D01*
X44166447Y-98352163D01*
X44165362Y-98359132D01*
X44165361Y-98359135D01*
X44157542Y-98409357D01*
X44144391Y-98493823D01*
X43213947Y-98493823D01*
X43220439Y-98472850D01*
X43269432Y-98436199D01*
X43280752Y-98433081D01*
X43287202Y-98431710D01*
X43493304Y-98369876D01*
X43500852Y-98366918D01*
X43694087Y-98272253D01*
X43701046Y-98268104D01*
X43876231Y-98143148D01*
X43882412Y-98137924D01*
X44034831Y-97986035D01*
X44040088Y-97979858D01*
X44165651Y-97805119D01*
X44169823Y-97798176D01*
X44265164Y-97605268D01*
X44268144Y-97597744D01*
X44330701Y-97391843D01*
X44332410Y-97383938D01*
X44334304Y-97369547D01*
X44331873Y-97356431D01*
X44330571Y-97355195D01*
X44325290Y-97354000D01*
X39140790Y-97354000D01*
X39128460Y-97358006D01*
X39128043Y-97367014D01*
X38200000Y-97367014D01*
X38200000Y-96835384D01*
X39124056Y-96835384D01*
X39125756Y-96843462D01*
X39127566Y-96845098D01*
X39131792Y-96846000D01*
X44320779Y-96846000D01*
X44332730Y-96842117D01*
X44333058Y-96832462D01*
X44296862Y-96688362D01*
X53048188Y-96688362D01*
X53079509Y-96794783D01*
X53083122Y-96803724D01*
X53170218Y-96970323D01*
X53175492Y-96978384D01*
X53293299Y-97124906D01*
X53300030Y-97131780D01*
X53444052Y-97252629D01*
X53452000Y-97258070D01*
X53616739Y-97348637D01*
X53625602Y-97352436D01*
X53804796Y-97409279D01*
X53814224Y-97411283D01*
X53960505Y-97427691D01*
X53966034Y-97428000D01*
X54300320Y-97428000D01*
X54313005Y-97423878D01*
X54316000Y-97419757D01*
X54316000Y-97412320D01*
X54824000Y-97412320D01*
X54828122Y-97425005D01*
X54832243Y-97428000D01*
X55167324Y-97428000D01*
X55172139Y-97427765D01*
X55311919Y-97414059D01*
X55321370Y-97412188D01*
X55501341Y-97357851D01*
X55510257Y-97354176D01*
X55676241Y-97265921D01*
X55684272Y-97260585D01*
X55829956Y-97141768D01*
X55836793Y-97134979D01*
X55956630Y-96990121D01*
X55962014Y-96982138D01*
X56051434Y-96816760D01*
X56055163Y-96807889D01*
X56091972Y-96688977D01*
X56091963Y-96688362D01*
X57478188Y-96688362D01*
X57509509Y-96794783D01*
X57513122Y-96803724D01*
X57600218Y-96970323D01*
X57605492Y-96978384D01*
X57723299Y-97124906D01*
X57730030Y-97131780D01*
X57874052Y-97252629D01*
X57882000Y-97258070D01*
X58046739Y-97348637D01*
X58055602Y-97352436D01*
X58234796Y-97409279D01*
X58244224Y-97411283D01*
X58390505Y-97427691D01*
X58396034Y-97428000D01*
X58480320Y-97428000D01*
X58493005Y-97423878D01*
X58496000Y-97419757D01*
X58496000Y-97412320D01*
X59004000Y-97412320D01*
X59008122Y-97425005D01*
X59012243Y-97428000D01*
X59097324Y-97428000D01*
X59102139Y-97427765D01*
X59241919Y-97414059D01*
X59251370Y-97412188D01*
X59431341Y-97357851D01*
X59440257Y-97354176D01*
X59606241Y-97265921D01*
X59614272Y-97260585D01*
X59759956Y-97141768D01*
X59766793Y-97134979D01*
X59886630Y-96990121D01*
X59892014Y-96982138D01*
X59981434Y-96816760D01*
X59985163Y-96807889D01*
X60021972Y-96688977D01*
X60021809Y-96677339D01*
X60011283Y-96674000D01*
X59019680Y-96674000D01*
X59006995Y-96678122D01*
X59004000Y-96682243D01*
X59004000Y-97412320D01*
X58496000Y-97412320D01*
X58496000Y-96689680D01*
X58491878Y-96676995D01*
X58487757Y-96674000D01*
X57489641Y-96674000D01*
X57478337Y-96677673D01*
X57478188Y-96688362D01*
X56091963Y-96688362D01*
X56091809Y-96677339D01*
X56081283Y-96674000D01*
X54839680Y-96674000D01*
X54826995Y-96678122D01*
X54824000Y-96682243D01*
X54824000Y-97412320D01*
X54316000Y-97412320D01*
X54316000Y-96689680D01*
X54311878Y-96676995D01*
X54307757Y-96674000D01*
X53059641Y-96674000D01*
X53048337Y-96677673D01*
X53048188Y-96688362D01*
X44296862Y-96688362D01*
X44290946Y-96664809D01*
X44288333Y-96657133D01*
X44202534Y-96459807D01*
X44198701Y-96452660D01*
X44081826Y-96271997D01*
X44076880Y-96265575D01*
X43972645Y-96151023D01*
X53048028Y-96151023D01*
X53048191Y-96162661D01*
X53058717Y-96166000D01*
X54300320Y-96166000D01*
X54313005Y-96161878D01*
X54316000Y-96157757D01*
X54316000Y-95427680D01*
X54311878Y-95414995D01*
X54307757Y-95412000D01*
X53972676Y-95412000D01*
X53967861Y-95412235D01*
X53828081Y-95425941D01*
X53818630Y-95427812D01*
X53638659Y-95482149D01*
X53629743Y-95485824D01*
X53463759Y-95574079D01*
X53455728Y-95579415D01*
X53310044Y-95698232D01*
X53303207Y-95705021D01*
X53183370Y-95849879D01*
X53177986Y-95857862D01*
X53088566Y-96023240D01*
X53084837Y-96032111D01*
X53048028Y-96151023D01*
X43972645Y-96151023D01*
X43932065Y-96106426D01*
X43926139Y-96100899D01*
X43757269Y-95967534D01*
X43750525Y-95963054D01*
X43562141Y-95859060D01*
X43554749Y-95855738D01*
X43351920Y-95783912D01*
X43344081Y-95781841D01*
X43274589Y-95769463D01*
X43220616Y-95740644D01*
X43193890Y-95685605D01*
X43204619Y-95625367D01*
X43248706Y-95582941D01*
X43265327Y-95576644D01*
X43309867Y-95564208D01*
X43381725Y-95544145D01*
X43386038Y-95541966D01*
X43386044Y-95541964D01*
X43561289Y-95453441D01*
X43561291Y-95453440D01*
X43565610Y-95451258D01*
X43569427Y-95448276D01*
X43724135Y-95327406D01*
X43724139Y-95327402D01*
X43727951Y-95324424D01*
X43761654Y-95285379D01*
X43787313Y-95255651D01*
X43862564Y-95168472D01*
X43875198Y-95146233D01*
X43961934Y-94993550D01*
X43961935Y-94993547D01*
X43963950Y-94990000D01*
X54519534Y-94990000D01*
X54539313Y-95140236D01*
X54541797Y-95146233D01*
X54594819Y-95274240D01*
X54594821Y-95274244D01*
X54597302Y-95280233D01*
X54601248Y-95285375D01*
X54601250Y-95285379D01*
X54631211Y-95324424D01*
X54689549Y-95400451D01*
X54694698Y-95404402D01*
X54694701Y-95404405D01*
X54785267Y-95473899D01*
X54819923Y-95524324D01*
X54824000Y-95552441D01*
X54824000Y-96150320D01*
X54828122Y-96163005D01*
X54832243Y-96166000D01*
X56080359Y-96166000D01*
X56091663Y-96162327D01*
X56091812Y-96151638D01*
X56091631Y-96151023D01*
X57478028Y-96151023D01*
X57478191Y-96162661D01*
X57488717Y-96166000D01*
X58480320Y-96166000D01*
X58493005Y-96161878D01*
X58496000Y-96157757D01*
X58496000Y-96150320D01*
X59004000Y-96150320D01*
X59008122Y-96163005D01*
X59012243Y-96166000D01*
X60010359Y-96166000D01*
X60021663Y-96162327D01*
X60021812Y-96151638D01*
X59990491Y-96045217D01*
X59986878Y-96036276D01*
X59899782Y-95869677D01*
X59894508Y-95861616D01*
X59776701Y-95715094D01*
X59769970Y-95708220D01*
X59625948Y-95587371D01*
X59618000Y-95581930D01*
X59453261Y-95491363D01*
X59444398Y-95487564D01*
X59265204Y-95430721D01*
X59255776Y-95428717D01*
X59109495Y-95412309D01*
X59103966Y-95412000D01*
X59019680Y-95412000D01*
X59006995Y-95416122D01*
X59004000Y-95420243D01*
X59004000Y-96150320D01*
X58496000Y-96150320D01*
X58496000Y-95427680D01*
X58491878Y-95414995D01*
X58487757Y-95412000D01*
X58402676Y-95412000D01*
X58397861Y-95412235D01*
X58258081Y-95425941D01*
X58248630Y-95427812D01*
X58068659Y-95482149D01*
X58059743Y-95485824D01*
X57893759Y-95574079D01*
X57885728Y-95579415D01*
X57740044Y-95698232D01*
X57733207Y-95705021D01*
X57613370Y-95849879D01*
X57607986Y-95857862D01*
X57518566Y-96023240D01*
X57514837Y-96032111D01*
X57478028Y-96151023D01*
X56091631Y-96151023D01*
X56060491Y-96045217D01*
X56056878Y-96036276D01*
X55969782Y-95869677D01*
X55964508Y-95861616D01*
X55846701Y-95715094D01*
X55839970Y-95708220D01*
X55695948Y-95587371D01*
X55688000Y-95581930D01*
X55566228Y-95514985D01*
X55524344Y-95470383D01*
X55516676Y-95409680D01*
X55535380Y-95367963D01*
X55598750Y-95285379D01*
X55598752Y-95285375D01*
X55602698Y-95280233D01*
X55605179Y-95274244D01*
X55605181Y-95274240D01*
X55658203Y-95146233D01*
X55660687Y-95140236D01*
X55680466Y-94990000D01*
X55660687Y-94839764D01*
X55625660Y-94755202D01*
X55605181Y-94705760D01*
X55605179Y-94705756D01*
X55602698Y-94699767D01*
X55598752Y-94694625D01*
X55598750Y-94694621D01*
X55514402Y-94584698D01*
X55510451Y-94579549D01*
X55488592Y-94562776D01*
X55395379Y-94491250D01*
X55395375Y-94491248D01*
X55390233Y-94487302D01*
X55384244Y-94484821D01*
X55384240Y-94484819D01*
X55256233Y-94431797D01*
X55250236Y-94429313D01*
X55137720Y-94414500D01*
X55062280Y-94414500D01*
X54949764Y-94429313D01*
X54943767Y-94431797D01*
X54815760Y-94484819D01*
X54815756Y-94484821D01*
X54809767Y-94487302D01*
X54804625Y-94491248D01*
X54804621Y-94491250D01*
X54711408Y-94562776D01*
X54689549Y-94579549D01*
X54685598Y-94584698D01*
X54601250Y-94694621D01*
X54601248Y-94694625D01*
X54597302Y-94699767D01*
X54594821Y-94705756D01*
X54594819Y-94705760D01*
X54574340Y-94755202D01*
X54539313Y-94839764D01*
X54519534Y-94990000D01*
X43963950Y-94990000D01*
X43964323Y-94989344D01*
X43966246Y-94983566D01*
X44027824Y-94798454D01*
X44027824Y-94798452D01*
X44029351Y-94793863D01*
X44055171Y-94589474D01*
X44055583Y-94560000D01*
X44043013Y-94431797D01*
X44035952Y-94359780D01*
X44035951Y-94359776D01*
X44035480Y-94354970D01*
X43975935Y-94157749D01*
X43879218Y-93975849D01*
X43749011Y-93816200D01*
X43590275Y-93684882D01*
X43409055Y-93586897D01*
X43345855Y-93567333D01*
X43216875Y-93527407D01*
X43216871Y-93527406D01*
X43212254Y-93525977D01*
X43207446Y-93525472D01*
X43207443Y-93525471D01*
X43012185Y-93504949D01*
X43012183Y-93504949D01*
X43007369Y-93504443D01*
X42947354Y-93509905D01*
X42807022Y-93522675D01*
X42807017Y-93522676D01*
X42802203Y-93523114D01*
X42604572Y-93581280D01*
X42600288Y-93583519D01*
X42600287Y-93583520D01*
X42589428Y-93589197D01*
X42422002Y-93676726D01*
X42418231Y-93679758D01*
X42265220Y-93802781D01*
X42265217Y-93802783D01*
X42261447Y-93805815D01*
X42258333Y-93809526D01*
X42258332Y-93809527D01*
X42249585Y-93819952D01*
X42129024Y-93963630D01*
X42126689Y-93967878D01*
X42126688Y-93967879D01*
X42119955Y-93980126D01*
X42029776Y-94144162D01*
X41967484Y-94340532D01*
X41966944Y-94345344D01*
X41966944Y-94345345D01*
X41951300Y-94484819D01*
X41944520Y-94545262D01*
X41947399Y-94579549D01*
X41957998Y-94705760D01*
X41961759Y-94750553D01*
X42018544Y-94948586D01*
X42112712Y-95131818D01*
X42240677Y-95293270D01*
X42244357Y-95296402D01*
X42244359Y-95296404D01*
X42328441Y-95367963D01*
X42397564Y-95426791D01*
X42401787Y-95429151D01*
X42401791Y-95429154D01*
X42496615Y-95482149D01*
X42577398Y-95527297D01*
X42731944Y-95577512D01*
X42781444Y-95613476D01*
X42800351Y-95671667D01*
X42781444Y-95729858D01*
X42731944Y-95765822D01*
X42716327Y-95769528D01*
X42688226Y-95773828D01*
X42680341Y-95775707D01*
X42475807Y-95842558D01*
X42468350Y-95845693D01*
X42277479Y-95945054D01*
X42270627Y-95949369D01*
X42098544Y-96078573D01*
X42092491Y-96083947D01*
X41943830Y-96239513D01*
X41938727Y-96245814D01*
X41817466Y-96423575D01*
X41815023Y-96427876D01*
X41769841Y-96469134D01*
X41709037Y-96475954D01*
X41655836Y-96445732D01*
X41645821Y-96432750D01*
X41541826Y-96271997D01*
X41536880Y-96265575D01*
X41392065Y-96106426D01*
X41386139Y-96100899D01*
X41217269Y-95967534D01*
X41210525Y-95963054D01*
X41022141Y-95859060D01*
X41014749Y-95855738D01*
X40811920Y-95783912D01*
X40804081Y-95781841D01*
X40734589Y-95769463D01*
X40680616Y-95740644D01*
X40653890Y-95685605D01*
X40664619Y-95625367D01*
X40708706Y-95582941D01*
X40725327Y-95576644D01*
X40769867Y-95564208D01*
X40841725Y-95544145D01*
X40846038Y-95541966D01*
X40846044Y-95541964D01*
X41021289Y-95453441D01*
X41021291Y-95453440D01*
X41025610Y-95451258D01*
X41029427Y-95448276D01*
X41184135Y-95327406D01*
X41184139Y-95327402D01*
X41187951Y-95324424D01*
X41221654Y-95285379D01*
X41247313Y-95255651D01*
X41322564Y-95168472D01*
X41335198Y-95146233D01*
X41421934Y-94993550D01*
X41421935Y-94993547D01*
X41424323Y-94989344D01*
X41426246Y-94983566D01*
X41487824Y-94798454D01*
X41487824Y-94798452D01*
X41489351Y-94793863D01*
X41515171Y-94589474D01*
X41515583Y-94560000D01*
X41503013Y-94431797D01*
X41495952Y-94359780D01*
X41495951Y-94359776D01*
X41495480Y-94354970D01*
X41435935Y-94157749D01*
X41339218Y-93975849D01*
X41209011Y-93816200D01*
X41050275Y-93684882D01*
X40869055Y-93586897D01*
X40805855Y-93567333D01*
X40676875Y-93527407D01*
X40676871Y-93527406D01*
X40672254Y-93525977D01*
X40667446Y-93525472D01*
X40667443Y-93525471D01*
X40472185Y-93504949D01*
X40472183Y-93504949D01*
X40467369Y-93504443D01*
X40407354Y-93509905D01*
X40267022Y-93522675D01*
X40267017Y-93522676D01*
X40262203Y-93523114D01*
X40064572Y-93581280D01*
X40060288Y-93583519D01*
X40060287Y-93583520D01*
X40049428Y-93589197D01*
X39882002Y-93676726D01*
X39878231Y-93679758D01*
X39725220Y-93802781D01*
X39725217Y-93802783D01*
X39721447Y-93805815D01*
X39718333Y-93809526D01*
X39718332Y-93809527D01*
X39709585Y-93819952D01*
X39589024Y-93963630D01*
X39586689Y-93967878D01*
X39586688Y-93967879D01*
X39579955Y-93980126D01*
X39489776Y-94144162D01*
X39427484Y-94340532D01*
X39426944Y-94345344D01*
X39426944Y-94345345D01*
X39411300Y-94484819D01*
X39404520Y-94545262D01*
X39407399Y-94579549D01*
X39417998Y-94705760D01*
X39421759Y-94750553D01*
X39478544Y-94948586D01*
X39572712Y-95131818D01*
X39700677Y-95293270D01*
X39704357Y-95296402D01*
X39704359Y-95296404D01*
X39788441Y-95367963D01*
X39857564Y-95426791D01*
X39861787Y-95429151D01*
X39861791Y-95429154D01*
X39956615Y-95482149D01*
X40037398Y-95527297D01*
X40191944Y-95577512D01*
X40241444Y-95613476D01*
X40260351Y-95671667D01*
X40241444Y-95729858D01*
X40191944Y-95765822D01*
X40176327Y-95769528D01*
X40148226Y-95773828D01*
X40140341Y-95775707D01*
X39935807Y-95842558D01*
X39928350Y-95845693D01*
X39737479Y-95945054D01*
X39730627Y-95949369D01*
X39558544Y-96078573D01*
X39552491Y-96083947D01*
X39403830Y-96239513D01*
X39398727Y-96245814D01*
X39277466Y-96423575D01*
X39273468Y-96430613D01*
X39182871Y-96625790D01*
X39180073Y-96633394D01*
X39124056Y-96835384D01*
X38200000Y-96835384D01*
X38200000Y-92005262D01*
X39404520Y-92005262D01*
X39421759Y-92210553D01*
X39478544Y-92408586D01*
X39572712Y-92591818D01*
X39700677Y-92753270D01*
X39704357Y-92756402D01*
X39704359Y-92756404D01*
X39817017Y-92852283D01*
X39857564Y-92886791D01*
X39861787Y-92889151D01*
X39861791Y-92889154D01*
X39901342Y-92911258D01*
X40037398Y-92987297D01*
X40041996Y-92988791D01*
X40228724Y-93049463D01*
X40228726Y-93049464D01*
X40233329Y-93050959D01*
X40437894Y-93075351D01*
X40442716Y-93074980D01*
X40442719Y-93074980D01*
X40510541Y-93069761D01*
X40643300Y-93059546D01*
X40841725Y-93004145D01*
X40846038Y-93001966D01*
X40846044Y-93001964D01*
X41021289Y-92913441D01*
X41021291Y-92913440D01*
X41025610Y-92911258D01*
X41060943Y-92883653D01*
X41184135Y-92787406D01*
X41184139Y-92787402D01*
X41187951Y-92784424D01*
X41322564Y-92628472D01*
X41341231Y-92595613D01*
X41421934Y-92453550D01*
X41421935Y-92453547D01*
X41424323Y-92449344D01*
X41437882Y-92408586D01*
X41487824Y-92258454D01*
X41487824Y-92258452D01*
X41489351Y-92253863D01*
X41515171Y-92049474D01*
X41515583Y-92020000D01*
X41514138Y-92005262D01*
X41944520Y-92005262D01*
X41961759Y-92210553D01*
X42018544Y-92408586D01*
X42112712Y-92591818D01*
X42240677Y-92753270D01*
X42244357Y-92756402D01*
X42244359Y-92756404D01*
X42357017Y-92852283D01*
X42397564Y-92886791D01*
X42401787Y-92889151D01*
X42401791Y-92889154D01*
X42441342Y-92911258D01*
X42577398Y-92987297D01*
X42581996Y-92988791D01*
X42768724Y-93049463D01*
X42768726Y-93049464D01*
X42773329Y-93050959D01*
X42977894Y-93075351D01*
X42982716Y-93074980D01*
X42982719Y-93074980D01*
X43050541Y-93069761D01*
X43183300Y-93059546D01*
X43381725Y-93004145D01*
X43386038Y-93001966D01*
X43386044Y-93001964D01*
X43561289Y-92913441D01*
X43561291Y-92913440D01*
X43565610Y-92911258D01*
X43600943Y-92883653D01*
X43724135Y-92787406D01*
X43724139Y-92787402D01*
X43727951Y-92784424D01*
X43862564Y-92628472D01*
X43881231Y-92595613D01*
X43961934Y-92453550D01*
X43961935Y-92453547D01*
X43964323Y-92449344D01*
X43977882Y-92408586D01*
X44027824Y-92258454D01*
X44027824Y-92258452D01*
X44029351Y-92253863D01*
X44055171Y-92049474D01*
X44055583Y-92020000D01*
X44035480Y-91814970D01*
X43975935Y-91617749D01*
X43879218Y-91435849D01*
X43749011Y-91276200D01*
X43590275Y-91144882D01*
X43409055Y-91046897D01*
X43345855Y-91027333D01*
X43216875Y-90987407D01*
X43216871Y-90987406D01*
X43212254Y-90985977D01*
X43207446Y-90985472D01*
X43207443Y-90985471D01*
X43012185Y-90964949D01*
X43012183Y-90964949D01*
X43007369Y-90964443D01*
X42947354Y-90969905D01*
X42807022Y-90982675D01*
X42807017Y-90982676D01*
X42802203Y-90983114D01*
X42604572Y-91041280D01*
X42600288Y-91043519D01*
X42600287Y-91043520D01*
X42589428Y-91049197D01*
X42422002Y-91136726D01*
X42418231Y-91139758D01*
X42265220Y-91262781D01*
X42265217Y-91262783D01*
X42261447Y-91265815D01*
X42258333Y-91269526D01*
X42258332Y-91269527D01*
X42249585Y-91279952D01*
X42129024Y-91423630D01*
X42126689Y-91427878D01*
X42126688Y-91427879D01*
X42119955Y-91440126D01*
X42029776Y-91604162D01*
X41967484Y-91800532D01*
X41966944Y-91805344D01*
X41966944Y-91805345D01*
X41965865Y-91814970D01*
X41944520Y-92005262D01*
X41514138Y-92005262D01*
X41495480Y-91814970D01*
X41435935Y-91617749D01*
X41339218Y-91435849D01*
X41209011Y-91276200D01*
X41050275Y-91144882D01*
X40869055Y-91046897D01*
X40805855Y-91027333D01*
X40676875Y-90987407D01*
X40676871Y-90987406D01*
X40672254Y-90985977D01*
X40667446Y-90985472D01*
X40667443Y-90985471D01*
X40472185Y-90964949D01*
X40472183Y-90964949D01*
X40467369Y-90964443D01*
X40407354Y-90969905D01*
X40267022Y-90982675D01*
X40267017Y-90982676D01*
X40262203Y-90983114D01*
X40064572Y-91041280D01*
X40060288Y-91043519D01*
X40060287Y-91043520D01*
X40049428Y-91049197D01*
X39882002Y-91136726D01*
X39878231Y-91139758D01*
X39725220Y-91262781D01*
X39725217Y-91262783D01*
X39721447Y-91265815D01*
X39718333Y-91269526D01*
X39718332Y-91269527D01*
X39709585Y-91279952D01*
X39589024Y-91423630D01*
X39586689Y-91427878D01*
X39586688Y-91427879D01*
X39579955Y-91440126D01*
X39489776Y-91604162D01*
X39427484Y-91800532D01*
X39426944Y-91805344D01*
X39426944Y-91805345D01*
X39425865Y-91814970D01*
X39404520Y-92005262D01*
X38200000Y-92005262D01*
X38200000Y-89465262D01*
X39404520Y-89465262D01*
X39407457Y-89500233D01*
X39417884Y-89624402D01*
X39421759Y-89670553D01*
X39423092Y-89675201D01*
X39423092Y-89675202D01*
X39449760Y-89768203D01*
X39478544Y-89868586D01*
X39572712Y-90051818D01*
X39700677Y-90213270D01*
X39704357Y-90216402D01*
X39704359Y-90216404D01*
X39817017Y-90312283D01*
X39857564Y-90346791D01*
X39861787Y-90349151D01*
X39861791Y-90349154D01*
X39901342Y-90371258D01*
X40037398Y-90447297D01*
X40041996Y-90448791D01*
X40228724Y-90509463D01*
X40228726Y-90509464D01*
X40233329Y-90510959D01*
X40437894Y-90535351D01*
X40442716Y-90534980D01*
X40442719Y-90534980D01*
X40510541Y-90529761D01*
X40643300Y-90519546D01*
X40841725Y-90464145D01*
X40846038Y-90461966D01*
X40846044Y-90461964D01*
X41021289Y-90373441D01*
X41021291Y-90373440D01*
X41025610Y-90371258D01*
X41060943Y-90343653D01*
X41184135Y-90247406D01*
X41184139Y-90247402D01*
X41187951Y-90244424D01*
X41322564Y-90088472D01*
X41343009Y-90052482D01*
X41421934Y-89913550D01*
X41421935Y-89913547D01*
X41424323Y-89909344D01*
X41431430Y-89887982D01*
X41487824Y-89718454D01*
X41487824Y-89718452D01*
X41489351Y-89713863D01*
X41500653Y-89624402D01*
X41514823Y-89512228D01*
X41515171Y-89509474D01*
X41515583Y-89480000D01*
X41514138Y-89465262D01*
X41944520Y-89465262D01*
X41947457Y-89500233D01*
X41957884Y-89624402D01*
X41961759Y-89670553D01*
X41963092Y-89675201D01*
X41963092Y-89675202D01*
X41989760Y-89768203D01*
X42018544Y-89868586D01*
X42112712Y-90051818D01*
X42240677Y-90213270D01*
X42244357Y-90216402D01*
X42244359Y-90216404D01*
X42357017Y-90312283D01*
X42397564Y-90346791D01*
X42401787Y-90349151D01*
X42401791Y-90349154D01*
X42441342Y-90371258D01*
X42577398Y-90447297D01*
X42581996Y-90448791D01*
X42768724Y-90509463D01*
X42768726Y-90509464D01*
X42773329Y-90510959D01*
X42977894Y-90535351D01*
X42982716Y-90534980D01*
X42982719Y-90534980D01*
X43050541Y-90529761D01*
X43183300Y-90519546D01*
X43381725Y-90464145D01*
X43386038Y-90461966D01*
X43386044Y-90461964D01*
X43561289Y-90373441D01*
X43561291Y-90373440D01*
X43565610Y-90371258D01*
X43600943Y-90343653D01*
X43724135Y-90247406D01*
X43724139Y-90247402D01*
X43727951Y-90244424D01*
X43862564Y-90088472D01*
X43883009Y-90052482D01*
X43961934Y-89913550D01*
X43961935Y-89913547D01*
X43964323Y-89909344D01*
X43971430Y-89887982D01*
X44027824Y-89718454D01*
X44027824Y-89718452D01*
X44029351Y-89713863D01*
X44040653Y-89624402D01*
X44044516Y-89593823D01*
X48744391Y-89593823D01*
X48745306Y-89600820D01*
X48745306Y-89600821D01*
X48759419Y-89708750D01*
X48762980Y-89735979D01*
X48765821Y-89742435D01*
X48765821Y-89742436D01*
X48784584Y-89785077D01*
X48820720Y-89867203D01*
X48833792Y-89882754D01*
X48908431Y-89971549D01*
X48908434Y-89971551D01*
X48912970Y-89976948D01*
X48918841Y-89980856D01*
X48918842Y-89980857D01*
X48931143Y-89989045D01*
X49032313Y-90056390D01*
X49121522Y-90084260D01*
X49162425Y-90097039D01*
X49162426Y-90097039D01*
X49169157Y-90099142D01*
X49240828Y-90100456D01*
X49305445Y-90101641D01*
X49305447Y-90101641D01*
X49312499Y-90101770D01*
X49319302Y-90099915D01*
X49319304Y-90099915D01*
X49394503Y-90079413D01*
X49450817Y-90064060D01*
X49572991Y-89989045D01*
X49580403Y-89980857D01*
X49664468Y-89887982D01*
X49669200Y-89882754D01*
X49731710Y-89753733D01*
X49735875Y-89728982D01*
X49754862Y-89616124D01*
X49754862Y-89616120D01*
X49755496Y-89612354D01*
X49755647Y-89600000D01*
X49735323Y-89458082D01*
X49675984Y-89327572D01*
X49582400Y-89218963D01*
X49568572Y-89210000D01*
X54519534Y-89210000D01*
X54539313Y-89360236D01*
X54541797Y-89366233D01*
X54594819Y-89494240D01*
X54594821Y-89494244D01*
X54597302Y-89500233D01*
X54601248Y-89505375D01*
X54601250Y-89505379D01*
X54670947Y-89596209D01*
X54689549Y-89620451D01*
X54694698Y-89624402D01*
X54804621Y-89708750D01*
X54804625Y-89708752D01*
X54809767Y-89712698D01*
X54815756Y-89715179D01*
X54815760Y-89715181D01*
X54924161Y-89760082D01*
X54949764Y-89770687D01*
X55062280Y-89785500D01*
X55137720Y-89785500D01*
X55250236Y-89770687D01*
X55275839Y-89760082D01*
X55384240Y-89715181D01*
X55384244Y-89715179D01*
X55390233Y-89712698D01*
X55395375Y-89708752D01*
X55395379Y-89708750D01*
X55505302Y-89624402D01*
X55510451Y-89620451D01*
X55529053Y-89596209D01*
X55598750Y-89505379D01*
X55598752Y-89505375D01*
X55602698Y-89500233D01*
X55605179Y-89494244D01*
X55605181Y-89494240D01*
X55658203Y-89366233D01*
X55660687Y-89360236D01*
X55680466Y-89210000D01*
X55660687Y-89059764D01*
X55658203Y-89053767D01*
X55605181Y-88925760D01*
X55605179Y-88925756D01*
X55602698Y-88919767D01*
X55598752Y-88914625D01*
X55598750Y-88914621D01*
X55535059Y-88831619D01*
X55514635Y-88773943D01*
X55532012Y-88715277D01*
X55567124Y-88683939D01*
X55676241Y-88625921D01*
X55684272Y-88620585D01*
X55829956Y-88501768D01*
X55836793Y-88494979D01*
X55956630Y-88350121D01*
X55962014Y-88342138D01*
X56051434Y-88176760D01*
X56055163Y-88167889D01*
X56091972Y-88048977D01*
X56091963Y-88048362D01*
X57478188Y-88048362D01*
X57509509Y-88154783D01*
X57513122Y-88163724D01*
X57600218Y-88330323D01*
X57605492Y-88338384D01*
X57723299Y-88484906D01*
X57730030Y-88491780D01*
X57874052Y-88612629D01*
X57882000Y-88618070D01*
X58046739Y-88708637D01*
X58055602Y-88712436D01*
X58234796Y-88769279D01*
X58244224Y-88771283D01*
X58390505Y-88787691D01*
X58396034Y-88788000D01*
X58480320Y-88788000D01*
X58493005Y-88783878D01*
X58496000Y-88779757D01*
X58496000Y-88772320D01*
X59004000Y-88772320D01*
X59008122Y-88785005D01*
X59012243Y-88788000D01*
X59097324Y-88788000D01*
X59102139Y-88787765D01*
X59241919Y-88774059D01*
X59251370Y-88772188D01*
X59431341Y-88717851D01*
X59440257Y-88714176D01*
X59606241Y-88625921D01*
X59614272Y-88620585D01*
X59759956Y-88501768D01*
X59766793Y-88494979D01*
X59886630Y-88350121D01*
X59892014Y-88342138D01*
X59981434Y-88176760D01*
X59985163Y-88167889D01*
X60021972Y-88048977D01*
X60021809Y-88037339D01*
X60011283Y-88034000D01*
X59019680Y-88034000D01*
X59006995Y-88038122D01*
X59004000Y-88042243D01*
X59004000Y-88772320D01*
X58496000Y-88772320D01*
X58496000Y-88049680D01*
X58491878Y-88036995D01*
X58487757Y-88034000D01*
X57489641Y-88034000D01*
X57478337Y-88037673D01*
X57478188Y-88048362D01*
X56091963Y-88048362D01*
X56091809Y-88037339D01*
X56081283Y-88034000D01*
X54839680Y-88034000D01*
X54826995Y-88038122D01*
X54824000Y-88042243D01*
X54824000Y-88647559D01*
X54805093Y-88705750D01*
X54785267Y-88726101D01*
X54694701Y-88795595D01*
X54694698Y-88795598D01*
X54689549Y-88799549D01*
X54685598Y-88804698D01*
X54601250Y-88914621D01*
X54601248Y-88914625D01*
X54597302Y-88919767D01*
X54594821Y-88925756D01*
X54594819Y-88925760D01*
X54541797Y-89053767D01*
X54539313Y-89059764D01*
X54519534Y-89210000D01*
X49568572Y-89210000D01*
X49462095Y-89140985D01*
X49324739Y-89099907D01*
X49241497Y-89099398D01*
X49188427Y-89099074D01*
X49188426Y-89099074D01*
X49181376Y-89099031D01*
X49174599Y-89100968D01*
X49174598Y-89100968D01*
X49050309Y-89136490D01*
X49050307Y-89136491D01*
X49043529Y-89138428D01*
X48922280Y-89214930D01*
X48917613Y-89220214D01*
X48917611Y-89220216D01*
X48832044Y-89317103D01*
X48832042Y-89317105D01*
X48827377Y-89322388D01*
X48766447Y-89452163D01*
X48765362Y-89459132D01*
X48765361Y-89459135D01*
X48758161Y-89505379D01*
X48744391Y-89593823D01*
X44044516Y-89593823D01*
X44054823Y-89512228D01*
X44055171Y-89509474D01*
X44055583Y-89480000D01*
X44052854Y-89452163D01*
X44035952Y-89279780D01*
X44035951Y-89279776D01*
X44035480Y-89274970D01*
X44018571Y-89218963D01*
X43977333Y-89082380D01*
X43975935Y-89077749D01*
X43879218Y-88895849D01*
X43749011Y-88736200D01*
X43740945Y-88729527D01*
X43594002Y-88607965D01*
X43594000Y-88607964D01*
X43590275Y-88604882D01*
X43409055Y-88506897D01*
X43345855Y-88487333D01*
X43216875Y-88447407D01*
X43216871Y-88447406D01*
X43212254Y-88445977D01*
X43207446Y-88445472D01*
X43207443Y-88445471D01*
X43012185Y-88424949D01*
X43012183Y-88424949D01*
X43007369Y-88424443D01*
X42947354Y-88429905D01*
X42807022Y-88442675D01*
X42807017Y-88442676D01*
X42802203Y-88443114D01*
X42604572Y-88501280D01*
X42600288Y-88503519D01*
X42600287Y-88503520D01*
X42589428Y-88509197D01*
X42422002Y-88596726D01*
X42418231Y-88599758D01*
X42265220Y-88722781D01*
X42265217Y-88722783D01*
X42261447Y-88725815D01*
X42258333Y-88729526D01*
X42258332Y-88729527D01*
X42172667Y-88831619D01*
X42129024Y-88883630D01*
X42126689Y-88887878D01*
X42126688Y-88887879D01*
X42119955Y-88900126D01*
X42029776Y-89064162D01*
X42028313Y-89068775D01*
X42028311Y-89068779D01*
X42006047Y-89138964D01*
X41967484Y-89260532D01*
X41966944Y-89265344D01*
X41966944Y-89265345D01*
X41946046Y-89451660D01*
X41944520Y-89465262D01*
X41514138Y-89465262D01*
X41512854Y-89452163D01*
X41495952Y-89279780D01*
X41495951Y-89279776D01*
X41495480Y-89274970D01*
X41478571Y-89218963D01*
X41437333Y-89082380D01*
X41435935Y-89077749D01*
X41339218Y-88895849D01*
X41209011Y-88736200D01*
X41200945Y-88729527D01*
X41054002Y-88607965D01*
X41054000Y-88607964D01*
X41050275Y-88604882D01*
X40869055Y-88506897D01*
X40805855Y-88487333D01*
X40676875Y-88447407D01*
X40676871Y-88447406D01*
X40672254Y-88445977D01*
X40667446Y-88445472D01*
X40667443Y-88445471D01*
X40472185Y-88424949D01*
X40472183Y-88424949D01*
X40467369Y-88424443D01*
X40407354Y-88429905D01*
X40267022Y-88442675D01*
X40267017Y-88442676D01*
X40262203Y-88443114D01*
X40064572Y-88501280D01*
X40060288Y-88503519D01*
X40060287Y-88503520D01*
X40049428Y-88509197D01*
X39882002Y-88596726D01*
X39878231Y-88599758D01*
X39725220Y-88722781D01*
X39725217Y-88722783D01*
X39721447Y-88725815D01*
X39718333Y-88729526D01*
X39718332Y-88729527D01*
X39632667Y-88831619D01*
X39589024Y-88883630D01*
X39586689Y-88887878D01*
X39586688Y-88887879D01*
X39579955Y-88900126D01*
X39489776Y-89064162D01*
X39488313Y-89068775D01*
X39488311Y-89068779D01*
X39466047Y-89138964D01*
X39427484Y-89260532D01*
X39426944Y-89265344D01*
X39426944Y-89265345D01*
X39406046Y-89451660D01*
X39404520Y-89465262D01*
X38200000Y-89465262D01*
X38200000Y-86925262D01*
X39404520Y-86925262D01*
X39405758Y-86940000D01*
X39419275Y-87100968D01*
X39421759Y-87130553D01*
X39423092Y-87135201D01*
X39423092Y-87135202D01*
X39476767Y-87322388D01*
X39478544Y-87328586D01*
X39572712Y-87511818D01*
X39700677Y-87673270D01*
X39704357Y-87676402D01*
X39704359Y-87676404D01*
X39774360Y-87735979D01*
X39857564Y-87806791D01*
X39861787Y-87809151D01*
X39861791Y-87809154D01*
X39965658Y-87867203D01*
X40037398Y-87907297D01*
X40041996Y-87908791D01*
X40228724Y-87969463D01*
X40228726Y-87969464D01*
X40233329Y-87970959D01*
X40437894Y-87995351D01*
X40442716Y-87994980D01*
X40442719Y-87994980D01*
X40519848Y-87989045D01*
X40643300Y-87979546D01*
X40841725Y-87924145D01*
X40846038Y-87921966D01*
X40846044Y-87921964D01*
X41021289Y-87833441D01*
X41021291Y-87833440D01*
X41025610Y-87831258D01*
X41116712Y-87760082D01*
X41184135Y-87707406D01*
X41184139Y-87707402D01*
X41187951Y-87704424D01*
X41191844Y-87699915D01*
X41277378Y-87600821D01*
X41322564Y-87548472D01*
X41335330Y-87526000D01*
X41421934Y-87373550D01*
X41421935Y-87373547D01*
X41424323Y-87369344D01*
X41429517Y-87353733D01*
X41487824Y-87178454D01*
X41487824Y-87178452D01*
X41489351Y-87173863D01*
X41493505Y-87140985D01*
X41514823Y-86972228D01*
X41515171Y-86969474D01*
X41515583Y-86940000D01*
X41515313Y-86937244D01*
X41514138Y-86925262D01*
X41944520Y-86925262D01*
X41945758Y-86940000D01*
X41959275Y-87100968D01*
X41961759Y-87130553D01*
X41963092Y-87135201D01*
X41963092Y-87135202D01*
X42016767Y-87322388D01*
X42018544Y-87328586D01*
X42112712Y-87511818D01*
X42240677Y-87673270D01*
X42244357Y-87676402D01*
X42244359Y-87676404D01*
X42314360Y-87735979D01*
X42397564Y-87806791D01*
X42401787Y-87809151D01*
X42401791Y-87809154D01*
X42505658Y-87867203D01*
X42577398Y-87907297D01*
X42581996Y-87908791D01*
X42768724Y-87969463D01*
X42768726Y-87969464D01*
X42773329Y-87970959D01*
X42977894Y-87995351D01*
X42982716Y-87994980D01*
X42982719Y-87994980D01*
X43059848Y-87989045D01*
X43183300Y-87979546D01*
X43381725Y-87924145D01*
X43386038Y-87921966D01*
X43386044Y-87921964D01*
X43561289Y-87833441D01*
X43561291Y-87833440D01*
X43565610Y-87831258D01*
X43656712Y-87760082D01*
X43724135Y-87707406D01*
X43724139Y-87707402D01*
X43727951Y-87704424D01*
X43731844Y-87699915D01*
X43817378Y-87600821D01*
X43862564Y-87548472D01*
X43875330Y-87526000D01*
X43961934Y-87373550D01*
X43961935Y-87373547D01*
X43964323Y-87369344D01*
X43969517Y-87353733D01*
X44022711Y-87193823D01*
X45494391Y-87193823D01*
X45495306Y-87200820D01*
X45495306Y-87200821D01*
X45496659Y-87211167D01*
X45512980Y-87335979D01*
X45515821Y-87342435D01*
X45515821Y-87342436D01*
X45566707Y-87458082D01*
X45570720Y-87467203D01*
X45608223Y-87511818D01*
X45658431Y-87571549D01*
X45658434Y-87571551D01*
X45662970Y-87576948D01*
X45668841Y-87580856D01*
X45668842Y-87580857D01*
X45677844Y-87586849D01*
X45782313Y-87656390D01*
X45882920Y-87687821D01*
X45912425Y-87697039D01*
X45912426Y-87697039D01*
X45919157Y-87699142D01*
X45990828Y-87700456D01*
X46055445Y-87701641D01*
X46055447Y-87701641D01*
X46062499Y-87701770D01*
X46069302Y-87699915D01*
X46069304Y-87699915D01*
X46167035Y-87673270D01*
X46200817Y-87664060D01*
X46315209Y-87593823D01*
X49894391Y-87593823D01*
X49895306Y-87600820D01*
X49895306Y-87600821D01*
X49903818Y-87665914D01*
X49912980Y-87735979D01*
X49915821Y-87742435D01*
X49915821Y-87742436D01*
X49953592Y-87828276D01*
X49970720Y-87867203D01*
X50005678Y-87908791D01*
X50058431Y-87971549D01*
X50058434Y-87971551D01*
X50062970Y-87976948D01*
X50068841Y-87980856D01*
X50068842Y-87980857D01*
X50081143Y-87989045D01*
X50182313Y-88056390D01*
X50282920Y-88087821D01*
X50312425Y-88097039D01*
X50312426Y-88097039D01*
X50319157Y-88099142D01*
X50390828Y-88100456D01*
X50455445Y-88101641D01*
X50455447Y-88101641D01*
X50462499Y-88101770D01*
X50469302Y-88099915D01*
X50469304Y-88099915D01*
X50544503Y-88079413D01*
X50600817Y-88064060D01*
X50626384Y-88048362D01*
X53048188Y-88048362D01*
X53079509Y-88154783D01*
X53083122Y-88163724D01*
X53170218Y-88330323D01*
X53175492Y-88338384D01*
X53293299Y-88484906D01*
X53300030Y-88491780D01*
X53444052Y-88612629D01*
X53452000Y-88618070D01*
X53616739Y-88708637D01*
X53625602Y-88712436D01*
X53804796Y-88769279D01*
X53814224Y-88771283D01*
X53960505Y-88787691D01*
X53966034Y-88788000D01*
X54300320Y-88788000D01*
X54313005Y-88783878D01*
X54316000Y-88779757D01*
X54316000Y-88049680D01*
X54311878Y-88036995D01*
X54307757Y-88034000D01*
X53059641Y-88034000D01*
X53048337Y-88037673D01*
X53048188Y-88048362D01*
X50626384Y-88048362D01*
X50722991Y-87989045D01*
X50730403Y-87980857D01*
X50814468Y-87887982D01*
X50819200Y-87882754D01*
X50881710Y-87753733D01*
X50885875Y-87728982D01*
X50904862Y-87616124D01*
X50904862Y-87616120D01*
X50905496Y-87612354D01*
X50905647Y-87600000D01*
X50892905Y-87511023D01*
X53048028Y-87511023D01*
X53048191Y-87522661D01*
X53058717Y-87526000D01*
X54300320Y-87526000D01*
X54313005Y-87521878D01*
X54316000Y-87517757D01*
X54316000Y-87510320D01*
X54824000Y-87510320D01*
X54828122Y-87523005D01*
X54832243Y-87526000D01*
X56080359Y-87526000D01*
X56091663Y-87522327D01*
X56091812Y-87511638D01*
X56091631Y-87511023D01*
X57478028Y-87511023D01*
X57478191Y-87522661D01*
X57488717Y-87526000D01*
X58480320Y-87526000D01*
X58493005Y-87521878D01*
X58496000Y-87517757D01*
X58496000Y-87510320D01*
X59004000Y-87510320D01*
X59008122Y-87523005D01*
X59012243Y-87526000D01*
X60010359Y-87526000D01*
X60021663Y-87522327D01*
X60021812Y-87511638D01*
X59990491Y-87405217D01*
X59986878Y-87396276D01*
X59899782Y-87229677D01*
X59894508Y-87221616D01*
X59776701Y-87075094D01*
X59769970Y-87068220D01*
X59625948Y-86947371D01*
X59618000Y-86941930D01*
X59453261Y-86851363D01*
X59444398Y-86847564D01*
X59265204Y-86790721D01*
X59255776Y-86788717D01*
X59109495Y-86772309D01*
X59103966Y-86772000D01*
X59019680Y-86772000D01*
X59006995Y-86776122D01*
X59004000Y-86780243D01*
X59004000Y-87510320D01*
X58496000Y-87510320D01*
X58496000Y-86787680D01*
X58491878Y-86774995D01*
X58487757Y-86772000D01*
X58402676Y-86772000D01*
X58397861Y-86772235D01*
X58258081Y-86785941D01*
X58248630Y-86787812D01*
X58068659Y-86842149D01*
X58059743Y-86845824D01*
X57893759Y-86934079D01*
X57885728Y-86939415D01*
X57740044Y-87058232D01*
X57733207Y-87065021D01*
X57613370Y-87209879D01*
X57607986Y-87217862D01*
X57518566Y-87383240D01*
X57514837Y-87392111D01*
X57478028Y-87511023D01*
X56091631Y-87511023D01*
X56060491Y-87405217D01*
X56056878Y-87396276D01*
X55969782Y-87229677D01*
X55964508Y-87221616D01*
X55846701Y-87075094D01*
X55839970Y-87068220D01*
X55695948Y-86947371D01*
X55688000Y-86941930D01*
X55523261Y-86851363D01*
X55514398Y-86847564D01*
X55335204Y-86790721D01*
X55325776Y-86788717D01*
X55179495Y-86772309D01*
X55173966Y-86772000D01*
X54839680Y-86772000D01*
X54826995Y-86776122D01*
X54824000Y-86780243D01*
X54824000Y-87510320D01*
X54316000Y-87510320D01*
X54316000Y-86787680D01*
X54311878Y-86774995D01*
X54307757Y-86772000D01*
X53972676Y-86772000D01*
X53967861Y-86772235D01*
X53828081Y-86785941D01*
X53818630Y-86787812D01*
X53638659Y-86842149D01*
X53629743Y-86845824D01*
X53463759Y-86934079D01*
X53455728Y-86939415D01*
X53310044Y-87058232D01*
X53303207Y-87065021D01*
X53183370Y-87209879D01*
X53177986Y-87217862D01*
X53088566Y-87383240D01*
X53084837Y-87392111D01*
X53048028Y-87511023D01*
X50892905Y-87511023D01*
X50885323Y-87458082D01*
X50846889Y-87373550D01*
X50828905Y-87333996D01*
X50828904Y-87333995D01*
X50825984Y-87327572D01*
X50732400Y-87218963D01*
X50612095Y-87140985D01*
X50474739Y-87099907D01*
X50391497Y-87099398D01*
X50338427Y-87099074D01*
X50338426Y-87099074D01*
X50331376Y-87099031D01*
X50324599Y-87100968D01*
X50324598Y-87100968D01*
X50200309Y-87136490D01*
X50200307Y-87136491D01*
X50193529Y-87138428D01*
X50072280Y-87214930D01*
X50067613Y-87220214D01*
X50067611Y-87220216D01*
X49982044Y-87317103D01*
X49982042Y-87317105D01*
X49977377Y-87322388D01*
X49916447Y-87452163D01*
X49915362Y-87459132D01*
X49915361Y-87459135D01*
X49905523Y-87522327D01*
X49894391Y-87593823D01*
X46315209Y-87593823D01*
X46322991Y-87589045D01*
X46330403Y-87580857D01*
X46414468Y-87487982D01*
X46419200Y-87482754D01*
X46481710Y-87353733D01*
X46485875Y-87328982D01*
X46504862Y-87216124D01*
X46504862Y-87216120D01*
X46505496Y-87212354D01*
X46505647Y-87200000D01*
X46485323Y-87058082D01*
X46425984Y-86927572D01*
X46355545Y-86845824D01*
X46337005Y-86824307D01*
X46337004Y-86824306D01*
X46332400Y-86818963D01*
X46212095Y-86740985D01*
X46074739Y-86699907D01*
X45991497Y-86699398D01*
X45938427Y-86699074D01*
X45938426Y-86699074D01*
X45931376Y-86699031D01*
X45924599Y-86700968D01*
X45924598Y-86700968D01*
X45800309Y-86736490D01*
X45800307Y-86736491D01*
X45793529Y-86738428D01*
X45672280Y-86814930D01*
X45667613Y-86820214D01*
X45667611Y-86820216D01*
X45582044Y-86917103D01*
X45582042Y-86917105D01*
X45577377Y-86922388D01*
X45574381Y-86928770D01*
X45574380Y-86928771D01*
X45571927Y-86933996D01*
X45516447Y-87052163D01*
X45515362Y-87059132D01*
X45515361Y-87059135D01*
X45503016Y-87138428D01*
X45494391Y-87193823D01*
X44022711Y-87193823D01*
X44027824Y-87178454D01*
X44027824Y-87178452D01*
X44029351Y-87173863D01*
X44033505Y-87140985D01*
X44054823Y-86972228D01*
X44055171Y-86969474D01*
X44055583Y-86940000D01*
X44055313Y-86937244D01*
X44035952Y-86739780D01*
X44035951Y-86739776D01*
X44035480Y-86734970D01*
X43975935Y-86537749D01*
X43879218Y-86355849D01*
X43749011Y-86196200D01*
X43590275Y-86064882D01*
X43409055Y-85966897D01*
X43345855Y-85947333D01*
X43216875Y-85907407D01*
X43216871Y-85907406D01*
X43212254Y-85905977D01*
X43207446Y-85905472D01*
X43207443Y-85905471D01*
X43012185Y-85884949D01*
X43012183Y-85884949D01*
X43007369Y-85884443D01*
X42947354Y-85889905D01*
X42807022Y-85902675D01*
X42807017Y-85902676D01*
X42802203Y-85903114D01*
X42604572Y-85961280D01*
X42600288Y-85963519D01*
X42600287Y-85963520D01*
X42544879Y-85992487D01*
X42422002Y-86056726D01*
X42418231Y-86059758D01*
X42265220Y-86182781D01*
X42265217Y-86182783D01*
X42261447Y-86185815D01*
X42258333Y-86189526D01*
X42258332Y-86189527D01*
X42249585Y-86199952D01*
X42129024Y-86343630D01*
X42126689Y-86347878D01*
X42126688Y-86347879D01*
X42119955Y-86360126D01*
X42029776Y-86524162D01*
X41967484Y-86720532D01*
X41966944Y-86725344D01*
X41966944Y-86725345D01*
X41953843Y-86842149D01*
X41944520Y-86925262D01*
X41514138Y-86925262D01*
X41495952Y-86739780D01*
X41495951Y-86739776D01*
X41495480Y-86734970D01*
X41435935Y-86537749D01*
X41339218Y-86355849D01*
X41209011Y-86196200D01*
X41050275Y-86064882D01*
X40869055Y-85966897D01*
X40805855Y-85947333D01*
X40676875Y-85907407D01*
X40676871Y-85907406D01*
X40672254Y-85905977D01*
X40667446Y-85905472D01*
X40667443Y-85905471D01*
X40472185Y-85884949D01*
X40472183Y-85884949D01*
X40467369Y-85884443D01*
X40407354Y-85889905D01*
X40267022Y-85902675D01*
X40267017Y-85902676D01*
X40262203Y-85903114D01*
X40064572Y-85961280D01*
X40060288Y-85963519D01*
X40060287Y-85963520D01*
X40004879Y-85992487D01*
X39882002Y-86056726D01*
X39878231Y-86059758D01*
X39725220Y-86182781D01*
X39725217Y-86182783D01*
X39721447Y-86185815D01*
X39718333Y-86189526D01*
X39718332Y-86189527D01*
X39709585Y-86199952D01*
X39589024Y-86343630D01*
X39586689Y-86347878D01*
X39586688Y-86347879D01*
X39579955Y-86360126D01*
X39489776Y-86524162D01*
X39427484Y-86720532D01*
X39426944Y-86725344D01*
X39426944Y-86725345D01*
X39413843Y-86842149D01*
X39404520Y-86925262D01*
X38200000Y-86925262D01*
X38200000Y-86033960D01*
X38202518Y-86011773D01*
X38202562Y-86011583D01*
X38205143Y-86000358D01*
X38202682Y-85989483D01*
X38202702Y-85978336D01*
X38202863Y-85978336D01*
X38202076Y-85968331D01*
X38214974Y-85771531D01*
X38216664Y-85758691D01*
X38247878Y-85601770D01*
X38260068Y-85540484D01*
X38263419Y-85527980D01*
X38279416Y-85480857D01*
X38334933Y-85317308D01*
X38339889Y-85305346D01*
X38438284Y-85105820D01*
X38444753Y-85094614D01*
X38445282Y-85093823D01*
X55694391Y-85093823D01*
X55695306Y-85100820D01*
X55695306Y-85100821D01*
X55696814Y-85112354D01*
X55712980Y-85235979D01*
X55715821Y-85242435D01*
X55715821Y-85242436D01*
X55723586Y-85260082D01*
X55770720Y-85367203D01*
X55783792Y-85382754D01*
X55858431Y-85471549D01*
X55858434Y-85471551D01*
X55862970Y-85476948D01*
X55868841Y-85480856D01*
X55868842Y-85480857D01*
X55881143Y-85489045D01*
X55982313Y-85556390D01*
X56082920Y-85587821D01*
X56112425Y-85597039D01*
X56112426Y-85597039D01*
X56119157Y-85599142D01*
X56190828Y-85600456D01*
X56255445Y-85601641D01*
X56255447Y-85601641D01*
X56262499Y-85601770D01*
X56269302Y-85599915D01*
X56269304Y-85599915D01*
X56344503Y-85579413D01*
X56400817Y-85564060D01*
X56522991Y-85489045D01*
X56530403Y-85480857D01*
X56614468Y-85387982D01*
X56619200Y-85382754D01*
X56681710Y-85253733D01*
X56685875Y-85228982D01*
X56704862Y-85116124D01*
X56704862Y-85116120D01*
X56705496Y-85112354D01*
X56705647Y-85100000D01*
X56685323Y-84958082D01*
X56625984Y-84827572D01*
X56543708Y-84732086D01*
X56537005Y-84724307D01*
X56537004Y-84724306D01*
X56532400Y-84718963D01*
X56412095Y-84640985D01*
X56274739Y-84599907D01*
X56191497Y-84599398D01*
X56138427Y-84599074D01*
X56138426Y-84599074D01*
X56131376Y-84599031D01*
X56124599Y-84600968D01*
X56124598Y-84600968D01*
X56000309Y-84636490D01*
X56000307Y-84636491D01*
X55993529Y-84638428D01*
X55872280Y-84714930D01*
X55867613Y-84720214D01*
X55867611Y-84720216D01*
X55782044Y-84817103D01*
X55782042Y-84817105D01*
X55777377Y-84822388D01*
X55716447Y-84952163D01*
X55694391Y-85093823D01*
X38445282Y-85093823D01*
X38568365Y-84909615D01*
X38576233Y-84899361D01*
X38722931Y-84732085D01*
X38732086Y-84722930D01*
X38735181Y-84720216D01*
X38899361Y-84576233D01*
X38909615Y-84568365D01*
X39094614Y-84444753D01*
X39105820Y-84438284D01*
X39223046Y-84380475D01*
X39305347Y-84339889D01*
X39317309Y-84334933D01*
X39527984Y-84263418D01*
X39540484Y-84260068D01*
X39758698Y-84216663D01*
X39771523Y-84214975D01*
X39967819Y-84202109D01*
X39977628Y-84202899D01*
X39977628Y-84202625D01*
X39988778Y-84202645D01*
X39999642Y-84205143D01*
X40010514Y-84202683D01*
X40010516Y-84202683D01*
X40011583Y-84202441D01*
X40033432Y-84200000D01*
X58966040Y-84200000D01*
X58988227Y-84202518D01*
G37*
%TD.AperFunction*%
%TD*%
M02*
