%TF.GenerationSoftware,KiCad,Pcbnew,6.0.1-79c1e3a40b~116~ubuntu20.04.1*%
%TF.CreationDate,2022-02-18T15:29:32+02:00*%
%TF.ProjectId,colorlight-usb-phy-pmod,636f6c6f-726c-4696-9768-742d7573622d,rev?*%
%TF.SameCoordinates,Original*%
%TF.FileFunction,Legend,Top*%
%TF.FilePolarity,Positive*%
%FSLAX46Y46*%
G04 Gerber Fmt 4.6, Leading zero omitted, Abs format (unit mm)*
G04 Created by KiCad (PCBNEW 6.0.1-79c1e3a40b~116~ubuntu20.04.1) date 2022-02-18 15:29:32*
%MOMM*%
%LPD*%
G01*
G04 APERTURE LIST*
%ADD10C,0.150000*%
%ADD11C,0.120000*%
G04 APERTURE END LIST*
D10*
X48229761Y-116442380D02*
X48229761Y-117251904D01*
X48277380Y-117347142D01*
X48325000Y-117394761D01*
X48420238Y-117442380D01*
X48610714Y-117442380D01*
X48705952Y-117394761D01*
X48753571Y-117347142D01*
X48801190Y-117251904D01*
X48801190Y-116442380D01*
X49229761Y-117394761D02*
X49372619Y-117442380D01*
X49610714Y-117442380D01*
X49705952Y-117394761D01*
X49753571Y-117347142D01*
X49801190Y-117251904D01*
X49801190Y-117156666D01*
X49753571Y-117061428D01*
X49705952Y-117013809D01*
X49610714Y-116966190D01*
X49420238Y-116918571D01*
X49325000Y-116870952D01*
X49277380Y-116823333D01*
X49229761Y-116728095D01*
X49229761Y-116632857D01*
X49277380Y-116537619D01*
X49325000Y-116490000D01*
X49420238Y-116442380D01*
X49658333Y-116442380D01*
X49801190Y-116490000D01*
X50563095Y-116918571D02*
X50705952Y-116966190D01*
X50753571Y-117013809D01*
X50801190Y-117109047D01*
X50801190Y-117251904D01*
X50753571Y-117347142D01*
X50705952Y-117394761D01*
X50610714Y-117442380D01*
X50229761Y-117442380D01*
X50229761Y-116442380D01*
X50563095Y-116442380D01*
X50658333Y-116490000D01*
X50705952Y-116537619D01*
X50753571Y-116632857D01*
X50753571Y-116728095D01*
X50705952Y-116823333D01*
X50658333Y-116870952D01*
X50563095Y-116918571D01*
X50229761Y-116918571D01*
X51134523Y-116442380D02*
X51753571Y-116442380D01*
X51420238Y-116823333D01*
X51563095Y-116823333D01*
X51658333Y-116870952D01*
X51705952Y-116918571D01*
X51753571Y-117013809D01*
X51753571Y-117251904D01*
X51705952Y-117347142D01*
X51658333Y-117394761D01*
X51563095Y-117442380D01*
X51277380Y-117442380D01*
X51182142Y-117394761D01*
X51134523Y-117347142D01*
X52086904Y-116442380D02*
X52705952Y-116442380D01*
X52372619Y-116823333D01*
X52515476Y-116823333D01*
X52610714Y-116870952D01*
X52658333Y-116918571D01*
X52705952Y-117013809D01*
X52705952Y-117251904D01*
X52658333Y-117347142D01*
X52610714Y-117394761D01*
X52515476Y-117442380D01*
X52229761Y-117442380D01*
X52134523Y-117394761D01*
X52086904Y-117347142D01*
X53658333Y-117442380D02*
X53086904Y-117442380D01*
X53372619Y-117442380D02*
X53372619Y-116442380D01*
X53277380Y-116585238D01*
X53182142Y-116680476D01*
X53086904Y-116728095D01*
X54563095Y-116442380D02*
X54086904Y-116442380D01*
X54039285Y-116918571D01*
X54086904Y-116870952D01*
X54182142Y-116823333D01*
X54420238Y-116823333D01*
X54515476Y-116870952D01*
X54563095Y-116918571D01*
X54610714Y-117013809D01*
X54610714Y-117251904D01*
X54563095Y-117347142D01*
X54515476Y-117394761D01*
X54420238Y-117442380D01*
X54182142Y-117442380D01*
X54086904Y-117394761D01*
X54039285Y-117347142D01*
X55610714Y-117347142D02*
X55563095Y-117394761D01*
X55420238Y-117442380D01*
X55325000Y-117442380D01*
X55182142Y-117394761D01*
X55086904Y-117299523D01*
X55039285Y-117204285D01*
X54991666Y-117013809D01*
X54991666Y-116870952D01*
X55039285Y-116680476D01*
X55086904Y-116585238D01*
X55182142Y-116490000D01*
X55325000Y-116442380D01*
X55420238Y-116442380D01*
X55563095Y-116490000D01*
X55610714Y-116537619D01*
X56801190Y-116442380D02*
X56801190Y-117251904D01*
X56848809Y-117347142D01*
X56896428Y-117394761D01*
X56991666Y-117442380D01*
X57182142Y-117442380D01*
X57277380Y-117394761D01*
X57325000Y-117347142D01*
X57372619Y-117251904D01*
X57372619Y-116442380D01*
X58325000Y-117442380D02*
X57848809Y-117442380D01*
X57848809Y-116442380D01*
X58658333Y-117442380D02*
X58658333Y-116442380D01*
X59039285Y-116442380D01*
X59134523Y-116490000D01*
X59182142Y-116537619D01*
X59229761Y-116632857D01*
X59229761Y-116775714D01*
X59182142Y-116870952D01*
X59134523Y-116918571D01*
X59039285Y-116966190D01*
X58658333Y-116966190D01*
X59658333Y-117442380D02*
X59658333Y-116442380D01*
X48848809Y-119052380D02*
X48848809Y-118052380D01*
X49229761Y-118052380D01*
X49325000Y-118100000D01*
X49372619Y-118147619D01*
X49420238Y-118242857D01*
X49420238Y-118385714D01*
X49372619Y-118480952D01*
X49325000Y-118528571D01*
X49229761Y-118576190D01*
X48848809Y-118576190D01*
X49848809Y-119052380D02*
X49848809Y-118052380D01*
X50182142Y-118766666D01*
X50515476Y-118052380D01*
X50515476Y-119052380D01*
X51182142Y-118052380D02*
X51372619Y-118052380D01*
X51467857Y-118100000D01*
X51563095Y-118195238D01*
X51610714Y-118385714D01*
X51610714Y-118719047D01*
X51563095Y-118909523D01*
X51467857Y-119004761D01*
X51372619Y-119052380D01*
X51182142Y-119052380D01*
X51086904Y-119004761D01*
X50991666Y-118909523D01*
X50944047Y-118719047D01*
X50944047Y-118385714D01*
X50991666Y-118195238D01*
X51086904Y-118100000D01*
X51182142Y-118052380D01*
X52039285Y-119052380D02*
X52039285Y-118052380D01*
X52277380Y-118052380D01*
X52420238Y-118100000D01*
X52515476Y-118195238D01*
X52563095Y-118290476D01*
X52610714Y-118480952D01*
X52610714Y-118623809D01*
X52563095Y-118814285D01*
X52515476Y-118909523D01*
X52420238Y-119004761D01*
X52277380Y-119052380D01*
X52039285Y-119052380D01*
X53801190Y-119052380D02*
X53801190Y-118052380D01*
X53801190Y-118433333D02*
X53896428Y-118385714D01*
X54086904Y-118385714D01*
X54182142Y-118433333D01*
X54229761Y-118480952D01*
X54277380Y-118576190D01*
X54277380Y-118861904D01*
X54229761Y-118957142D01*
X54182142Y-119004761D01*
X54086904Y-119052380D01*
X53896428Y-119052380D01*
X53801190Y-119004761D01*
X54705952Y-119052380D02*
X54705952Y-118385714D01*
X54705952Y-118576190D02*
X54753571Y-118480952D01*
X54801190Y-118433333D01*
X54896428Y-118385714D01*
X54991666Y-118385714D01*
X55705952Y-119004761D02*
X55610714Y-119052380D01*
X55420238Y-119052380D01*
X55325000Y-119004761D01*
X55277380Y-118909523D01*
X55277380Y-118528571D01*
X55325000Y-118433333D01*
X55420238Y-118385714D01*
X55610714Y-118385714D01*
X55705952Y-118433333D01*
X55753571Y-118528571D01*
X55753571Y-118623809D01*
X55277380Y-118719047D01*
X56610714Y-119052380D02*
X56610714Y-118528571D01*
X56563095Y-118433333D01*
X56467857Y-118385714D01*
X56277380Y-118385714D01*
X56182142Y-118433333D01*
X56610714Y-119004761D02*
X56515476Y-119052380D01*
X56277380Y-119052380D01*
X56182142Y-119004761D01*
X56134523Y-118909523D01*
X56134523Y-118814285D01*
X56182142Y-118719047D01*
X56277380Y-118671428D01*
X56515476Y-118671428D01*
X56610714Y-118623809D01*
X57086904Y-119052380D02*
X57086904Y-118052380D01*
X57182142Y-118671428D02*
X57467857Y-119052380D01*
X57467857Y-118385714D02*
X57086904Y-118766666D01*
X58039285Y-119052380D02*
X57944047Y-119004761D01*
X57896428Y-118957142D01*
X57848809Y-118861904D01*
X57848809Y-118576190D01*
X57896428Y-118480952D01*
X57944047Y-118433333D01*
X58039285Y-118385714D01*
X58182142Y-118385714D01*
X58277380Y-118433333D01*
X58325000Y-118480952D01*
X58372619Y-118576190D01*
X58372619Y-118861904D01*
X58325000Y-118957142D01*
X58277380Y-119004761D01*
X58182142Y-119052380D01*
X58039285Y-119052380D01*
X59229761Y-118385714D02*
X59229761Y-119052380D01*
X58801190Y-118385714D02*
X58801190Y-118909523D01*
X58848809Y-119004761D01*
X58944047Y-119052380D01*
X59086904Y-119052380D01*
X59182142Y-119004761D01*
X59229761Y-118957142D01*
X59563095Y-118385714D02*
X59944047Y-118385714D01*
X59705952Y-118052380D02*
X59705952Y-118909523D01*
X59753571Y-119004761D01*
X59848809Y-119052380D01*
X59944047Y-119052380D01*
X52967857Y-120662380D02*
X52967857Y-119995714D01*
X52967857Y-120186190D02*
X53015476Y-120090952D01*
X53063095Y-120043333D01*
X53158333Y-119995714D01*
X53253571Y-119995714D01*
X53967857Y-120614761D02*
X53872619Y-120662380D01*
X53682142Y-120662380D01*
X53586904Y-120614761D01*
X53539285Y-120519523D01*
X53539285Y-120138571D01*
X53586904Y-120043333D01*
X53682142Y-119995714D01*
X53872619Y-119995714D01*
X53967857Y-120043333D01*
X54015476Y-120138571D01*
X54015476Y-120233809D01*
X53539285Y-120329047D01*
X54348809Y-119995714D02*
X54586904Y-120662380D01*
X54825000Y-119995714D01*
X55729761Y-120662380D02*
X55158333Y-120662380D01*
X55444047Y-120662380D02*
X55444047Y-119662380D01*
X55348809Y-119805238D01*
X55253571Y-119900476D01*
X55158333Y-119948095D01*
%TO.C,U3*%
X52222380Y-113236904D02*
X53031904Y-113236904D01*
X53127142Y-113189285D01*
X53174761Y-113141666D01*
X53222380Y-113046428D01*
X53222380Y-112855952D01*
X53174761Y-112760714D01*
X53127142Y-112713095D01*
X53031904Y-112665476D01*
X52222380Y-112665476D01*
X52222380Y-112284523D02*
X52222380Y-111665476D01*
X52603333Y-111998809D01*
X52603333Y-111855952D01*
X52650952Y-111760714D01*
X52698571Y-111713095D01*
X52793809Y-111665476D01*
X53031904Y-111665476D01*
X53127142Y-111713095D01*
X53174761Y-111760714D01*
X53222380Y-111855952D01*
X53222380Y-112141666D01*
X53174761Y-112236904D01*
X53127142Y-112284523D01*
%TO.C,C7*%
X57678333Y-115707142D02*
X57630714Y-115754761D01*
X57487857Y-115802380D01*
X57392619Y-115802380D01*
X57249761Y-115754761D01*
X57154523Y-115659523D01*
X57106904Y-115564285D01*
X57059285Y-115373809D01*
X57059285Y-115230952D01*
X57106904Y-115040476D01*
X57154523Y-114945238D01*
X57249761Y-114850000D01*
X57392619Y-114802380D01*
X57487857Y-114802380D01*
X57630714Y-114850000D01*
X57678333Y-114897619D01*
X58011666Y-114802380D02*
X58678333Y-114802380D01*
X58249761Y-115802380D01*
%TO.C,C6*%
X56303333Y-109207142D02*
X56255714Y-109254761D01*
X56112857Y-109302380D01*
X56017619Y-109302380D01*
X55874761Y-109254761D01*
X55779523Y-109159523D01*
X55731904Y-109064285D01*
X55684285Y-108873809D01*
X55684285Y-108730952D01*
X55731904Y-108540476D01*
X55779523Y-108445238D01*
X55874761Y-108350000D01*
X56017619Y-108302380D01*
X56112857Y-108302380D01*
X56255714Y-108350000D01*
X56303333Y-108397619D01*
X57160476Y-108302380D02*
X56970000Y-108302380D01*
X56874761Y-108350000D01*
X56827142Y-108397619D01*
X56731904Y-108540476D01*
X56684285Y-108730952D01*
X56684285Y-109111904D01*
X56731904Y-109207142D01*
X56779523Y-109254761D01*
X56874761Y-109302380D01*
X57065238Y-109302380D01*
X57160476Y-109254761D01*
X57208095Y-109207142D01*
X57255714Y-109111904D01*
X57255714Y-108873809D01*
X57208095Y-108778571D01*
X57160476Y-108730952D01*
X57065238Y-108683333D01*
X56874761Y-108683333D01*
X56779523Y-108730952D01*
X56731904Y-108778571D01*
X56684285Y-108873809D01*
%TO.C,U1*%
X47538095Y-102752380D02*
X47538095Y-103561904D01*
X47585714Y-103657142D01*
X47633333Y-103704761D01*
X47728571Y-103752380D01*
X47919047Y-103752380D01*
X48014285Y-103704761D01*
X48061904Y-103657142D01*
X48109523Y-103561904D01*
X48109523Y-102752380D01*
X49109523Y-103752380D02*
X48538095Y-103752380D01*
X48823809Y-103752380D02*
X48823809Y-102752380D01*
X48728571Y-102895238D01*
X48633333Y-102990476D01*
X48538095Y-103038095D01*
%TO.C,R2*%
X47823333Y-89532380D02*
X47490000Y-89056190D01*
X47251904Y-89532380D02*
X47251904Y-88532380D01*
X47632857Y-88532380D01*
X47728095Y-88580000D01*
X47775714Y-88627619D01*
X47823333Y-88722857D01*
X47823333Y-88865714D01*
X47775714Y-88960952D01*
X47728095Y-89008571D01*
X47632857Y-89056190D01*
X47251904Y-89056190D01*
X48204285Y-88627619D02*
X48251904Y-88580000D01*
X48347142Y-88532380D01*
X48585238Y-88532380D01*
X48680476Y-88580000D01*
X48728095Y-88627619D01*
X48775714Y-88722857D01*
X48775714Y-88818095D01*
X48728095Y-88960952D01*
X48156666Y-89532380D01*
X48775714Y-89532380D01*
%TO.C,C4*%
X54657142Y-99066666D02*
X54704761Y-99114285D01*
X54752380Y-99257142D01*
X54752380Y-99352380D01*
X54704761Y-99495238D01*
X54609523Y-99590476D01*
X54514285Y-99638095D01*
X54323809Y-99685714D01*
X54180952Y-99685714D01*
X53990476Y-99638095D01*
X53895238Y-99590476D01*
X53800000Y-99495238D01*
X53752380Y-99352380D01*
X53752380Y-99257142D01*
X53800000Y-99114285D01*
X53847619Y-99066666D01*
X54085714Y-98209523D02*
X54752380Y-98209523D01*
X53704761Y-98447619D02*
X54419047Y-98685714D01*
X54419047Y-98066666D01*
%TO.C,C5*%
X58133333Y-100997142D02*
X58085714Y-101044761D01*
X57942857Y-101092380D01*
X57847619Y-101092380D01*
X57704761Y-101044761D01*
X57609523Y-100949523D01*
X57561904Y-100854285D01*
X57514285Y-100663809D01*
X57514285Y-100520952D01*
X57561904Y-100330476D01*
X57609523Y-100235238D01*
X57704761Y-100140000D01*
X57847619Y-100092380D01*
X57942857Y-100092380D01*
X58085714Y-100140000D01*
X58133333Y-100187619D01*
X59038095Y-100092380D02*
X58561904Y-100092380D01*
X58514285Y-100568571D01*
X58561904Y-100520952D01*
X58657142Y-100473333D01*
X58895238Y-100473333D01*
X58990476Y-100520952D01*
X59038095Y-100568571D01*
X59085714Y-100663809D01*
X59085714Y-100901904D01*
X59038095Y-100997142D01*
X58990476Y-101044761D01*
X58895238Y-101092380D01*
X58657142Y-101092380D01*
X58561904Y-101044761D01*
X58514285Y-100997142D01*
%TO.C,D2*%
X49661904Y-86152380D02*
X49661904Y-85152380D01*
X49900000Y-85152380D01*
X50042857Y-85200000D01*
X50138095Y-85295238D01*
X50185714Y-85390476D01*
X50233333Y-85580952D01*
X50233333Y-85723809D01*
X50185714Y-85914285D01*
X50138095Y-86009523D01*
X50042857Y-86104761D01*
X49900000Y-86152380D01*
X49661904Y-86152380D01*
X50614285Y-85247619D02*
X50661904Y-85200000D01*
X50757142Y-85152380D01*
X50995238Y-85152380D01*
X51090476Y-85200000D01*
X51138095Y-85247619D01*
X51185714Y-85342857D01*
X51185714Y-85438095D01*
X51138095Y-85580952D01*
X50566666Y-86152380D01*
X51185714Y-86152380D01*
%TO.C,C1*%
X52057142Y-98966666D02*
X52104761Y-99014285D01*
X52152380Y-99157142D01*
X52152380Y-99252380D01*
X52104761Y-99395238D01*
X52009523Y-99490476D01*
X51914285Y-99538095D01*
X51723809Y-99585714D01*
X51580952Y-99585714D01*
X51390476Y-99538095D01*
X51295238Y-99490476D01*
X51200000Y-99395238D01*
X51152380Y-99252380D01*
X51152380Y-99157142D01*
X51200000Y-99014285D01*
X51247619Y-98966666D01*
X52152380Y-98014285D02*
X52152380Y-98585714D01*
X52152380Y-98300000D02*
X51152380Y-98300000D01*
X51295238Y-98395238D01*
X51390476Y-98490476D01*
X51438095Y-98585714D01*
%TO.C,X1*%
X58390476Y-105652380D02*
X59057142Y-106652380D01*
X59057142Y-105652380D02*
X58390476Y-106652380D01*
X59961904Y-106652380D02*
X59390476Y-106652380D01*
X59676190Y-106652380D02*
X59676190Y-105652380D01*
X59580952Y-105795238D01*
X59485714Y-105890476D01*
X59390476Y-105938095D01*
%TO.C,R7*%
X57033333Y-86252380D02*
X56700000Y-85776190D01*
X56461904Y-86252380D02*
X56461904Y-85252380D01*
X56842857Y-85252380D01*
X56938095Y-85300000D01*
X56985714Y-85347619D01*
X57033333Y-85442857D01*
X57033333Y-85585714D01*
X56985714Y-85680952D01*
X56938095Y-85728571D01*
X56842857Y-85776190D01*
X56461904Y-85776190D01*
X57366666Y-85252380D02*
X58033333Y-85252380D01*
X57604761Y-86252380D01*
%TO.C,R6*%
X45852380Y-88366666D02*
X45376190Y-88700000D01*
X45852380Y-88938095D02*
X44852380Y-88938095D01*
X44852380Y-88557142D01*
X44900000Y-88461904D01*
X44947619Y-88414285D01*
X45042857Y-88366666D01*
X45185714Y-88366666D01*
X45280952Y-88414285D01*
X45328571Y-88461904D01*
X45376190Y-88557142D01*
X45376190Y-88938095D01*
X44852380Y-87509523D02*
X44852380Y-87700000D01*
X44900000Y-87795238D01*
X44947619Y-87842857D01*
X45090476Y-87938095D01*
X45280952Y-87985714D01*
X45661904Y-87985714D01*
X45757142Y-87938095D01*
X45804761Y-87890476D01*
X45852380Y-87795238D01*
X45852380Y-87604761D01*
X45804761Y-87509523D01*
X45757142Y-87461904D01*
X45661904Y-87414285D01*
X45423809Y-87414285D01*
X45328571Y-87461904D01*
X45280952Y-87509523D01*
X45233333Y-87604761D01*
X45233333Y-87795238D01*
X45280952Y-87890476D01*
X45328571Y-87938095D01*
X45423809Y-87985714D01*
%TO.C,P1*%
X58661904Y-86252380D02*
X58661904Y-85252380D01*
X59042857Y-85252380D01*
X59138095Y-85300000D01*
X59185714Y-85347619D01*
X59233333Y-85442857D01*
X59233333Y-85585714D01*
X59185714Y-85680952D01*
X59138095Y-85728571D01*
X59042857Y-85776190D01*
X58661904Y-85776190D01*
X60185714Y-86252380D02*
X59614285Y-86252380D01*
X59900000Y-86252380D02*
X59900000Y-85252380D01*
X59804761Y-85395238D01*
X59709523Y-85490476D01*
X59614285Y-85538095D01*
%TO.C,R1*%
X56133333Y-102152380D02*
X55800000Y-101676190D01*
X55561904Y-102152380D02*
X55561904Y-101152380D01*
X55942857Y-101152380D01*
X56038095Y-101200000D01*
X56085714Y-101247619D01*
X56133333Y-101342857D01*
X56133333Y-101485714D01*
X56085714Y-101580952D01*
X56038095Y-101628571D01*
X55942857Y-101676190D01*
X55561904Y-101676190D01*
X57085714Y-102152380D02*
X56514285Y-102152380D01*
X56800000Y-102152380D02*
X56800000Y-101152380D01*
X56704761Y-101295238D01*
X56609523Y-101390476D01*
X56514285Y-101438095D01*
%TO.C,C3*%
X56333333Y-107057142D02*
X56285714Y-107104761D01*
X56142857Y-107152380D01*
X56047619Y-107152380D01*
X55904761Y-107104761D01*
X55809523Y-107009523D01*
X55761904Y-106914285D01*
X55714285Y-106723809D01*
X55714285Y-106580952D01*
X55761904Y-106390476D01*
X55809523Y-106295238D01*
X55904761Y-106200000D01*
X56047619Y-106152380D01*
X56142857Y-106152380D01*
X56285714Y-106200000D01*
X56333333Y-106247619D01*
X56666666Y-106152380D02*
X57285714Y-106152380D01*
X56952380Y-106533333D01*
X57095238Y-106533333D01*
X57190476Y-106580952D01*
X57238095Y-106628571D01*
X57285714Y-106723809D01*
X57285714Y-106961904D01*
X57238095Y-107057142D01*
X57190476Y-107104761D01*
X57095238Y-107152380D01*
X56809523Y-107152380D01*
X56714285Y-107104761D01*
X56666666Y-107057142D01*
%TO.C,J1*%
X45666666Y-121152380D02*
X45666666Y-121866666D01*
X45619047Y-122009523D01*
X45523809Y-122104761D01*
X45380952Y-122152380D01*
X45285714Y-122152380D01*
X46666666Y-122152380D02*
X46095238Y-122152380D01*
X46380952Y-122152380D02*
X46380952Y-121152380D01*
X46285714Y-121295238D01*
X46190476Y-121390476D01*
X46095238Y-121438095D01*
%TO.C,U2*%
X48662380Y-92641904D02*
X49471904Y-92641904D01*
X49567142Y-92594285D01*
X49614761Y-92546666D01*
X49662380Y-92451428D01*
X49662380Y-92260952D01*
X49614761Y-92165714D01*
X49567142Y-92118095D01*
X49471904Y-92070476D01*
X48662380Y-92070476D01*
X48757619Y-91641904D02*
X48710000Y-91594285D01*
X48662380Y-91499047D01*
X48662380Y-91260952D01*
X48710000Y-91165714D01*
X48757619Y-91118095D01*
X48852857Y-91070476D01*
X48948095Y-91070476D01*
X49090952Y-91118095D01*
X49662380Y-91689523D01*
X49662380Y-91070476D01*
%TO.C,Q1*%
X48004761Y-85247619D02*
X47909523Y-85200000D01*
X47814285Y-85104761D01*
X47671428Y-84961904D01*
X47576190Y-84914285D01*
X47480952Y-84914285D01*
X47528571Y-85152380D02*
X47433333Y-85104761D01*
X47338095Y-85009523D01*
X47290476Y-84819047D01*
X47290476Y-84485714D01*
X47338095Y-84295238D01*
X47433333Y-84200000D01*
X47528571Y-84152380D01*
X47719047Y-84152380D01*
X47814285Y-84200000D01*
X47909523Y-84295238D01*
X47957142Y-84485714D01*
X47957142Y-84819047D01*
X47909523Y-85009523D01*
X47814285Y-85104761D01*
X47719047Y-85152380D01*
X47528571Y-85152380D01*
X48909523Y-85152380D02*
X48338095Y-85152380D01*
X48623809Y-85152380D02*
X48623809Y-84152380D01*
X48528571Y-84295238D01*
X48433333Y-84390476D01*
X48338095Y-84438095D01*
%TO.C,R4*%
X47743333Y-90792380D02*
X47410000Y-90316190D01*
X47171904Y-90792380D02*
X47171904Y-89792380D01*
X47552857Y-89792380D01*
X47648095Y-89840000D01*
X47695714Y-89887619D01*
X47743333Y-89982857D01*
X47743333Y-90125714D01*
X47695714Y-90220952D01*
X47648095Y-90268571D01*
X47552857Y-90316190D01*
X47171904Y-90316190D01*
X48600476Y-90125714D02*
X48600476Y-90792380D01*
X48362380Y-89744761D02*
X48124285Y-90459047D01*
X48743333Y-90459047D01*
%TO.C,R3*%
X46933333Y-94052380D02*
X46600000Y-93576190D01*
X46361904Y-94052380D02*
X46361904Y-93052380D01*
X46742857Y-93052380D01*
X46838095Y-93100000D01*
X46885714Y-93147619D01*
X46933333Y-93242857D01*
X46933333Y-93385714D01*
X46885714Y-93480952D01*
X46838095Y-93528571D01*
X46742857Y-93576190D01*
X46361904Y-93576190D01*
X47266666Y-93052380D02*
X47885714Y-93052380D01*
X47552380Y-93433333D01*
X47695238Y-93433333D01*
X47790476Y-93480952D01*
X47838095Y-93528571D01*
X47885714Y-93623809D01*
X47885714Y-93861904D01*
X47838095Y-93957142D01*
X47790476Y-94004761D01*
X47695238Y-94052380D01*
X47409523Y-94052380D01*
X47314285Y-94004761D01*
X47266666Y-93957142D01*
%TO.C,D1*%
X58222380Y-112038095D02*
X57222380Y-112038095D01*
X57222380Y-111800000D01*
X57270000Y-111657142D01*
X57365238Y-111561904D01*
X57460476Y-111514285D01*
X57650952Y-111466666D01*
X57793809Y-111466666D01*
X57984285Y-111514285D01*
X58079523Y-111561904D01*
X58174761Y-111657142D01*
X58222380Y-111800000D01*
X58222380Y-112038095D01*
X58222380Y-110514285D02*
X58222380Y-111085714D01*
X58222380Y-110800000D02*
X57222380Y-110800000D01*
X57365238Y-110895238D01*
X57460476Y-110990476D01*
X57508095Y-111085714D01*
%TO.C,C2*%
X53357142Y-99066666D02*
X53404761Y-99114285D01*
X53452380Y-99257142D01*
X53452380Y-99352380D01*
X53404761Y-99495238D01*
X53309523Y-99590476D01*
X53214285Y-99638095D01*
X53023809Y-99685714D01*
X52880952Y-99685714D01*
X52690476Y-99638095D01*
X52595238Y-99590476D01*
X52500000Y-99495238D01*
X52452380Y-99352380D01*
X52452380Y-99257142D01*
X52500000Y-99114285D01*
X52547619Y-99066666D01*
X52547619Y-98685714D02*
X52500000Y-98638095D01*
X52452380Y-98542857D01*
X52452380Y-98304761D01*
X52500000Y-98209523D01*
X52547619Y-98161904D01*
X52642857Y-98114285D01*
X52738095Y-98114285D01*
X52880952Y-98161904D01*
X53452380Y-98733333D01*
X53452380Y-98114285D01*
%TO.C,R5*%
X58482380Y-108766666D02*
X58006190Y-109100000D01*
X58482380Y-109338095D02*
X57482380Y-109338095D01*
X57482380Y-108957142D01*
X57530000Y-108861904D01*
X57577619Y-108814285D01*
X57672857Y-108766666D01*
X57815714Y-108766666D01*
X57910952Y-108814285D01*
X57958571Y-108861904D01*
X58006190Y-108957142D01*
X58006190Y-109338095D01*
X57482380Y-107861904D02*
X57482380Y-108338095D01*
X57958571Y-108385714D01*
X57910952Y-108338095D01*
X57863333Y-108242857D01*
X57863333Y-108004761D01*
X57910952Y-107909523D01*
X57958571Y-107861904D01*
X58053809Y-107814285D01*
X58291904Y-107814285D01*
X58387142Y-107861904D01*
X58434761Y-107909523D01*
X58482380Y-108004761D01*
X58482380Y-108242857D01*
X58434761Y-108338095D01*
X58387142Y-108385714D01*
D11*
%TO.C,U3*%
X56730000Y-112450000D02*
X56730000Y-110650000D01*
X56730000Y-112450000D02*
X56730000Y-113250000D01*
X53610000Y-112450000D02*
X53610000Y-111650000D01*
X53610000Y-112450000D02*
X53610000Y-113250000D01*
%TO.C,C7*%
X55537164Y-115585000D02*
X55752836Y-115585000D01*
X55537164Y-114865000D02*
X55752836Y-114865000D01*
%TO.C,C6*%
X55662164Y-109540000D02*
X55877836Y-109540000D01*
X55662164Y-110260000D02*
X55877836Y-110260000D01*
%TO.C,U1*%
X54110000Y-103365000D02*
X54110000Y-102890000D01*
X49890000Y-102890000D02*
X50365000Y-102890000D01*
X54110000Y-107110000D02*
X53635000Y-107110000D01*
X54110000Y-106635000D02*
X54110000Y-107110000D01*
X49890000Y-106635000D02*
X49890000Y-107110000D01*
X49890000Y-103365000D02*
X49890000Y-102890000D01*
X49890000Y-107110000D02*
X50365000Y-107110000D01*
%TO.C,R2*%
X50676359Y-88570000D02*
X50983641Y-88570000D01*
X50676359Y-89330000D02*
X50983641Y-89330000D01*
%TO.C,C4*%
X54260000Y-101207836D02*
X54260000Y-100992164D01*
X53540000Y-101207836D02*
X53540000Y-100992164D01*
%TO.C,C5*%
X58192164Y-102160000D02*
X58407836Y-102160000D01*
X58192164Y-101440000D02*
X58407836Y-101440000D01*
%TO.C,D2*%
X51415000Y-85165000D02*
X51415000Y-86635000D01*
X53700000Y-85165000D02*
X51415000Y-85165000D01*
X51415000Y-86635000D02*
X53700000Y-86635000D01*
%TO.C,C1*%
X51540000Y-101207836D02*
X51540000Y-100992164D01*
X52260000Y-101207836D02*
X52260000Y-100992164D01*
%TO.C,X1*%
X60060000Y-103640000D02*
X60060000Y-103970000D01*
X58380000Y-104910000D02*
X59020000Y-104910000D01*
X58380000Y-102690000D02*
X59020000Y-102690000D01*
X57340000Y-103630000D02*
X57340000Y-103970000D01*
X60260000Y-103420000D02*
X60260000Y-102730000D01*
X60060000Y-103640001D02*
G75*
G03*
X60260000Y-103420000I-120002J310002D01*
G01*
%TO.C,R7*%
X55246359Y-86380000D02*
X55553641Y-86380000D01*
X55246359Y-85620000D02*
X55553641Y-85620000D01*
%TO.C,R6*%
X45880000Y-85746359D02*
X45880000Y-86053641D01*
X45120000Y-85746359D02*
X45120000Y-86053641D01*
%TO.C,P1*%
X59700000Y-87400000D02*
X61600000Y-87400000D01*
X59700000Y-96800000D02*
X61600000Y-96800000D01*
X61600000Y-96800000D02*
X61600000Y-87400000D01*
X55800000Y-96800000D02*
X57800000Y-96800000D01*
X55800000Y-87400000D02*
X57800000Y-87400000D01*
%TO.C,R1*%
X55853641Y-102720000D02*
X55546359Y-102720000D01*
X55853641Y-103480000D02*
X55546359Y-103480000D01*
%TO.C,C3*%
X55807836Y-105040000D02*
X55592164Y-105040000D01*
X55807836Y-105760000D02*
X55592164Y-105760000D01*
%TO.C,J1*%
X30360000Y-117040000D02*
X36360000Y-117040000D01*
X41957071Y-91640000D02*
X41502929Y-91640000D01*
X39417071Y-105100000D02*
X39020000Y-105100000D01*
X39417071Y-89860000D02*
X39020000Y-89860000D01*
X36360000Y-100020000D02*
X30360000Y-100020000D01*
X39020000Y-123830000D02*
X39020000Y-85610000D01*
X30360000Y-97480000D02*
X30360000Y-96720000D01*
X30360000Y-101800000D02*
X36360000Y-101800000D01*
X39020000Y-108530000D02*
X36360000Y-108530000D01*
X30360000Y-94940000D02*
X30360000Y-94180000D01*
X39020000Y-118690000D02*
X36360000Y-118690000D01*
X39020000Y-85610000D02*
X36360000Y-85610000D01*
X41957071Y-96720000D02*
X41502929Y-96720000D01*
X36360000Y-122460000D02*
X30360000Y-122460000D01*
X41957071Y-106880000D02*
X41502929Y-106880000D01*
X41957071Y-117800000D02*
X41502929Y-117800000D01*
X41890000Y-122120000D02*
X41502929Y-122120000D01*
X30360000Y-102560000D02*
X30360000Y-101800000D01*
X41957071Y-100020000D02*
X41502929Y-100020000D01*
X39417071Y-94940000D02*
X39020000Y-94940000D01*
X41957071Y-89100000D02*
X41502929Y-89100000D01*
X39020000Y-111070000D02*
X36360000Y-111070000D01*
X36360000Y-87320000D02*
X30360000Y-87320000D01*
X30360000Y-87320000D02*
X30360000Y-86560000D01*
X39020000Y-121230000D02*
X36360000Y-121230000D01*
X36360000Y-105100000D02*
X30360000Y-105100000D01*
X39417071Y-104340000D02*
X39020000Y-104340000D01*
X30360000Y-92400000D02*
X30360000Y-91640000D01*
X41957071Y-107640000D02*
X41502929Y-107640000D01*
X30360000Y-94180000D02*
X36360000Y-94180000D01*
X36360000Y-122700000D02*
X30360000Y-122700000D01*
X39417071Y-106880000D02*
X39020000Y-106880000D01*
X41957071Y-94940000D02*
X41502929Y-94940000D01*
X41957071Y-110180000D02*
X41502929Y-110180000D01*
X39020000Y-100910000D02*
X36360000Y-100910000D01*
X41957071Y-87320000D02*
X41502929Y-87320000D01*
X39417071Y-97480000D02*
X39020000Y-97480000D01*
X30360000Y-105100000D02*
X30360000Y-104340000D01*
X41957071Y-117040000D02*
X41502929Y-117040000D01*
X41957071Y-102560000D02*
X41502929Y-102560000D01*
X36360000Y-117800000D02*
X30360000Y-117800000D01*
X36360000Y-85610000D02*
X36360000Y-123830000D01*
X30360000Y-119580000D02*
X36360000Y-119580000D01*
X36360000Y-120340000D02*
X30360000Y-120340000D01*
X30360000Y-111960000D02*
X36360000Y-111960000D01*
X30360000Y-120340000D02*
X30360000Y-119580000D01*
X30360000Y-122120000D02*
X36360000Y-122120000D01*
X36360000Y-112720000D02*
X30360000Y-112720000D01*
X36360000Y-123830000D02*
X39020000Y-123830000D01*
X36360000Y-97480000D02*
X30360000Y-97480000D01*
X36360000Y-122820000D02*
X30360000Y-122820000D01*
X41957071Y-119580000D02*
X41502929Y-119580000D01*
X39417071Y-119580000D02*
X39020000Y-119580000D01*
X39417071Y-94180000D02*
X39020000Y-94180000D01*
X41957071Y-94180000D02*
X41502929Y-94180000D01*
X30360000Y-107640000D02*
X30360000Y-106880000D01*
X36360000Y-107640000D02*
X30360000Y-107640000D01*
X30360000Y-91640000D02*
X36360000Y-91640000D01*
X41957071Y-114500000D02*
X41502929Y-114500000D01*
X30360000Y-104340000D02*
X36360000Y-104340000D01*
X39417071Y-86560000D02*
X39020000Y-86560000D01*
X39020000Y-93290000D02*
X36360000Y-93290000D01*
X39417071Y-122120000D02*
X39020000Y-122120000D01*
X39020000Y-95830000D02*
X36360000Y-95830000D01*
X39417071Y-114500000D02*
X39020000Y-114500000D01*
X39417071Y-107640000D02*
X39020000Y-107640000D01*
X39417071Y-115260000D02*
X39020000Y-115260000D01*
X39417071Y-89100000D02*
X39020000Y-89100000D01*
X30360000Y-112720000D02*
X30360000Y-111960000D01*
X36360000Y-122880000D02*
X30360000Y-122880000D01*
X39020000Y-116150000D02*
X36360000Y-116150000D01*
X36360000Y-122220000D02*
X30360000Y-122220000D01*
X41957071Y-120340000D02*
X41502929Y-120340000D01*
X39417071Y-109420000D02*
X39020000Y-109420000D01*
X39417071Y-122880000D02*
X39020000Y-122880000D01*
X41957071Y-99260000D02*
X41502929Y-99260000D01*
X39417071Y-120340000D02*
X39020000Y-120340000D01*
X39417071Y-87320000D02*
X39020000Y-87320000D01*
X36360000Y-115260000D02*
X30360000Y-115260000D01*
X39417071Y-102560000D02*
X39020000Y-102560000D01*
X39020000Y-113610000D02*
X36360000Y-113610000D01*
X39417071Y-110180000D02*
X39020000Y-110180000D01*
X39417071Y-112720000D02*
X39020000Y-112720000D01*
X41957071Y-105100000D02*
X41502929Y-105100000D01*
X36360000Y-92400000D02*
X30360000Y-92400000D01*
X30360000Y-100020000D02*
X30360000Y-99260000D01*
X39020000Y-98370000D02*
X36360000Y-98370000D01*
X36360000Y-122340000D02*
X30360000Y-122340000D01*
X39417071Y-91640000D02*
X39020000Y-91640000D01*
X41890000Y-122880000D02*
X41502929Y-122880000D01*
X41957071Y-115260000D02*
X41502929Y-115260000D01*
X36360000Y-122580000D02*
X30360000Y-122580000D01*
X39417071Y-117800000D02*
X39020000Y-117800000D01*
X30360000Y-110180000D02*
X30360000Y-109420000D01*
X39417071Y-99260000D02*
X39020000Y-99260000D01*
X41957071Y-109420000D02*
X41502929Y-109420000D01*
X39417071Y-111960000D02*
X39020000Y-111960000D01*
X41957071Y-92400000D02*
X41502929Y-92400000D01*
X30360000Y-86560000D02*
X36360000Y-86560000D01*
X30360000Y-122880000D02*
X30360000Y-122120000D01*
X30360000Y-106880000D02*
X36360000Y-106880000D01*
X39020000Y-103450000D02*
X36360000Y-103450000D01*
X39020000Y-90750000D02*
X36360000Y-90750000D01*
X30360000Y-89100000D02*
X36360000Y-89100000D01*
X39417071Y-101800000D02*
X39020000Y-101800000D01*
X41957071Y-111960000D02*
X41502929Y-111960000D01*
X30360000Y-114500000D02*
X36360000Y-114500000D01*
X30360000Y-99260000D02*
X36360000Y-99260000D01*
X36360000Y-89860000D02*
X30360000Y-89860000D01*
X41957071Y-86560000D02*
X41502929Y-86560000D01*
X30360000Y-89860000D02*
X30360000Y-89100000D01*
X41957071Y-89860000D02*
X41502929Y-89860000D01*
X36360000Y-110180000D02*
X30360000Y-110180000D01*
X41957071Y-97480000D02*
X41502929Y-97480000D01*
X36360000Y-102560000D02*
X30360000Y-102560000D01*
X44270000Y-123770000D02*
X43000000Y-123770000D01*
X30360000Y-115260000D02*
X30360000Y-114500000D01*
X30360000Y-109420000D02*
X36360000Y-109420000D01*
X41957071Y-112720000D02*
X41502929Y-112720000D01*
X39020000Y-88210000D02*
X36360000Y-88210000D01*
X44270000Y-122500000D02*
X44270000Y-123770000D01*
X30360000Y-117800000D02*
X30360000Y-117040000D01*
X39417071Y-92400000D02*
X39020000Y-92400000D01*
X36360000Y-94940000D02*
X30360000Y-94940000D01*
X39417071Y-96720000D02*
X39020000Y-96720000D01*
X41957071Y-104340000D02*
X41502929Y-104340000D01*
X39417071Y-117040000D02*
X39020000Y-117040000D01*
X41957071Y-101800000D02*
X41502929Y-101800000D01*
X39417071Y-100020000D02*
X39020000Y-100020000D01*
X30360000Y-96720000D02*
X36360000Y-96720000D01*
X39020000Y-105990000D02*
X36360000Y-105990000D01*
%TO.C,U2*%
X50938007Y-90924984D02*
X51488007Y-90924984D01*
X50938007Y-92224984D02*
X51488007Y-92224984D01*
X51488007Y-90924984D02*
X51488007Y-91124984D01*
X51488007Y-92224984D02*
X51488007Y-92024984D01*
%TO.C,Q1*%
X49230000Y-85440000D02*
X47200000Y-85440000D01*
X49230000Y-87100000D02*
X49230000Y-87760000D01*
X49230000Y-85440000D02*
X49230000Y-86100000D01*
X47820000Y-87760000D02*
X49230000Y-87760000D01*
%TO.C,R4*%
X51003641Y-90420000D02*
X50696359Y-90420000D01*
X51003641Y-89660000D02*
X50696359Y-89660000D01*
%TO.C,R3*%
X50686359Y-93020000D02*
X50993641Y-93020000D01*
X50686359Y-93780000D02*
X50993641Y-93780000D01*
%TO.C,D1*%
X58465000Y-112785000D02*
X59935000Y-112785000D01*
X58465000Y-110500000D02*
X58465000Y-112785000D01*
X59935000Y-112785000D02*
X59935000Y-110500000D01*
%TO.C,C2*%
X52540000Y-100992164D02*
X52540000Y-101207836D01*
X53260000Y-100992164D02*
X53260000Y-101207836D01*
%TO.C,R5*%
X58820000Y-108753641D02*
X58820000Y-108446359D01*
X59580000Y-108753641D02*
X59580000Y-108446359D01*
%TD*%
M02*
