%TF.GenerationSoftware,KiCad,Pcbnew,6.0.1-79c1e3a40b~116~ubuntu20.04.1*%
%TF.CreationDate,2022-02-18T15:29:32+02:00*%
%TF.ProjectId,colorlight-usb-phy-pmod,636f6c6f-726c-4696-9768-742d7573622d,rev?*%
%TF.SameCoordinates,Original*%
%TF.FileFunction,Copper,L4,Bot*%
%TF.FilePolarity,Positive*%
%FSLAX46Y46*%
G04 Gerber Fmt 4.6, Leading zero omitted, Abs format (unit mm)*
G04 Created by KiCad (PCBNEW 6.0.1-79c1e3a40b~116~ubuntu20.04.1) date 2022-02-18 15:29:32*
%MOMM*%
%LPD*%
G01*
G04 APERTURE LIST*
G04 Aperture macros list*
%AMFreePoly0*
4,1,6,1.000000,0.000000,0.500000,-0.750000,-0.500000,-0.750000,-0.500000,0.750000,0.500000,0.750000,1.000000,0.000000,1.000000,0.000000,$1*%
%AMFreePoly1*
4,1,6,0.500000,-0.750000,-0.650000,-0.750000,-0.150000,0.000000,-0.650000,0.750000,0.500000,0.750000,0.500000,-0.750000,0.500000,-0.750000,$1*%
G04 Aperture macros list end*
%TA.AperFunction,ComponentPad*%
%ADD10C,0.500000*%
%TD*%
%TA.AperFunction,SMDPad,CuDef*%
%ADD11R,2.600000X2.600000*%
%TD*%
%TA.AperFunction,ComponentPad*%
%ADD12O,2.100000X1.000000*%
%TD*%
%TA.AperFunction,ComponentPad*%
%ADD13O,1.600000X1.000000*%
%TD*%
%TA.AperFunction,ComponentPad*%
%ADD14R,1.700000X1.700000*%
%TD*%
%TA.AperFunction,ComponentPad*%
%ADD15O,1.700000X1.700000*%
%TD*%
%TA.AperFunction,SMDPad,CuDef*%
%ADD16FreePoly0,180.000000*%
%TD*%
%TA.AperFunction,SMDPad,CuDef*%
%ADD17FreePoly1,180.000000*%
%TD*%
%TA.AperFunction,ViaPad*%
%ADD18C,0.600000*%
%TD*%
%TA.AperFunction,ViaPad*%
%ADD19C,0.800000*%
%TD*%
%TA.AperFunction,Conductor*%
%ADD20C,0.200000*%
%TD*%
%TA.AperFunction,Conductor*%
%ADD21C,0.250000*%
%TD*%
%TA.AperFunction,Conductor*%
%ADD22C,0.400000*%
%TD*%
G04 APERTURE END LIST*
D10*
%TO.P,U1,25,GND*%
%TO.N,GND*%
X50950000Y-105000000D03*
X52000000Y-103950000D03*
X52000000Y-106050000D03*
X53050000Y-105000000D03*
D11*
X52000000Y-105000000D03*
D10*
X53050000Y-103950000D03*
X53050000Y-106050000D03*
X50950000Y-103950000D03*
X50950000Y-106050000D03*
X52000000Y-105000000D03*
%TD*%
D12*
%TO.P,P1,S1,SHIELD*%
%TO.N,GND*%
X54570000Y-87780000D03*
D13*
X58750000Y-87780000D03*
D12*
X54570000Y-96420000D03*
D13*
X58750000Y-96420000D03*
%TD*%
D14*
%TO.P,J1,1,Pin_1*%
%TO.N,+3V3*%
X43000000Y-122500000D03*
D15*
%TO.P,J1,2,Pin_2*%
X40460000Y-122500000D03*
%TO.P,J1,3,Pin_3*%
%TO.N,GND*%
X43000000Y-119960000D03*
%TO.P,J1,4,Pin_4*%
X40460000Y-119960000D03*
%TO.P,J1,5,Pin_5*%
%TO.N,/D0*%
X43000000Y-117420000D03*
%TO.P,J1,6,Pin_6*%
%TO.N,/D4*%
X40460000Y-117420000D03*
%TO.P,J1,7,Pin_7*%
%TO.N,/D1*%
X43000000Y-114880000D03*
%TO.P,J1,8,Pin_8*%
%TO.N,/D5*%
X40460000Y-114880000D03*
%TO.P,J1,9,Pin_9*%
%TO.N,/D2*%
X43000000Y-112340000D03*
%TO.P,J1,10,Pin_10*%
%TO.N,/D6*%
X40460000Y-112340000D03*
%TO.P,J1,11,Pin_11*%
%TO.N,/D3*%
X43000000Y-109800000D03*
%TO.P,J1,12,Pin_12*%
%TO.N,/D7*%
X40460000Y-109800000D03*
%TO.P,J1,13,Pin_13*%
%TO.N,unconnected-(J1-Pad13)*%
X43000000Y-107260000D03*
%TO.P,J1,14,Pin_14*%
%TO.N,unconnected-(J1-Pad14)*%
X40460000Y-107260000D03*
%TO.P,J1,15,Pin_15*%
%TO.N,+5V*%
X43000000Y-104720000D03*
%TO.P,J1,16,Pin_16*%
%TO.N,unconnected-(J1-Pad16)*%
X40460000Y-104720000D03*
%TO.P,J1,17,Pin_17*%
%TO.N,unconnected-(J1-Pad17)*%
X43000000Y-102180000D03*
%TO.P,J1,18,Pin_18*%
%TO.N,unconnected-(J1-Pad18)*%
X40460000Y-102180000D03*
%TO.P,J1,19,Pin_19*%
%TO.N,+3V3*%
X43000000Y-99640000D03*
%TO.P,J1,20,Pin_20*%
X40460000Y-99640000D03*
%TO.P,J1,21,Pin_21*%
%TO.N,GND*%
X43000000Y-97100000D03*
%TO.P,J1,22,Pin_22*%
X40460000Y-97100000D03*
%TO.P,J1,23,Pin_23*%
%TO.N,/RST*%
X43000000Y-94560000D03*
%TO.P,J1,24,Pin_24*%
%TO.N,/CLKOUT*%
X40460000Y-94560000D03*
%TO.P,J1,25,Pin_25*%
%TO.N,/REFCLK*%
X43000000Y-92020000D03*
%TO.P,J1,26,Pin_26*%
%TO.N,/NXT*%
X40460000Y-92020000D03*
%TO.P,J1,27,Pin_27*%
%TO.N,unconnected-(J1-Pad27)*%
X43000000Y-89480000D03*
%TO.P,J1,28,Pin_28*%
%TO.N,/DIR*%
X40460000Y-89480000D03*
%TO.P,J1,29,Pin_29*%
%TO.N,/USR_LED*%
X43000000Y-86940000D03*
%TO.P,J1,30,Pin_30*%
%TO.N,/STP*%
X40460000Y-86940000D03*
%TD*%
D16*
%TO.P,JP1,1,A*%
%TO.N,Net-(JP1-Pad1)*%
X49500000Y-98500000D03*
D17*
%TO.P,JP1,2,B*%
%TO.N,/REFCLK*%
X48050000Y-98500000D03*
%TD*%
D16*
%TO.P,JP2,1,A*%
%TO.N,VBUS*%
X48850000Y-87000000D03*
D17*
%TO.P,JP2,2,B*%
%TO.N,+5V*%
X47400000Y-87000000D03*
%TD*%
D18*
%TO.N,GND*%
X54200000Y-109750000D03*
X55100000Y-108875000D03*
X57975000Y-106975000D03*
%TO.N,+3V3*%
X56120000Y-110375000D03*
%TO.N,+1V8*%
X55539459Y-105968020D03*
X56795000Y-114725000D03*
%TO.N,GND*%
X54270000Y-115375000D03*
X54895000Y-110350000D03*
%TO.N,+3V3*%
X54600000Y-101750000D03*
X52900000Y-108650000D03*
X56200000Y-85100000D03*
X59550000Y-101850000D03*
%TO.N,/RST*%
X49200000Y-101400000D03*
X55789749Y-104624500D03*
D19*
%TO.N,/STP*%
X55500000Y-107000000D03*
D18*
%TO.N,/DIR*%
X55293979Y-107875591D03*
%TO.N,/NXT*%
X54100000Y-108550000D03*
X44650000Y-98500000D03*
D19*
%TO.N,/CLKOUT*%
X49200000Y-107900000D03*
%TO.N,/D4*%
X48000000Y-108500000D03*
%TO.N,/D5*%
X47000000Y-108500000D03*
%TO.N,/D6*%
X46000000Y-108500000D03*
D18*
%TO.N,GND*%
X57150000Y-102450000D03*
X47700000Y-96500000D03*
X45000000Y-105000000D03*
X52450000Y-88700000D03*
X50700000Y-95200000D03*
X57300000Y-99000000D03*
X49750000Y-93750000D03*
X58300000Y-113200000D03*
X47700000Y-91100000D03*
X52400000Y-95450000D03*
X51900000Y-99900000D03*
X49700000Y-90750000D03*
X53900000Y-99900000D03*
X46000000Y-93000000D03*
X52050000Y-113025000D03*
X47200000Y-88900000D03*
X56400000Y-102350000D03*
X52900000Y-99850000D03*
X56950000Y-101750000D03*
X46100000Y-119100000D03*
X48600000Y-100200000D03*
X56800000Y-105700000D03*
X51500000Y-87400000D03*
X51760000Y-91580000D03*
X52000000Y-98100000D03*
%TO.N,Net-(JP1-Pad1)*%
X56750000Y-104450000D03*
%TO.N,VBUS*%
X50400000Y-87600000D03*
%TO.N,Net-(R2-Pad1)*%
X49250000Y-89600000D03*
X55400000Y-101350000D03*
%TO.N,+5V*%
X46000000Y-87200000D03*
%TD*%
D20*
%TO.N,/RST*%
X50800000Y-101400000D02*
X52300000Y-102900000D01*
X54065249Y-102900000D02*
X55789749Y-104624500D01*
X49200000Y-101400000D02*
X50800000Y-101400000D01*
X52300000Y-102900000D02*
X54065249Y-102900000D01*
%TO.N,/REFCLK*%
X45870000Y-92020000D02*
X43000000Y-92020000D01*
X47000000Y-97450000D02*
X47000000Y-93150000D01*
X48050000Y-98500000D02*
X47000000Y-97450000D01*
X47000000Y-93150000D02*
X45870000Y-92020000D01*
%TO.N,/STP*%
X40460000Y-86940000D02*
X41850489Y-88330489D01*
X49750000Y-103100000D02*
X49750000Y-106000000D01*
X50950000Y-107200000D02*
X55300000Y-107200000D01*
X42523856Y-93410489D02*
X43510489Y-93410489D01*
X55300000Y-107200000D02*
X55500000Y-107000000D01*
X41850489Y-88330489D02*
X41850489Y-92737122D01*
X46600480Y-99950480D02*
X49750000Y-103100000D01*
X43510489Y-93410489D02*
X46600480Y-96500480D01*
X49750000Y-106000000D02*
X50950000Y-107200000D01*
X41850489Y-92737122D02*
X42523856Y-93410489D01*
X46600480Y-96500480D02*
X46600480Y-99950480D01*
%TO.N,/DIR*%
X45450000Y-102265006D02*
X45450000Y-97800000D01*
X41609511Y-93659511D02*
X41150000Y-93200000D01*
X45450000Y-97800000D02*
X43359511Y-95709511D01*
X41150000Y-93200000D02*
X40014345Y-93200000D01*
X39250000Y-90690000D02*
X40460000Y-89480000D01*
X51060585Y-107875591D02*
X45450000Y-102265006D01*
X43359511Y-95709511D02*
X42009511Y-95709511D01*
X42009511Y-95709511D02*
X41609511Y-95309511D01*
X39250000Y-92435655D02*
X39250000Y-90690000D01*
X41609511Y-95309511D02*
X41609511Y-93659511D01*
X40014345Y-93200000D02*
X39250000Y-92435655D01*
X55293979Y-107875591D02*
X51060585Y-107875591D01*
%TO.N,/NXT*%
X54100000Y-108550000D02*
X53400489Y-109249511D01*
X51869499Y-109249511D02*
X44650000Y-102030012D01*
X44650000Y-102030012D02*
X44650000Y-99900000D01*
X53400489Y-109249511D02*
X51869499Y-109249511D01*
X44650000Y-99900000D02*
X44650000Y-98500000D01*
D21*
%TO.N,/CLKOUT*%
X44174511Y-102274511D02*
X44174511Y-101693501D01*
X39285489Y-100126499D02*
X39285489Y-95734511D01*
X49200000Y-107300000D02*
X44174511Y-102274511D01*
X43481010Y-101000000D02*
X40158990Y-101000000D01*
X40158990Y-101000000D02*
X39285489Y-100126499D01*
X39285489Y-95734511D02*
X40460000Y-94560000D01*
X44174511Y-101693501D02*
X43481010Y-101000000D01*
X49200000Y-107900000D02*
X49200000Y-107300000D01*
%TO.N,/D4*%
X48000000Y-111541010D02*
X43486499Y-116054511D01*
X48000000Y-108500000D02*
X48000000Y-111541010D01*
X41825489Y-116054511D02*
X40460000Y-117420000D01*
X43486499Y-116054511D02*
X41825489Y-116054511D01*
%TO.N,/D5*%
X47000000Y-108500000D02*
X47000000Y-110191988D01*
X47000000Y-110191988D02*
X43486499Y-113705489D01*
X43486499Y-113705489D02*
X41634511Y-113705489D01*
X41634511Y-113705489D02*
X40460000Y-114880000D01*
%TO.N,/D6*%
X41800000Y-111000000D02*
X40460000Y-112340000D01*
X46000000Y-108500000D02*
X43500000Y-111000000D01*
X43500000Y-111000000D02*
X41800000Y-111000000D01*
%TO.N,Net-(JP1-Pad1)*%
X56750000Y-104450000D02*
X55424511Y-103124511D01*
X53525009Y-101575009D02*
X52126808Y-101575008D01*
X55424511Y-103124511D02*
X55074511Y-103124511D01*
X52126808Y-101575008D02*
X49500000Y-98948200D01*
X55074511Y-103124511D02*
X53525009Y-101575009D01*
X49500000Y-98948200D02*
X49500000Y-98500000D01*
D22*
%TO.N,VBUS*%
X49450000Y-87600000D02*
X48850000Y-87000000D01*
X50400000Y-87600000D02*
X49450000Y-87600000D01*
D20*
%TO.N,Net-(R2-Pad1)*%
X55400000Y-101350000D02*
X55200489Y-101150489D01*
X50800000Y-96450000D02*
X49000000Y-94650000D01*
X49000000Y-90550000D02*
X49250000Y-90300000D01*
X50800000Y-99647838D02*
X50800000Y-96450000D01*
X55200489Y-101150489D02*
X52302651Y-101150489D01*
X49250000Y-90300000D02*
X49250000Y-89600000D01*
X52302651Y-101150489D02*
X50800000Y-99647838D01*
X49000000Y-94650000D02*
X49000000Y-90550000D01*
D22*
%TO.N,+5V*%
X47400000Y-87000000D02*
X46200000Y-87000000D01*
X46200000Y-87000000D02*
X46000000Y-87200000D01*
%TD*%
%TA.AperFunction,Conductor*%
%TO.N,GND*%
G36*
X58988227Y-84202518D02*
G01*
X58999642Y-84205143D01*
X59010517Y-84202682D01*
X59021664Y-84202702D01*
X59021664Y-84202863D01*
X59031669Y-84202076D01*
X59103759Y-84206801D01*
X59228475Y-84214975D01*
X59241302Y-84216663D01*
X59459516Y-84260068D01*
X59472016Y-84263418D01*
X59682691Y-84334933D01*
X59694653Y-84339889D01*
X59776954Y-84380475D01*
X59894180Y-84438284D01*
X59905386Y-84444753D01*
X60090385Y-84568365D01*
X60100639Y-84576233D01*
X60264819Y-84720216D01*
X60267914Y-84722930D01*
X60277069Y-84732085D01*
X60423767Y-84899361D01*
X60431635Y-84909615D01*
X60555247Y-85094614D01*
X60561716Y-85105820D01*
X60660111Y-85305346D01*
X60665067Y-85317308D01*
X60720585Y-85480857D01*
X60736581Y-85527980D01*
X60739932Y-85540484D01*
X60752123Y-85601770D01*
X60783336Y-85758691D01*
X60785025Y-85771523D01*
X60797891Y-85967816D01*
X60797101Y-85977628D01*
X60797375Y-85977628D01*
X60797355Y-85988778D01*
X60794857Y-85999642D01*
X60797317Y-86010514D01*
X60797317Y-86010516D01*
X60797559Y-86011583D01*
X60800000Y-86033432D01*
X60800000Y-122966040D01*
X60797482Y-122988227D01*
X60794857Y-122999642D01*
X60797318Y-123010517D01*
X60797298Y-123021664D01*
X60797137Y-123021664D01*
X60797924Y-123031669D01*
X60785026Y-123228469D01*
X60783337Y-123241302D01*
X60746155Y-123428231D01*
X60739933Y-123459511D01*
X60736582Y-123472016D01*
X60665067Y-123682691D01*
X60660111Y-123694654D01*
X60561716Y-123894180D01*
X60555247Y-123905386D01*
X60431635Y-124090385D01*
X60423767Y-124100639D01*
X60291003Y-124252027D01*
X60277070Y-124267914D01*
X60267915Y-124277069D01*
X60100639Y-124423767D01*
X60090385Y-124431635D01*
X59905386Y-124555247D01*
X59894180Y-124561716D01*
X59715697Y-124649734D01*
X59694654Y-124660111D01*
X59682692Y-124665067D01*
X59472016Y-124736582D01*
X59459516Y-124739932D01*
X59241302Y-124783337D01*
X59228477Y-124785025D01*
X59032181Y-124797891D01*
X59022372Y-124797101D01*
X59022372Y-124797375D01*
X59011222Y-124797355D01*
X59000358Y-124794857D01*
X58989486Y-124797317D01*
X58989484Y-124797317D01*
X58988417Y-124797559D01*
X58966568Y-124800000D01*
X40033960Y-124800000D01*
X40011773Y-124797482D01*
X40000358Y-124794857D01*
X39989483Y-124797318D01*
X39978336Y-124797298D01*
X39978336Y-124797137D01*
X39968331Y-124797924D01*
X39896241Y-124793199D01*
X39771525Y-124785025D01*
X39758698Y-124783337D01*
X39540484Y-124739932D01*
X39527984Y-124736582D01*
X39317308Y-124665067D01*
X39305346Y-124660111D01*
X39284304Y-124649734D01*
X39105820Y-124561716D01*
X39094614Y-124555247D01*
X38909615Y-124431635D01*
X38899361Y-124423767D01*
X38732085Y-124277069D01*
X38722930Y-124267914D01*
X38708997Y-124252027D01*
X38576233Y-124100639D01*
X38568365Y-124090385D01*
X38444753Y-123905386D01*
X38438284Y-123894180D01*
X38339889Y-123694654D01*
X38334933Y-123682691D01*
X38263418Y-123472016D01*
X38260067Y-123459511D01*
X38253845Y-123428231D01*
X38216663Y-123241302D01*
X38214974Y-123228470D01*
X38207350Y-123112138D01*
X38202109Y-123032181D01*
X38202899Y-123022372D01*
X38202625Y-123022372D01*
X38202645Y-123011222D01*
X38205143Y-123000358D01*
X38202683Y-122989486D01*
X38202683Y-122989484D01*
X38202441Y-122988417D01*
X38200000Y-122966568D01*
X38200000Y-120227014D01*
X39128043Y-120227014D01*
X39158807Y-120363524D01*
X39161231Y-120371258D01*
X39242183Y-120570620D01*
X39245840Y-120577860D01*
X39358266Y-120761322D01*
X39363056Y-120767867D01*
X39503935Y-120930502D01*
X39509729Y-120936176D01*
X39675292Y-121073629D01*
X39681921Y-121078270D01*
X39867713Y-121186838D01*
X39875008Y-121190334D01*
X40076038Y-121267099D01*
X40083808Y-121269357D01*
X40187991Y-121290553D01*
X40241244Y-121320682D01*
X40266618Y-121376359D01*
X40254419Y-121436316D01*
X40209309Y-121477652D01*
X40196206Y-121482538D01*
X40064572Y-121521280D01*
X40060288Y-121523519D01*
X40060287Y-121523520D01*
X40049428Y-121529197D01*
X39882002Y-121616726D01*
X39878231Y-121619758D01*
X39725220Y-121742781D01*
X39725217Y-121742783D01*
X39721447Y-121745815D01*
X39718333Y-121749526D01*
X39718332Y-121749527D01*
X39709585Y-121759952D01*
X39589024Y-121903630D01*
X39586689Y-121907878D01*
X39586688Y-121907879D01*
X39579955Y-121920126D01*
X39489776Y-122084162D01*
X39427484Y-122280532D01*
X39426944Y-122285344D01*
X39426944Y-122285345D01*
X39425865Y-122294970D01*
X39404520Y-122485262D01*
X39421759Y-122690553D01*
X39478544Y-122888586D01*
X39572712Y-123071818D01*
X39700677Y-123233270D01*
X39704357Y-123236402D01*
X39704359Y-123236404D01*
X39817017Y-123332283D01*
X39857564Y-123366791D01*
X39861787Y-123369151D01*
X39861791Y-123369154D01*
X39901342Y-123391258D01*
X40037398Y-123467297D01*
X40041996Y-123468791D01*
X40228724Y-123529463D01*
X40228726Y-123529464D01*
X40233329Y-123530959D01*
X40437894Y-123555351D01*
X40442716Y-123554980D01*
X40442719Y-123554980D01*
X40513259Y-123549552D01*
X40643300Y-123539546D01*
X40841725Y-123484145D01*
X40846038Y-123481966D01*
X40846044Y-123481964D01*
X41021289Y-123393441D01*
X41021291Y-123393440D01*
X41025610Y-123391258D01*
X41060943Y-123363653D01*
X41184135Y-123267406D01*
X41184139Y-123267402D01*
X41187951Y-123264424D01*
X41207904Y-123241309D01*
X41247313Y-123195651D01*
X41322564Y-123108472D01*
X41341231Y-123075613D01*
X41421934Y-122933550D01*
X41421935Y-122933547D01*
X41424323Y-122929344D01*
X41437882Y-122888586D01*
X41487824Y-122738454D01*
X41487824Y-122738452D01*
X41489351Y-122733863D01*
X41515171Y-122529474D01*
X41515583Y-122500000D01*
X41495480Y-122294970D01*
X41435935Y-122097749D01*
X41339218Y-121915849D01*
X41209011Y-121756200D01*
X41062639Y-121635110D01*
X41054002Y-121627965D01*
X41054000Y-121627964D01*
X41050275Y-121624882D01*
X40869055Y-121526897D01*
X40815038Y-121510176D01*
X40732061Y-121484490D01*
X40682063Y-121449220D01*
X40662346Y-121391299D01*
X40680439Y-121332850D01*
X40729432Y-121296199D01*
X40740752Y-121293081D01*
X40747202Y-121291710D01*
X40953304Y-121229876D01*
X40960852Y-121226918D01*
X41154087Y-121132253D01*
X41161046Y-121128104D01*
X41336231Y-121003148D01*
X41342412Y-120997924D01*
X41494831Y-120846035D01*
X41500088Y-120839858D01*
X41625651Y-120665119D01*
X41629823Y-120658176D01*
X41641990Y-120633557D01*
X41684723Y-120589767D01*
X41745033Y-120579458D01*
X41799885Y-120606568D01*
X41815153Y-120625694D01*
X41898266Y-120761322D01*
X41903056Y-120767867D01*
X42043935Y-120930502D01*
X42049729Y-120936176D01*
X42215292Y-121073629D01*
X42221921Y-121078270D01*
X42407713Y-121186838D01*
X42415008Y-121190334D01*
X42592246Y-121258014D01*
X42639863Y-121296436D01*
X42655802Y-121355509D01*
X42633975Y-121412668D01*
X42582719Y-121446082D01*
X42556929Y-121449500D01*
X42130252Y-121449500D01*
X42104005Y-121454721D01*
X42081334Y-121459230D01*
X42081332Y-121459231D01*
X42071769Y-121461133D01*
X42005448Y-121505448D01*
X41961133Y-121571769D01*
X41949500Y-121630252D01*
X41949500Y-123369748D01*
X41961133Y-123428231D01*
X42005448Y-123494552D01*
X42071769Y-123538867D01*
X42081332Y-123540769D01*
X42081334Y-123540770D01*
X42104005Y-123545279D01*
X42130252Y-123550500D01*
X43869748Y-123550500D01*
X43895995Y-123545279D01*
X43918666Y-123540770D01*
X43918668Y-123540769D01*
X43928231Y-123538867D01*
X43994552Y-123494552D01*
X44038867Y-123428231D01*
X44050500Y-123369748D01*
X44050500Y-121630252D01*
X44038867Y-121571769D01*
X43994552Y-121505448D01*
X43928231Y-121461133D01*
X43918668Y-121459231D01*
X43918666Y-121459230D01*
X43895995Y-121454721D01*
X43869748Y-121449500D01*
X43435758Y-121449500D01*
X43377567Y-121430593D01*
X43341603Y-121381093D01*
X43341603Y-121319907D01*
X43377567Y-121270407D01*
X43407309Y-121255676D01*
X43493304Y-121229876D01*
X43500852Y-121226918D01*
X43694087Y-121132253D01*
X43701046Y-121128104D01*
X43876231Y-121003148D01*
X43882412Y-120997924D01*
X44034831Y-120846035D01*
X44040088Y-120839858D01*
X44165651Y-120665119D01*
X44169823Y-120658176D01*
X44265164Y-120465268D01*
X44268144Y-120457744D01*
X44330701Y-120251843D01*
X44332410Y-120243938D01*
X44334304Y-120229547D01*
X44331873Y-120216431D01*
X44330571Y-120215195D01*
X44325290Y-120214000D01*
X39140790Y-120214000D01*
X39128460Y-120218006D01*
X39128043Y-120227014D01*
X38200000Y-120227014D01*
X38200000Y-109785262D01*
X39404520Y-109785262D01*
X39411949Y-109873735D01*
X39415820Y-109919823D01*
X39421759Y-109990553D01*
X39423092Y-109995201D01*
X39423092Y-109995202D01*
X39475443Y-110177770D01*
X39478544Y-110188586D01*
X39572712Y-110371818D01*
X39700677Y-110533270D01*
X39704357Y-110536402D01*
X39704359Y-110536404D01*
X39814671Y-110630286D01*
X39857564Y-110666791D01*
X39861787Y-110669151D01*
X39861791Y-110669154D01*
X39957671Y-110722739D01*
X40037398Y-110767297D01*
X40041996Y-110768791D01*
X40228724Y-110829463D01*
X40228726Y-110829464D01*
X40233329Y-110830959D01*
X40437894Y-110855351D01*
X40442716Y-110854980D01*
X40442719Y-110854980D01*
X40510541Y-110849761D01*
X40643300Y-110839546D01*
X40841725Y-110784145D01*
X40846038Y-110781966D01*
X40846044Y-110781964D01*
X41021289Y-110693441D01*
X41021291Y-110693440D01*
X41025610Y-110691258D01*
X41037571Y-110681913D01*
X41184135Y-110567406D01*
X41184139Y-110567402D01*
X41187951Y-110564424D01*
X41218759Y-110528733D01*
X41302081Y-110432202D01*
X41322564Y-110408472D01*
X41334561Y-110387354D01*
X41421934Y-110233550D01*
X41421935Y-110233547D01*
X41424323Y-110229344D01*
X41427174Y-110220776D01*
X41487824Y-110038454D01*
X41487824Y-110038452D01*
X41489351Y-110033863D01*
X41493717Y-109999307D01*
X41514823Y-109832228D01*
X41515171Y-109829474D01*
X41515583Y-109800000D01*
X41495480Y-109594970D01*
X41481604Y-109549009D01*
X41456357Y-109465391D01*
X41435935Y-109397749D01*
X41339218Y-109215849D01*
X41209011Y-109056200D01*
X41203009Y-109051235D01*
X41054002Y-108927965D01*
X41054000Y-108927964D01*
X41050275Y-108924882D01*
X40938123Y-108864242D01*
X40873309Y-108829197D01*
X40873308Y-108829197D01*
X40869055Y-108826897D01*
X40771976Y-108796846D01*
X40676875Y-108767407D01*
X40676871Y-108767406D01*
X40672254Y-108765977D01*
X40667446Y-108765472D01*
X40667443Y-108765471D01*
X40472185Y-108744949D01*
X40472183Y-108744949D01*
X40467369Y-108744443D01*
X40407354Y-108749905D01*
X40267022Y-108762675D01*
X40267017Y-108762676D01*
X40262203Y-108763114D01*
X40064572Y-108821280D01*
X40060288Y-108823519D01*
X40060287Y-108823520D01*
X40049428Y-108829197D01*
X39882002Y-108916726D01*
X39878231Y-108919758D01*
X39725220Y-109042781D01*
X39725217Y-109042783D01*
X39721447Y-109045815D01*
X39718333Y-109049526D01*
X39718332Y-109049527D01*
X39679743Y-109095516D01*
X39589024Y-109203630D01*
X39586689Y-109207878D01*
X39586688Y-109207879D01*
X39579955Y-109220126D01*
X39489776Y-109384162D01*
X39488313Y-109388775D01*
X39488311Y-109388779D01*
X39437205Y-109549887D01*
X39427484Y-109580532D01*
X39426944Y-109585344D01*
X39426944Y-109585345D01*
X39407442Y-109759214D01*
X39404520Y-109785262D01*
X38200000Y-109785262D01*
X38200000Y-107245262D01*
X39404520Y-107245262D01*
X39411676Y-107330484D01*
X39416914Y-107392851D01*
X39421759Y-107450553D01*
X39423092Y-107455201D01*
X39423092Y-107455202D01*
X39465517Y-107603154D01*
X39478544Y-107648586D01*
X39572712Y-107831818D01*
X39700677Y-107993270D01*
X39704357Y-107996402D01*
X39704359Y-107996404D01*
X39743040Y-108029324D01*
X39857564Y-108126791D01*
X39861787Y-108129151D01*
X39861791Y-108129154D01*
X39959557Y-108183793D01*
X40037398Y-108227297D01*
X40041996Y-108228791D01*
X40228724Y-108289463D01*
X40228726Y-108289464D01*
X40233329Y-108290959D01*
X40437894Y-108315351D01*
X40442716Y-108314980D01*
X40442719Y-108314980D01*
X40510541Y-108309761D01*
X40643300Y-108299546D01*
X40841725Y-108244145D01*
X40846038Y-108241966D01*
X40846044Y-108241964D01*
X41021289Y-108153441D01*
X41021291Y-108153440D01*
X41025610Y-108151258D01*
X41075307Y-108112431D01*
X41184135Y-108027406D01*
X41184139Y-108027402D01*
X41187951Y-108024424D01*
X41226802Y-107979415D01*
X41282440Y-107914956D01*
X41322564Y-107868472D01*
X41341231Y-107835613D01*
X41421934Y-107693550D01*
X41421935Y-107693547D01*
X41424323Y-107689344D01*
X41437882Y-107648586D01*
X41487824Y-107498454D01*
X41487824Y-107498452D01*
X41489351Y-107493863D01*
X41491499Y-107476865D01*
X41514823Y-107292228D01*
X41515171Y-107289474D01*
X41515583Y-107260000D01*
X41514138Y-107245262D01*
X41944520Y-107245262D01*
X41951676Y-107330484D01*
X41956914Y-107392851D01*
X41961759Y-107450553D01*
X41963092Y-107455201D01*
X41963092Y-107455202D01*
X42005517Y-107603154D01*
X42018544Y-107648586D01*
X42112712Y-107831818D01*
X42240677Y-107993270D01*
X42244357Y-107996402D01*
X42244359Y-107996404D01*
X42283040Y-108029324D01*
X42397564Y-108126791D01*
X42401787Y-108129151D01*
X42401791Y-108129154D01*
X42499557Y-108183793D01*
X42577398Y-108227297D01*
X42581996Y-108228791D01*
X42768724Y-108289463D01*
X42768726Y-108289464D01*
X42773329Y-108290959D01*
X42977894Y-108315351D01*
X42982716Y-108314980D01*
X42982719Y-108314980D01*
X43050541Y-108309761D01*
X43183300Y-108299546D01*
X43381725Y-108244145D01*
X43386038Y-108241966D01*
X43386044Y-108241964D01*
X43561289Y-108153441D01*
X43561291Y-108153440D01*
X43565610Y-108151258D01*
X43615307Y-108112431D01*
X43724135Y-108027406D01*
X43724139Y-108027402D01*
X43727951Y-108024424D01*
X43766802Y-107979415D01*
X43822440Y-107914956D01*
X43862564Y-107868472D01*
X43881231Y-107835613D01*
X43961934Y-107693550D01*
X43961935Y-107693547D01*
X43964323Y-107689344D01*
X43977882Y-107648586D01*
X44027824Y-107498454D01*
X44027824Y-107498452D01*
X44029351Y-107493863D01*
X44031499Y-107476865D01*
X44054823Y-107292228D01*
X44055171Y-107289474D01*
X44055583Y-107260000D01*
X44035480Y-107054970D01*
X44018884Y-107000000D01*
X43977333Y-106862380D01*
X43975935Y-106857749D01*
X43879218Y-106675849D01*
X43749011Y-106516200D01*
X43732790Y-106502781D01*
X43594002Y-106387965D01*
X43594000Y-106387964D01*
X43590275Y-106384882D01*
X43409055Y-106286897D01*
X43345855Y-106267333D01*
X43216875Y-106227407D01*
X43216871Y-106227406D01*
X43212254Y-106225977D01*
X43207446Y-106225472D01*
X43207443Y-106225471D01*
X43012185Y-106204949D01*
X43012183Y-106204949D01*
X43007369Y-106204443D01*
X42947354Y-106209905D01*
X42807022Y-106222675D01*
X42807017Y-106222676D01*
X42802203Y-106223114D01*
X42604572Y-106281280D01*
X42600288Y-106283519D01*
X42600287Y-106283520D01*
X42589428Y-106289197D01*
X42422002Y-106376726D01*
X42418231Y-106379758D01*
X42265220Y-106502781D01*
X42265217Y-106502783D01*
X42261447Y-106505815D01*
X42258333Y-106509526D01*
X42258332Y-106509527D01*
X42201824Y-106576871D01*
X42129024Y-106663630D01*
X42126689Y-106667878D01*
X42126688Y-106667879D01*
X42119955Y-106680126D01*
X42029776Y-106844162D01*
X42028313Y-106848775D01*
X42028311Y-106848779D01*
X42012222Y-106899500D01*
X41967484Y-107040532D01*
X41966944Y-107045344D01*
X41966944Y-107045345D01*
X41955169Y-107150326D01*
X41944520Y-107245262D01*
X41514138Y-107245262D01*
X41495480Y-107054970D01*
X41478884Y-107000000D01*
X41437333Y-106862380D01*
X41435935Y-106857749D01*
X41339218Y-106675849D01*
X41209011Y-106516200D01*
X41192790Y-106502781D01*
X41054002Y-106387965D01*
X41054000Y-106387964D01*
X41050275Y-106384882D01*
X40869055Y-106286897D01*
X40805855Y-106267333D01*
X40676875Y-106227407D01*
X40676871Y-106227406D01*
X40672254Y-106225977D01*
X40667446Y-106225472D01*
X40667443Y-106225471D01*
X40472185Y-106204949D01*
X40472183Y-106204949D01*
X40467369Y-106204443D01*
X40407354Y-106209905D01*
X40267022Y-106222675D01*
X40267017Y-106222676D01*
X40262203Y-106223114D01*
X40064572Y-106281280D01*
X40060288Y-106283519D01*
X40060287Y-106283520D01*
X40049428Y-106289197D01*
X39882002Y-106376726D01*
X39878231Y-106379758D01*
X39725220Y-106502781D01*
X39725217Y-106502783D01*
X39721447Y-106505815D01*
X39718333Y-106509526D01*
X39718332Y-106509527D01*
X39661824Y-106576871D01*
X39589024Y-106663630D01*
X39586689Y-106667878D01*
X39586688Y-106667879D01*
X39579955Y-106680126D01*
X39489776Y-106844162D01*
X39488313Y-106848775D01*
X39488311Y-106848779D01*
X39472222Y-106899500D01*
X39427484Y-107040532D01*
X39426944Y-107045344D01*
X39426944Y-107045345D01*
X39415169Y-107150326D01*
X39404520Y-107245262D01*
X38200000Y-107245262D01*
X38200000Y-104705262D01*
X39404520Y-104705262D01*
X39406829Y-104732754D01*
X39415363Y-104834381D01*
X39421759Y-104910553D01*
X39423092Y-104915201D01*
X39423092Y-104915202D01*
X39472802Y-105088560D01*
X39478544Y-105108586D01*
X39572712Y-105291818D01*
X39700677Y-105453270D01*
X39704357Y-105456402D01*
X39704359Y-105456404D01*
X39797986Y-105536086D01*
X39857564Y-105586791D01*
X39861787Y-105589151D01*
X39861791Y-105589154D01*
X39901342Y-105611258D01*
X40037398Y-105687297D01*
X40041996Y-105688791D01*
X40228724Y-105749463D01*
X40228726Y-105749464D01*
X40233329Y-105750959D01*
X40437894Y-105775351D01*
X40442716Y-105774980D01*
X40442719Y-105774980D01*
X40510541Y-105769761D01*
X40643300Y-105759546D01*
X40841725Y-105704145D01*
X40846038Y-105701966D01*
X40846044Y-105701964D01*
X41021289Y-105613441D01*
X41021291Y-105613440D01*
X41025610Y-105611258D01*
X41061843Y-105582950D01*
X41184135Y-105487406D01*
X41184139Y-105487402D01*
X41187951Y-105484424D01*
X41200446Y-105469949D01*
X41247313Y-105415651D01*
X41322564Y-105328472D01*
X41326254Y-105321977D01*
X41421934Y-105153550D01*
X41421935Y-105153547D01*
X41424323Y-105149344D01*
X41437882Y-105108586D01*
X41487824Y-104958454D01*
X41487824Y-104958452D01*
X41489351Y-104953863D01*
X41496522Y-104897102D01*
X41514823Y-104752228D01*
X41515171Y-104749474D01*
X41515583Y-104720000D01*
X41514138Y-104705262D01*
X41944520Y-104705262D01*
X41946829Y-104732754D01*
X41955363Y-104834381D01*
X41961759Y-104910553D01*
X41963092Y-104915201D01*
X41963092Y-104915202D01*
X42012802Y-105088560D01*
X42018544Y-105108586D01*
X42112712Y-105291818D01*
X42240677Y-105453270D01*
X42244357Y-105456402D01*
X42244359Y-105456404D01*
X42337986Y-105536086D01*
X42397564Y-105586791D01*
X42401787Y-105589151D01*
X42401791Y-105589154D01*
X42441342Y-105611258D01*
X42577398Y-105687297D01*
X42581996Y-105688791D01*
X42768724Y-105749463D01*
X42768726Y-105749464D01*
X42773329Y-105750959D01*
X42977894Y-105775351D01*
X42982716Y-105774980D01*
X42982719Y-105774980D01*
X43050541Y-105769761D01*
X43183300Y-105759546D01*
X43381725Y-105704145D01*
X43386038Y-105701966D01*
X43386044Y-105701964D01*
X43561289Y-105613441D01*
X43561291Y-105613440D01*
X43565610Y-105611258D01*
X43601843Y-105582950D01*
X43724135Y-105487406D01*
X43724139Y-105487402D01*
X43727951Y-105484424D01*
X43740446Y-105469949D01*
X43787313Y-105415651D01*
X43862564Y-105328472D01*
X43866254Y-105321977D01*
X43961934Y-105153550D01*
X43961935Y-105153547D01*
X43964323Y-105149344D01*
X43977882Y-105108586D01*
X44027824Y-104958454D01*
X44027824Y-104958452D01*
X44029351Y-104953863D01*
X44036522Y-104897102D01*
X44054823Y-104752228D01*
X44055171Y-104749474D01*
X44055583Y-104720000D01*
X44051550Y-104678866D01*
X44035952Y-104519780D01*
X44035951Y-104519776D01*
X44035480Y-104514970D01*
X44026760Y-104486086D01*
X43977333Y-104322380D01*
X43975935Y-104317749D01*
X43879218Y-104135849D01*
X43749011Y-103976200D01*
X43724386Y-103955828D01*
X43594002Y-103847965D01*
X43594000Y-103847964D01*
X43590275Y-103844882D01*
X43409055Y-103746897D01*
X43327156Y-103721545D01*
X43216875Y-103687407D01*
X43216871Y-103687406D01*
X43212254Y-103685977D01*
X43207446Y-103685472D01*
X43207443Y-103685471D01*
X43012185Y-103664949D01*
X43012183Y-103664949D01*
X43007369Y-103664443D01*
X42947354Y-103669905D01*
X42807022Y-103682675D01*
X42807017Y-103682676D01*
X42802203Y-103683114D01*
X42604572Y-103741280D01*
X42600288Y-103743519D01*
X42600287Y-103743520D01*
X42589428Y-103749197D01*
X42422002Y-103836726D01*
X42418231Y-103839758D01*
X42265220Y-103962781D01*
X42265217Y-103962783D01*
X42261447Y-103965815D01*
X42258333Y-103969526D01*
X42258332Y-103969527D01*
X42242023Y-103988964D01*
X42129024Y-104123630D01*
X42126689Y-104127878D01*
X42126688Y-104127879D01*
X42119955Y-104140126D01*
X42029776Y-104304162D01*
X42028313Y-104308775D01*
X42028311Y-104308779D01*
X42026317Y-104315066D01*
X41967484Y-104500532D01*
X41966944Y-104505344D01*
X41966944Y-104505345D01*
X41945836Y-104693532D01*
X41944520Y-104705262D01*
X41514138Y-104705262D01*
X41511550Y-104678866D01*
X41495952Y-104519780D01*
X41495951Y-104519776D01*
X41495480Y-104514970D01*
X41486760Y-104486086D01*
X41437333Y-104322380D01*
X41435935Y-104317749D01*
X41339218Y-104135849D01*
X41209011Y-103976200D01*
X41184386Y-103955828D01*
X41054002Y-103847965D01*
X41054000Y-103847964D01*
X41050275Y-103844882D01*
X40869055Y-103746897D01*
X40787156Y-103721545D01*
X40676875Y-103687407D01*
X40676871Y-103687406D01*
X40672254Y-103685977D01*
X40667446Y-103685472D01*
X40667443Y-103685471D01*
X40472185Y-103664949D01*
X40472183Y-103664949D01*
X40467369Y-103664443D01*
X40407354Y-103669905D01*
X40267022Y-103682675D01*
X40267017Y-103682676D01*
X40262203Y-103683114D01*
X40064572Y-103741280D01*
X40060288Y-103743519D01*
X40060287Y-103743520D01*
X40049428Y-103749197D01*
X39882002Y-103836726D01*
X39878231Y-103839758D01*
X39725220Y-103962781D01*
X39725217Y-103962783D01*
X39721447Y-103965815D01*
X39718333Y-103969526D01*
X39718332Y-103969527D01*
X39702023Y-103988964D01*
X39589024Y-104123630D01*
X39586689Y-104127878D01*
X39586688Y-104127879D01*
X39579955Y-104140126D01*
X39489776Y-104304162D01*
X39488313Y-104308775D01*
X39488311Y-104308779D01*
X39486317Y-104315066D01*
X39427484Y-104500532D01*
X39426944Y-104505344D01*
X39426944Y-104505345D01*
X39405836Y-104693532D01*
X39404520Y-104705262D01*
X38200000Y-104705262D01*
X38200000Y-90675066D01*
X38944660Y-90675066D01*
X38948596Y-90703987D01*
X38949500Y-90717337D01*
X38949500Y-92382147D01*
X38949197Y-92386272D01*
X38947575Y-92390997D01*
X38947918Y-92400131D01*
X38949430Y-92440416D01*
X38949500Y-92444129D01*
X38949500Y-92463603D01*
X38950325Y-92468033D01*
X38950661Y-92473226D01*
X38951774Y-92502863D01*
X38955380Y-92511257D01*
X38955381Y-92511260D01*
X38956317Y-92513438D01*
X38962683Y-92534389D01*
X38964791Y-92545708D01*
X38969588Y-92553490D01*
X38978768Y-92568383D01*
X38985451Y-92581250D01*
X38995964Y-92605718D01*
X38999978Y-92610604D01*
X39004342Y-92614968D01*
X39018613Y-92633023D01*
X39023532Y-92641003D01*
X39046769Y-92658673D01*
X39056839Y-92667465D01*
X39764025Y-93374651D01*
X39766725Y-93377780D01*
X39768920Y-93382269D01*
X39775623Y-93388487D01*
X39805167Y-93415893D01*
X39807843Y-93418469D01*
X39821622Y-93432248D01*
X39825332Y-93434793D01*
X39829245Y-93438229D01*
X39850991Y-93458401D01*
X39859479Y-93461788D01*
X39859480Y-93461788D01*
X39861681Y-93462666D01*
X39880997Y-93472980D01*
X39882952Y-93474321D01*
X39882955Y-93474322D01*
X39890491Y-93479492D01*
X39899384Y-93481602D01*
X39904332Y-93483795D01*
X39949874Y-93524656D01*
X39962701Y-93584482D01*
X39937913Y-93640421D01*
X39910091Y-93662041D01*
X39886295Y-93674481D01*
X39886290Y-93674484D01*
X39882002Y-93676726D01*
X39878231Y-93679758D01*
X39725220Y-93802781D01*
X39725217Y-93802783D01*
X39721447Y-93805815D01*
X39589024Y-93963630D01*
X39489776Y-94144162D01*
X39427484Y-94340532D01*
X39426944Y-94345344D01*
X39426944Y-94345345D01*
X39411300Y-94484819D01*
X39404520Y-94545262D01*
X39407399Y-94579549D01*
X39417998Y-94705760D01*
X39421759Y-94750553D01*
X39423092Y-94755201D01*
X39423092Y-94755202D01*
X39456873Y-94873009D01*
X39478544Y-94948586D01*
X39480759Y-94952896D01*
X39480761Y-94952901D01*
X39490539Y-94971927D01*
X39500322Y-95032325D01*
X39472491Y-95087182D01*
X39068439Y-95491235D01*
X39062071Y-95497070D01*
X39038932Y-95516486D01*
X39038929Y-95516489D01*
X39032295Y-95522056D01*
X39019542Y-95544145D01*
X39012862Y-95555716D01*
X39008221Y-95563000D01*
X38985935Y-95594827D01*
X38983693Y-95603195D01*
X38981227Y-95608482D01*
X38979231Y-95613967D01*
X38974901Y-95621466D01*
X38973398Y-95629992D01*
X38973397Y-95629994D01*
X38968155Y-95659727D01*
X38966285Y-95668161D01*
X38956225Y-95705704D01*
X38956980Y-95714333D01*
X38959612Y-95744416D01*
X38959989Y-95753045D01*
X38959989Y-100107965D01*
X38959612Y-100116594D01*
X38956225Y-100155306D01*
X38958467Y-100163673D01*
X38966285Y-100192848D01*
X38968155Y-100201283D01*
X38970682Y-100215613D01*
X38974901Y-100239544D01*
X38979231Y-100247043D01*
X38981227Y-100252528D01*
X38983693Y-100257815D01*
X38985935Y-100266183D01*
X39006502Y-100295555D01*
X39008221Y-100298010D01*
X39012860Y-100305291D01*
X39032295Y-100338954D01*
X39062060Y-100363930D01*
X39068428Y-100369764D01*
X39866834Y-101168170D01*
X39894611Y-101222687D01*
X39885040Y-101283119D01*
X39858864Y-101315328D01*
X39725226Y-101422776D01*
X39725222Y-101422779D01*
X39721447Y-101425815D01*
X39718333Y-101429526D01*
X39718332Y-101429527D01*
X39679275Y-101476074D01*
X39589024Y-101583630D01*
X39586689Y-101587878D01*
X39586688Y-101587879D01*
X39579955Y-101600126D01*
X39489776Y-101764162D01*
X39488313Y-101768775D01*
X39488311Y-101768779D01*
X39453562Y-101878324D01*
X39427484Y-101960532D01*
X39426944Y-101965344D01*
X39426944Y-101965345D01*
X39407047Y-102142737D01*
X39404520Y-102165262D01*
X39408464Y-102212228D01*
X39420182Y-102351770D01*
X39421759Y-102370553D01*
X39478544Y-102568586D01*
X39572712Y-102751818D01*
X39700677Y-102913270D01*
X39704357Y-102916402D01*
X39704359Y-102916404D01*
X39790772Y-102989947D01*
X39857564Y-103046791D01*
X39861787Y-103049151D01*
X39861791Y-103049154D01*
X39940914Y-103093374D01*
X40037398Y-103147297D01*
X40041996Y-103148791D01*
X40228724Y-103209463D01*
X40228726Y-103209464D01*
X40233329Y-103210959D01*
X40437894Y-103235351D01*
X40442716Y-103234980D01*
X40442719Y-103234980D01*
X40513987Y-103229496D01*
X40643300Y-103219546D01*
X40841725Y-103164145D01*
X40846038Y-103161966D01*
X40846044Y-103161964D01*
X41021289Y-103073441D01*
X41021291Y-103073440D01*
X41025610Y-103071258D01*
X41030032Y-103067803D01*
X41184135Y-102947406D01*
X41184139Y-102947402D01*
X41187951Y-102944424D01*
X41194914Y-102936358D01*
X41269693Y-102849724D01*
X41322564Y-102788472D01*
X41341231Y-102755613D01*
X41421934Y-102613550D01*
X41421935Y-102613547D01*
X41424323Y-102609344D01*
X41433888Y-102580593D01*
X41487824Y-102418454D01*
X41487824Y-102418452D01*
X41489351Y-102413863D01*
X41497212Y-102351641D01*
X41512470Y-102230857D01*
X41515171Y-102209474D01*
X41515583Y-102180000D01*
X41513667Y-102160454D01*
X41495952Y-101979780D01*
X41495951Y-101979776D01*
X41495480Y-101974970D01*
X41483575Y-101935537D01*
X41458904Y-101853826D01*
X41435935Y-101777749D01*
X41339218Y-101595849D01*
X41250500Y-101487070D01*
X41228374Y-101430026D01*
X41244004Y-101370871D01*
X41291419Y-101332200D01*
X41327220Y-101325500D01*
X42133315Y-101325500D01*
X42191506Y-101344407D01*
X42227470Y-101393907D01*
X42227470Y-101455093D01*
X42209153Y-101488136D01*
X42129024Y-101583630D01*
X42126689Y-101587878D01*
X42126688Y-101587879D01*
X42119955Y-101600126D01*
X42029776Y-101764162D01*
X42028313Y-101768775D01*
X42028311Y-101768779D01*
X41993562Y-101878324D01*
X41967484Y-101960532D01*
X41966944Y-101965344D01*
X41966944Y-101965345D01*
X41947047Y-102142737D01*
X41944520Y-102165262D01*
X41948464Y-102212228D01*
X41960182Y-102351770D01*
X41961759Y-102370553D01*
X42018544Y-102568586D01*
X42112712Y-102751818D01*
X42240677Y-102913270D01*
X42244357Y-102916402D01*
X42244359Y-102916404D01*
X42330772Y-102989947D01*
X42397564Y-103046791D01*
X42401787Y-103049151D01*
X42401791Y-103049154D01*
X42480914Y-103093374D01*
X42577398Y-103147297D01*
X42581996Y-103148791D01*
X42768724Y-103209463D01*
X42768726Y-103209464D01*
X42773329Y-103210959D01*
X42977894Y-103235351D01*
X42982716Y-103234980D01*
X42982719Y-103234980D01*
X43053987Y-103229496D01*
X43183300Y-103219546D01*
X43381725Y-103164145D01*
X43386038Y-103161966D01*
X43386044Y-103161964D01*
X43561289Y-103073441D01*
X43561291Y-103073440D01*
X43565610Y-103071258D01*
X43570032Y-103067803D01*
X43724135Y-102947406D01*
X43724139Y-102947402D01*
X43727951Y-102944424D01*
X43734914Y-102936358D01*
X43809693Y-102849724D01*
X43862564Y-102788472D01*
X43883387Y-102751818D01*
X43930815Y-102668329D01*
X43975998Y-102627071D01*
X44036802Y-102620251D01*
X44086899Y-102647225D01*
X48772150Y-107332476D01*
X48799927Y-107386993D01*
X48790356Y-107447425D01*
X48773952Y-107470004D01*
X48771718Y-107471718D01*
X48675464Y-107597159D01*
X48614956Y-107743238D01*
X48594318Y-107900000D01*
X48595165Y-107906434D01*
X48607768Y-108002167D01*
X48596618Y-108062328D01*
X48552235Y-108104445D01*
X48491573Y-108112431D01*
X48437803Y-108083236D01*
X48433133Y-108077768D01*
X48432236Y-108076871D01*
X48428282Y-108071718D01*
X48302841Y-107975464D01*
X48156762Y-107914956D01*
X48000000Y-107894318D01*
X47843238Y-107914956D01*
X47697159Y-107975464D01*
X47571718Y-108071718D01*
X47569148Y-108075067D01*
X47515487Y-108102408D01*
X47455055Y-108092837D01*
X47431174Y-108075487D01*
X47428282Y-108071718D01*
X47302841Y-107975464D01*
X47156762Y-107914956D01*
X47000000Y-107894318D01*
X46843238Y-107914956D01*
X46697159Y-107975464D01*
X46571718Y-108071718D01*
X46569148Y-108075067D01*
X46515487Y-108102408D01*
X46455055Y-108092837D01*
X46431174Y-108075487D01*
X46428282Y-108071718D01*
X46302841Y-107975464D01*
X46156762Y-107914956D01*
X46000000Y-107894318D01*
X45843238Y-107914956D01*
X45697159Y-107975464D01*
X45571718Y-108071718D01*
X45475464Y-108197159D01*
X45414956Y-108343238D01*
X45394318Y-108500000D01*
X45404856Y-108580042D01*
X45393706Y-108640201D01*
X45376707Y-108662967D01*
X44220116Y-109819558D01*
X44165599Y-109847335D01*
X44105167Y-109837764D01*
X44061902Y-109794499D01*
X44051584Y-109759214D01*
X44035952Y-109599781D01*
X44035951Y-109599778D01*
X44035480Y-109594970D01*
X44021604Y-109549009D01*
X43996357Y-109465391D01*
X43975935Y-109397749D01*
X43879218Y-109215849D01*
X43749011Y-109056200D01*
X43743009Y-109051235D01*
X43594002Y-108927965D01*
X43594000Y-108927964D01*
X43590275Y-108924882D01*
X43478123Y-108864242D01*
X43413309Y-108829197D01*
X43413308Y-108829197D01*
X43409055Y-108826897D01*
X43311976Y-108796846D01*
X43216875Y-108767407D01*
X43216871Y-108767406D01*
X43212254Y-108765977D01*
X43207446Y-108765472D01*
X43207443Y-108765471D01*
X43012185Y-108744949D01*
X43012183Y-108744949D01*
X43007369Y-108744443D01*
X42947354Y-108749905D01*
X42807022Y-108762675D01*
X42807017Y-108762676D01*
X42802203Y-108763114D01*
X42604572Y-108821280D01*
X42600288Y-108823519D01*
X42600287Y-108823520D01*
X42589428Y-108829197D01*
X42422002Y-108916726D01*
X42418231Y-108919758D01*
X42265220Y-109042781D01*
X42265217Y-109042783D01*
X42261447Y-109045815D01*
X42258333Y-109049526D01*
X42258332Y-109049527D01*
X42219743Y-109095516D01*
X42129024Y-109203630D01*
X42126689Y-109207878D01*
X42126688Y-109207879D01*
X42119955Y-109220126D01*
X42029776Y-109384162D01*
X42028313Y-109388775D01*
X42028311Y-109388779D01*
X41977205Y-109549887D01*
X41967484Y-109580532D01*
X41966944Y-109585344D01*
X41966944Y-109585345D01*
X41947442Y-109759214D01*
X41944520Y-109785262D01*
X41951949Y-109873735D01*
X41955820Y-109919823D01*
X41961759Y-109990553D01*
X41963092Y-109995201D01*
X41963092Y-109995202D01*
X42015443Y-110177770D01*
X42018544Y-110188586D01*
X42112712Y-110371818D01*
X42223010Y-110510979D01*
X42225409Y-110514006D01*
X42246736Y-110571354D01*
X42230282Y-110630286D01*
X42182332Y-110668291D01*
X42147823Y-110674500D01*
X41818526Y-110674500D01*
X41809898Y-110674123D01*
X41806576Y-110673832D01*
X41771193Y-110670737D01*
X41762830Y-110672978D01*
X41762827Y-110672978D01*
X41733656Y-110680794D01*
X41725229Y-110682663D01*
X41686955Y-110689412D01*
X41679454Y-110693743D01*
X41673960Y-110695742D01*
X41668678Y-110698205D01*
X41660316Y-110700446D01*
X41653223Y-110705413D01*
X41653222Y-110705413D01*
X41628478Y-110722739D01*
X41621219Y-110727364D01*
X41587545Y-110746806D01*
X41581975Y-110753444D01*
X41562574Y-110776565D01*
X41556740Y-110782933D01*
X40988554Y-111351119D01*
X40934037Y-111378896D01*
X40878479Y-111369395D01*
X40877773Y-111371075D01*
X40873319Y-111369202D01*
X40869055Y-111366897D01*
X40858146Y-111363520D01*
X40676875Y-111307407D01*
X40676871Y-111307406D01*
X40672254Y-111305977D01*
X40667446Y-111305472D01*
X40667443Y-111305471D01*
X40472185Y-111284949D01*
X40472183Y-111284949D01*
X40467369Y-111284443D01*
X40407354Y-111289905D01*
X40267022Y-111302675D01*
X40267017Y-111302676D01*
X40262203Y-111303114D01*
X40064572Y-111361280D01*
X40060288Y-111363519D01*
X40060287Y-111363520D01*
X40045836Y-111371075D01*
X39882002Y-111456726D01*
X39878231Y-111459758D01*
X39725220Y-111582781D01*
X39725217Y-111582783D01*
X39721447Y-111585815D01*
X39718333Y-111589526D01*
X39718332Y-111589527D01*
X39664187Y-111654055D01*
X39589024Y-111743630D01*
X39586689Y-111747878D01*
X39586688Y-111747879D01*
X39580557Y-111759031D01*
X39489776Y-111924162D01*
X39427484Y-112120532D01*
X39426944Y-112125344D01*
X39426944Y-112125345D01*
X39425865Y-112134970D01*
X39404520Y-112325262D01*
X39421759Y-112530553D01*
X39478544Y-112728586D01*
X39572712Y-112911818D01*
X39700677Y-113073270D01*
X39704357Y-113076402D01*
X39704359Y-113076404D01*
X39817017Y-113172283D01*
X39857564Y-113206791D01*
X39861787Y-113209151D01*
X39861791Y-113209154D01*
X39978702Y-113274493D01*
X40037398Y-113307297D01*
X40041996Y-113308791D01*
X40228724Y-113369463D01*
X40228726Y-113369464D01*
X40233329Y-113370959D01*
X40437894Y-113395351D01*
X40442716Y-113394980D01*
X40442719Y-113394980D01*
X40510541Y-113389761D01*
X40643300Y-113379546D01*
X40841725Y-113324145D01*
X40846038Y-113321966D01*
X40846044Y-113321964D01*
X41021289Y-113233441D01*
X41021291Y-113233440D01*
X41025610Y-113231258D01*
X41060943Y-113203653D01*
X41184135Y-113107406D01*
X41184139Y-113107402D01*
X41187951Y-113104424D01*
X41322564Y-112948472D01*
X41341231Y-112915613D01*
X41421934Y-112773550D01*
X41421935Y-112773547D01*
X41424323Y-112769344D01*
X41437882Y-112728586D01*
X41487824Y-112578454D01*
X41487824Y-112578452D01*
X41489351Y-112573863D01*
X41515171Y-112369474D01*
X41515583Y-112340000D01*
X41495480Y-112134970D01*
X41435935Y-111937749D01*
X41430974Y-111928418D01*
X41420353Y-111868162D01*
X41448385Y-111811942D01*
X41905831Y-111354496D01*
X41960348Y-111326719D01*
X41975835Y-111325500D01*
X42304087Y-111325500D01*
X42362278Y-111344407D01*
X42398242Y-111393907D01*
X42398242Y-111455093D01*
X42366121Y-111501654D01*
X42265226Y-111582776D01*
X42265222Y-111582779D01*
X42261447Y-111585815D01*
X42258333Y-111589526D01*
X42258332Y-111589527D01*
X42204187Y-111654055D01*
X42129024Y-111743630D01*
X42126689Y-111747878D01*
X42126688Y-111747879D01*
X42120557Y-111759031D01*
X42029776Y-111924162D01*
X41967484Y-112120532D01*
X41966944Y-112125344D01*
X41966944Y-112125345D01*
X41965865Y-112134970D01*
X41944520Y-112325262D01*
X41961759Y-112530553D01*
X42018544Y-112728586D01*
X42112712Y-112911818D01*
X42240677Y-113073270D01*
X42244357Y-113076402D01*
X42244359Y-113076404D01*
X42396161Y-113205597D01*
X42428221Y-113257710D01*
X42423527Y-113318715D01*
X42383872Y-113365310D01*
X42331997Y-113379989D01*
X41653034Y-113379989D01*
X41644405Y-113379612D01*
X41614333Y-113376981D01*
X41605704Y-113376226D01*
X41568168Y-113386284D01*
X41559742Y-113388152D01*
X41550549Y-113389773D01*
X41521466Y-113394901D01*
X41513961Y-113399234D01*
X41508484Y-113401227D01*
X41503193Y-113403694D01*
X41494827Y-113405936D01*
X41462995Y-113428225D01*
X41455717Y-113432861D01*
X41429555Y-113447965D01*
X41429553Y-113447966D01*
X41422056Y-113452295D01*
X41397085Y-113482054D01*
X41391251Y-113488422D01*
X40988554Y-113891119D01*
X40934037Y-113918896D01*
X40878479Y-113909395D01*
X40877773Y-113911075D01*
X40873319Y-113909202D01*
X40869055Y-113906897D01*
X40858146Y-113903520D01*
X40676875Y-113847407D01*
X40676871Y-113847406D01*
X40672254Y-113845977D01*
X40667446Y-113845472D01*
X40667443Y-113845471D01*
X40472185Y-113824949D01*
X40472183Y-113824949D01*
X40467369Y-113824443D01*
X40407354Y-113829905D01*
X40267022Y-113842675D01*
X40267017Y-113842676D01*
X40262203Y-113843114D01*
X40064572Y-113901280D01*
X40060288Y-113903519D01*
X40060287Y-113903520D01*
X40018054Y-113925599D01*
X39882002Y-113996726D01*
X39878231Y-113999758D01*
X39725220Y-114122781D01*
X39725217Y-114122783D01*
X39721447Y-114125815D01*
X39718333Y-114129526D01*
X39718332Y-114129527D01*
X39605976Y-114263428D01*
X39589024Y-114283630D01*
X39586689Y-114287878D01*
X39586688Y-114287879D01*
X39579955Y-114300126D01*
X39489776Y-114464162D01*
X39427484Y-114660532D01*
X39426944Y-114665344D01*
X39426944Y-114665345D01*
X39411425Y-114803705D01*
X39404520Y-114865262D01*
X39406751Y-114891826D01*
X39419386Y-115042291D01*
X39421759Y-115070553D01*
X39423092Y-115075201D01*
X39423092Y-115075202D01*
X39466022Y-115224915D01*
X39478544Y-115268586D01*
X39572712Y-115451818D01*
X39700677Y-115613270D01*
X39704357Y-115616402D01*
X39704359Y-115616404D01*
X39784721Y-115684797D01*
X39857564Y-115746791D01*
X39861787Y-115749151D01*
X39861791Y-115749154D01*
X39978702Y-115814493D01*
X40037398Y-115847297D01*
X40041996Y-115848791D01*
X40228724Y-115909463D01*
X40228726Y-115909464D01*
X40233329Y-115910959D01*
X40437894Y-115935351D01*
X40442716Y-115934980D01*
X40442719Y-115934980D01*
X40510541Y-115929761D01*
X40643300Y-115919546D01*
X40841725Y-115864145D01*
X40846038Y-115861966D01*
X40846044Y-115861964D01*
X41021289Y-115773441D01*
X41021291Y-115773440D01*
X41025610Y-115771258D01*
X41029427Y-115768276D01*
X41184135Y-115647406D01*
X41184139Y-115647402D01*
X41187951Y-115644424D01*
X41322564Y-115488472D01*
X41341231Y-115455613D01*
X41421934Y-115313550D01*
X41421935Y-115313547D01*
X41424323Y-115309344D01*
X41437882Y-115268586D01*
X41487824Y-115118454D01*
X41487824Y-115118452D01*
X41489351Y-115113863D01*
X41490363Y-115105857D01*
X41514823Y-114912228D01*
X41515171Y-114909474D01*
X41515583Y-114880000D01*
X41511562Y-114838990D01*
X41495952Y-114679780D01*
X41495951Y-114679776D01*
X41495480Y-114674970D01*
X41435935Y-114477749D01*
X41430974Y-114468418D01*
X41420353Y-114408162D01*
X41448385Y-114351942D01*
X41740342Y-114059985D01*
X41794859Y-114032208D01*
X41810346Y-114030989D01*
X42128709Y-114030989D01*
X42186900Y-114049896D01*
X42222864Y-114099396D01*
X42222864Y-114160582D01*
X42204547Y-114193625D01*
X42143830Y-114265985D01*
X42129024Y-114283630D01*
X42126689Y-114287878D01*
X42126688Y-114287879D01*
X42119955Y-114300126D01*
X42029776Y-114464162D01*
X41967484Y-114660532D01*
X41966944Y-114665344D01*
X41966944Y-114665345D01*
X41951425Y-114803705D01*
X41944520Y-114865262D01*
X41946751Y-114891826D01*
X41959386Y-115042291D01*
X41961759Y-115070553D01*
X41963092Y-115075201D01*
X41963092Y-115075202D01*
X42006022Y-115224915D01*
X42018544Y-115268586D01*
X42112712Y-115451818D01*
X42115720Y-115455613D01*
X42115724Y-115455619D01*
X42205206Y-115568518D01*
X42226533Y-115625866D01*
X42210079Y-115684797D01*
X42162128Y-115722802D01*
X42127620Y-115729011D01*
X41844023Y-115729011D01*
X41835394Y-115728634D01*
X41805311Y-115726002D01*
X41796682Y-115725247D01*
X41788315Y-115727489D01*
X41759140Y-115735307D01*
X41750705Y-115737177D01*
X41720972Y-115742419D01*
X41720970Y-115742420D01*
X41712444Y-115743923D01*
X41704945Y-115748253D01*
X41699460Y-115750249D01*
X41694173Y-115752715D01*
X41685805Y-115754957D01*
X41659408Y-115773441D01*
X41653978Y-115777243D01*
X41646697Y-115781882D01*
X41613034Y-115801317D01*
X41607467Y-115807952D01*
X41588058Y-115831082D01*
X41582224Y-115837450D01*
X40988556Y-116431118D01*
X40934039Y-116458895D01*
X40878480Y-116449404D01*
X40877777Y-116451076D01*
X40873315Y-116449200D01*
X40869055Y-116446897D01*
X40858146Y-116443520D01*
X40676875Y-116387407D01*
X40676871Y-116387406D01*
X40672254Y-116385977D01*
X40667446Y-116385472D01*
X40667443Y-116385471D01*
X40472185Y-116364949D01*
X40472183Y-116364949D01*
X40467369Y-116364443D01*
X40407354Y-116369905D01*
X40267022Y-116382675D01*
X40267017Y-116382676D01*
X40262203Y-116383114D01*
X40064572Y-116441280D01*
X40060288Y-116443519D01*
X40060287Y-116443520D01*
X40050918Y-116448418D01*
X39882002Y-116536726D01*
X39878231Y-116539758D01*
X39725220Y-116662781D01*
X39725217Y-116662783D01*
X39721447Y-116665815D01*
X39718333Y-116669526D01*
X39718332Y-116669527D01*
X39709585Y-116679952D01*
X39589024Y-116823630D01*
X39586689Y-116827878D01*
X39586688Y-116827879D01*
X39579955Y-116840126D01*
X39489776Y-117004162D01*
X39488313Y-117008775D01*
X39488311Y-117008779D01*
X39485466Y-117017749D01*
X39427484Y-117200532D01*
X39426944Y-117205344D01*
X39426944Y-117205345D01*
X39425865Y-117214970D01*
X39404520Y-117405262D01*
X39421759Y-117610553D01*
X39478544Y-117808586D01*
X39572712Y-117991818D01*
X39700677Y-118153270D01*
X39704357Y-118156402D01*
X39704359Y-118156404D01*
X39817017Y-118252283D01*
X39857564Y-118286791D01*
X39861787Y-118289151D01*
X39861791Y-118289154D01*
X39901342Y-118311258D01*
X40037398Y-118387297D01*
X40191944Y-118437512D01*
X40241444Y-118473476D01*
X40260351Y-118531667D01*
X40241444Y-118589858D01*
X40191944Y-118625822D01*
X40176327Y-118629528D01*
X40148226Y-118633828D01*
X40140341Y-118635707D01*
X39935807Y-118702558D01*
X39928350Y-118705693D01*
X39737479Y-118805054D01*
X39730627Y-118809369D01*
X39558544Y-118938573D01*
X39552491Y-118943947D01*
X39403830Y-119099513D01*
X39398727Y-119105814D01*
X39277466Y-119283575D01*
X39273468Y-119290613D01*
X39182871Y-119485790D01*
X39180073Y-119493394D01*
X39124056Y-119695384D01*
X39125756Y-119703462D01*
X39127566Y-119705098D01*
X39131792Y-119706000D01*
X44320779Y-119706000D01*
X44332730Y-119702117D01*
X44333058Y-119692462D01*
X44290946Y-119524809D01*
X44288333Y-119517133D01*
X44202534Y-119319807D01*
X44198701Y-119312660D01*
X44081826Y-119131997D01*
X44076880Y-119125575D01*
X43932065Y-118966426D01*
X43926139Y-118960899D01*
X43757269Y-118827534D01*
X43750525Y-118823054D01*
X43562141Y-118719060D01*
X43554749Y-118715738D01*
X43351920Y-118643912D01*
X43344081Y-118641841D01*
X43274589Y-118629463D01*
X43220616Y-118600644D01*
X43193890Y-118545605D01*
X43204619Y-118485367D01*
X43248706Y-118442941D01*
X43265327Y-118436644D01*
X43309867Y-118424208D01*
X43381725Y-118404145D01*
X43386038Y-118401966D01*
X43386044Y-118401964D01*
X43561289Y-118313441D01*
X43561291Y-118313440D01*
X43565610Y-118311258D01*
X43600943Y-118283653D01*
X43724135Y-118187406D01*
X43724139Y-118187402D01*
X43727951Y-118184424D01*
X43862564Y-118028472D01*
X43881231Y-117995613D01*
X43961934Y-117853550D01*
X43961935Y-117853547D01*
X43964323Y-117849344D01*
X43977882Y-117808586D01*
X44027824Y-117658454D01*
X44027824Y-117658452D01*
X44029351Y-117653863D01*
X44055171Y-117449474D01*
X44055583Y-117420000D01*
X44035480Y-117214970D01*
X43975935Y-117017749D01*
X43879218Y-116835849D01*
X43749011Y-116676200D01*
X43590275Y-116544882D01*
X43586020Y-116542581D01*
X43582003Y-116539872D01*
X43582852Y-116538613D01*
X43545084Y-116498952D01*
X43536993Y-116438304D01*
X43566095Y-116384483D01*
X43596492Y-116365637D01*
X43599544Y-116365099D01*
X43607047Y-116360767D01*
X43612532Y-116358771D01*
X43617815Y-116356307D01*
X43626183Y-116354065D01*
X43658010Y-116331779D01*
X43665294Y-116327138D01*
X43698954Y-116307705D01*
X43723930Y-116277940D01*
X43729764Y-116271572D01*
X45282513Y-114718823D01*
X56289391Y-114718823D01*
X56290306Y-114725820D01*
X56290306Y-114725821D01*
X56291814Y-114737354D01*
X56307980Y-114860979D01*
X56310821Y-114867435D01*
X56310821Y-114867436D01*
X56318586Y-114885082D01*
X56365720Y-114992203D01*
X56378792Y-115007754D01*
X56453431Y-115096549D01*
X56453434Y-115096551D01*
X56457970Y-115101948D01*
X56463841Y-115105856D01*
X56463842Y-115105857D01*
X56468654Y-115109060D01*
X56577313Y-115181390D01*
X56677920Y-115212821D01*
X56707425Y-115222039D01*
X56707426Y-115222039D01*
X56714157Y-115224142D01*
X56785828Y-115225456D01*
X56850445Y-115226641D01*
X56850447Y-115226641D01*
X56857499Y-115226770D01*
X56864302Y-115224915D01*
X56864304Y-115224915D01*
X56939503Y-115204413D01*
X56995817Y-115189060D01*
X57117991Y-115114045D01*
X57125403Y-115105857D01*
X57209468Y-115012982D01*
X57214200Y-115007754D01*
X57276710Y-114878733D01*
X57278166Y-114870082D01*
X57299862Y-114741124D01*
X57299862Y-114741120D01*
X57300496Y-114737354D01*
X57300647Y-114725000D01*
X57280323Y-114583082D01*
X57232431Y-114477749D01*
X57223905Y-114458996D01*
X57223904Y-114458995D01*
X57220984Y-114452572D01*
X57127400Y-114343963D01*
X57007095Y-114265985D01*
X56869739Y-114224907D01*
X56786497Y-114224398D01*
X56733427Y-114224074D01*
X56733426Y-114224074D01*
X56726376Y-114224031D01*
X56719599Y-114225968D01*
X56719598Y-114225968D01*
X56595309Y-114261490D01*
X56595307Y-114261491D01*
X56588529Y-114263428D01*
X56467280Y-114339930D01*
X56462613Y-114345214D01*
X56462611Y-114345216D01*
X56377044Y-114442103D01*
X56377042Y-114442105D01*
X56372377Y-114447388D01*
X56369381Y-114453770D01*
X56369380Y-114453771D01*
X56358122Y-114477749D01*
X56311447Y-114577163D01*
X56289391Y-114718823D01*
X45282513Y-114718823D01*
X48217061Y-111784275D01*
X48223430Y-111778439D01*
X48246560Y-111759031D01*
X48253194Y-111753465D01*
X48272636Y-111719791D01*
X48277261Y-111712532D01*
X48294587Y-111687788D01*
X48294587Y-111687787D01*
X48299554Y-111680694D01*
X48301795Y-111672332D01*
X48304258Y-111667050D01*
X48306257Y-111661556D01*
X48310588Y-111654055D01*
X48317337Y-111615781D01*
X48319206Y-111607354D01*
X48327022Y-111578183D01*
X48327022Y-111578180D01*
X48329263Y-111569817D01*
X48325877Y-111531113D01*
X48325500Y-111522485D01*
X48325500Y-110368823D01*
X55614391Y-110368823D01*
X55615306Y-110375820D01*
X55615306Y-110375821D01*
X55616814Y-110387354D01*
X55632980Y-110510979D01*
X55635821Y-110517435D01*
X55635821Y-110517436D01*
X55659546Y-110571354D01*
X55690720Y-110642203D01*
X55723159Y-110680794D01*
X55778431Y-110746549D01*
X55778434Y-110746551D01*
X55782970Y-110751948D01*
X55788841Y-110755856D01*
X55788842Y-110755857D01*
X55801143Y-110764045D01*
X55902313Y-110831390D01*
X56002920Y-110862821D01*
X56032425Y-110872039D01*
X56032426Y-110872039D01*
X56039157Y-110874142D01*
X56110828Y-110875456D01*
X56175445Y-110876641D01*
X56175447Y-110876641D01*
X56182499Y-110876770D01*
X56189302Y-110874915D01*
X56189304Y-110874915D01*
X56264503Y-110854413D01*
X56320817Y-110839060D01*
X56442991Y-110764045D01*
X56450403Y-110755857D01*
X56534468Y-110662982D01*
X56539200Y-110657754D01*
X56601710Y-110528733D01*
X56605875Y-110503982D01*
X56624862Y-110391124D01*
X56624862Y-110391120D01*
X56625496Y-110387354D01*
X56625647Y-110375000D01*
X56605323Y-110233082D01*
X56545984Y-110102572D01*
X56452400Y-109993963D01*
X56332095Y-109915985D01*
X56194739Y-109874907D01*
X56111497Y-109874398D01*
X56058427Y-109874074D01*
X56058426Y-109874074D01*
X56051376Y-109874031D01*
X56044599Y-109875968D01*
X56044598Y-109875968D01*
X55920309Y-109911490D01*
X55920307Y-109911491D01*
X55913529Y-109913428D01*
X55792280Y-109989930D01*
X55787613Y-109995214D01*
X55787611Y-109995216D01*
X55702044Y-110092103D01*
X55702042Y-110092105D01*
X55697377Y-110097388D01*
X55636447Y-110227163D01*
X55614391Y-110368823D01*
X48325500Y-110368823D01*
X48325500Y-109055970D01*
X48344407Y-108997779D01*
X48364233Y-108977428D01*
X48421073Y-108933814D01*
X48428282Y-108928282D01*
X48524536Y-108802841D01*
X48585044Y-108656762D01*
X48605682Y-108500000D01*
X48595227Y-108420585D01*
X48592232Y-108397833D01*
X48603382Y-108337672D01*
X48647765Y-108295555D01*
X48708427Y-108287569D01*
X48762197Y-108316764D01*
X48766867Y-108322232D01*
X48767764Y-108323129D01*
X48771718Y-108328282D01*
X48897159Y-108424536D01*
X49043238Y-108485044D01*
X49200000Y-108505682D01*
X49356762Y-108485044D01*
X49502841Y-108424536D01*
X49628282Y-108328282D01*
X49724536Y-108202841D01*
X49785044Y-108056762D01*
X49805682Y-107900000D01*
X49802014Y-107872138D01*
X49799883Y-107855949D01*
X49811033Y-107795789D01*
X49855416Y-107753672D01*
X49916078Y-107745686D01*
X49968040Y-107773024D01*
X51619183Y-109424167D01*
X51621880Y-109427292D01*
X51624074Y-109431780D01*
X51630776Y-109437997D01*
X51660307Y-109465391D01*
X51662983Y-109467967D01*
X51676775Y-109481759D01*
X51680486Y-109484304D01*
X51684405Y-109487745D01*
X51697113Y-109499533D01*
X51706145Y-109507912D01*
X51714633Y-109511298D01*
X51714636Y-109511300D01*
X51716837Y-109512178D01*
X51736153Y-109522492D01*
X51738108Y-109523833D01*
X51738110Y-109523834D01*
X51745645Y-109529003D01*
X51754533Y-109531112D01*
X51754535Y-109531113D01*
X51771557Y-109535152D01*
X51785383Y-109539525D01*
X51803631Y-109546805D01*
X51803633Y-109546805D01*
X51810121Y-109549394D01*
X51816414Y-109550011D01*
X51822583Y-109550011D01*
X51845442Y-109552686D01*
X51845672Y-109552741D01*
X51845674Y-109552741D01*
X51854565Y-109554851D01*
X51883487Y-109550915D01*
X51896836Y-109550011D01*
X53346981Y-109550011D01*
X53351106Y-109550314D01*
X53355831Y-109551936D01*
X53405250Y-109550081D01*
X53408963Y-109550011D01*
X53428437Y-109550011D01*
X53432867Y-109549186D01*
X53438060Y-109548850D01*
X53454091Y-109548248D01*
X53458564Y-109548080D01*
X53467697Y-109547737D01*
X53476091Y-109544131D01*
X53476094Y-109544130D01*
X53478272Y-109543194D01*
X53499223Y-109536828D01*
X53510542Y-109534720D01*
X53533218Y-109520743D01*
X53546085Y-109514059D01*
X53564131Y-109506306D01*
X53564132Y-109506305D01*
X53570552Y-109503547D01*
X53575438Y-109499533D01*
X53579802Y-109495169D01*
X53597857Y-109480898D01*
X53605837Y-109475979D01*
X53623507Y-109452742D01*
X53632299Y-109442672D01*
X53995959Y-109079012D01*
X54050476Y-109051235D01*
X54067774Y-109050033D01*
X54112090Y-109050846D01*
X54155446Y-109051641D01*
X54155448Y-109051641D01*
X54162499Y-109051770D01*
X54169302Y-109049915D01*
X54169304Y-109049915D01*
X54253284Y-109027019D01*
X54300817Y-109014060D01*
X54422991Y-108939045D01*
X54437894Y-108922581D01*
X54514468Y-108837982D01*
X54519200Y-108832754D01*
X54581710Y-108703733D01*
X54584695Y-108685994D01*
X54604862Y-108566124D01*
X54604862Y-108566120D01*
X54605496Y-108562354D01*
X54605647Y-108550000D01*
X54585323Y-108408082D01*
X54574372Y-108383996D01*
X54543487Y-108316066D01*
X54536614Y-108255268D01*
X54566790Y-108202042D01*
X54622488Y-108176718D01*
X54633609Y-108176091D01*
X54846576Y-108176091D01*
X54904767Y-108194998D01*
X54922359Y-108211389D01*
X54952410Y-108247140D01*
X54952413Y-108247142D01*
X54956949Y-108252539D01*
X54962820Y-108256447D01*
X54962821Y-108256448D01*
X54980668Y-108268328D01*
X55076292Y-108331981D01*
X55176899Y-108363412D01*
X55206404Y-108372630D01*
X55206405Y-108372630D01*
X55213136Y-108374733D01*
X55284807Y-108376047D01*
X55349424Y-108377232D01*
X55349426Y-108377232D01*
X55356478Y-108377361D01*
X55363281Y-108375506D01*
X55363283Y-108375506D01*
X55458032Y-108349674D01*
X55494796Y-108339651D01*
X55616970Y-108264636D01*
X55624382Y-108256448D01*
X55708447Y-108163573D01*
X55713179Y-108158345D01*
X55775689Y-108029324D01*
X55785169Y-107972981D01*
X55798841Y-107891715D01*
X55798841Y-107891711D01*
X55799475Y-107887945D01*
X55799626Y-107875591D01*
X55779302Y-107733673D01*
X55776381Y-107727248D01*
X55745409Y-107659127D01*
X55738536Y-107598329D01*
X55768712Y-107545103D01*
X55791441Y-107530637D01*
X55791226Y-107530264D01*
X55796846Y-107527019D01*
X55802841Y-107524536D01*
X55928282Y-107428282D01*
X56024536Y-107302841D01*
X56085044Y-107156762D01*
X56105682Y-107000000D01*
X56085044Y-106843238D01*
X56024536Y-106697159D01*
X55928282Y-106571718D01*
X55857279Y-106517236D01*
X55822624Y-106466813D01*
X55824225Y-106405649D01*
X55854308Y-106362525D01*
X55856439Y-106360756D01*
X55862450Y-106357065D01*
X55958659Y-106250774D01*
X56021169Y-106121753D01*
X56025334Y-106097002D01*
X56044321Y-105984144D01*
X56044321Y-105984140D01*
X56044955Y-105980374D01*
X56045106Y-105968020D01*
X56024782Y-105826102D01*
X55979891Y-105727369D01*
X55968364Y-105702016D01*
X55968363Y-105702015D01*
X55965443Y-105695592D01*
X55890206Y-105608276D01*
X55876464Y-105592327D01*
X55876463Y-105592326D01*
X55871859Y-105586983D01*
X55751554Y-105509005D01*
X55614198Y-105467927D01*
X55530956Y-105467418D01*
X55477886Y-105467094D01*
X55477885Y-105467094D01*
X55470835Y-105467051D01*
X55464058Y-105468988D01*
X55464057Y-105468988D01*
X55339768Y-105504510D01*
X55339766Y-105504511D01*
X55332988Y-105506448D01*
X55211739Y-105582950D01*
X55207072Y-105588234D01*
X55207070Y-105588236D01*
X55121503Y-105685123D01*
X55121501Y-105685125D01*
X55116836Y-105690408D01*
X55113840Y-105696790D01*
X55113839Y-105696791D01*
X55101774Y-105722489D01*
X55055906Y-105820183D01*
X55054821Y-105827152D01*
X55054820Y-105827155D01*
X55045579Y-105886509D01*
X55033850Y-105961843D01*
X55034765Y-105968840D01*
X55034765Y-105968841D01*
X55036273Y-105980374D01*
X55052439Y-106103999D01*
X55055280Y-106110455D01*
X55055280Y-106110456D01*
X55106111Y-106225977D01*
X55110179Y-106235223D01*
X55155549Y-106289197D01*
X55200443Y-106342606D01*
X55223413Y-106399316D01*
X55208662Y-106458697D01*
X55184927Y-106484850D01*
X55071718Y-106571718D01*
X54975464Y-106697159D01*
X54972981Y-106703154D01*
X54916966Y-106838386D01*
X54877229Y-106884911D01*
X54825502Y-106899500D01*
X53449160Y-106899500D01*
X53390969Y-106880593D01*
X53355005Y-106831093D01*
X53355005Y-106769907D01*
X53374671Y-106735289D01*
X53376192Y-106733551D01*
X53371503Y-106725056D01*
X53061086Y-106414639D01*
X53049203Y-106408585D01*
X53044172Y-106409381D01*
X52729273Y-106724280D01*
X52723219Y-106736163D01*
X52723291Y-106736622D01*
X52747947Y-106785013D01*
X52738376Y-106845445D01*
X52695111Y-106888710D01*
X52650166Y-106899500D01*
X52399160Y-106899500D01*
X52340969Y-106880593D01*
X52305005Y-106831093D01*
X52305005Y-106769907D01*
X52324671Y-106735289D01*
X52326192Y-106733551D01*
X52321503Y-106725056D01*
X52011086Y-106414639D01*
X51999203Y-106408585D01*
X51994172Y-106409381D01*
X51679273Y-106724280D01*
X51673219Y-106736163D01*
X51673291Y-106736622D01*
X51697947Y-106785013D01*
X51688376Y-106845445D01*
X51645111Y-106888710D01*
X51600166Y-106899500D01*
X51349160Y-106899500D01*
X51290969Y-106880593D01*
X51255005Y-106831093D01*
X51255005Y-106769907D01*
X51274671Y-106735289D01*
X51276192Y-106733551D01*
X51271503Y-106725056D01*
X50597244Y-106050797D01*
X51308585Y-106050797D01*
X51309381Y-106055828D01*
X51463914Y-106210361D01*
X51475797Y-106216415D01*
X51480828Y-106215619D01*
X51635361Y-106061086D01*
X51640603Y-106050797D01*
X52358585Y-106050797D01*
X52359381Y-106055828D01*
X52513914Y-106210361D01*
X52525797Y-106216415D01*
X52530828Y-106215619D01*
X52685361Y-106061086D01*
X52690603Y-106050797D01*
X53408585Y-106050797D01*
X53409381Y-106055828D01*
X53723904Y-106370351D01*
X53734052Y-106375522D01*
X53739188Y-106370386D01*
X53786868Y-106244868D01*
X53789601Y-106234222D01*
X53812065Y-106074384D01*
X53812542Y-106068185D01*
X53812753Y-106053117D01*
X53812449Y-106046905D01*
X53794457Y-105886509D01*
X53792018Y-105875772D01*
X53740338Y-105727369D01*
X53734521Y-105722489D01*
X53726557Y-105726996D01*
X53414639Y-106038914D01*
X53408585Y-106050797D01*
X52690603Y-106050797D01*
X52691415Y-106049203D01*
X52690619Y-106044172D01*
X52536086Y-105889639D01*
X52524203Y-105883585D01*
X52519172Y-105884381D01*
X52364639Y-106038914D01*
X52358585Y-106050797D01*
X51640603Y-106050797D01*
X51641415Y-106049203D01*
X51640619Y-106044172D01*
X51486086Y-105889639D01*
X51474203Y-105883585D01*
X51469172Y-105884381D01*
X51314639Y-106038914D01*
X51308585Y-106050797D01*
X50597244Y-106050797D01*
X50275313Y-105728866D01*
X50265165Y-105723695D01*
X50260305Y-105728555D01*
X50242530Y-105777392D01*
X50204860Y-105825607D01*
X50146045Y-105842472D01*
X50088550Y-105821545D01*
X50054335Y-105770820D01*
X50050500Y-105743532D01*
X50050500Y-105525797D01*
X50783585Y-105525797D01*
X50784381Y-105530828D01*
X50938914Y-105685361D01*
X50950797Y-105691415D01*
X50955828Y-105690619D01*
X51110361Y-105536086D01*
X51115603Y-105525797D01*
X51833585Y-105525797D01*
X51834381Y-105530828D01*
X51988914Y-105685361D01*
X52000797Y-105691415D01*
X52005828Y-105690619D01*
X52160361Y-105536086D01*
X52165603Y-105525797D01*
X52883585Y-105525797D01*
X52884381Y-105530828D01*
X53038914Y-105685361D01*
X53050797Y-105691415D01*
X53055828Y-105690619D01*
X53210361Y-105536086D01*
X53216415Y-105524203D01*
X53215619Y-105519172D01*
X53061086Y-105364639D01*
X53049203Y-105358585D01*
X53044172Y-105359381D01*
X52889639Y-105513914D01*
X52883585Y-105525797D01*
X52165603Y-105525797D01*
X52166415Y-105524203D01*
X52165619Y-105519172D01*
X52011086Y-105364639D01*
X51999203Y-105358585D01*
X51994172Y-105359381D01*
X51839639Y-105513914D01*
X51833585Y-105525797D01*
X51115603Y-105525797D01*
X51116415Y-105524203D01*
X51115619Y-105519172D01*
X50961086Y-105364639D01*
X50949203Y-105358585D01*
X50944172Y-105359381D01*
X50789639Y-105513914D01*
X50783585Y-105525797D01*
X50050500Y-105525797D01*
X50050500Y-105308783D01*
X50069407Y-105250592D01*
X50118907Y-105214628D01*
X50180093Y-105214628D01*
X50229593Y-105250592D01*
X50243439Y-105277534D01*
X50255804Y-105314704D01*
X50258089Y-105319650D01*
X50266150Y-105326608D01*
X50274470Y-105321977D01*
X50585361Y-105011086D01*
X50590603Y-105000797D01*
X51308585Y-105000797D01*
X51309381Y-105005828D01*
X51463914Y-105160361D01*
X51475797Y-105166415D01*
X51480828Y-105165619D01*
X51635361Y-105011086D01*
X51640603Y-105000797D01*
X52358585Y-105000797D01*
X52359381Y-105005828D01*
X52513914Y-105160361D01*
X52525797Y-105166415D01*
X52530828Y-105165619D01*
X52685361Y-105011086D01*
X52690603Y-105000797D01*
X53408585Y-105000797D01*
X53409381Y-105005828D01*
X53723904Y-105320351D01*
X53734052Y-105325522D01*
X53739188Y-105320386D01*
X53786868Y-105194868D01*
X53789601Y-105184222D01*
X53812065Y-105024384D01*
X53812542Y-105018185D01*
X53812753Y-105003117D01*
X53812449Y-104996905D01*
X53794457Y-104836509D01*
X53792018Y-104825772D01*
X53740338Y-104677369D01*
X53734521Y-104672489D01*
X53726557Y-104676996D01*
X53414639Y-104988914D01*
X53408585Y-105000797D01*
X52690603Y-105000797D01*
X52691415Y-104999203D01*
X52690619Y-104994172D01*
X52536086Y-104839639D01*
X52524203Y-104833585D01*
X52519172Y-104834381D01*
X52364639Y-104988914D01*
X52358585Y-105000797D01*
X51640603Y-105000797D01*
X51641415Y-104999203D01*
X51640619Y-104994172D01*
X51486086Y-104839639D01*
X51474203Y-104833585D01*
X51469172Y-104834381D01*
X51314639Y-104988914D01*
X51308585Y-105000797D01*
X50590603Y-105000797D01*
X50591415Y-104999203D01*
X50590619Y-104994172D01*
X50275313Y-104678866D01*
X50265165Y-104673695D01*
X50260305Y-104678555D01*
X50242530Y-104727392D01*
X50204860Y-104775607D01*
X50146045Y-104792472D01*
X50088550Y-104771545D01*
X50054335Y-104720820D01*
X50050500Y-104693532D01*
X50050500Y-104475797D01*
X50783585Y-104475797D01*
X50784381Y-104480828D01*
X50938914Y-104635361D01*
X50950797Y-104641415D01*
X50955828Y-104640619D01*
X51110361Y-104486086D01*
X51115603Y-104475797D01*
X51833585Y-104475797D01*
X51834381Y-104480828D01*
X51988914Y-104635361D01*
X52000797Y-104641415D01*
X52005828Y-104640619D01*
X52160361Y-104486086D01*
X52165603Y-104475797D01*
X52883585Y-104475797D01*
X52884381Y-104480828D01*
X53038914Y-104635361D01*
X53050797Y-104641415D01*
X53055828Y-104640619D01*
X53210361Y-104486086D01*
X53216415Y-104474203D01*
X53215619Y-104469172D01*
X53061086Y-104314639D01*
X53049203Y-104308585D01*
X53044172Y-104309381D01*
X52889639Y-104463914D01*
X52883585Y-104475797D01*
X52165603Y-104475797D01*
X52166415Y-104474203D01*
X52165619Y-104469172D01*
X52011086Y-104314639D01*
X51999203Y-104308585D01*
X51994172Y-104309381D01*
X51839639Y-104463914D01*
X51833585Y-104475797D01*
X51115603Y-104475797D01*
X51116415Y-104474203D01*
X51115619Y-104469172D01*
X50961086Y-104314639D01*
X50949203Y-104308585D01*
X50944172Y-104309381D01*
X50789639Y-104463914D01*
X50783585Y-104475797D01*
X50050500Y-104475797D01*
X50050500Y-104258783D01*
X50069407Y-104200592D01*
X50118907Y-104164628D01*
X50180093Y-104164628D01*
X50229593Y-104200592D01*
X50243439Y-104227534D01*
X50255804Y-104264704D01*
X50258089Y-104269650D01*
X50266150Y-104276608D01*
X50274470Y-104271977D01*
X50585361Y-103961086D01*
X50590603Y-103950797D01*
X51308585Y-103950797D01*
X51309381Y-103955828D01*
X51463914Y-104110361D01*
X51475797Y-104116415D01*
X51480828Y-104115619D01*
X51635361Y-103961086D01*
X51640603Y-103950797D01*
X52358585Y-103950797D01*
X52359381Y-103955828D01*
X52513914Y-104110361D01*
X52525797Y-104116415D01*
X52530828Y-104115619D01*
X52685361Y-103961086D01*
X52690603Y-103950797D01*
X53408585Y-103950797D01*
X53409381Y-103955828D01*
X53723904Y-104270351D01*
X53734052Y-104275522D01*
X53739188Y-104270386D01*
X53786868Y-104144868D01*
X53789601Y-104134222D01*
X53812065Y-103974384D01*
X53812542Y-103968185D01*
X53812753Y-103953117D01*
X53812449Y-103946905D01*
X53794457Y-103786509D01*
X53792018Y-103775772D01*
X53740338Y-103627369D01*
X53734521Y-103622489D01*
X53726557Y-103626996D01*
X53414639Y-103938914D01*
X53408585Y-103950797D01*
X52690603Y-103950797D01*
X52691415Y-103949203D01*
X52690619Y-103944172D01*
X52536086Y-103789639D01*
X52524203Y-103783585D01*
X52519172Y-103784381D01*
X52364639Y-103938914D01*
X52358585Y-103950797D01*
X51640603Y-103950797D01*
X51641415Y-103949203D01*
X51640619Y-103944172D01*
X51486086Y-103789639D01*
X51474203Y-103783585D01*
X51469172Y-103784381D01*
X51314639Y-103938914D01*
X51308585Y-103950797D01*
X50590603Y-103950797D01*
X50591415Y-103949203D01*
X50590619Y-103944172D01*
X50275313Y-103628866D01*
X50265165Y-103623695D01*
X50260305Y-103628555D01*
X50242530Y-103677392D01*
X50204860Y-103725607D01*
X50146045Y-103742472D01*
X50088550Y-103721545D01*
X50054335Y-103670820D01*
X50050500Y-103643532D01*
X50050500Y-103265826D01*
X50622954Y-103265826D01*
X50627525Y-103273972D01*
X50938914Y-103585361D01*
X50950797Y-103591415D01*
X50955828Y-103590619D01*
X51271573Y-103274874D01*
X51276744Y-103264726D01*
X51272016Y-103259998D01*
X51129394Y-103209213D01*
X51118695Y-103206703D01*
X50960821Y-103187878D01*
X50949820Y-103187802D01*
X50791701Y-103204420D01*
X50780964Y-103206781D01*
X50630453Y-103258019D01*
X50629026Y-103258691D01*
X50622954Y-103265826D01*
X50050500Y-103265826D01*
X50050500Y-103153508D01*
X50050803Y-103149383D01*
X50052425Y-103144658D01*
X50050570Y-103095239D01*
X50050500Y-103091526D01*
X50050500Y-103072052D01*
X50049675Y-103067622D01*
X50049338Y-103062417D01*
X50048569Y-103041925D01*
X50048226Y-103032792D01*
X50044620Y-103024398D01*
X50044619Y-103024395D01*
X50043683Y-103022217D01*
X50037317Y-103001266D01*
X50035209Y-102989947D01*
X50021232Y-102967271D01*
X50014548Y-102954404D01*
X50006795Y-102936358D01*
X50006794Y-102936357D01*
X50004036Y-102929937D01*
X50000022Y-102925051D01*
X49995658Y-102920687D01*
X49981387Y-102902632D01*
X49981264Y-102902433D01*
X49976468Y-102894652D01*
X49953231Y-102876982D01*
X49943161Y-102868190D01*
X49144888Y-102069917D01*
X49117111Y-102015400D01*
X49126682Y-101954968D01*
X49169947Y-101911703D01*
X49216706Y-101900930D01*
X49240265Y-101901362D01*
X49255446Y-101901641D01*
X49255448Y-101901641D01*
X49262499Y-101901770D01*
X49269302Y-101899915D01*
X49269304Y-101899915D01*
X49345028Y-101879270D01*
X49400817Y-101864060D01*
X49522991Y-101789045D01*
X49564907Y-101742737D01*
X49573662Y-101733064D01*
X49626730Y-101702610D01*
X49647060Y-101700500D01*
X50634521Y-101700500D01*
X50692712Y-101719407D01*
X50704525Y-101729496D01*
X52000560Y-103025532D01*
X52028337Y-103080049D01*
X52018766Y-103140481D01*
X51975501Y-103183746D01*
X51940904Y-103193994D01*
X51841701Y-103204420D01*
X51830964Y-103206781D01*
X51680453Y-103258019D01*
X51679026Y-103258691D01*
X51672954Y-103265826D01*
X51677525Y-103273972D01*
X51988914Y-103585361D01*
X52000797Y-103591415D01*
X52005828Y-103590619D01*
X52321573Y-103274874D01*
X52331925Y-103254556D01*
X52375189Y-103211291D01*
X52420135Y-103200500D01*
X52628327Y-103200500D01*
X52686518Y-103219407D01*
X52714662Y-103251052D01*
X52727522Y-103273969D01*
X53038914Y-103585361D01*
X53050797Y-103591415D01*
X53055828Y-103590619D01*
X53371573Y-103274874D01*
X53381925Y-103254556D01*
X53425189Y-103211291D01*
X53470135Y-103200500D01*
X53899770Y-103200500D01*
X53957961Y-103219407D01*
X53969774Y-103229496D01*
X55258618Y-104518341D01*
X55286395Y-104572858D01*
X55286436Y-104603574D01*
X55286412Y-104603733D01*
X55284140Y-104618323D01*
X55302729Y-104760479D01*
X55305570Y-104766935D01*
X55305570Y-104766936D01*
X55335247Y-104834381D01*
X55360469Y-104891703D01*
X55406594Y-104946576D01*
X55448180Y-104996049D01*
X55448183Y-104996051D01*
X55452719Y-105001448D01*
X55458590Y-105005356D01*
X55458591Y-105005357D01*
X55467198Y-105011086D01*
X55572062Y-105080890D01*
X55645804Y-105103928D01*
X55702174Y-105121539D01*
X55702175Y-105121539D01*
X55708906Y-105123642D01*
X55780577Y-105124956D01*
X55845194Y-105126141D01*
X55845196Y-105126141D01*
X55852248Y-105126270D01*
X55859051Y-105124415D01*
X55859053Y-105124415D01*
X55934252Y-105103913D01*
X55990566Y-105088560D01*
X56112740Y-105013545D01*
X56120152Y-105005357D01*
X56204217Y-104912482D01*
X56208949Y-104907254D01*
X56219611Y-104885247D01*
X56241632Y-104839797D01*
X56284020Y-104795673D01*
X56344248Y-104784891D01*
X56399311Y-104811569D01*
X56406502Y-104819253D01*
X56412970Y-104826948D01*
X56418841Y-104830856D01*
X56418842Y-104830857D01*
X56436689Y-104842737D01*
X56532313Y-104906390D01*
X56632920Y-104937821D01*
X56662425Y-104947039D01*
X56662426Y-104947039D01*
X56669157Y-104949142D01*
X56740828Y-104950456D01*
X56805445Y-104951641D01*
X56805447Y-104951641D01*
X56812499Y-104951770D01*
X56819302Y-104949915D01*
X56819304Y-104949915D01*
X56894503Y-104929413D01*
X56950817Y-104914060D01*
X57072991Y-104839045D01*
X57080403Y-104830857D01*
X57164468Y-104737982D01*
X57169200Y-104732754D01*
X57231710Y-104603733D01*
X57236905Y-104572858D01*
X57254862Y-104466124D01*
X57254862Y-104466120D01*
X57255496Y-104462354D01*
X57255647Y-104450000D01*
X57235323Y-104308082D01*
X57175984Y-104177572D01*
X57082400Y-104068963D01*
X56962095Y-103990985D01*
X56824739Y-103949907D01*
X56802266Y-103949770D01*
X56750182Y-103949451D01*
X56692108Y-103930188D01*
X56680783Y-103920457D01*
X55667780Y-102907454D01*
X55661945Y-102901086D01*
X55651906Y-102889122D01*
X55636966Y-102871317D01*
X55603303Y-102851882D01*
X55596022Y-102847243D01*
X55593567Y-102845524D01*
X55564195Y-102824957D01*
X55555827Y-102822715D01*
X55550540Y-102820249D01*
X55545055Y-102818253D01*
X55537556Y-102813923D01*
X55529030Y-102812420D01*
X55529028Y-102812419D01*
X55499295Y-102807177D01*
X55490860Y-102805307D01*
X55461685Y-102797489D01*
X55453318Y-102795247D01*
X55444689Y-102796002D01*
X55414606Y-102798634D01*
X55405977Y-102799011D01*
X55250345Y-102799011D01*
X55192154Y-102780104D01*
X55180341Y-102770015D01*
X54779921Y-102369595D01*
X54752144Y-102315078D01*
X54761715Y-102254646D01*
X54801382Y-102214979D01*
X54800817Y-102214060D01*
X54922991Y-102139045D01*
X54934429Y-102126409D01*
X55014468Y-102037982D01*
X55019200Y-102032754D01*
X55069224Y-101929505D01*
X55078634Y-101910082D01*
X55081710Y-101903733D01*
X55083465Y-101893301D01*
X55084815Y-101890712D01*
X55085024Y-101890059D01*
X55085137Y-101890095D01*
X55111766Y-101839054D01*
X55166548Y-101811802D01*
X55210615Y-101815232D01*
X55312425Y-101847039D01*
X55312426Y-101847039D01*
X55319157Y-101849142D01*
X55390828Y-101850456D01*
X55455445Y-101851641D01*
X55455447Y-101851641D01*
X55462499Y-101851770D01*
X55469302Y-101849915D01*
X55469304Y-101849915D01*
X55491649Y-101843823D01*
X59044391Y-101843823D01*
X59045306Y-101850820D01*
X59045306Y-101850821D01*
X59053055Y-101910082D01*
X59062980Y-101985979D01*
X59065821Y-101992435D01*
X59065821Y-101992436D01*
X59115149Y-102104541D01*
X59120720Y-102117203D01*
X59157076Y-102160454D01*
X59208431Y-102221549D01*
X59208434Y-102221551D01*
X59212970Y-102226948D01*
X59218841Y-102230856D01*
X59218842Y-102230857D01*
X59231143Y-102239045D01*
X59332313Y-102306390D01*
X59432920Y-102337821D01*
X59462425Y-102347039D01*
X59462426Y-102347039D01*
X59469157Y-102349142D01*
X59540828Y-102350456D01*
X59605445Y-102351641D01*
X59605447Y-102351641D01*
X59612499Y-102351770D01*
X59619302Y-102349915D01*
X59619304Y-102349915D01*
X59694503Y-102329413D01*
X59750817Y-102314060D01*
X59872991Y-102239045D01*
X59880403Y-102230857D01*
X59964468Y-102137982D01*
X59969200Y-102132754D01*
X60015117Y-102037982D01*
X60028634Y-102010082D01*
X60031710Y-102003733D01*
X60035875Y-101978982D01*
X60054862Y-101866124D01*
X60054862Y-101866120D01*
X60055496Y-101862354D01*
X60055647Y-101850000D01*
X60035323Y-101708082D01*
X59975984Y-101577572D01*
X59912360Y-101503733D01*
X59887005Y-101474307D01*
X59887004Y-101474306D01*
X59882400Y-101468963D01*
X59762095Y-101390985D01*
X59624739Y-101349907D01*
X59541497Y-101349398D01*
X59488427Y-101349074D01*
X59488426Y-101349074D01*
X59481376Y-101349031D01*
X59474599Y-101350968D01*
X59474598Y-101350968D01*
X59350309Y-101386490D01*
X59350307Y-101386491D01*
X59343529Y-101388428D01*
X59222280Y-101464930D01*
X59217613Y-101470214D01*
X59217611Y-101470216D01*
X59132044Y-101567103D01*
X59132042Y-101567105D01*
X59127377Y-101572388D01*
X59066447Y-101702163D01*
X59065362Y-101709132D01*
X59065361Y-101709135D01*
X59053957Y-101782380D01*
X59044391Y-101843823D01*
X55491649Y-101843823D01*
X55548945Y-101828202D01*
X55600817Y-101814060D01*
X55722991Y-101739045D01*
X55819200Y-101632754D01*
X55881710Y-101503733D01*
X55884514Y-101487071D01*
X55904862Y-101366124D01*
X55904862Y-101366120D01*
X55905496Y-101362354D01*
X55905647Y-101350000D01*
X55885323Y-101208082D01*
X55855095Y-101141599D01*
X55828905Y-101083996D01*
X55828904Y-101083995D01*
X55825984Y-101077572D01*
X55732400Y-100968963D01*
X55612095Y-100890985D01*
X55474739Y-100849907D01*
X55391497Y-100849398D01*
X55338427Y-100849074D01*
X55338426Y-100849074D01*
X55331376Y-100849031D01*
X55324598Y-100850968D01*
X55324592Y-100850969D01*
X55318776Y-100852631D01*
X55268168Y-100853636D01*
X55266358Y-100853196D01*
X55259867Y-100850606D01*
X55253574Y-100849989D01*
X55247405Y-100849989D01*
X55224546Y-100847314D01*
X55224316Y-100847259D01*
X55224314Y-100847259D01*
X55215423Y-100845149D01*
X55186502Y-100849085D01*
X55173152Y-100849989D01*
X52468130Y-100849989D01*
X52409939Y-100831082D01*
X52398126Y-100820993D01*
X51129496Y-99552363D01*
X51101719Y-99497846D01*
X51100500Y-99482359D01*
X51100500Y-96688362D01*
X53048188Y-96688362D01*
X53079509Y-96794783D01*
X53083122Y-96803724D01*
X53170218Y-96970323D01*
X53175492Y-96978384D01*
X53293299Y-97124906D01*
X53300030Y-97131780D01*
X53444052Y-97252629D01*
X53452000Y-97258070D01*
X53616739Y-97348637D01*
X53625602Y-97352436D01*
X53804796Y-97409279D01*
X53814224Y-97411283D01*
X53960505Y-97427691D01*
X53966034Y-97428000D01*
X54300320Y-97428000D01*
X54313005Y-97423878D01*
X54316000Y-97419757D01*
X54316000Y-97412320D01*
X54824000Y-97412320D01*
X54828122Y-97425005D01*
X54832243Y-97428000D01*
X55167324Y-97428000D01*
X55172139Y-97427765D01*
X55311919Y-97414059D01*
X55321370Y-97412188D01*
X55501341Y-97357851D01*
X55510257Y-97354176D01*
X55676241Y-97265921D01*
X55684272Y-97260585D01*
X55829956Y-97141768D01*
X55836793Y-97134979D01*
X55956630Y-96990121D01*
X55962014Y-96982138D01*
X56051434Y-96816760D01*
X56055163Y-96807889D01*
X56091972Y-96688977D01*
X56091963Y-96688362D01*
X57478188Y-96688362D01*
X57509509Y-96794783D01*
X57513122Y-96803724D01*
X57600218Y-96970323D01*
X57605492Y-96978384D01*
X57723299Y-97124906D01*
X57730030Y-97131780D01*
X57874052Y-97252629D01*
X57882000Y-97258070D01*
X58046739Y-97348637D01*
X58055602Y-97352436D01*
X58234796Y-97409279D01*
X58244224Y-97411283D01*
X58390505Y-97427691D01*
X58396034Y-97428000D01*
X58480320Y-97428000D01*
X58493005Y-97423878D01*
X58496000Y-97419757D01*
X58496000Y-97412320D01*
X59004000Y-97412320D01*
X59008122Y-97425005D01*
X59012243Y-97428000D01*
X59097324Y-97428000D01*
X59102139Y-97427765D01*
X59241919Y-97414059D01*
X59251370Y-97412188D01*
X59431341Y-97357851D01*
X59440257Y-97354176D01*
X59606241Y-97265921D01*
X59614272Y-97260585D01*
X59759956Y-97141768D01*
X59766793Y-97134979D01*
X59886630Y-96990121D01*
X59892014Y-96982138D01*
X59981434Y-96816760D01*
X59985163Y-96807889D01*
X60021972Y-96688977D01*
X60021809Y-96677339D01*
X60011283Y-96674000D01*
X59019680Y-96674000D01*
X59006995Y-96678122D01*
X59004000Y-96682243D01*
X59004000Y-97412320D01*
X58496000Y-97412320D01*
X58496000Y-96689680D01*
X58491878Y-96676995D01*
X58487757Y-96674000D01*
X57489641Y-96674000D01*
X57478337Y-96677673D01*
X57478188Y-96688362D01*
X56091963Y-96688362D01*
X56091809Y-96677339D01*
X56081283Y-96674000D01*
X54839680Y-96674000D01*
X54826995Y-96678122D01*
X54824000Y-96682243D01*
X54824000Y-97412320D01*
X54316000Y-97412320D01*
X54316000Y-96689680D01*
X54311878Y-96676995D01*
X54307757Y-96674000D01*
X53059641Y-96674000D01*
X53048337Y-96677673D01*
X53048188Y-96688362D01*
X51100500Y-96688362D01*
X51100500Y-96503508D01*
X51100803Y-96499383D01*
X51102425Y-96494658D01*
X51100570Y-96445238D01*
X51100500Y-96441525D01*
X51100500Y-96422052D01*
X51099675Y-96417622D01*
X51099338Y-96412417D01*
X51098569Y-96391926D01*
X51098226Y-96382791D01*
X51093681Y-96372212D01*
X51087317Y-96351263D01*
X51086884Y-96348936D01*
X51086882Y-96348931D01*
X51085209Y-96339947D01*
X51071232Y-96317271D01*
X51064548Y-96304404D01*
X51056795Y-96286358D01*
X51056794Y-96286357D01*
X51054036Y-96279937D01*
X51050022Y-96275051D01*
X51045658Y-96270687D01*
X51031387Y-96252632D01*
X51031264Y-96252433D01*
X51026468Y-96244652D01*
X51003231Y-96226982D01*
X50993161Y-96218190D01*
X50925994Y-96151023D01*
X53048028Y-96151023D01*
X53048191Y-96162661D01*
X53058717Y-96166000D01*
X54300320Y-96166000D01*
X54313005Y-96161878D01*
X54316000Y-96157757D01*
X54316000Y-95427680D01*
X54311878Y-95414995D01*
X54307757Y-95412000D01*
X53972676Y-95412000D01*
X53967861Y-95412235D01*
X53828081Y-95425941D01*
X53818630Y-95427812D01*
X53638659Y-95482149D01*
X53629743Y-95485824D01*
X53463759Y-95574079D01*
X53455728Y-95579415D01*
X53310044Y-95698232D01*
X53303207Y-95705021D01*
X53183370Y-95849879D01*
X53177986Y-95857862D01*
X53088566Y-96023240D01*
X53084837Y-96032111D01*
X53048028Y-96151023D01*
X50925994Y-96151023D01*
X49764971Y-94990000D01*
X54519534Y-94990000D01*
X54539313Y-95140236D01*
X54541797Y-95146233D01*
X54594819Y-95274240D01*
X54594821Y-95274244D01*
X54597302Y-95280233D01*
X54601248Y-95285375D01*
X54601250Y-95285379D01*
X54664620Y-95367963D01*
X54689549Y-95400451D01*
X54694698Y-95404402D01*
X54694701Y-95404405D01*
X54785267Y-95473899D01*
X54819923Y-95524324D01*
X54824000Y-95552441D01*
X54824000Y-96150320D01*
X54828122Y-96163005D01*
X54832243Y-96166000D01*
X56080359Y-96166000D01*
X56091663Y-96162327D01*
X56091812Y-96151638D01*
X56091631Y-96151023D01*
X57478028Y-96151023D01*
X57478191Y-96162661D01*
X57488717Y-96166000D01*
X58480320Y-96166000D01*
X58493005Y-96161878D01*
X58496000Y-96157757D01*
X58496000Y-96150320D01*
X59004000Y-96150320D01*
X59008122Y-96163005D01*
X59012243Y-96166000D01*
X60010359Y-96166000D01*
X60021663Y-96162327D01*
X60021812Y-96151638D01*
X59990491Y-96045217D01*
X59986878Y-96036276D01*
X59899782Y-95869677D01*
X59894508Y-95861616D01*
X59776701Y-95715094D01*
X59769970Y-95708220D01*
X59625948Y-95587371D01*
X59618000Y-95581930D01*
X59453261Y-95491363D01*
X59444398Y-95487564D01*
X59265204Y-95430721D01*
X59255776Y-95428717D01*
X59109495Y-95412309D01*
X59103966Y-95412000D01*
X59019680Y-95412000D01*
X59006995Y-95416122D01*
X59004000Y-95420243D01*
X59004000Y-96150320D01*
X58496000Y-96150320D01*
X58496000Y-95427680D01*
X58491878Y-95414995D01*
X58487757Y-95412000D01*
X58402676Y-95412000D01*
X58397861Y-95412235D01*
X58258081Y-95425941D01*
X58248630Y-95427812D01*
X58068659Y-95482149D01*
X58059743Y-95485824D01*
X57893759Y-95574079D01*
X57885728Y-95579415D01*
X57740044Y-95698232D01*
X57733207Y-95705021D01*
X57613370Y-95849879D01*
X57607986Y-95857862D01*
X57518566Y-96023240D01*
X57514837Y-96032111D01*
X57478028Y-96151023D01*
X56091631Y-96151023D01*
X56060491Y-96045217D01*
X56056878Y-96036276D01*
X55969782Y-95869677D01*
X55964508Y-95861616D01*
X55846701Y-95715094D01*
X55839970Y-95708220D01*
X55695948Y-95587371D01*
X55688000Y-95581930D01*
X55566228Y-95514985D01*
X55524344Y-95470383D01*
X55516676Y-95409680D01*
X55535380Y-95367963D01*
X55598750Y-95285379D01*
X55598752Y-95285375D01*
X55602698Y-95280233D01*
X55605179Y-95274244D01*
X55605181Y-95274240D01*
X55658203Y-95146233D01*
X55660687Y-95140236D01*
X55680466Y-94990000D01*
X55660687Y-94839764D01*
X55630893Y-94767835D01*
X55605181Y-94705760D01*
X55605179Y-94705756D01*
X55602698Y-94699767D01*
X55598752Y-94694625D01*
X55598750Y-94694621D01*
X55514402Y-94584698D01*
X55510451Y-94579549D01*
X55505302Y-94575598D01*
X55395379Y-94491250D01*
X55395375Y-94491248D01*
X55390233Y-94487302D01*
X55384244Y-94484821D01*
X55384240Y-94484819D01*
X55256233Y-94431797D01*
X55250236Y-94429313D01*
X55137720Y-94414500D01*
X55062280Y-94414500D01*
X54949764Y-94429313D01*
X54943767Y-94431797D01*
X54815760Y-94484819D01*
X54815756Y-94484821D01*
X54809767Y-94487302D01*
X54804625Y-94491248D01*
X54804621Y-94491250D01*
X54694698Y-94575598D01*
X54689549Y-94579549D01*
X54685598Y-94584698D01*
X54601250Y-94694621D01*
X54601248Y-94694625D01*
X54597302Y-94699767D01*
X54594821Y-94705756D01*
X54594819Y-94705760D01*
X54569107Y-94767835D01*
X54539313Y-94839764D01*
X54519534Y-94990000D01*
X49764971Y-94990000D01*
X49329496Y-94554525D01*
X49301719Y-94500008D01*
X49300500Y-94484521D01*
X49300500Y-90715478D01*
X49319407Y-90657287D01*
X49329497Y-90645474D01*
X49369088Y-90605884D01*
X49424653Y-90550319D01*
X49427781Y-90547619D01*
X49432269Y-90545425D01*
X49465881Y-90509191D01*
X49468457Y-90506515D01*
X49482248Y-90492724D01*
X49484793Y-90489013D01*
X49488234Y-90485094D01*
X49502185Y-90470055D01*
X49502185Y-90470054D01*
X49508401Y-90463354D01*
X49511787Y-90454866D01*
X49511789Y-90454863D01*
X49512667Y-90452662D01*
X49522981Y-90433346D01*
X49524322Y-90431391D01*
X49524323Y-90431389D01*
X49529492Y-90423854D01*
X49535641Y-90397941D01*
X49540014Y-90384116D01*
X49547294Y-90365868D01*
X49547294Y-90365866D01*
X49549883Y-90359378D01*
X49550500Y-90353085D01*
X49550500Y-90346916D01*
X49553175Y-90324057D01*
X49553230Y-90323827D01*
X49553230Y-90323825D01*
X49555340Y-90314934D01*
X49551404Y-90286012D01*
X49550500Y-90272663D01*
X49550500Y-90052044D01*
X49569407Y-89993853D01*
X49576102Y-89985608D01*
X49664468Y-89887982D01*
X49669200Y-89882754D01*
X49731710Y-89753733D01*
X49735875Y-89728982D01*
X49754862Y-89616124D01*
X49754862Y-89616120D01*
X49755496Y-89612354D01*
X49755647Y-89600000D01*
X49735323Y-89458082D01*
X49675984Y-89327572D01*
X49582400Y-89218963D01*
X49568572Y-89210000D01*
X54519534Y-89210000D01*
X54539313Y-89360236D01*
X54541797Y-89366233D01*
X54594819Y-89494240D01*
X54594821Y-89494244D01*
X54597302Y-89500233D01*
X54601248Y-89505375D01*
X54601250Y-89505379D01*
X54670947Y-89596209D01*
X54689549Y-89620451D01*
X54694698Y-89624402D01*
X54804621Y-89708750D01*
X54804625Y-89708752D01*
X54809767Y-89712698D01*
X54815756Y-89715179D01*
X54815760Y-89715181D01*
X54924161Y-89760082D01*
X54949764Y-89770687D01*
X55062280Y-89785500D01*
X55137720Y-89785500D01*
X55250236Y-89770687D01*
X55275839Y-89760082D01*
X55384240Y-89715181D01*
X55384244Y-89715179D01*
X55390233Y-89712698D01*
X55395375Y-89708752D01*
X55395379Y-89708750D01*
X55505302Y-89624402D01*
X55510451Y-89620451D01*
X55529053Y-89596209D01*
X55598750Y-89505379D01*
X55598752Y-89505375D01*
X55602698Y-89500233D01*
X55605179Y-89494244D01*
X55605181Y-89494240D01*
X55658203Y-89366233D01*
X55660687Y-89360236D01*
X55680466Y-89210000D01*
X55660687Y-89059764D01*
X55658203Y-89053767D01*
X55605181Y-88925760D01*
X55605179Y-88925756D01*
X55602698Y-88919767D01*
X55598752Y-88914625D01*
X55598750Y-88914621D01*
X55535059Y-88831619D01*
X55514635Y-88773943D01*
X55532012Y-88715277D01*
X55567124Y-88683939D01*
X55676241Y-88625921D01*
X55684272Y-88620585D01*
X55829956Y-88501768D01*
X55836793Y-88494979D01*
X55956630Y-88350121D01*
X55962014Y-88342138D01*
X56051434Y-88176760D01*
X56055163Y-88167889D01*
X56091972Y-88048977D01*
X56091963Y-88048362D01*
X57478188Y-88048362D01*
X57509509Y-88154783D01*
X57513122Y-88163724D01*
X57600218Y-88330323D01*
X57605492Y-88338384D01*
X57723299Y-88484906D01*
X57730030Y-88491780D01*
X57874052Y-88612629D01*
X57882000Y-88618070D01*
X58046739Y-88708637D01*
X58055602Y-88712436D01*
X58234796Y-88769279D01*
X58244224Y-88771283D01*
X58390505Y-88787691D01*
X58396034Y-88788000D01*
X58480320Y-88788000D01*
X58493005Y-88783878D01*
X58496000Y-88779757D01*
X58496000Y-88772320D01*
X59004000Y-88772320D01*
X59008122Y-88785005D01*
X59012243Y-88788000D01*
X59097324Y-88788000D01*
X59102139Y-88787765D01*
X59241919Y-88774059D01*
X59251370Y-88772188D01*
X59431341Y-88717851D01*
X59440257Y-88714176D01*
X59606241Y-88625921D01*
X59614272Y-88620585D01*
X59759956Y-88501768D01*
X59766793Y-88494979D01*
X59886630Y-88350121D01*
X59892014Y-88342138D01*
X59981434Y-88176760D01*
X59985163Y-88167889D01*
X60021972Y-88048977D01*
X60021809Y-88037339D01*
X60011283Y-88034000D01*
X59019680Y-88034000D01*
X59006995Y-88038122D01*
X59004000Y-88042243D01*
X59004000Y-88772320D01*
X58496000Y-88772320D01*
X58496000Y-88049680D01*
X58491878Y-88036995D01*
X58487757Y-88034000D01*
X57489641Y-88034000D01*
X57478337Y-88037673D01*
X57478188Y-88048362D01*
X56091963Y-88048362D01*
X56091809Y-88037339D01*
X56081283Y-88034000D01*
X54839680Y-88034000D01*
X54826995Y-88038122D01*
X54824000Y-88042243D01*
X54824000Y-88647559D01*
X54805093Y-88705750D01*
X54785267Y-88726101D01*
X54694701Y-88795595D01*
X54694698Y-88795598D01*
X54689549Y-88799549D01*
X54685598Y-88804698D01*
X54601250Y-88914621D01*
X54601248Y-88914625D01*
X54597302Y-88919767D01*
X54594821Y-88925756D01*
X54594819Y-88925760D01*
X54541797Y-89053767D01*
X54539313Y-89059764D01*
X54519534Y-89210000D01*
X49568572Y-89210000D01*
X49462095Y-89140985D01*
X49324739Y-89099907D01*
X49241497Y-89099398D01*
X49188427Y-89099074D01*
X49188426Y-89099074D01*
X49181376Y-89099031D01*
X49174599Y-89100968D01*
X49174598Y-89100968D01*
X49050309Y-89136490D01*
X49050307Y-89136491D01*
X49043529Y-89138428D01*
X48922280Y-89214930D01*
X48917613Y-89220214D01*
X48917611Y-89220216D01*
X48832044Y-89317103D01*
X48832042Y-89317105D01*
X48827377Y-89322388D01*
X48766447Y-89452163D01*
X48765362Y-89459132D01*
X48765361Y-89459135D01*
X48758161Y-89505379D01*
X48744391Y-89593823D01*
X48745306Y-89600820D01*
X48745306Y-89600821D01*
X48759419Y-89708750D01*
X48762980Y-89735979D01*
X48765821Y-89742435D01*
X48765821Y-89742436D01*
X48784584Y-89785077D01*
X48820720Y-89867203D01*
X48838187Y-89887982D01*
X48903644Y-89965853D01*
X48912970Y-89976948D01*
X48916999Y-89979630D01*
X48947265Y-90031636D01*
X48949500Y-90052554D01*
X48949500Y-90134521D01*
X48930593Y-90192712D01*
X48920504Y-90204525D01*
X48825349Y-90299680D01*
X48822220Y-90302380D01*
X48817731Y-90304575D01*
X48811513Y-90311278D01*
X48784107Y-90340822D01*
X48781531Y-90343498D01*
X48767752Y-90357277D01*
X48765207Y-90360987D01*
X48761771Y-90364900D01*
X48741599Y-90386646D01*
X48738212Y-90395134D01*
X48738212Y-90395135D01*
X48737334Y-90397336D01*
X48727020Y-90416652D01*
X48725679Y-90418607D01*
X48725678Y-90418610D01*
X48720508Y-90426146D01*
X48716135Y-90444575D01*
X48714359Y-90452058D01*
X48709986Y-90465884D01*
X48704027Y-90480822D01*
X48700117Y-90490622D01*
X48699500Y-90496915D01*
X48699500Y-90503084D01*
X48696825Y-90525943D01*
X48694660Y-90535066D01*
X48696070Y-90545425D01*
X48698596Y-90563987D01*
X48699500Y-90577337D01*
X48699500Y-94596492D01*
X48699197Y-94600617D01*
X48697575Y-94605342D01*
X48697918Y-94614476D01*
X48699430Y-94654761D01*
X48699500Y-94658474D01*
X48699500Y-94677948D01*
X48700325Y-94682378D01*
X48700661Y-94687571D01*
X48701774Y-94717208D01*
X48705380Y-94725602D01*
X48705381Y-94725605D01*
X48706317Y-94727783D01*
X48712683Y-94748734D01*
X48714791Y-94760053D01*
X48719588Y-94767835D01*
X48728768Y-94782728D01*
X48735451Y-94795595D01*
X48745964Y-94820063D01*
X48749978Y-94824949D01*
X48754342Y-94829313D01*
X48768613Y-94847368D01*
X48773532Y-94855348D01*
X48796769Y-94873018D01*
X48806839Y-94881810D01*
X50470504Y-96545476D01*
X50498281Y-96599993D01*
X50499500Y-96615480D01*
X50499500Y-99248366D01*
X50480593Y-99306557D01*
X50431093Y-99342521D01*
X50369907Y-99342521D01*
X50330496Y-99318370D01*
X50233424Y-99221298D01*
X50205647Y-99166781D01*
X50204428Y-99151294D01*
X50204428Y-97750000D01*
X50188867Y-97671769D01*
X50144552Y-97605448D01*
X50078231Y-97561133D01*
X50068668Y-97559231D01*
X50068666Y-97559230D01*
X50035577Y-97552649D01*
X50000000Y-97545572D01*
X49000000Y-97545572D01*
X48997580Y-97545812D01*
X48997573Y-97545812D01*
X48973163Y-97548229D01*
X48959908Y-97549542D01*
X48953155Y-97552348D01*
X48953153Y-97552348D01*
X48886248Y-97580143D01*
X48884657Y-97576312D01*
X48844377Y-97587719D01*
X48793155Y-97571105D01*
X48786341Y-97566552D01*
X48778231Y-97561133D01*
X48768668Y-97559231D01*
X48768666Y-97559230D01*
X48735577Y-97552649D01*
X48700000Y-97545572D01*
X47561551Y-97545572D01*
X47503360Y-97526665D01*
X47491547Y-97516576D01*
X47329496Y-97354525D01*
X47301719Y-97300008D01*
X47300500Y-97284521D01*
X47300500Y-93203508D01*
X47300803Y-93199383D01*
X47302425Y-93194658D01*
X47300570Y-93145238D01*
X47300500Y-93141525D01*
X47300500Y-93122052D01*
X47299675Y-93117622D01*
X47299338Y-93112417D01*
X47298569Y-93091926D01*
X47298226Y-93082791D01*
X47293681Y-93072212D01*
X47287317Y-93051263D01*
X47286884Y-93048936D01*
X47286882Y-93048931D01*
X47285209Y-93039947D01*
X47271232Y-93017271D01*
X47264548Y-93004404D01*
X47256795Y-92986358D01*
X47256794Y-92986357D01*
X47254036Y-92979937D01*
X47250022Y-92975051D01*
X47245658Y-92970687D01*
X47231387Y-92952632D01*
X47231264Y-92952433D01*
X47226468Y-92944652D01*
X47203231Y-92926982D01*
X47193161Y-92918190D01*
X46120320Y-91845349D01*
X46117620Y-91842220D01*
X46115425Y-91837731D01*
X46079178Y-91804107D01*
X46076502Y-91801531D01*
X46062723Y-91787752D01*
X46059013Y-91785207D01*
X46055100Y-91781771D01*
X46040055Y-91767815D01*
X46033354Y-91761599D01*
X46022664Y-91757334D01*
X46003348Y-91747020D01*
X46001393Y-91745679D01*
X46001390Y-91745678D01*
X45993854Y-91740508D01*
X45967941Y-91734359D01*
X45954116Y-91729986D01*
X45935868Y-91722706D01*
X45935866Y-91722706D01*
X45929378Y-91720117D01*
X45923085Y-91719500D01*
X45916916Y-91719500D01*
X45894057Y-91716825D01*
X45893827Y-91716770D01*
X45893825Y-91716770D01*
X45884934Y-91714660D01*
X45856013Y-91718596D01*
X45842663Y-91719500D01*
X44080179Y-91719500D01*
X44021988Y-91700593D01*
X43985405Y-91649116D01*
X43975935Y-91617749D01*
X43879218Y-91435849D01*
X43749011Y-91276200D01*
X43745282Y-91273115D01*
X43594002Y-91147965D01*
X43594000Y-91147964D01*
X43590275Y-91144882D01*
X43409055Y-91046897D01*
X43345855Y-91027333D01*
X43216875Y-90987407D01*
X43216871Y-90987406D01*
X43212254Y-90985977D01*
X43207446Y-90985472D01*
X43207443Y-90985471D01*
X43012185Y-90964949D01*
X43012183Y-90964949D01*
X43007369Y-90964443D01*
X42947354Y-90969905D01*
X42807022Y-90982675D01*
X42807017Y-90982676D01*
X42802203Y-90983114D01*
X42604572Y-91041280D01*
X42600288Y-91043519D01*
X42600287Y-91043520D01*
X42589428Y-91049197D01*
X42422002Y-91136726D01*
X42418231Y-91139758D01*
X42312023Y-91225151D01*
X42254825Y-91246878D01*
X42195780Y-91230836D01*
X42157441Y-91183151D01*
X42150989Y-91147996D01*
X42150989Y-90351195D01*
X42169896Y-90293004D01*
X42219396Y-90257040D01*
X42280582Y-90257040D01*
X42314153Y-90275803D01*
X42393876Y-90343653D01*
X42393881Y-90343656D01*
X42397564Y-90346791D01*
X42401787Y-90349151D01*
X42401791Y-90349154D01*
X42484065Y-90395135D01*
X42577398Y-90447297D01*
X42581996Y-90448791D01*
X42768724Y-90509463D01*
X42768726Y-90509464D01*
X42773329Y-90510959D01*
X42977894Y-90535351D01*
X42982716Y-90534980D01*
X42982719Y-90534980D01*
X43050541Y-90529761D01*
X43183300Y-90519546D01*
X43381725Y-90464145D01*
X43386038Y-90461966D01*
X43386044Y-90461964D01*
X43561289Y-90373441D01*
X43561291Y-90373440D01*
X43565610Y-90371258D01*
X43600943Y-90343653D01*
X43724135Y-90247406D01*
X43724139Y-90247402D01*
X43727951Y-90244424D01*
X43862564Y-90088472D01*
X43877130Y-90062831D01*
X43961934Y-89913550D01*
X43961935Y-89913547D01*
X43964323Y-89909344D01*
X43971430Y-89887982D01*
X44027824Y-89718454D01*
X44027824Y-89718452D01*
X44029351Y-89713863D01*
X44040653Y-89624402D01*
X44054823Y-89512228D01*
X44055171Y-89509474D01*
X44055583Y-89480000D01*
X44052854Y-89452163D01*
X44035952Y-89279780D01*
X44035951Y-89279776D01*
X44035480Y-89274970D01*
X44018571Y-89218963D01*
X43977333Y-89082380D01*
X43975935Y-89077749D01*
X43879218Y-88895849D01*
X43749011Y-88736200D01*
X43740945Y-88729527D01*
X43594002Y-88607965D01*
X43594000Y-88607964D01*
X43590275Y-88604882D01*
X43409055Y-88506897D01*
X43345855Y-88487333D01*
X43216875Y-88447407D01*
X43216871Y-88447406D01*
X43212254Y-88445977D01*
X43207446Y-88445472D01*
X43207443Y-88445471D01*
X43012185Y-88424949D01*
X43012183Y-88424949D01*
X43007369Y-88424443D01*
X42947354Y-88429905D01*
X42807022Y-88442675D01*
X42807017Y-88442676D01*
X42802203Y-88443114D01*
X42604572Y-88501280D01*
X42600288Y-88503519D01*
X42600287Y-88503520D01*
X42589428Y-88509197D01*
X42422002Y-88596726D01*
X42418231Y-88599758D01*
X42312023Y-88685151D01*
X42254825Y-88706878D01*
X42195780Y-88690836D01*
X42157441Y-88643151D01*
X42150989Y-88607996D01*
X42150989Y-88383997D01*
X42151292Y-88379872D01*
X42152914Y-88375147D01*
X42151059Y-88325727D01*
X42150989Y-88322014D01*
X42150989Y-88302541D01*
X42150164Y-88298111D01*
X42149827Y-88292906D01*
X42149058Y-88272415D01*
X42148715Y-88263280D01*
X42144170Y-88252701D01*
X42137806Y-88231752D01*
X42137373Y-88229425D01*
X42137371Y-88229420D01*
X42135698Y-88220436D01*
X42121721Y-88197760D01*
X42115037Y-88184893D01*
X42107284Y-88166847D01*
X42107283Y-88166846D01*
X42104525Y-88160426D01*
X42100511Y-88155540D01*
X42096147Y-88151176D01*
X42081876Y-88133121D01*
X42081753Y-88132922D01*
X42076957Y-88125141D01*
X42053720Y-88107471D01*
X42043650Y-88098679D01*
X41437798Y-87492827D01*
X41410021Y-87438310D01*
X41420908Y-87378397D01*
X41419963Y-87377976D01*
X41421688Y-87374101D01*
X41421720Y-87373926D01*
X41424323Y-87369344D01*
X41433275Y-87342436D01*
X41487824Y-87178454D01*
X41487824Y-87178452D01*
X41489351Y-87173863D01*
X41493505Y-87140985D01*
X41514823Y-86972228D01*
X41515171Y-86969474D01*
X41515583Y-86940000D01*
X41515313Y-86937244D01*
X41514138Y-86925262D01*
X41944520Y-86925262D01*
X41945758Y-86940000D01*
X41959275Y-87100968D01*
X41961759Y-87130553D01*
X41963092Y-87135201D01*
X41963092Y-87135202D01*
X41988643Y-87224307D01*
X42018544Y-87328586D01*
X42112712Y-87511818D01*
X42240677Y-87673270D01*
X42244357Y-87676402D01*
X42244359Y-87676404D01*
X42327045Y-87746775D01*
X42397564Y-87806791D01*
X42401787Y-87809151D01*
X42401791Y-87809154D01*
X42518702Y-87874493D01*
X42577398Y-87907297D01*
X42581996Y-87908791D01*
X42768724Y-87969463D01*
X42768726Y-87969464D01*
X42773329Y-87970959D01*
X42977894Y-87995351D01*
X42982716Y-87994980D01*
X42982719Y-87994980D01*
X43059848Y-87989045D01*
X43183300Y-87979546D01*
X43381725Y-87924145D01*
X43386038Y-87921966D01*
X43386044Y-87921964D01*
X43561289Y-87833441D01*
X43561291Y-87833440D01*
X43565610Y-87831258D01*
X43569427Y-87828276D01*
X43724135Y-87707406D01*
X43724139Y-87707402D01*
X43727951Y-87704424D01*
X43731844Y-87699915D01*
X43814784Y-87603826D01*
X43862564Y-87548472D01*
X43875330Y-87526000D01*
X43961934Y-87373550D01*
X43961935Y-87373547D01*
X43964323Y-87369344D01*
X43973275Y-87342436D01*
X44022711Y-87193823D01*
X45494391Y-87193823D01*
X45495306Y-87200820D01*
X45495306Y-87200821D01*
X45497177Y-87215126D01*
X45512980Y-87335979D01*
X45515821Y-87342435D01*
X45515821Y-87342436D01*
X45566707Y-87458082D01*
X45570720Y-87467203D01*
X45608223Y-87511818D01*
X45658431Y-87571549D01*
X45658434Y-87571551D01*
X45662970Y-87576948D01*
X45668841Y-87580856D01*
X45668842Y-87580857D01*
X45681143Y-87589045D01*
X45782313Y-87656390D01*
X45882920Y-87687821D01*
X45912425Y-87697039D01*
X45912426Y-87697039D01*
X45919157Y-87699142D01*
X45990828Y-87700456D01*
X46055445Y-87701641D01*
X46055447Y-87701641D01*
X46062499Y-87701770D01*
X46069302Y-87699915D01*
X46069304Y-87699915D01*
X46167035Y-87673270D01*
X46200817Y-87664060D01*
X46322991Y-87589045D01*
X46330403Y-87580857D01*
X46414468Y-87487982D01*
X46419200Y-87482754D01*
X46422273Y-87476412D01*
X46422276Y-87476407D01*
X46432000Y-87456335D01*
X46474387Y-87412211D01*
X46521094Y-87400500D01*
X46596572Y-87400500D01*
X46654763Y-87419407D01*
X46690727Y-87468907D01*
X46695572Y-87499500D01*
X46695572Y-87750000D01*
X46711133Y-87828231D01*
X46755448Y-87894552D01*
X46821769Y-87938867D01*
X46831332Y-87940769D01*
X46831334Y-87940770D01*
X46864423Y-87947351D01*
X46900000Y-87954428D01*
X48050000Y-87954428D01*
X48078254Y-87951660D01*
X48082414Y-87951253D01*
X48089672Y-87950542D01*
X48131065Y-87933447D01*
X48163396Y-87920094D01*
X48164906Y-87923751D01*
X48205795Y-87912265D01*
X48256805Y-87928869D01*
X48263657Y-87933447D01*
X48263658Y-87933448D01*
X48271769Y-87938867D01*
X48281332Y-87940769D01*
X48281334Y-87940770D01*
X48314423Y-87947351D01*
X48350000Y-87954428D01*
X49231347Y-87954428D01*
X49265478Y-87962623D01*
X49265909Y-87961296D01*
X49288857Y-87968752D01*
X49303203Y-87974695D01*
X49324696Y-87985646D01*
X49332389Y-87986864D01*
X49332391Y-87986865D01*
X49348519Y-87989419D01*
X49363620Y-87993044D01*
X49386567Y-88000500D01*
X50068414Y-88000500D01*
X50123272Y-88017089D01*
X50182313Y-88056390D01*
X50282920Y-88087821D01*
X50312425Y-88097039D01*
X50312426Y-88097039D01*
X50319157Y-88099142D01*
X50390828Y-88100456D01*
X50455445Y-88101641D01*
X50455447Y-88101641D01*
X50462499Y-88101770D01*
X50469302Y-88099915D01*
X50469304Y-88099915D01*
X50544503Y-88079413D01*
X50600817Y-88064060D01*
X50626384Y-88048362D01*
X53048188Y-88048362D01*
X53079509Y-88154783D01*
X53083122Y-88163724D01*
X53170218Y-88330323D01*
X53175492Y-88338384D01*
X53293299Y-88484906D01*
X53300030Y-88491780D01*
X53444052Y-88612629D01*
X53452000Y-88618070D01*
X53616739Y-88708637D01*
X53625602Y-88712436D01*
X53804796Y-88769279D01*
X53814224Y-88771283D01*
X53960505Y-88787691D01*
X53966034Y-88788000D01*
X54300320Y-88788000D01*
X54313005Y-88783878D01*
X54316000Y-88779757D01*
X54316000Y-88049680D01*
X54311878Y-88036995D01*
X54307757Y-88034000D01*
X53059641Y-88034000D01*
X53048337Y-88037673D01*
X53048188Y-88048362D01*
X50626384Y-88048362D01*
X50722991Y-87989045D01*
X50732768Y-87978244D01*
X50814468Y-87887982D01*
X50819200Y-87882754D01*
X50881710Y-87753733D01*
X50883156Y-87745142D01*
X50904862Y-87616124D01*
X50904862Y-87616120D01*
X50905496Y-87612354D01*
X50905647Y-87600000D01*
X50892905Y-87511023D01*
X53048028Y-87511023D01*
X53048191Y-87522661D01*
X53058717Y-87526000D01*
X54300320Y-87526000D01*
X54313005Y-87521878D01*
X54316000Y-87517757D01*
X54316000Y-87510320D01*
X54824000Y-87510320D01*
X54828122Y-87523005D01*
X54832243Y-87526000D01*
X56080359Y-87526000D01*
X56091663Y-87522327D01*
X56091812Y-87511638D01*
X56091631Y-87511023D01*
X57478028Y-87511023D01*
X57478191Y-87522661D01*
X57488717Y-87526000D01*
X58480320Y-87526000D01*
X58493005Y-87521878D01*
X58496000Y-87517757D01*
X58496000Y-87510320D01*
X59004000Y-87510320D01*
X59008122Y-87523005D01*
X59012243Y-87526000D01*
X60010359Y-87526000D01*
X60021663Y-87522327D01*
X60021812Y-87511638D01*
X59990491Y-87405217D01*
X59986878Y-87396276D01*
X59899782Y-87229677D01*
X59894508Y-87221616D01*
X59776701Y-87075094D01*
X59769970Y-87068220D01*
X59625948Y-86947371D01*
X59618000Y-86941930D01*
X59453261Y-86851363D01*
X59444398Y-86847564D01*
X59265204Y-86790721D01*
X59255776Y-86788717D01*
X59109495Y-86772309D01*
X59103966Y-86772000D01*
X59019680Y-86772000D01*
X59006995Y-86776122D01*
X59004000Y-86780243D01*
X59004000Y-87510320D01*
X58496000Y-87510320D01*
X58496000Y-86787680D01*
X58491878Y-86774995D01*
X58487757Y-86772000D01*
X58402676Y-86772000D01*
X58397861Y-86772235D01*
X58258081Y-86785941D01*
X58248630Y-86787812D01*
X58068659Y-86842149D01*
X58059743Y-86845824D01*
X57893759Y-86934079D01*
X57885728Y-86939415D01*
X57740044Y-87058232D01*
X57733207Y-87065021D01*
X57613370Y-87209879D01*
X57607986Y-87217862D01*
X57518566Y-87383240D01*
X57514837Y-87392111D01*
X57478028Y-87511023D01*
X56091631Y-87511023D01*
X56060491Y-87405217D01*
X56056878Y-87396276D01*
X55969782Y-87229677D01*
X55964508Y-87221616D01*
X55846701Y-87075094D01*
X55839970Y-87068220D01*
X55695948Y-86947371D01*
X55688000Y-86941930D01*
X55523261Y-86851363D01*
X55514398Y-86847564D01*
X55335204Y-86790721D01*
X55325776Y-86788717D01*
X55179495Y-86772309D01*
X55173966Y-86772000D01*
X54839680Y-86772000D01*
X54826995Y-86776122D01*
X54824000Y-86780243D01*
X54824000Y-87510320D01*
X54316000Y-87510320D01*
X54316000Y-86787680D01*
X54311878Y-86774995D01*
X54307757Y-86772000D01*
X53972676Y-86772000D01*
X53967861Y-86772235D01*
X53828081Y-86785941D01*
X53818630Y-86787812D01*
X53638659Y-86842149D01*
X53629743Y-86845824D01*
X53463759Y-86934079D01*
X53455728Y-86939415D01*
X53310044Y-87058232D01*
X53303207Y-87065021D01*
X53183370Y-87209879D01*
X53177986Y-87217862D01*
X53088566Y-87383240D01*
X53084837Y-87392111D01*
X53048028Y-87511023D01*
X50892905Y-87511023D01*
X50885323Y-87458082D01*
X50846888Y-87373549D01*
X50828905Y-87333996D01*
X50828904Y-87333995D01*
X50825984Y-87327572D01*
X50732400Y-87218963D01*
X50612095Y-87140985D01*
X50474739Y-87099907D01*
X50391497Y-87099398D01*
X50338427Y-87099074D01*
X50338426Y-87099074D01*
X50331376Y-87099031D01*
X50324599Y-87100968D01*
X50324598Y-87100968D01*
X50200309Y-87136490D01*
X50200307Y-87136491D01*
X50193529Y-87138428D01*
X50187564Y-87142192D01*
X50187561Y-87142193D01*
X50120940Y-87184227D01*
X50068113Y-87199500D01*
X49656900Y-87199500D01*
X49598709Y-87180593D01*
X49586896Y-87170504D01*
X49583424Y-87167032D01*
X49555647Y-87112515D01*
X49554428Y-87097028D01*
X49554428Y-86250000D01*
X49543113Y-86193115D01*
X49540770Y-86181334D01*
X49540769Y-86181332D01*
X49538867Y-86171769D01*
X49494552Y-86105448D01*
X49428231Y-86061133D01*
X49418668Y-86059231D01*
X49418666Y-86059230D01*
X49385577Y-86052649D01*
X49350000Y-86045572D01*
X48350000Y-86045572D01*
X48347580Y-86045812D01*
X48347573Y-86045812D01*
X48323163Y-86048229D01*
X48309908Y-86049542D01*
X48303155Y-86052348D01*
X48303153Y-86052348D01*
X48236248Y-86080143D01*
X48234657Y-86076312D01*
X48194377Y-86087719D01*
X48143155Y-86071105D01*
X48136341Y-86066552D01*
X48128231Y-86061133D01*
X48118668Y-86059231D01*
X48118666Y-86059230D01*
X48085577Y-86052649D01*
X48050000Y-86045572D01*
X46900000Y-86045572D01*
X46864423Y-86052649D01*
X46831334Y-86059230D01*
X46831332Y-86059231D01*
X46821769Y-86061133D01*
X46755448Y-86105448D01*
X46711133Y-86171769D01*
X46709231Y-86181332D01*
X46709230Y-86181334D01*
X46706887Y-86193115D01*
X46695572Y-86250000D01*
X46695572Y-86500500D01*
X46676665Y-86558691D01*
X46627165Y-86594655D01*
X46596572Y-86599500D01*
X46136567Y-86599500D01*
X46113620Y-86606956D01*
X46098519Y-86610581D01*
X46082391Y-86613135D01*
X46082389Y-86613136D01*
X46074696Y-86614354D01*
X46053201Y-86625306D01*
X46038855Y-86631249D01*
X46023320Y-86636296D01*
X46023316Y-86636298D01*
X46015911Y-86638704D01*
X45996390Y-86652887D01*
X45983151Y-86660999D01*
X45968597Y-86668414D01*
X45968595Y-86668416D01*
X45961658Y-86671950D01*
X45953994Y-86679614D01*
X45911196Y-86704799D01*
X45872293Y-86715917D01*
X45800309Y-86736490D01*
X45800307Y-86736491D01*
X45793529Y-86738428D01*
X45672280Y-86814930D01*
X45667613Y-86820214D01*
X45667611Y-86820216D01*
X45582044Y-86917103D01*
X45582042Y-86917105D01*
X45577377Y-86922388D01*
X45574381Y-86928770D01*
X45574380Y-86928771D01*
X45571888Y-86934079D01*
X45516447Y-87052163D01*
X45515362Y-87059132D01*
X45515361Y-87059135D01*
X45503077Y-87138036D01*
X45494391Y-87193823D01*
X44022711Y-87193823D01*
X44027824Y-87178454D01*
X44027824Y-87178452D01*
X44029351Y-87173863D01*
X44033505Y-87140985D01*
X44054823Y-86972228D01*
X44055171Y-86969474D01*
X44055583Y-86940000D01*
X44055313Y-86937244D01*
X44035952Y-86739780D01*
X44035951Y-86739776D01*
X44035480Y-86734970D01*
X44015386Y-86668414D01*
X43977333Y-86542380D01*
X43975935Y-86537749D01*
X43879218Y-86355849D01*
X43749011Y-86196200D01*
X43639311Y-86105448D01*
X43594002Y-86067965D01*
X43594000Y-86067964D01*
X43590275Y-86064882D01*
X43409055Y-85966897D01*
X43345855Y-85947333D01*
X43216875Y-85907407D01*
X43216871Y-85907406D01*
X43212254Y-85905977D01*
X43207446Y-85905472D01*
X43207443Y-85905471D01*
X43012185Y-85884949D01*
X43012183Y-85884949D01*
X43007369Y-85884443D01*
X42947354Y-85889905D01*
X42807022Y-85902675D01*
X42807017Y-85902676D01*
X42802203Y-85903114D01*
X42604572Y-85961280D01*
X42600288Y-85963519D01*
X42600287Y-85963520D01*
X42544879Y-85992487D01*
X42422002Y-86056726D01*
X42418231Y-86059758D01*
X42265220Y-86182781D01*
X42265217Y-86182783D01*
X42261447Y-86185815D01*
X42258333Y-86189526D01*
X42258332Y-86189527D01*
X42211587Y-86245236D01*
X42129024Y-86343630D01*
X42126689Y-86347878D01*
X42126688Y-86347879D01*
X42119955Y-86360126D01*
X42029776Y-86524162D01*
X42028313Y-86528775D01*
X42028311Y-86528779D01*
X41997692Y-86625303D01*
X41967484Y-86720532D01*
X41966944Y-86725344D01*
X41966944Y-86725345D01*
X41953843Y-86842149D01*
X41944520Y-86925262D01*
X41514138Y-86925262D01*
X41495952Y-86739780D01*
X41495951Y-86739776D01*
X41495480Y-86734970D01*
X41475386Y-86668414D01*
X41437333Y-86542380D01*
X41435935Y-86537749D01*
X41339218Y-86355849D01*
X41209011Y-86196200D01*
X41099311Y-86105448D01*
X41054002Y-86067965D01*
X41054000Y-86067964D01*
X41050275Y-86064882D01*
X40869055Y-85966897D01*
X40805855Y-85947333D01*
X40676875Y-85907407D01*
X40676871Y-85907406D01*
X40672254Y-85905977D01*
X40667446Y-85905472D01*
X40667443Y-85905471D01*
X40472185Y-85884949D01*
X40472183Y-85884949D01*
X40467369Y-85884443D01*
X40407354Y-85889905D01*
X40267022Y-85902675D01*
X40267017Y-85902676D01*
X40262203Y-85903114D01*
X40064572Y-85961280D01*
X40060288Y-85963519D01*
X40060287Y-85963520D01*
X40004879Y-85992487D01*
X39882002Y-86056726D01*
X39878231Y-86059758D01*
X39725220Y-86182781D01*
X39725217Y-86182783D01*
X39721447Y-86185815D01*
X39718333Y-86189526D01*
X39718332Y-86189527D01*
X39671587Y-86245236D01*
X39589024Y-86343630D01*
X39586689Y-86347878D01*
X39586688Y-86347879D01*
X39579955Y-86360126D01*
X39489776Y-86524162D01*
X39488313Y-86528775D01*
X39488311Y-86528779D01*
X39457692Y-86625303D01*
X39427484Y-86720532D01*
X39426944Y-86725344D01*
X39426944Y-86725345D01*
X39413843Y-86842149D01*
X39404520Y-86925262D01*
X39405758Y-86940000D01*
X39419275Y-87100968D01*
X39421759Y-87130553D01*
X39423092Y-87135201D01*
X39423092Y-87135202D01*
X39448643Y-87224307D01*
X39478544Y-87328586D01*
X39572712Y-87511818D01*
X39700677Y-87673270D01*
X39704357Y-87676402D01*
X39704359Y-87676404D01*
X39787045Y-87746775D01*
X39857564Y-87806791D01*
X39861787Y-87809151D01*
X39861791Y-87809154D01*
X39978702Y-87874493D01*
X40037398Y-87907297D01*
X40041996Y-87908791D01*
X40228724Y-87969463D01*
X40228726Y-87969464D01*
X40233329Y-87970959D01*
X40437894Y-87995351D01*
X40442716Y-87994980D01*
X40442719Y-87994980D01*
X40519848Y-87989045D01*
X40643300Y-87979546D01*
X40841725Y-87924145D01*
X40846038Y-87921966D01*
X40846044Y-87921964D01*
X40895653Y-87896904D01*
X40956118Y-87887544D01*
X41010294Y-87915266D01*
X41520993Y-88425965D01*
X41548770Y-88480482D01*
X41549989Y-88495969D01*
X41549989Y-88895185D01*
X41531082Y-88953376D01*
X41481582Y-88989340D01*
X41420396Y-88989340D01*
X41370896Y-88953376D01*
X41363577Y-88941662D01*
X41341492Y-88900126D01*
X41339218Y-88895849D01*
X41209011Y-88736200D01*
X41200945Y-88729527D01*
X41054002Y-88607965D01*
X41054000Y-88607964D01*
X41050275Y-88604882D01*
X40869055Y-88506897D01*
X40805855Y-88487333D01*
X40676875Y-88447407D01*
X40676871Y-88447406D01*
X40672254Y-88445977D01*
X40667446Y-88445472D01*
X40667443Y-88445471D01*
X40472185Y-88424949D01*
X40472183Y-88424949D01*
X40467369Y-88424443D01*
X40407354Y-88429905D01*
X40267022Y-88442675D01*
X40267017Y-88442676D01*
X40262203Y-88443114D01*
X40064572Y-88501280D01*
X40060288Y-88503519D01*
X40060287Y-88503520D01*
X40049428Y-88509197D01*
X39882002Y-88596726D01*
X39878231Y-88599758D01*
X39725220Y-88722781D01*
X39725217Y-88722783D01*
X39721447Y-88725815D01*
X39718333Y-88729526D01*
X39718332Y-88729527D01*
X39632667Y-88831619D01*
X39589024Y-88883630D01*
X39586689Y-88887878D01*
X39586688Y-88887879D01*
X39579955Y-88900126D01*
X39489776Y-89064162D01*
X39488313Y-89068775D01*
X39488311Y-89068779D01*
X39466047Y-89138964D01*
X39427484Y-89260532D01*
X39426944Y-89265344D01*
X39426944Y-89265345D01*
X39406046Y-89451660D01*
X39404520Y-89465262D01*
X39407457Y-89500233D01*
X39417884Y-89624402D01*
X39421759Y-89670553D01*
X39478544Y-89868586D01*
X39502542Y-89915282D01*
X39512323Y-89975678D01*
X39484493Y-90030536D01*
X39075349Y-90439680D01*
X39072220Y-90442380D01*
X39067731Y-90444575D01*
X39061513Y-90451278D01*
X39034107Y-90480822D01*
X39031531Y-90483498D01*
X39017752Y-90497277D01*
X39015207Y-90500987D01*
X39011771Y-90504900D01*
X38991599Y-90526646D01*
X38988212Y-90535134D01*
X38988212Y-90535135D01*
X38987334Y-90537336D01*
X38977020Y-90556652D01*
X38975679Y-90558607D01*
X38975678Y-90558610D01*
X38970508Y-90566146D01*
X38968398Y-90575038D01*
X38964359Y-90592058D01*
X38959986Y-90605884D01*
X38952706Y-90624132D01*
X38950117Y-90630622D01*
X38949500Y-90636915D01*
X38949500Y-90643084D01*
X38946825Y-90665943D01*
X38944660Y-90675066D01*
X38200000Y-90675066D01*
X38200000Y-86033960D01*
X38202518Y-86011773D01*
X38202562Y-86011583D01*
X38205143Y-86000358D01*
X38202682Y-85989483D01*
X38202702Y-85978336D01*
X38202863Y-85978336D01*
X38202076Y-85968331D01*
X38214974Y-85771531D01*
X38216664Y-85758691D01*
X38247878Y-85601770D01*
X38260068Y-85540484D01*
X38263419Y-85527980D01*
X38279416Y-85480857D01*
X38334933Y-85317308D01*
X38339889Y-85305346D01*
X38438284Y-85105820D01*
X38444753Y-85094614D01*
X38445282Y-85093823D01*
X55694391Y-85093823D01*
X55695306Y-85100820D01*
X55695306Y-85100821D01*
X55696814Y-85112354D01*
X55712980Y-85235979D01*
X55715821Y-85242435D01*
X55715821Y-85242436D01*
X55723586Y-85260082D01*
X55770720Y-85367203D01*
X55783792Y-85382754D01*
X55858431Y-85471549D01*
X55858434Y-85471551D01*
X55862970Y-85476948D01*
X55868841Y-85480856D01*
X55868842Y-85480857D01*
X55881143Y-85489045D01*
X55982313Y-85556390D01*
X56082920Y-85587821D01*
X56112425Y-85597039D01*
X56112426Y-85597039D01*
X56119157Y-85599142D01*
X56190828Y-85600456D01*
X56255445Y-85601641D01*
X56255447Y-85601641D01*
X56262499Y-85601770D01*
X56269302Y-85599915D01*
X56269304Y-85599915D01*
X56344503Y-85579413D01*
X56400817Y-85564060D01*
X56522991Y-85489045D01*
X56530403Y-85480857D01*
X56614468Y-85387982D01*
X56619200Y-85382754D01*
X56681710Y-85253733D01*
X56685875Y-85228982D01*
X56704862Y-85116124D01*
X56704862Y-85116120D01*
X56705496Y-85112354D01*
X56705647Y-85100000D01*
X56685323Y-84958082D01*
X56625984Y-84827572D01*
X56543708Y-84732086D01*
X56537005Y-84724307D01*
X56537004Y-84724306D01*
X56532400Y-84718963D01*
X56412095Y-84640985D01*
X56274739Y-84599907D01*
X56191497Y-84599398D01*
X56138427Y-84599074D01*
X56138426Y-84599074D01*
X56131376Y-84599031D01*
X56124599Y-84600968D01*
X56124598Y-84600968D01*
X56000309Y-84636490D01*
X56000307Y-84636491D01*
X55993529Y-84638428D01*
X55872280Y-84714930D01*
X55867613Y-84720214D01*
X55867611Y-84720216D01*
X55782044Y-84817103D01*
X55782042Y-84817105D01*
X55777377Y-84822388D01*
X55716447Y-84952163D01*
X55694391Y-85093823D01*
X38445282Y-85093823D01*
X38568365Y-84909615D01*
X38576233Y-84899361D01*
X38722931Y-84732085D01*
X38732086Y-84722930D01*
X38735181Y-84720216D01*
X38899361Y-84576233D01*
X38909615Y-84568365D01*
X39094614Y-84444753D01*
X39105820Y-84438284D01*
X39223046Y-84380475D01*
X39305347Y-84339889D01*
X39317309Y-84334933D01*
X39527984Y-84263418D01*
X39540484Y-84260068D01*
X39758698Y-84216663D01*
X39771523Y-84214975D01*
X39967819Y-84202109D01*
X39977628Y-84202899D01*
X39977628Y-84202625D01*
X39988778Y-84202645D01*
X39999642Y-84205143D01*
X40010514Y-84202683D01*
X40010516Y-84202683D01*
X40011583Y-84202441D01*
X40033432Y-84200000D01*
X58966040Y-84200000D01*
X58988227Y-84202518D01*
G37*
%TD.AperFunction*%
%TA.AperFunction,Conductor*%
G36*
X47069983Y-97944954D02*
G01*
X47195530Y-98070502D01*
X47316576Y-98191548D01*
X47344353Y-98246064D01*
X47345572Y-98261551D01*
X47345572Y-99250000D01*
X47346520Y-99254764D01*
X47359172Y-99318370D01*
X47361133Y-99328231D01*
X47405448Y-99394552D01*
X47471769Y-99438867D01*
X47481332Y-99440769D01*
X47481334Y-99440770D01*
X47514423Y-99447351D01*
X47550000Y-99454428D01*
X48700000Y-99454428D01*
X48728254Y-99451660D01*
X48732414Y-99451253D01*
X48739672Y-99450542D01*
X48781065Y-99433447D01*
X48813396Y-99420094D01*
X48814906Y-99423751D01*
X48855795Y-99412265D01*
X48906805Y-99428869D01*
X48913657Y-99433447D01*
X48913658Y-99433448D01*
X48921769Y-99438867D01*
X48931332Y-99440769D01*
X48931334Y-99440770D01*
X48964423Y-99447351D01*
X49000000Y-99454428D01*
X49504894Y-99454428D01*
X49563085Y-99473335D01*
X49574898Y-99483424D01*
X51072959Y-100981486D01*
X51100736Y-101036003D01*
X51091165Y-101096435D01*
X51047900Y-101139700D01*
X50987468Y-101149271D01*
X50963845Y-101140368D01*
X50963354Y-101141599D01*
X50952664Y-101137334D01*
X50933348Y-101127020D01*
X50931393Y-101125679D01*
X50931390Y-101125678D01*
X50923854Y-101120508D01*
X50897941Y-101114359D01*
X50884116Y-101109986D01*
X50865868Y-101102706D01*
X50865866Y-101102706D01*
X50859378Y-101100117D01*
X50853085Y-101099500D01*
X50846916Y-101099500D01*
X50824057Y-101096825D01*
X50823827Y-101096770D01*
X50823825Y-101096770D01*
X50814934Y-101094660D01*
X50786013Y-101098596D01*
X50772663Y-101099500D01*
X49647173Y-101099500D01*
X49588982Y-101080593D01*
X49572174Y-101065123D01*
X49537005Y-101024307D01*
X49537004Y-101024306D01*
X49532400Y-101018963D01*
X49412095Y-100940985D01*
X49274739Y-100899907D01*
X49191497Y-100899398D01*
X49138427Y-100899074D01*
X49138426Y-100899074D01*
X49131376Y-100899031D01*
X49124599Y-100900968D01*
X49124598Y-100900968D01*
X49000309Y-100936490D01*
X49000307Y-100936491D01*
X48993529Y-100938428D01*
X48872280Y-101014930D01*
X48867613Y-101020214D01*
X48867611Y-101020216D01*
X48782044Y-101117103D01*
X48782042Y-101117105D01*
X48777377Y-101122388D01*
X48716447Y-101252163D01*
X48715362Y-101259132D01*
X48715361Y-101259135D01*
X48695533Y-101386490D01*
X48694391Y-101393823D01*
X48691913Y-101393437D01*
X48675914Y-101440715D01*
X48625980Y-101476074D01*
X48564799Y-101475331D01*
X48526530Y-101451559D01*
X46929976Y-99855005D01*
X46902199Y-99800488D01*
X46900980Y-99785001D01*
X46900980Y-98014958D01*
X46919887Y-97956767D01*
X46969387Y-97920803D01*
X47030573Y-97920803D01*
X47069983Y-97944954D01*
G37*
%TD.AperFunction*%
%TA.AperFunction,Conductor*%
G36*
X43213191Y-96864907D02*
G01*
X43249155Y-96914407D01*
X43254000Y-96945000D01*
X43254000Y-97255000D01*
X43235093Y-97313191D01*
X43185593Y-97349155D01*
X43155000Y-97354000D01*
X40305000Y-97354000D01*
X40246809Y-97335093D01*
X40210845Y-97285593D01*
X40206000Y-97255000D01*
X40206000Y-96945000D01*
X40224907Y-96886809D01*
X40274407Y-96850845D01*
X40305000Y-96846000D01*
X43155000Y-96846000D01*
X43213191Y-96864907D01*
G37*
%TD.AperFunction*%
%TA.AperFunction,Conductor*%
G36*
X45762712Y-92339407D02*
G01*
X45774525Y-92349496D01*
X46670504Y-93245476D01*
X46698281Y-93299993D01*
X46699500Y-93315480D01*
X46699500Y-95935521D01*
X46680593Y-95993712D01*
X46631093Y-96029676D01*
X46569907Y-96029676D01*
X46530496Y-96005525D01*
X43760809Y-93235838D01*
X43758109Y-93232709D01*
X43755914Y-93228220D01*
X43719667Y-93194596D01*
X43716991Y-93192020D01*
X43703212Y-93178241D01*
X43699502Y-93175696D01*
X43695589Y-93172260D01*
X43680544Y-93158304D01*
X43673843Y-93152088D01*
X43663153Y-93147823D01*
X43643837Y-93137509D01*
X43641882Y-93136168D01*
X43641879Y-93136167D01*
X43634343Y-93130997D01*
X43608430Y-93124848D01*
X43594605Y-93120475D01*
X43576357Y-93113195D01*
X43576355Y-93113195D01*
X43569867Y-93110606D01*
X43563574Y-93109989D01*
X43563181Y-93109989D01*
X43560214Y-93109267D01*
X43508143Y-93077139D01*
X43484902Y-93020539D01*
X43499367Y-92961089D01*
X43538984Y-92924708D01*
X43561285Y-92913443D01*
X43561287Y-92913442D01*
X43565610Y-92911258D01*
X43602140Y-92882718D01*
X43724135Y-92787406D01*
X43724139Y-92787402D01*
X43727951Y-92784424D01*
X43736341Y-92774705D01*
X43846974Y-92646533D01*
X43862564Y-92628472D01*
X43865583Y-92623158D01*
X43961934Y-92453550D01*
X43961935Y-92453547D01*
X43964323Y-92449344D01*
X43984646Y-92388251D01*
X44020955Y-92339003D01*
X44078585Y-92320500D01*
X45704521Y-92320500D01*
X45762712Y-92339407D01*
G37*
%TD.AperFunction*%
%TD*%
M02*
