%TF.GenerationSoftware,KiCad,Pcbnew,6.0.1-79c1e3a40b~116~ubuntu20.04.1*%
%TF.CreationDate,2022-02-18T15:29:32+02:00*%
%TF.ProjectId,colorlight-usb-phy-pmod,636f6c6f-726c-4696-9768-742d7573622d,rev?*%
%TF.SameCoordinates,Original*%
%TF.FileFunction,Copper,L3,Inr*%
%TF.FilePolarity,Positive*%
%FSLAX46Y46*%
G04 Gerber Fmt 4.6, Leading zero omitted, Abs format (unit mm)*
G04 Created by KiCad (PCBNEW 6.0.1-79c1e3a40b~116~ubuntu20.04.1) date 2022-02-18 15:29:32*
%MOMM*%
%LPD*%
G01*
G04 APERTURE LIST*
%TA.AperFunction,ComponentPad*%
%ADD10C,0.500000*%
%TD*%
%TA.AperFunction,ComponentPad*%
%ADD11O,2.100000X1.000000*%
%TD*%
%TA.AperFunction,ComponentPad*%
%ADD12O,1.600000X1.000000*%
%TD*%
%TA.AperFunction,ComponentPad*%
%ADD13R,1.700000X1.700000*%
%TD*%
%TA.AperFunction,ComponentPad*%
%ADD14O,1.700000X1.700000*%
%TD*%
%TA.AperFunction,ViaPad*%
%ADD15C,0.600000*%
%TD*%
%TA.AperFunction,ViaPad*%
%ADD16C,0.800000*%
%TD*%
%TA.AperFunction,Conductor*%
%ADD17C,0.250000*%
%TD*%
%TA.AperFunction,Conductor*%
%ADD18C,0.400000*%
%TD*%
G04 APERTURE END LIST*
D10*
%TO.N,GND*%
%TO.C,U1*%
X50950000Y-105000000D03*
X52000000Y-103950000D03*
X52000000Y-106050000D03*
X53050000Y-105000000D03*
X53050000Y-103950000D03*
X53050000Y-106050000D03*
X50950000Y-103950000D03*
X50950000Y-106050000D03*
X52000000Y-105000000D03*
%TD*%
D11*
%TO.N,GND*%
%TO.C,P1*%
X54570000Y-87780000D03*
D12*
X58750000Y-87780000D03*
D11*
X54570000Y-96420000D03*
D12*
X58750000Y-96420000D03*
%TD*%
D13*
%TO.N,+3V3*%
%TO.C,J1*%
X43000000Y-122500000D03*
D14*
X40460000Y-122500000D03*
%TO.N,GND*%
X43000000Y-119960000D03*
X40460000Y-119960000D03*
%TO.N,/D0*%
X43000000Y-117420000D03*
%TO.N,/D4*%
X40460000Y-117420000D03*
%TO.N,/D1*%
X43000000Y-114880000D03*
%TO.N,/D5*%
X40460000Y-114880000D03*
%TO.N,/D2*%
X43000000Y-112340000D03*
%TO.N,/D6*%
X40460000Y-112340000D03*
%TO.N,/D3*%
X43000000Y-109800000D03*
%TO.N,/D7*%
X40460000Y-109800000D03*
%TO.N,unconnected-(J1-Pad13)*%
X43000000Y-107260000D03*
%TO.N,unconnected-(J1-Pad14)*%
X40460000Y-107260000D03*
%TO.N,+5V*%
X43000000Y-104720000D03*
%TO.N,unconnected-(J1-Pad16)*%
X40460000Y-104720000D03*
%TO.N,unconnected-(J1-Pad17)*%
X43000000Y-102180000D03*
%TO.N,unconnected-(J1-Pad18)*%
X40460000Y-102180000D03*
%TO.N,+3V3*%
X43000000Y-99640000D03*
X40460000Y-99640000D03*
%TO.N,GND*%
X43000000Y-97100000D03*
X40460000Y-97100000D03*
%TO.N,/RST*%
X43000000Y-94560000D03*
%TO.N,/CLKOUT*%
X40460000Y-94560000D03*
%TO.N,/REFCLK*%
X43000000Y-92020000D03*
%TO.N,/NXT*%
X40460000Y-92020000D03*
%TO.N,unconnected-(J1-Pad27)*%
X43000000Y-89480000D03*
%TO.N,/DIR*%
X40460000Y-89480000D03*
%TO.N,/USR_LED*%
X43000000Y-86940000D03*
%TO.N,/STP*%
X40460000Y-86940000D03*
%TD*%
D15*
%TO.N,GND*%
X54200000Y-109750000D03*
X55100000Y-108875000D03*
X57975000Y-106975000D03*
%TO.N,+3V3*%
X56120000Y-110375000D03*
%TO.N,+1V8*%
X55539459Y-105968020D03*
X56795000Y-114725000D03*
%TO.N,GND*%
X54270000Y-115375000D03*
X54895000Y-110350000D03*
%TO.N,+3V3*%
X54600000Y-101750000D03*
X52900000Y-108650000D03*
X56200000Y-85100000D03*
X59550000Y-101850000D03*
%TO.N,/RST*%
X49200000Y-101400000D03*
X55789749Y-104624500D03*
D16*
%TO.N,/STP*%
X55500000Y-107000000D03*
D15*
%TO.N,/DIR*%
X55293979Y-107875591D03*
%TO.N,/NXT*%
X54100000Y-108550000D03*
X44650000Y-98500000D03*
D16*
%TO.N,/CLKOUT*%
X49200000Y-107900000D03*
%TO.N,/D4*%
X48000000Y-108500000D03*
%TO.N,/D5*%
X47000000Y-108500000D03*
%TO.N,/D6*%
X46000000Y-108500000D03*
D15*
%TO.N,GND*%
X57150000Y-102450000D03*
X47700000Y-96500000D03*
X45000000Y-105000000D03*
X52450000Y-88700000D03*
X50700000Y-95200000D03*
X57300000Y-99000000D03*
X49750000Y-93750000D03*
X58300000Y-113200000D03*
X47700000Y-91100000D03*
X52400000Y-95450000D03*
X51900000Y-99900000D03*
X49700000Y-90750000D03*
X53900000Y-99900000D03*
X46000000Y-93000000D03*
X52050000Y-113025000D03*
X47200000Y-88900000D03*
X56400000Y-102350000D03*
X52900000Y-99850000D03*
X56950000Y-101750000D03*
X46100000Y-119100000D03*
X48600000Y-100200000D03*
X56800000Y-105700000D03*
X51500000Y-87400000D03*
X51760000Y-91580000D03*
X52000000Y-98100000D03*
%TO.N,Net-(JP1-Pad1)*%
X56750000Y-104450000D03*
%TO.N,VBUS*%
X50400000Y-87600000D03*
%TO.N,Net-(R2-Pad1)*%
X49250000Y-89600000D03*
X55400000Y-101350000D03*
%TO.N,+5V*%
X46000000Y-87200000D03*
%TD*%
D17*
%TO.N,+1V8*%
X55539459Y-105968020D02*
X55868020Y-105968020D01*
X55868020Y-105968020D02*
X56800000Y-106900000D01*
X56800000Y-106900000D02*
X56800000Y-114720000D01*
X56800000Y-114720000D02*
X56795000Y-114725000D01*
D18*
%TO.N,+5V*%
X46000000Y-90700000D02*
X44900000Y-91800000D01*
X44900000Y-94427076D02*
X43517565Y-95809511D01*
X46000000Y-87200000D02*
X46000000Y-90700000D01*
X43517565Y-95809511D02*
X39790489Y-95809511D01*
X39790489Y-95809511D02*
X39210489Y-96389511D01*
X39570489Y-103470489D02*
X41750489Y-103470489D01*
X41750489Y-103470489D02*
X43000000Y-104720000D01*
X39210489Y-96389511D02*
X39210489Y-103110489D01*
X44900000Y-91800000D02*
X44900000Y-94427076D01*
X39210489Y-103110489D02*
X39570489Y-103470489D01*
%TD*%
%TA.AperFunction,Conductor*%
%TO.N,+3V3*%
G36*
X58988227Y-84202518D02*
G01*
X58999642Y-84205143D01*
X59010517Y-84202682D01*
X59021664Y-84202702D01*
X59021664Y-84202863D01*
X59031669Y-84202076D01*
X59103759Y-84206801D01*
X59228475Y-84214975D01*
X59241302Y-84216663D01*
X59459516Y-84260068D01*
X59472016Y-84263418D01*
X59682691Y-84334933D01*
X59694653Y-84339889D01*
X59776954Y-84380475D01*
X59894180Y-84438284D01*
X59905386Y-84444753D01*
X60090385Y-84568365D01*
X60100639Y-84576233D01*
X60267914Y-84722930D01*
X60277069Y-84732085D01*
X60423767Y-84899361D01*
X60431635Y-84909615D01*
X60555247Y-85094614D01*
X60561716Y-85105820D01*
X60660111Y-85305346D01*
X60665067Y-85317309D01*
X60736581Y-85527980D01*
X60739933Y-85540489D01*
X60783336Y-85758691D01*
X60785025Y-85771523D01*
X60797891Y-85967816D01*
X60797101Y-85977628D01*
X60797375Y-85977628D01*
X60797355Y-85988778D01*
X60794857Y-85999642D01*
X60797317Y-86010514D01*
X60797317Y-86010516D01*
X60797559Y-86011583D01*
X60800000Y-86033432D01*
X60800000Y-122966040D01*
X60797482Y-122988227D01*
X60794857Y-122999642D01*
X60797318Y-123010517D01*
X60797298Y-123021664D01*
X60797137Y-123021664D01*
X60797924Y-123031669D01*
X60785026Y-123228469D01*
X60783337Y-123241302D01*
X60739933Y-123459511D01*
X60736582Y-123472016D01*
X60688511Y-123613629D01*
X60665067Y-123682691D01*
X60660111Y-123694654D01*
X60561716Y-123894180D01*
X60555247Y-123905386D01*
X60431635Y-124090385D01*
X60423767Y-124100639D01*
X60291003Y-124252027D01*
X60277070Y-124267914D01*
X60267915Y-124277069D01*
X60100639Y-124423767D01*
X60090385Y-124431635D01*
X59905386Y-124555247D01*
X59894180Y-124561716D01*
X59715697Y-124649734D01*
X59694654Y-124660111D01*
X59682692Y-124665067D01*
X59472016Y-124736582D01*
X59459516Y-124739932D01*
X59241302Y-124783337D01*
X59228477Y-124785025D01*
X59032181Y-124797891D01*
X59022372Y-124797101D01*
X59022372Y-124797375D01*
X59011222Y-124797355D01*
X59000358Y-124794857D01*
X58989486Y-124797317D01*
X58989484Y-124797317D01*
X58988417Y-124797559D01*
X58966568Y-124800000D01*
X40033960Y-124800000D01*
X40011773Y-124797482D01*
X40000358Y-124794857D01*
X39989483Y-124797318D01*
X39978336Y-124797298D01*
X39978336Y-124797137D01*
X39968331Y-124797924D01*
X39896241Y-124793199D01*
X39771525Y-124785025D01*
X39758698Y-124783337D01*
X39540484Y-124739932D01*
X39527984Y-124736582D01*
X39317308Y-124665067D01*
X39305346Y-124660111D01*
X39284304Y-124649734D01*
X39105820Y-124561716D01*
X39094614Y-124555247D01*
X38909615Y-124431635D01*
X38899361Y-124423767D01*
X38732085Y-124277069D01*
X38722930Y-124267914D01*
X38708997Y-124252027D01*
X38576233Y-124100639D01*
X38568365Y-124090385D01*
X38444753Y-123905386D01*
X38438284Y-123894180D01*
X38339889Y-123694654D01*
X38334933Y-123682691D01*
X38311489Y-123613629D01*
X38263418Y-123472016D01*
X38260067Y-123459511D01*
X38216663Y-123241302D01*
X38214974Y-123228470D01*
X38207725Y-123117860D01*
X38202109Y-123032181D01*
X38202899Y-123022372D01*
X38202625Y-123022372D01*
X38202645Y-123011222D01*
X38205143Y-123000358D01*
X38202683Y-122989486D01*
X38202683Y-122989484D01*
X38202441Y-122988417D01*
X38200000Y-122966568D01*
X38200000Y-122767014D01*
X39128043Y-122767014D01*
X39158807Y-122903524D01*
X39161231Y-122911258D01*
X39242183Y-123110620D01*
X39245840Y-123117860D01*
X39358266Y-123301322D01*
X39363056Y-123307867D01*
X39503935Y-123470502D01*
X39509729Y-123476176D01*
X39675292Y-123613629D01*
X39681921Y-123618270D01*
X39867713Y-123726838D01*
X39875008Y-123730334D01*
X40076038Y-123807099D01*
X40083808Y-123809357D01*
X40190637Y-123831091D01*
X40203846Y-123829586D01*
X40206000Y-123821405D01*
X40206000Y-123820952D01*
X40714000Y-123820952D01*
X40718122Y-123833637D01*
X40719650Y-123834748D01*
X40724884Y-123835238D01*
X40739291Y-123833392D01*
X40747200Y-123831710D01*
X40953304Y-123769876D01*
X40960852Y-123766918D01*
X41154087Y-123672253D01*
X41161046Y-123668104D01*
X41336231Y-123543148D01*
X41342412Y-123537924D01*
X41480406Y-123400410D01*
X41534971Y-123372727D01*
X41595387Y-123382404D01*
X41638576Y-123425744D01*
X41645274Y-123448322D01*
X41646642Y-123447997D01*
X41650927Y-123466020D01*
X41697351Y-123589855D01*
X41704059Y-123602108D01*
X41782863Y-123707256D01*
X41792744Y-123717137D01*
X41897892Y-123795941D01*
X41910145Y-123802649D01*
X42033978Y-123849072D01*
X42045967Y-123851923D01*
X42099252Y-123857711D01*
X42104586Y-123858000D01*
X42730320Y-123858000D01*
X42743005Y-123853878D01*
X42746000Y-123849757D01*
X42746000Y-123842319D01*
X43254000Y-123842319D01*
X43258122Y-123855004D01*
X43262243Y-123857999D01*
X43895411Y-123857999D01*
X43900751Y-123857710D01*
X43954035Y-123851922D01*
X43966020Y-123849073D01*
X44089855Y-123802649D01*
X44102108Y-123795941D01*
X44207256Y-123717137D01*
X44217137Y-123707256D01*
X44295941Y-123602108D01*
X44302649Y-123589855D01*
X44349072Y-123466022D01*
X44351923Y-123454033D01*
X44357711Y-123400748D01*
X44358000Y-123395414D01*
X44358000Y-122769680D01*
X44353878Y-122756995D01*
X44349757Y-122754000D01*
X43269680Y-122754000D01*
X43256995Y-122758122D01*
X43254000Y-122762243D01*
X43254000Y-123842319D01*
X42746000Y-123842319D01*
X42746000Y-122769680D01*
X42741878Y-122756995D01*
X42737757Y-122754000D01*
X40729680Y-122754000D01*
X40716995Y-122758122D01*
X40714000Y-122762243D01*
X40714000Y-123820952D01*
X40206000Y-123820952D01*
X40206000Y-122769680D01*
X40201878Y-122756995D01*
X40197757Y-122754000D01*
X39140790Y-122754000D01*
X39128460Y-122758006D01*
X39128043Y-122767014D01*
X38200000Y-122767014D01*
X38200000Y-122235384D01*
X39124056Y-122235384D01*
X39125756Y-122243462D01*
X39127566Y-122245098D01*
X39131792Y-122246000D01*
X44342319Y-122246000D01*
X44355004Y-122241878D01*
X44357999Y-122237757D01*
X44357999Y-121604589D01*
X44357710Y-121599249D01*
X44351922Y-121545965D01*
X44349073Y-121533980D01*
X44302649Y-121410145D01*
X44295941Y-121397892D01*
X44217137Y-121292744D01*
X44207256Y-121282863D01*
X44102108Y-121204059D01*
X44089855Y-121197351D01*
X43966022Y-121150928D01*
X43954033Y-121148077D01*
X43900748Y-121142289D01*
X43895414Y-121142000D01*
X43395804Y-121142000D01*
X43337613Y-121123093D01*
X43301649Y-121073593D01*
X43301649Y-121012407D01*
X43337613Y-120962907D01*
X43369179Y-120947648D01*
X43381725Y-120944145D01*
X43386038Y-120941966D01*
X43386044Y-120941964D01*
X43561289Y-120853441D01*
X43561291Y-120853440D01*
X43565610Y-120851258D01*
X43600943Y-120823653D01*
X43724135Y-120727406D01*
X43724139Y-120727402D01*
X43727951Y-120724424D01*
X43862564Y-120568472D01*
X43881231Y-120535613D01*
X43961934Y-120393550D01*
X43961935Y-120393547D01*
X43964323Y-120389344D01*
X43977882Y-120348586D01*
X44027824Y-120198454D01*
X44027824Y-120198452D01*
X44029351Y-120193863D01*
X44055171Y-119989474D01*
X44055583Y-119960000D01*
X44035480Y-119754970D01*
X43975935Y-119557749D01*
X43879218Y-119375849D01*
X43749011Y-119216200D01*
X43618864Y-119108533D01*
X43601083Y-119093823D01*
X45594391Y-119093823D01*
X45595306Y-119100820D01*
X45595306Y-119100821D01*
X45596814Y-119112354D01*
X45612980Y-119235979D01*
X45615821Y-119242435D01*
X45615821Y-119242436D01*
X45623586Y-119260082D01*
X45670720Y-119367203D01*
X45681583Y-119380126D01*
X45758431Y-119471549D01*
X45758434Y-119471551D01*
X45762970Y-119476948D01*
X45768841Y-119480856D01*
X45768842Y-119480857D01*
X45781143Y-119489045D01*
X45882313Y-119556390D01*
X45982920Y-119587821D01*
X46012425Y-119597039D01*
X46012426Y-119597039D01*
X46019157Y-119599142D01*
X46090828Y-119600456D01*
X46155445Y-119601641D01*
X46155447Y-119601641D01*
X46162499Y-119601770D01*
X46169302Y-119599915D01*
X46169304Y-119599915D01*
X46244503Y-119579413D01*
X46300817Y-119564060D01*
X46422991Y-119489045D01*
X46430403Y-119480857D01*
X46514468Y-119387982D01*
X46519200Y-119382754D01*
X46581710Y-119253733D01*
X46585875Y-119228982D01*
X46604862Y-119116124D01*
X46604862Y-119116120D01*
X46605496Y-119112354D01*
X46605647Y-119100000D01*
X46585323Y-118958082D01*
X46525984Y-118827572D01*
X46432400Y-118718963D01*
X46312095Y-118640985D01*
X46174739Y-118599907D01*
X46091497Y-118599398D01*
X46038427Y-118599074D01*
X46038426Y-118599074D01*
X46031376Y-118599031D01*
X46024599Y-118600968D01*
X46024598Y-118600968D01*
X45900309Y-118636490D01*
X45900307Y-118636491D01*
X45893529Y-118638428D01*
X45772280Y-118714930D01*
X45767613Y-118720214D01*
X45767611Y-118720216D01*
X45682044Y-118817103D01*
X45682042Y-118817105D01*
X45677377Y-118822388D01*
X45616447Y-118952163D01*
X45615362Y-118959132D01*
X45615361Y-118959135D01*
X45611039Y-118986897D01*
X45594391Y-119093823D01*
X43601083Y-119093823D01*
X43594002Y-119087965D01*
X43594000Y-119087964D01*
X43590275Y-119084882D01*
X43409055Y-118986897D01*
X43338530Y-118965066D01*
X43216875Y-118927407D01*
X43216871Y-118927406D01*
X43212254Y-118925977D01*
X43207446Y-118925472D01*
X43207443Y-118925471D01*
X43012185Y-118904949D01*
X43012183Y-118904949D01*
X43007369Y-118904443D01*
X42947354Y-118909905D01*
X42807022Y-118922675D01*
X42807017Y-118922676D01*
X42802203Y-118923114D01*
X42604572Y-118981280D01*
X42600288Y-118983519D01*
X42600287Y-118983520D01*
X42589428Y-118989197D01*
X42422002Y-119076726D01*
X42408023Y-119087965D01*
X42265220Y-119202781D01*
X42265217Y-119202783D01*
X42261447Y-119205815D01*
X42258333Y-119209526D01*
X42258332Y-119209527D01*
X42242008Y-119228982D01*
X42129024Y-119363630D01*
X42126689Y-119367878D01*
X42126688Y-119367879D01*
X42115636Y-119387982D01*
X42029776Y-119544162D01*
X42028313Y-119548775D01*
X42028311Y-119548779D01*
X41974413Y-119718689D01*
X41967484Y-119740532D01*
X41966944Y-119745344D01*
X41966944Y-119745345D01*
X41965865Y-119754970D01*
X41944520Y-119945262D01*
X41961759Y-120150553D01*
X42018544Y-120348586D01*
X42112712Y-120531818D01*
X42240677Y-120693270D01*
X42244357Y-120696402D01*
X42244359Y-120696404D01*
X42357017Y-120792283D01*
X42397564Y-120826791D01*
X42401787Y-120829151D01*
X42401791Y-120829154D01*
X42441342Y-120851258D01*
X42577398Y-120927297D01*
X42581999Y-120928792D01*
X42582006Y-120928795D01*
X42643718Y-120948847D01*
X42693218Y-120984811D01*
X42712125Y-121043001D01*
X42693217Y-121101192D01*
X42643717Y-121137156D01*
X42613125Y-121142001D01*
X42104589Y-121142001D01*
X42099249Y-121142290D01*
X42045965Y-121148078D01*
X42033980Y-121150927D01*
X41910145Y-121197351D01*
X41897892Y-121204059D01*
X41792744Y-121282863D01*
X41782863Y-121292744D01*
X41704059Y-121397892D01*
X41697351Y-121410145D01*
X41650928Y-121533978D01*
X41646642Y-121552003D01*
X41644729Y-121551548D01*
X41623264Y-121599311D01*
X41570170Y-121629719D01*
X41509342Y-121623111D01*
X41476701Y-121599439D01*
X41392065Y-121506426D01*
X41386139Y-121500899D01*
X41217269Y-121367534D01*
X41210525Y-121363054D01*
X41022141Y-121259060D01*
X41014749Y-121255738D01*
X40811920Y-121183912D01*
X40804081Y-121181841D01*
X40734589Y-121169463D01*
X40680616Y-121140644D01*
X40653890Y-121085605D01*
X40664619Y-121025367D01*
X40708706Y-120982941D01*
X40725327Y-120976644D01*
X40774527Y-120962907D01*
X40841725Y-120944145D01*
X40846038Y-120941966D01*
X40846044Y-120941964D01*
X41021289Y-120853441D01*
X41021291Y-120853440D01*
X41025610Y-120851258D01*
X41060943Y-120823653D01*
X41184135Y-120727406D01*
X41184139Y-120727402D01*
X41187951Y-120724424D01*
X41322564Y-120568472D01*
X41341231Y-120535613D01*
X41421934Y-120393550D01*
X41421935Y-120393547D01*
X41424323Y-120389344D01*
X41437882Y-120348586D01*
X41487824Y-120198454D01*
X41487824Y-120198452D01*
X41489351Y-120193863D01*
X41515171Y-119989474D01*
X41515583Y-119960000D01*
X41495480Y-119754970D01*
X41435935Y-119557749D01*
X41339218Y-119375849D01*
X41209011Y-119216200D01*
X41078864Y-119108533D01*
X41054002Y-119087965D01*
X41054000Y-119087964D01*
X41050275Y-119084882D01*
X40869055Y-118986897D01*
X40798530Y-118965066D01*
X40676875Y-118927407D01*
X40676871Y-118927406D01*
X40672254Y-118925977D01*
X40667446Y-118925472D01*
X40667443Y-118925471D01*
X40472185Y-118904949D01*
X40472183Y-118904949D01*
X40467369Y-118904443D01*
X40407354Y-118909905D01*
X40267022Y-118922675D01*
X40267017Y-118922676D01*
X40262203Y-118923114D01*
X40064572Y-118981280D01*
X40060288Y-118983519D01*
X40060287Y-118983520D01*
X40049428Y-118989197D01*
X39882002Y-119076726D01*
X39868023Y-119087965D01*
X39725220Y-119202781D01*
X39725217Y-119202783D01*
X39721447Y-119205815D01*
X39718333Y-119209526D01*
X39718332Y-119209527D01*
X39702008Y-119228982D01*
X39589024Y-119363630D01*
X39586689Y-119367878D01*
X39586688Y-119367879D01*
X39575636Y-119387982D01*
X39489776Y-119544162D01*
X39488313Y-119548775D01*
X39488311Y-119548779D01*
X39434413Y-119718689D01*
X39427484Y-119740532D01*
X39426944Y-119745344D01*
X39426944Y-119745345D01*
X39425865Y-119754970D01*
X39404520Y-119945262D01*
X39421759Y-120150553D01*
X39478544Y-120348586D01*
X39572712Y-120531818D01*
X39700677Y-120693270D01*
X39704357Y-120696402D01*
X39704359Y-120696404D01*
X39817017Y-120792283D01*
X39857564Y-120826791D01*
X39861787Y-120829151D01*
X39861791Y-120829154D01*
X39901342Y-120851258D01*
X40037398Y-120927297D01*
X40191944Y-120977512D01*
X40241444Y-121013476D01*
X40260351Y-121071667D01*
X40241444Y-121129858D01*
X40191944Y-121165822D01*
X40176327Y-121169528D01*
X40148226Y-121173828D01*
X40140341Y-121175707D01*
X39935807Y-121242558D01*
X39928350Y-121245693D01*
X39737479Y-121345054D01*
X39730627Y-121349369D01*
X39558544Y-121478573D01*
X39552491Y-121483947D01*
X39403830Y-121639513D01*
X39398727Y-121645814D01*
X39277466Y-121823575D01*
X39273468Y-121830613D01*
X39182871Y-122025790D01*
X39180073Y-122033394D01*
X39124056Y-122235384D01*
X38200000Y-122235384D01*
X38200000Y-117405262D01*
X39404520Y-117405262D01*
X39421759Y-117610553D01*
X39478544Y-117808586D01*
X39572712Y-117991818D01*
X39700677Y-118153270D01*
X39704357Y-118156402D01*
X39704359Y-118156404D01*
X39817017Y-118252283D01*
X39857564Y-118286791D01*
X39861787Y-118289151D01*
X39861791Y-118289154D01*
X39901342Y-118311258D01*
X40037398Y-118387297D01*
X40041996Y-118388791D01*
X40228724Y-118449463D01*
X40228726Y-118449464D01*
X40233329Y-118450959D01*
X40437894Y-118475351D01*
X40442716Y-118474980D01*
X40442719Y-118474980D01*
X40510541Y-118469761D01*
X40643300Y-118459546D01*
X40841725Y-118404145D01*
X40846038Y-118401966D01*
X40846044Y-118401964D01*
X41021289Y-118313441D01*
X41021291Y-118313440D01*
X41025610Y-118311258D01*
X41060943Y-118283653D01*
X41184135Y-118187406D01*
X41184139Y-118187402D01*
X41187951Y-118184424D01*
X41322564Y-118028472D01*
X41341231Y-117995613D01*
X41421934Y-117853550D01*
X41421935Y-117853547D01*
X41424323Y-117849344D01*
X41437882Y-117808586D01*
X41487824Y-117658454D01*
X41487824Y-117658452D01*
X41489351Y-117653863D01*
X41515171Y-117449474D01*
X41515583Y-117420000D01*
X41514138Y-117405262D01*
X41944520Y-117405262D01*
X41961759Y-117610553D01*
X42018544Y-117808586D01*
X42112712Y-117991818D01*
X42240677Y-118153270D01*
X42244357Y-118156402D01*
X42244359Y-118156404D01*
X42357017Y-118252283D01*
X42397564Y-118286791D01*
X42401787Y-118289151D01*
X42401791Y-118289154D01*
X42441342Y-118311258D01*
X42577398Y-118387297D01*
X42581996Y-118388791D01*
X42768724Y-118449463D01*
X42768726Y-118449464D01*
X42773329Y-118450959D01*
X42977894Y-118475351D01*
X42982716Y-118474980D01*
X42982719Y-118474980D01*
X43050541Y-118469761D01*
X43183300Y-118459546D01*
X43381725Y-118404145D01*
X43386038Y-118401966D01*
X43386044Y-118401964D01*
X43561289Y-118313441D01*
X43561291Y-118313440D01*
X43565610Y-118311258D01*
X43600943Y-118283653D01*
X43724135Y-118187406D01*
X43724139Y-118187402D01*
X43727951Y-118184424D01*
X43862564Y-118028472D01*
X43881231Y-117995613D01*
X43961934Y-117853550D01*
X43961935Y-117853547D01*
X43964323Y-117849344D01*
X43977882Y-117808586D01*
X44027824Y-117658454D01*
X44027824Y-117658452D01*
X44029351Y-117653863D01*
X44055171Y-117449474D01*
X44055583Y-117420000D01*
X44035480Y-117214970D01*
X43975935Y-117017749D01*
X43879218Y-116835849D01*
X43749011Y-116676200D01*
X43590275Y-116544882D01*
X43409055Y-116446897D01*
X43345855Y-116427333D01*
X43216875Y-116387407D01*
X43216871Y-116387406D01*
X43212254Y-116385977D01*
X43207446Y-116385472D01*
X43207443Y-116385471D01*
X43012185Y-116364949D01*
X43012183Y-116364949D01*
X43007369Y-116364443D01*
X42947354Y-116369905D01*
X42807022Y-116382675D01*
X42807017Y-116382676D01*
X42802203Y-116383114D01*
X42604572Y-116441280D01*
X42600288Y-116443519D01*
X42600287Y-116443520D01*
X42589428Y-116449197D01*
X42422002Y-116536726D01*
X42418231Y-116539758D01*
X42265220Y-116662781D01*
X42265217Y-116662783D01*
X42261447Y-116665815D01*
X42258333Y-116669526D01*
X42258332Y-116669527D01*
X42249585Y-116679952D01*
X42129024Y-116823630D01*
X42126689Y-116827878D01*
X42126688Y-116827879D01*
X42119955Y-116840126D01*
X42029776Y-117004162D01*
X41967484Y-117200532D01*
X41966944Y-117205344D01*
X41966944Y-117205345D01*
X41965865Y-117214970D01*
X41944520Y-117405262D01*
X41514138Y-117405262D01*
X41495480Y-117214970D01*
X41435935Y-117017749D01*
X41339218Y-116835849D01*
X41209011Y-116676200D01*
X41050275Y-116544882D01*
X40869055Y-116446897D01*
X40805855Y-116427333D01*
X40676875Y-116387407D01*
X40676871Y-116387406D01*
X40672254Y-116385977D01*
X40667446Y-116385472D01*
X40667443Y-116385471D01*
X40472185Y-116364949D01*
X40472183Y-116364949D01*
X40467369Y-116364443D01*
X40407354Y-116369905D01*
X40267022Y-116382675D01*
X40267017Y-116382676D01*
X40262203Y-116383114D01*
X40064572Y-116441280D01*
X40060288Y-116443519D01*
X40060287Y-116443520D01*
X40049428Y-116449197D01*
X39882002Y-116536726D01*
X39878231Y-116539758D01*
X39725220Y-116662781D01*
X39725217Y-116662783D01*
X39721447Y-116665815D01*
X39718333Y-116669526D01*
X39718332Y-116669527D01*
X39709585Y-116679952D01*
X39589024Y-116823630D01*
X39586689Y-116827878D01*
X39586688Y-116827879D01*
X39579955Y-116840126D01*
X39489776Y-117004162D01*
X39427484Y-117200532D01*
X39426944Y-117205344D01*
X39426944Y-117205345D01*
X39425865Y-117214970D01*
X39404520Y-117405262D01*
X38200000Y-117405262D01*
X38200000Y-114865262D01*
X39404520Y-114865262D01*
X39408000Y-114906699D01*
X39416925Y-115012982D01*
X39421759Y-115070553D01*
X39423092Y-115075201D01*
X39423092Y-115075202D01*
X39466022Y-115224915D01*
X39478544Y-115268586D01*
X39572712Y-115451818D01*
X39700677Y-115613270D01*
X39704357Y-115616402D01*
X39704359Y-115616404D01*
X39817017Y-115712283D01*
X39857564Y-115746791D01*
X39861787Y-115749151D01*
X39861791Y-115749154D01*
X39901342Y-115771258D01*
X40037398Y-115847297D01*
X40041996Y-115848791D01*
X40228724Y-115909463D01*
X40228726Y-115909464D01*
X40233329Y-115910959D01*
X40437894Y-115935351D01*
X40442716Y-115934980D01*
X40442719Y-115934980D01*
X40510541Y-115929761D01*
X40643300Y-115919546D01*
X40841725Y-115864145D01*
X40846038Y-115861966D01*
X40846044Y-115861964D01*
X41021289Y-115773441D01*
X41021291Y-115773440D01*
X41025610Y-115771258D01*
X41041538Y-115758814D01*
X41184135Y-115647406D01*
X41184139Y-115647402D01*
X41187951Y-115644424D01*
X41322564Y-115488472D01*
X41341231Y-115455613D01*
X41421934Y-115313550D01*
X41421935Y-115313547D01*
X41424323Y-115309344D01*
X41437882Y-115268586D01*
X41487824Y-115118454D01*
X41487824Y-115118452D01*
X41489351Y-115113863D01*
X41490363Y-115105857D01*
X41514604Y-114913964D01*
X41515171Y-114909474D01*
X41515583Y-114880000D01*
X41515084Y-114874907D01*
X41514138Y-114865262D01*
X41944520Y-114865262D01*
X41948000Y-114906699D01*
X41956925Y-115012982D01*
X41961759Y-115070553D01*
X41963092Y-115075201D01*
X41963092Y-115075202D01*
X42006022Y-115224915D01*
X42018544Y-115268586D01*
X42112712Y-115451818D01*
X42240677Y-115613270D01*
X42244357Y-115616402D01*
X42244359Y-115616404D01*
X42357017Y-115712283D01*
X42397564Y-115746791D01*
X42401787Y-115749151D01*
X42401791Y-115749154D01*
X42441342Y-115771258D01*
X42577398Y-115847297D01*
X42581996Y-115848791D01*
X42768724Y-115909463D01*
X42768726Y-115909464D01*
X42773329Y-115910959D01*
X42977894Y-115935351D01*
X42982716Y-115934980D01*
X42982719Y-115934980D01*
X43050541Y-115929761D01*
X43183300Y-115919546D01*
X43381725Y-115864145D01*
X43386038Y-115861966D01*
X43386044Y-115861964D01*
X43561289Y-115773441D01*
X43561291Y-115773440D01*
X43565610Y-115771258D01*
X43581538Y-115758814D01*
X43724135Y-115647406D01*
X43724139Y-115647402D01*
X43727951Y-115644424D01*
X43862564Y-115488472D01*
X43881231Y-115455613D01*
X43930535Y-115368823D01*
X53764391Y-115368823D01*
X53765306Y-115375820D01*
X53765306Y-115375821D01*
X53766814Y-115387354D01*
X53782980Y-115510979D01*
X53785821Y-115517435D01*
X53785821Y-115517436D01*
X53793586Y-115535082D01*
X53840720Y-115642203D01*
X53853792Y-115657754D01*
X53928431Y-115746549D01*
X53928434Y-115746551D01*
X53932970Y-115751948D01*
X53938841Y-115755856D01*
X53938842Y-115755857D01*
X53951143Y-115764045D01*
X54052313Y-115831390D01*
X54108012Y-115848791D01*
X54182425Y-115872039D01*
X54182426Y-115872039D01*
X54189157Y-115874142D01*
X54260828Y-115875456D01*
X54325445Y-115876641D01*
X54325447Y-115876641D01*
X54332499Y-115876770D01*
X54339302Y-115874915D01*
X54339304Y-115874915D01*
X54449264Y-115844936D01*
X54470817Y-115839060D01*
X54592991Y-115764045D01*
X54600403Y-115755857D01*
X54684468Y-115662982D01*
X54689200Y-115657754D01*
X54751710Y-115528733D01*
X54755875Y-115503982D01*
X54774862Y-115391124D01*
X54774862Y-115391120D01*
X54775496Y-115387354D01*
X54775647Y-115375000D01*
X54755323Y-115233082D01*
X54702879Y-115117737D01*
X54698905Y-115108996D01*
X54698904Y-115108995D01*
X54695984Y-115102572D01*
X54602400Y-114993963D01*
X54482095Y-114915985D01*
X54344739Y-114874907D01*
X54261497Y-114874398D01*
X54208427Y-114874074D01*
X54208426Y-114874074D01*
X54201376Y-114874031D01*
X54194599Y-114875968D01*
X54194598Y-114875968D01*
X54070309Y-114911490D01*
X54070307Y-114911491D01*
X54063529Y-114913428D01*
X53942280Y-114989930D01*
X53937613Y-114995214D01*
X53937611Y-114995216D01*
X53852044Y-115092103D01*
X53852042Y-115092105D01*
X53847377Y-115097388D01*
X53786447Y-115227163D01*
X53785362Y-115234132D01*
X53785361Y-115234135D01*
X53774366Y-115304755D01*
X53764391Y-115368823D01*
X43930535Y-115368823D01*
X43961934Y-115313550D01*
X43961935Y-115313547D01*
X43964323Y-115309344D01*
X43977882Y-115268586D01*
X44027824Y-115118454D01*
X44027824Y-115118452D01*
X44029351Y-115113863D01*
X44030363Y-115105857D01*
X44054604Y-114913964D01*
X44055171Y-114909474D01*
X44055583Y-114880000D01*
X44055084Y-114874907D01*
X44035952Y-114679780D01*
X44035951Y-114679776D01*
X44035480Y-114674970D01*
X43975935Y-114477749D01*
X43879218Y-114295849D01*
X43749011Y-114136200D01*
X43590275Y-114004882D01*
X43409055Y-113906897D01*
X43345855Y-113887333D01*
X43216875Y-113847407D01*
X43216871Y-113847406D01*
X43212254Y-113845977D01*
X43207446Y-113845472D01*
X43207443Y-113845471D01*
X43012185Y-113824949D01*
X43012183Y-113824949D01*
X43007369Y-113824443D01*
X42947354Y-113829905D01*
X42807022Y-113842675D01*
X42807017Y-113842676D01*
X42802203Y-113843114D01*
X42604572Y-113901280D01*
X42600288Y-113903519D01*
X42600287Y-113903520D01*
X42589428Y-113909197D01*
X42422002Y-113996726D01*
X42418231Y-113999758D01*
X42265220Y-114122781D01*
X42265217Y-114122783D01*
X42261447Y-114125815D01*
X42258333Y-114129526D01*
X42258332Y-114129527D01*
X42249585Y-114139952D01*
X42129024Y-114283630D01*
X42126689Y-114287878D01*
X42126688Y-114287879D01*
X42119955Y-114300126D01*
X42029776Y-114464162D01*
X41967484Y-114660532D01*
X41966944Y-114665344D01*
X41966944Y-114665345D01*
X41959296Y-114733533D01*
X41944520Y-114865262D01*
X41514138Y-114865262D01*
X41495952Y-114679780D01*
X41495951Y-114679776D01*
X41495480Y-114674970D01*
X41435935Y-114477749D01*
X41339218Y-114295849D01*
X41209011Y-114136200D01*
X41050275Y-114004882D01*
X40869055Y-113906897D01*
X40805855Y-113887333D01*
X40676875Y-113847407D01*
X40676871Y-113847406D01*
X40672254Y-113845977D01*
X40667446Y-113845472D01*
X40667443Y-113845471D01*
X40472185Y-113824949D01*
X40472183Y-113824949D01*
X40467369Y-113824443D01*
X40407354Y-113829905D01*
X40267022Y-113842675D01*
X40267017Y-113842676D01*
X40262203Y-113843114D01*
X40064572Y-113901280D01*
X40060288Y-113903519D01*
X40060287Y-113903520D01*
X40049428Y-113909197D01*
X39882002Y-113996726D01*
X39878231Y-113999758D01*
X39725220Y-114122781D01*
X39725217Y-114122783D01*
X39721447Y-114125815D01*
X39718333Y-114129526D01*
X39718332Y-114129527D01*
X39709585Y-114139952D01*
X39589024Y-114283630D01*
X39586689Y-114287878D01*
X39586688Y-114287879D01*
X39579955Y-114300126D01*
X39489776Y-114464162D01*
X39427484Y-114660532D01*
X39426944Y-114665344D01*
X39426944Y-114665345D01*
X39419296Y-114733533D01*
X39404520Y-114865262D01*
X38200000Y-114865262D01*
X38200000Y-112325262D01*
X39404520Y-112325262D01*
X39421759Y-112530553D01*
X39423092Y-112535201D01*
X39423092Y-112535202D01*
X39470625Y-112700968D01*
X39478544Y-112728586D01*
X39572712Y-112911818D01*
X39700677Y-113073270D01*
X39704357Y-113076402D01*
X39704359Y-113076404D01*
X39795513Y-113153982D01*
X39857564Y-113206791D01*
X39861787Y-113209151D01*
X39861791Y-113209154D01*
X39901342Y-113231258D01*
X40037398Y-113307297D01*
X40041996Y-113308791D01*
X40228724Y-113369463D01*
X40228726Y-113369464D01*
X40233329Y-113370959D01*
X40437894Y-113395351D01*
X40442716Y-113394980D01*
X40442719Y-113394980D01*
X40510541Y-113389761D01*
X40643300Y-113379546D01*
X40841725Y-113324145D01*
X40846038Y-113321966D01*
X40846044Y-113321964D01*
X41021289Y-113233441D01*
X41021291Y-113233440D01*
X41025610Y-113231258D01*
X41073525Y-113193823D01*
X41184135Y-113107406D01*
X41184139Y-113107402D01*
X41187951Y-113104424D01*
X41322564Y-112948472D01*
X41341231Y-112915613D01*
X41421934Y-112773550D01*
X41421935Y-112773547D01*
X41424323Y-112769344D01*
X41427766Y-112758996D01*
X41487824Y-112578454D01*
X41487824Y-112578452D01*
X41489351Y-112573863D01*
X41495402Y-112525968D01*
X41514823Y-112372228D01*
X41515171Y-112369474D01*
X41515583Y-112340000D01*
X41514138Y-112325262D01*
X41944520Y-112325262D01*
X41961759Y-112530553D01*
X41963092Y-112535201D01*
X41963092Y-112535202D01*
X42010625Y-112700968D01*
X42018544Y-112728586D01*
X42112712Y-112911818D01*
X42240677Y-113073270D01*
X42244357Y-113076402D01*
X42244359Y-113076404D01*
X42335513Y-113153982D01*
X42397564Y-113206791D01*
X42401787Y-113209151D01*
X42401791Y-113209154D01*
X42441342Y-113231258D01*
X42577398Y-113307297D01*
X42581996Y-113308791D01*
X42768724Y-113369463D01*
X42768726Y-113369464D01*
X42773329Y-113370959D01*
X42977894Y-113395351D01*
X42982716Y-113394980D01*
X42982719Y-113394980D01*
X43050541Y-113389761D01*
X43183300Y-113379546D01*
X43381725Y-113324145D01*
X43386038Y-113321966D01*
X43386044Y-113321964D01*
X43561289Y-113233441D01*
X43561291Y-113233440D01*
X43565610Y-113231258D01*
X43613525Y-113193823D01*
X43724135Y-113107406D01*
X43724139Y-113107402D01*
X43727951Y-113104424D01*
X43801839Y-113018823D01*
X51544391Y-113018823D01*
X51545306Y-113025820D01*
X51545306Y-113025821D01*
X51562065Y-113153982D01*
X51562980Y-113160979D01*
X51565821Y-113167435D01*
X51565821Y-113167436D01*
X51593904Y-113231258D01*
X51620720Y-113292203D01*
X51662945Y-113342436D01*
X51708431Y-113396549D01*
X51708434Y-113396551D01*
X51712970Y-113401948D01*
X51718841Y-113405856D01*
X51718842Y-113405857D01*
X51731143Y-113414045D01*
X51832313Y-113481390D01*
X51932920Y-113512821D01*
X51962425Y-113522039D01*
X51962426Y-113522039D01*
X51969157Y-113524142D01*
X52040828Y-113525456D01*
X52105445Y-113526641D01*
X52105447Y-113526641D01*
X52112499Y-113526770D01*
X52119302Y-113524915D01*
X52119304Y-113524915D01*
X52194503Y-113504413D01*
X52250817Y-113489060D01*
X52372991Y-113414045D01*
X52380403Y-113405857D01*
X52464468Y-113312982D01*
X52469200Y-113307754D01*
X52519636Y-113203653D01*
X52528634Y-113185082D01*
X52531710Y-113178733D01*
X52535875Y-113153982D01*
X52554862Y-113041124D01*
X52554862Y-113041120D01*
X52555496Y-113037354D01*
X52555647Y-113025000D01*
X52535323Y-112883082D01*
X52475984Y-112752572D01*
X52382400Y-112643963D01*
X52262095Y-112565985D01*
X52124739Y-112524907D01*
X52041497Y-112524398D01*
X51988427Y-112524074D01*
X51988426Y-112524074D01*
X51981376Y-112524031D01*
X51974599Y-112525968D01*
X51974598Y-112525968D01*
X51850309Y-112561490D01*
X51850307Y-112561491D01*
X51843529Y-112563428D01*
X51722280Y-112639930D01*
X51717613Y-112645214D01*
X51717611Y-112645216D01*
X51632044Y-112742103D01*
X51632042Y-112742105D01*
X51627377Y-112747388D01*
X51624381Y-112753770D01*
X51624380Y-112753771D01*
X51615094Y-112773550D01*
X51566447Y-112877163D01*
X51565362Y-112884132D01*
X51565361Y-112884135D01*
X51558598Y-112927572D01*
X51544391Y-113018823D01*
X43801839Y-113018823D01*
X43862564Y-112948472D01*
X43881231Y-112915613D01*
X43961934Y-112773550D01*
X43961935Y-112773547D01*
X43964323Y-112769344D01*
X43967766Y-112758996D01*
X44027824Y-112578454D01*
X44027824Y-112578452D01*
X44029351Y-112573863D01*
X44035402Y-112525968D01*
X44054823Y-112372228D01*
X44055171Y-112369474D01*
X44055583Y-112340000D01*
X44035480Y-112134970D01*
X43975935Y-111937749D01*
X43879218Y-111755849D01*
X43749011Y-111596200D01*
X43590275Y-111464882D01*
X43409055Y-111366897D01*
X43345855Y-111347333D01*
X43216875Y-111307407D01*
X43216871Y-111307406D01*
X43212254Y-111305977D01*
X43207446Y-111305472D01*
X43207443Y-111305471D01*
X43012185Y-111284949D01*
X43012183Y-111284949D01*
X43007369Y-111284443D01*
X42947354Y-111289905D01*
X42807022Y-111302675D01*
X42807017Y-111302676D01*
X42802203Y-111303114D01*
X42604572Y-111361280D01*
X42600288Y-111363519D01*
X42600287Y-111363520D01*
X42589428Y-111369197D01*
X42422002Y-111456726D01*
X42418231Y-111459758D01*
X42265220Y-111582781D01*
X42265217Y-111582783D01*
X42261447Y-111585815D01*
X42258333Y-111589526D01*
X42258332Y-111589527D01*
X42249585Y-111599952D01*
X42129024Y-111743630D01*
X42126689Y-111747878D01*
X42126688Y-111747879D01*
X42119955Y-111760126D01*
X42029776Y-111924162D01*
X41967484Y-112120532D01*
X41966944Y-112125344D01*
X41966944Y-112125345D01*
X41965865Y-112134970D01*
X41944520Y-112325262D01*
X41514138Y-112325262D01*
X41495480Y-112134970D01*
X41435935Y-111937749D01*
X41339218Y-111755849D01*
X41209011Y-111596200D01*
X41050275Y-111464882D01*
X40869055Y-111366897D01*
X40805855Y-111347333D01*
X40676875Y-111307407D01*
X40676871Y-111307406D01*
X40672254Y-111305977D01*
X40667446Y-111305472D01*
X40667443Y-111305471D01*
X40472185Y-111284949D01*
X40472183Y-111284949D01*
X40467369Y-111284443D01*
X40407354Y-111289905D01*
X40267022Y-111302675D01*
X40267017Y-111302676D01*
X40262203Y-111303114D01*
X40064572Y-111361280D01*
X40060288Y-111363519D01*
X40060287Y-111363520D01*
X40049428Y-111369197D01*
X39882002Y-111456726D01*
X39878231Y-111459758D01*
X39725220Y-111582781D01*
X39725217Y-111582783D01*
X39721447Y-111585815D01*
X39718333Y-111589526D01*
X39718332Y-111589527D01*
X39709585Y-111599952D01*
X39589024Y-111743630D01*
X39586689Y-111747878D01*
X39586688Y-111747879D01*
X39579955Y-111760126D01*
X39489776Y-111924162D01*
X39427484Y-112120532D01*
X39426944Y-112125344D01*
X39426944Y-112125345D01*
X39425865Y-112134970D01*
X39404520Y-112325262D01*
X38200000Y-112325262D01*
X38200000Y-109785262D01*
X39404520Y-109785262D01*
X39410055Y-109851180D01*
X39420395Y-109974307D01*
X39421759Y-109990553D01*
X39423092Y-109995201D01*
X39423092Y-109995202D01*
X39460870Y-110126948D01*
X39478544Y-110188586D01*
X39572712Y-110371818D01*
X39700677Y-110533270D01*
X39704357Y-110536402D01*
X39704359Y-110536404D01*
X39791712Y-110610747D01*
X39857564Y-110666791D01*
X39861787Y-110669151D01*
X39861791Y-110669154D01*
X39901342Y-110691258D01*
X40037398Y-110767297D01*
X40041996Y-110768791D01*
X40228724Y-110829463D01*
X40228726Y-110829464D01*
X40233329Y-110830959D01*
X40437894Y-110855351D01*
X40442716Y-110854980D01*
X40442719Y-110854980D01*
X40516911Y-110849271D01*
X40643300Y-110839546D01*
X40841725Y-110784145D01*
X40846038Y-110781966D01*
X40846044Y-110781964D01*
X41021289Y-110693441D01*
X41021291Y-110693440D01*
X41025610Y-110691258D01*
X41093801Y-110637982D01*
X41184135Y-110567406D01*
X41184139Y-110567402D01*
X41187951Y-110564424D01*
X41322564Y-110408472D01*
X41341231Y-110375613D01*
X41421934Y-110233550D01*
X41421935Y-110233547D01*
X41424323Y-110229344D01*
X41429408Y-110214060D01*
X41487824Y-110038454D01*
X41487824Y-110038452D01*
X41489351Y-110033863D01*
X41498035Y-109965126D01*
X41514823Y-109832228D01*
X41515171Y-109829474D01*
X41515583Y-109800000D01*
X41514138Y-109785262D01*
X41944520Y-109785262D01*
X41950055Y-109851180D01*
X41960395Y-109974307D01*
X41961759Y-109990553D01*
X41963092Y-109995201D01*
X41963092Y-109995202D01*
X42000870Y-110126948D01*
X42018544Y-110188586D01*
X42112712Y-110371818D01*
X42240677Y-110533270D01*
X42244357Y-110536402D01*
X42244359Y-110536404D01*
X42331712Y-110610747D01*
X42397564Y-110666791D01*
X42401787Y-110669151D01*
X42401791Y-110669154D01*
X42441342Y-110691258D01*
X42577398Y-110767297D01*
X42581996Y-110768791D01*
X42768724Y-110829463D01*
X42768726Y-110829464D01*
X42773329Y-110830959D01*
X42977894Y-110855351D01*
X42982716Y-110854980D01*
X42982719Y-110854980D01*
X43056911Y-110849271D01*
X43183300Y-110839546D01*
X43381725Y-110784145D01*
X43386038Y-110781966D01*
X43386044Y-110781964D01*
X43561289Y-110693441D01*
X43561291Y-110693440D01*
X43565610Y-110691258D01*
X43633801Y-110637982D01*
X43724135Y-110567406D01*
X43724139Y-110567402D01*
X43727951Y-110564424D01*
X43862564Y-110408472D01*
X43881231Y-110375613D01*
X43961934Y-110233550D01*
X43961935Y-110233547D01*
X43964323Y-110229344D01*
X43969408Y-110214060D01*
X44027824Y-110038454D01*
X44027824Y-110038452D01*
X44029351Y-110033863D01*
X44038035Y-109965126D01*
X44054823Y-109832228D01*
X44055171Y-109829474D01*
X44055583Y-109800000D01*
X44051430Y-109757645D01*
X44050075Y-109743823D01*
X53694391Y-109743823D01*
X53695306Y-109750820D01*
X53695306Y-109750821D01*
X53708527Y-109851929D01*
X53712980Y-109885979D01*
X53715821Y-109892435D01*
X53715821Y-109892436D01*
X53758994Y-109990553D01*
X53770720Y-110017203D01*
X53816845Y-110072075D01*
X53858431Y-110121549D01*
X53858434Y-110121551D01*
X53862970Y-110126948D01*
X53982313Y-110206390D01*
X54055786Y-110229344D01*
X54112425Y-110247039D01*
X54112426Y-110247039D01*
X54119157Y-110249142D01*
X54190828Y-110250456D01*
X54255445Y-110251641D01*
X54255447Y-110251641D01*
X54262499Y-110251770D01*
X54269303Y-110249915D01*
X54276304Y-110249043D01*
X54276616Y-110251548D01*
X54326415Y-110253934D01*
X54374137Y-110292226D01*
X54389211Y-110343847D01*
X54389391Y-110343823D01*
X54390306Y-110350820D01*
X54390306Y-110350822D01*
X54391814Y-110362354D01*
X54407980Y-110485979D01*
X54410821Y-110492435D01*
X54410821Y-110492436D01*
X54442497Y-110564424D01*
X54465720Y-110617203D01*
X54478792Y-110632754D01*
X54553431Y-110721549D01*
X54553434Y-110721551D01*
X54557970Y-110726948D01*
X54563841Y-110730856D01*
X54563842Y-110730857D01*
X54576143Y-110739045D01*
X54677313Y-110806390D01*
X54757790Y-110831532D01*
X54807425Y-110847039D01*
X54807426Y-110847039D01*
X54814157Y-110849142D01*
X54885828Y-110850456D01*
X54950445Y-110851641D01*
X54950447Y-110851641D01*
X54957499Y-110851770D01*
X54964302Y-110849915D01*
X54964304Y-110849915D01*
X55039503Y-110829413D01*
X55095817Y-110814060D01*
X55217991Y-110739045D01*
X55225403Y-110730857D01*
X55309468Y-110637982D01*
X55314200Y-110632754D01*
X55360881Y-110536404D01*
X55373634Y-110510082D01*
X55376710Y-110503733D01*
X55380875Y-110478982D01*
X55399862Y-110366124D01*
X55399862Y-110366120D01*
X55400496Y-110362354D01*
X55400647Y-110350000D01*
X55380323Y-110208082D01*
X55320984Y-110077572D01*
X55227400Y-109968963D01*
X55107095Y-109890985D01*
X54969739Y-109849907D01*
X54886497Y-109849398D01*
X54833427Y-109849074D01*
X54833426Y-109849074D01*
X54826376Y-109849031D01*
X54819598Y-109850968D01*
X54818051Y-109851180D01*
X54757833Y-109840344D01*
X54715485Y-109796182D01*
X54706890Y-109757577D01*
X54705849Y-109757645D01*
X54705600Y-109753826D01*
X54705647Y-109750000D01*
X54685323Y-109608082D01*
X54625984Y-109477572D01*
X54549475Y-109388779D01*
X54537005Y-109374307D01*
X54537004Y-109374306D01*
X54532400Y-109368963D01*
X54412095Y-109290985D01*
X54274739Y-109249907D01*
X54164248Y-109249232D01*
X54152073Y-109245194D01*
X54144167Y-109248288D01*
X54138427Y-109249074D01*
X54131376Y-109249031D01*
X54124599Y-109250968D01*
X54124598Y-109250968D01*
X54000309Y-109286490D01*
X54000307Y-109286491D01*
X53993529Y-109288428D01*
X53872280Y-109364930D01*
X53867613Y-109370214D01*
X53867611Y-109370216D01*
X53782044Y-109467103D01*
X53782042Y-109467105D01*
X53777377Y-109472388D01*
X53716447Y-109602163D01*
X53694391Y-109743823D01*
X44050075Y-109743823D01*
X44035952Y-109599780D01*
X44035951Y-109599776D01*
X44035480Y-109594970D01*
X43975935Y-109397749D01*
X43879218Y-109215849D01*
X43749011Y-109056200D01*
X43743656Y-109051770D01*
X43594002Y-108927965D01*
X43594000Y-108927964D01*
X43590275Y-108924882D01*
X43423703Y-108834817D01*
X43413309Y-108829197D01*
X43413308Y-108829197D01*
X43409055Y-108826897D01*
X43311976Y-108796846D01*
X43216875Y-108767407D01*
X43216871Y-108767406D01*
X43212254Y-108765977D01*
X43207446Y-108765472D01*
X43207443Y-108765471D01*
X43012185Y-108744949D01*
X43012183Y-108744949D01*
X43007369Y-108744443D01*
X42947354Y-108749905D01*
X42807022Y-108762675D01*
X42807017Y-108762676D01*
X42802203Y-108763114D01*
X42604572Y-108821280D01*
X42600288Y-108823519D01*
X42600287Y-108823520D01*
X42589428Y-108829197D01*
X42422002Y-108916726D01*
X42418231Y-108919758D01*
X42265220Y-109042781D01*
X42265217Y-109042783D01*
X42261447Y-109045815D01*
X42258333Y-109049526D01*
X42258332Y-109049527D01*
X42167519Y-109157754D01*
X42129024Y-109203630D01*
X42126689Y-109207878D01*
X42126688Y-109207879D01*
X42119955Y-109220126D01*
X42029776Y-109384162D01*
X42028313Y-109388775D01*
X42028311Y-109388779D01*
X42001789Y-109472388D01*
X41967484Y-109580532D01*
X41966944Y-109585344D01*
X41966944Y-109585345D01*
X41947090Y-109762354D01*
X41944520Y-109785262D01*
X41514138Y-109785262D01*
X41511430Y-109757645D01*
X41495952Y-109599780D01*
X41495951Y-109599776D01*
X41495480Y-109594970D01*
X41435935Y-109397749D01*
X41339218Y-109215849D01*
X41209011Y-109056200D01*
X41203656Y-109051770D01*
X41054002Y-108927965D01*
X41054000Y-108927964D01*
X41050275Y-108924882D01*
X40883703Y-108834817D01*
X40873309Y-108829197D01*
X40873308Y-108829197D01*
X40869055Y-108826897D01*
X40771976Y-108796846D01*
X40676875Y-108767407D01*
X40676871Y-108767406D01*
X40672254Y-108765977D01*
X40667446Y-108765472D01*
X40667443Y-108765471D01*
X40472185Y-108744949D01*
X40472183Y-108744949D01*
X40467369Y-108744443D01*
X40407354Y-108749905D01*
X40267022Y-108762675D01*
X40267017Y-108762676D01*
X40262203Y-108763114D01*
X40064572Y-108821280D01*
X40060288Y-108823519D01*
X40060287Y-108823520D01*
X40049428Y-108829197D01*
X39882002Y-108916726D01*
X39878231Y-108919758D01*
X39725220Y-109042781D01*
X39725217Y-109042783D01*
X39721447Y-109045815D01*
X39718333Y-109049526D01*
X39718332Y-109049527D01*
X39627519Y-109157754D01*
X39589024Y-109203630D01*
X39586689Y-109207878D01*
X39586688Y-109207879D01*
X39579955Y-109220126D01*
X39489776Y-109384162D01*
X39488313Y-109388775D01*
X39488311Y-109388779D01*
X39461789Y-109472388D01*
X39427484Y-109580532D01*
X39426944Y-109585344D01*
X39426944Y-109585345D01*
X39407090Y-109762354D01*
X39404520Y-109785262D01*
X38200000Y-109785262D01*
X38200000Y-108500000D01*
X45394318Y-108500000D01*
X45414956Y-108656762D01*
X45475464Y-108802841D01*
X45571718Y-108928282D01*
X45697159Y-109024536D01*
X45843238Y-109085044D01*
X46000000Y-109105682D01*
X46156762Y-109085044D01*
X46302841Y-109024536D01*
X46428282Y-108928282D01*
X46430852Y-108924933D01*
X46484513Y-108897592D01*
X46544945Y-108907163D01*
X46568826Y-108924513D01*
X46571718Y-108928282D01*
X46697159Y-109024536D01*
X46843238Y-109085044D01*
X47000000Y-109105682D01*
X47156762Y-109085044D01*
X47302841Y-109024536D01*
X47428282Y-108928282D01*
X47430852Y-108924933D01*
X47484513Y-108897592D01*
X47544945Y-108907163D01*
X47568826Y-108924513D01*
X47571718Y-108928282D01*
X47697159Y-109024536D01*
X47843238Y-109085044D01*
X48000000Y-109105682D01*
X48156762Y-109085044D01*
X48302841Y-109024536D01*
X48428282Y-108928282D01*
X48524536Y-108802841D01*
X48585044Y-108656762D01*
X48599913Y-108543823D01*
X53594391Y-108543823D01*
X53612980Y-108685979D01*
X53615821Y-108692435D01*
X53615821Y-108692436D01*
X53664401Y-108802841D01*
X53670720Y-108817203D01*
X53714111Y-108868823D01*
X53758431Y-108921549D01*
X53758434Y-108921551D01*
X53762970Y-108926948D01*
X53882313Y-109006390D01*
X53974153Y-109035082D01*
X54012425Y-109047039D01*
X54012426Y-109047039D01*
X54019157Y-109049142D01*
X54104864Y-109050713D01*
X54132548Y-109051221D01*
X54144258Y-109055265D01*
X54152617Y-109051993D01*
X54155446Y-109051641D01*
X54162499Y-109051770D01*
X54169302Y-109049915D01*
X54169304Y-109049915D01*
X54253284Y-109027019D01*
X54300817Y-109014060D01*
X54422991Y-108939045D01*
X54436997Y-108923572D01*
X54490064Y-108893117D01*
X54550897Y-108899671D01*
X54596260Y-108940730D01*
X54608559Y-108977170D01*
X54612980Y-109010979D01*
X54615821Y-109017435D01*
X54615821Y-109017436D01*
X54654278Y-109104835D01*
X54670720Y-109142203D01*
X54683792Y-109157754D01*
X54758431Y-109246549D01*
X54758434Y-109246551D01*
X54762970Y-109251948D01*
X54768841Y-109255856D01*
X54768842Y-109255857D01*
X54781143Y-109264045D01*
X54882313Y-109331390D01*
X54977626Y-109361167D01*
X55012425Y-109372039D01*
X55012426Y-109372039D01*
X55019157Y-109374142D01*
X55090828Y-109375456D01*
X55155445Y-109376641D01*
X55155447Y-109376641D01*
X55162499Y-109376770D01*
X55169302Y-109374915D01*
X55169304Y-109374915D01*
X55244503Y-109354413D01*
X55300817Y-109339060D01*
X55422991Y-109264045D01*
X55430403Y-109255857D01*
X55514468Y-109162982D01*
X55519200Y-109157754D01*
X55581710Y-109028733D01*
X55584800Y-109010371D01*
X55604862Y-108891124D01*
X55604862Y-108891120D01*
X55605496Y-108887354D01*
X55605647Y-108875000D01*
X55585323Y-108733082D01*
X55525984Y-108602572D01*
X55439020Y-108501646D01*
X55415359Y-108445221D01*
X55429383Y-108385665D01*
X55475734Y-108345725D01*
X55487977Y-108341510D01*
X55494796Y-108339651D01*
X55616970Y-108264636D01*
X55635518Y-108244145D01*
X55708447Y-108163573D01*
X55713179Y-108158345D01*
X55765717Y-108049907D01*
X55772613Y-108035673D01*
X55775689Y-108029324D01*
X55779854Y-108004573D01*
X55798841Y-107891715D01*
X55798841Y-107891711D01*
X55799475Y-107887945D01*
X55799626Y-107875591D01*
X55779302Y-107733673D01*
X55773707Y-107721367D01*
X55745409Y-107659127D01*
X55738536Y-107598329D01*
X55768712Y-107545103D01*
X55791441Y-107530637D01*
X55791226Y-107530264D01*
X55796846Y-107527019D01*
X55802841Y-107524536D01*
X55928282Y-107428282D01*
X56024536Y-107302841D01*
X56085044Y-107156762D01*
X56105682Y-107000000D01*
X56104514Y-106991124D01*
X56093112Y-106904521D01*
X56104262Y-106844360D01*
X56148644Y-106802243D01*
X56209306Y-106794257D01*
X56261269Y-106821595D01*
X56445504Y-107005830D01*
X56473281Y-107060347D01*
X56474500Y-107075834D01*
X56474500Y-114294297D01*
X56455593Y-114352488D01*
X56449704Y-114359831D01*
X56377044Y-114442103D01*
X56377042Y-114442105D01*
X56372377Y-114447388D01*
X56369381Y-114453770D01*
X56369380Y-114453771D01*
X56358122Y-114477749D01*
X56311447Y-114577163D01*
X56289391Y-114718823D01*
X56290306Y-114725820D01*
X56290306Y-114725821D01*
X56291814Y-114737354D01*
X56307980Y-114860979D01*
X56310821Y-114867435D01*
X56310821Y-114867436D01*
X56318586Y-114885082D01*
X56365720Y-114992203D01*
X56378792Y-115007754D01*
X56453431Y-115096549D01*
X56453434Y-115096551D01*
X56457970Y-115101948D01*
X56463841Y-115105856D01*
X56463842Y-115105857D01*
X56468558Y-115108996D01*
X56577313Y-115181390D01*
X56677920Y-115212821D01*
X56707425Y-115222039D01*
X56707426Y-115222039D01*
X56714157Y-115224142D01*
X56785828Y-115225456D01*
X56850445Y-115226641D01*
X56850447Y-115226641D01*
X56857499Y-115226770D01*
X56864302Y-115224915D01*
X56864304Y-115224915D01*
X56939503Y-115204413D01*
X56995817Y-115189060D01*
X57117991Y-115114045D01*
X57125403Y-115105857D01*
X57209468Y-115012982D01*
X57214200Y-115007754D01*
X57276710Y-114878733D01*
X57278166Y-114870082D01*
X57299862Y-114741124D01*
X57299862Y-114741120D01*
X57300496Y-114737354D01*
X57300647Y-114725000D01*
X57280323Y-114583082D01*
X57232431Y-114477749D01*
X57223905Y-114458996D01*
X57223904Y-114458995D01*
X57220984Y-114452572D01*
X57149501Y-114369612D01*
X57125840Y-114313187D01*
X57125500Y-114304989D01*
X57125500Y-113193823D01*
X57794391Y-113193823D01*
X57795306Y-113200820D01*
X57795306Y-113200821D01*
X57811603Y-113325446D01*
X57812980Y-113335979D01*
X57815821Y-113342435D01*
X57815821Y-113342436D01*
X57828372Y-113370959D01*
X57870720Y-113467203D01*
X57916814Y-113522039D01*
X57958431Y-113571549D01*
X57958434Y-113571551D01*
X57962970Y-113576948D01*
X57968841Y-113580856D01*
X57968842Y-113580857D01*
X57981143Y-113589045D01*
X58082313Y-113656390D01*
X58182920Y-113687821D01*
X58212425Y-113697039D01*
X58212426Y-113697039D01*
X58219157Y-113699142D01*
X58290828Y-113700456D01*
X58355445Y-113701641D01*
X58355447Y-113701641D01*
X58362499Y-113701770D01*
X58369302Y-113699915D01*
X58369304Y-113699915D01*
X58444503Y-113679413D01*
X58500817Y-113664060D01*
X58622991Y-113589045D01*
X58630403Y-113580857D01*
X58714468Y-113487982D01*
X58719200Y-113482754D01*
X58769835Y-113378244D01*
X58778634Y-113360082D01*
X58781710Y-113353733D01*
X58785875Y-113328982D01*
X58804862Y-113216124D01*
X58804862Y-113216120D01*
X58805496Y-113212354D01*
X58805647Y-113200000D01*
X58785323Y-113058082D01*
X58763543Y-113010180D01*
X58728905Y-112933996D01*
X58728904Y-112933995D01*
X58725984Y-112927572D01*
X58632400Y-112818963D01*
X58512095Y-112740985D01*
X58374739Y-112699907D01*
X58291497Y-112699398D01*
X58238427Y-112699074D01*
X58238426Y-112699074D01*
X58231376Y-112699031D01*
X58224599Y-112700968D01*
X58224598Y-112700968D01*
X58100309Y-112736490D01*
X58100307Y-112736491D01*
X58093529Y-112738428D01*
X57972280Y-112814930D01*
X57967613Y-112820214D01*
X57967611Y-112820216D01*
X57882044Y-112917103D01*
X57882042Y-112917105D01*
X57877377Y-112922388D01*
X57816447Y-113052163D01*
X57815362Y-113059132D01*
X57815361Y-113059135D01*
X57808310Y-113104424D01*
X57794391Y-113193823D01*
X57125500Y-113193823D01*
X57125500Y-106968823D01*
X57469391Y-106968823D01*
X57470306Y-106975820D01*
X57470306Y-106975821D01*
X57478768Y-107040532D01*
X57487980Y-107110979D01*
X57490821Y-107117435D01*
X57490821Y-107117436D01*
X57498586Y-107135082D01*
X57545720Y-107242203D01*
X57563187Y-107262982D01*
X57633431Y-107346549D01*
X57633434Y-107346551D01*
X57637970Y-107351948D01*
X57643841Y-107355856D01*
X57643842Y-107355857D01*
X57656143Y-107364045D01*
X57757313Y-107431390D01*
X57834925Y-107455637D01*
X57887425Y-107472039D01*
X57887426Y-107472039D01*
X57894157Y-107474142D01*
X57965828Y-107475456D01*
X58030445Y-107476641D01*
X58030447Y-107476641D01*
X58037499Y-107476770D01*
X58044302Y-107474915D01*
X58044304Y-107474915D01*
X58151337Y-107445734D01*
X58175817Y-107439060D01*
X58297991Y-107364045D01*
X58305403Y-107355857D01*
X58389468Y-107262982D01*
X58394200Y-107257754D01*
X58456710Y-107128733D01*
X58460875Y-107103982D01*
X58479862Y-106991124D01*
X58479862Y-106991120D01*
X58480496Y-106987354D01*
X58480647Y-106975000D01*
X58460323Y-106833082D01*
X58433447Y-106773971D01*
X58403905Y-106708996D01*
X58403904Y-106708995D01*
X58400984Y-106702572D01*
X58307400Y-106593963D01*
X58187095Y-106515985D01*
X58049739Y-106474907D01*
X57966497Y-106474398D01*
X57913427Y-106474074D01*
X57913426Y-106474074D01*
X57906376Y-106474031D01*
X57899599Y-106475968D01*
X57899598Y-106475968D01*
X57775309Y-106511490D01*
X57775307Y-106511491D01*
X57768529Y-106513428D01*
X57647280Y-106589930D01*
X57642613Y-106595214D01*
X57642611Y-106595216D01*
X57557044Y-106692103D01*
X57557042Y-106692105D01*
X57552377Y-106697388D01*
X57491447Y-106827163D01*
X57490362Y-106834132D01*
X57490361Y-106834135D01*
X57478564Y-106909905D01*
X57469391Y-106968823D01*
X57125500Y-106968823D01*
X57125500Y-106918534D01*
X57125877Y-106909905D01*
X57128509Y-106879822D01*
X57129264Y-106871193D01*
X57125662Y-106857749D01*
X57119204Y-106833651D01*
X57117334Y-106825216D01*
X57112092Y-106795483D01*
X57112091Y-106795481D01*
X57110588Y-106786955D01*
X57106258Y-106779456D01*
X57104262Y-106773971D01*
X57101796Y-106768684D01*
X57099554Y-106760316D01*
X57077268Y-106728489D01*
X57072627Y-106721205D01*
X57062562Y-106703771D01*
X57053194Y-106687545D01*
X57023429Y-106662569D01*
X57017061Y-106656735D01*
X56729970Y-106369644D01*
X56702193Y-106315127D01*
X56711764Y-106254695D01*
X56755029Y-106211430D01*
X56801789Y-106200657D01*
X56855445Y-106201641D01*
X56855447Y-106201641D01*
X56862499Y-106201770D01*
X56869302Y-106199915D01*
X56869304Y-106199915D01*
X56970248Y-106172394D01*
X57000817Y-106164060D01*
X57122991Y-106089045D01*
X57158333Y-106050000D01*
X57214468Y-105987982D01*
X57219200Y-105982754D01*
X57281710Y-105853733D01*
X57294898Y-105775351D01*
X57304862Y-105716124D01*
X57304862Y-105716120D01*
X57305496Y-105712354D01*
X57305647Y-105700000D01*
X57285323Y-105558082D01*
X57244313Y-105467884D01*
X57228905Y-105433996D01*
X57228904Y-105433995D01*
X57225984Y-105427572D01*
X57145264Y-105333892D01*
X57137005Y-105324307D01*
X57137004Y-105324306D01*
X57132400Y-105318963D01*
X57012095Y-105240985D01*
X56874739Y-105199907D01*
X56791497Y-105199398D01*
X56738427Y-105199074D01*
X56738426Y-105199074D01*
X56731376Y-105199031D01*
X56724599Y-105200968D01*
X56724598Y-105200968D01*
X56600309Y-105236490D01*
X56600307Y-105236491D01*
X56593529Y-105238428D01*
X56581672Y-105245909D01*
X56508911Y-105291818D01*
X56472280Y-105314930D01*
X56467613Y-105320214D01*
X56467611Y-105320216D01*
X56382044Y-105417103D01*
X56382042Y-105417105D01*
X56377377Y-105422388D01*
X56374381Y-105428770D01*
X56374380Y-105428771D01*
X56356387Y-105467094D01*
X56316447Y-105552163D01*
X56315362Y-105559132D01*
X56315361Y-105559135D01*
X56303923Y-105632601D01*
X56294391Y-105693823D01*
X56294980Y-105698326D01*
X56275733Y-105755188D01*
X56225797Y-105790544D01*
X56164616Y-105789797D01*
X56126353Y-105766027D01*
X56111289Y-105750963D01*
X56105454Y-105744595D01*
X56080475Y-105714826D01*
X56046812Y-105695391D01*
X56039531Y-105690752D01*
X56031225Y-105684936D01*
X56007704Y-105668466D01*
X55999336Y-105666224D01*
X55994049Y-105663758D01*
X55988564Y-105661762D01*
X55981065Y-105657432D01*
X55972539Y-105655929D01*
X55972537Y-105655928D01*
X55958639Y-105653478D01*
X55900831Y-105620606D01*
X55876465Y-105592328D01*
X55876463Y-105592326D01*
X55871859Y-105586983D01*
X55751554Y-105509005D01*
X55614198Y-105467927D01*
X55530956Y-105467418D01*
X55477886Y-105467094D01*
X55477885Y-105467094D01*
X55470835Y-105467051D01*
X55464058Y-105468988D01*
X55464057Y-105468988D01*
X55339768Y-105504510D01*
X55339766Y-105504511D01*
X55332988Y-105506448D01*
X55211739Y-105582950D01*
X55207072Y-105588234D01*
X55207070Y-105588236D01*
X55121503Y-105685123D01*
X55121501Y-105685125D01*
X55116836Y-105690408D01*
X55113840Y-105696790D01*
X55113839Y-105696791D01*
X55109033Y-105707028D01*
X55055906Y-105820183D01*
X55054821Y-105827152D01*
X55054820Y-105827155D01*
X55041013Y-105915837D01*
X55033850Y-105961843D01*
X55034765Y-105968840D01*
X55034765Y-105968841D01*
X55050484Y-106089045D01*
X55052439Y-106103999D01*
X55055280Y-106110455D01*
X55055280Y-106110456D01*
X55106111Y-106225977D01*
X55110179Y-106235223D01*
X55161191Y-106295909D01*
X55200443Y-106342606D01*
X55223413Y-106399316D01*
X55208662Y-106458697D01*
X55184927Y-106484850D01*
X55071718Y-106571718D01*
X54975464Y-106697159D01*
X54914956Y-106843238D01*
X54914109Y-106849674D01*
X54895487Y-106991124D01*
X54894318Y-107000000D01*
X54914956Y-107156762D01*
X54975464Y-107302841D01*
X54979413Y-107307987D01*
X54979415Y-107307991D01*
X55003435Y-107339295D01*
X55023859Y-107396971D01*
X55006481Y-107455637D01*
X54977721Y-107483289D01*
X54966259Y-107490521D01*
X54961592Y-107495805D01*
X54961590Y-107495807D01*
X54876023Y-107592694D01*
X54876021Y-107592696D01*
X54871356Y-107597979D01*
X54810426Y-107727754D01*
X54809341Y-107734723D01*
X54809340Y-107734726D01*
X54808417Y-107740657D01*
X54788370Y-107869414D01*
X54789285Y-107876411D01*
X54789285Y-107876412D01*
X54794325Y-107914956D01*
X54806959Y-108011570D01*
X54809800Y-108018026D01*
X54809800Y-108018027D01*
X54857658Y-108126791D01*
X54864699Y-108142794D01*
X54915174Y-108202841D01*
X54955428Y-108250730D01*
X54978398Y-108307440D01*
X54963647Y-108366821D01*
X54916811Y-108406191D01*
X54906849Y-108409621D01*
X54893529Y-108413428D01*
X54772280Y-108489930D01*
X54763387Y-108500000D01*
X54763323Y-108500072D01*
X54710630Y-108531170D01*
X54649721Y-108525357D01*
X54603862Y-108484853D01*
X54591121Y-108448569D01*
X54587679Y-108424536D01*
X54585323Y-108408082D01*
X54555052Y-108341504D01*
X54528905Y-108283996D01*
X54528904Y-108283995D01*
X54525984Y-108277572D01*
X54432400Y-108168963D01*
X54312095Y-108090985D01*
X54174739Y-108049907D01*
X54091497Y-108049398D01*
X54038427Y-108049074D01*
X54038426Y-108049074D01*
X54031376Y-108049031D01*
X54024599Y-108050968D01*
X54024598Y-108050968D01*
X53900309Y-108086490D01*
X53900307Y-108086491D01*
X53893529Y-108088428D01*
X53772280Y-108164930D01*
X53767613Y-108170214D01*
X53767611Y-108170216D01*
X53682044Y-108267103D01*
X53682042Y-108267105D01*
X53677377Y-108272388D01*
X53616447Y-108402163D01*
X53615362Y-108409132D01*
X53615361Y-108409135D01*
X53603929Y-108482560D01*
X53594391Y-108543823D01*
X48599913Y-108543823D01*
X48605682Y-108500000D01*
X48598911Y-108448569D01*
X48592232Y-108397833D01*
X48603382Y-108337672D01*
X48647765Y-108295555D01*
X48708427Y-108287569D01*
X48762197Y-108316764D01*
X48766867Y-108322232D01*
X48767764Y-108323129D01*
X48771718Y-108328282D01*
X48897159Y-108424536D01*
X49043238Y-108485044D01*
X49200000Y-108505682D01*
X49356762Y-108485044D01*
X49502841Y-108424536D01*
X49628282Y-108328282D01*
X49724536Y-108202841D01*
X49785044Y-108056762D01*
X49805682Y-107900000D01*
X49785044Y-107743238D01*
X49724536Y-107597159D01*
X49628282Y-107471718D01*
X49502841Y-107375464D01*
X49356762Y-107314956D01*
X49200000Y-107294318D01*
X49043238Y-107314956D01*
X48897159Y-107375464D01*
X48771718Y-107471718D01*
X48675464Y-107597159D01*
X48614956Y-107743238D01*
X48594318Y-107900000D01*
X48595165Y-107906434D01*
X48607768Y-108002167D01*
X48596618Y-108062328D01*
X48552235Y-108104445D01*
X48491573Y-108112431D01*
X48437803Y-108083236D01*
X48433133Y-108077768D01*
X48432236Y-108076871D01*
X48428282Y-108071718D01*
X48302841Y-107975464D01*
X48156762Y-107914956D01*
X48000000Y-107894318D01*
X47843238Y-107914956D01*
X47697159Y-107975464D01*
X47571718Y-108071718D01*
X47569148Y-108075067D01*
X47515487Y-108102408D01*
X47455055Y-108092837D01*
X47431174Y-108075487D01*
X47428282Y-108071718D01*
X47302841Y-107975464D01*
X47156762Y-107914956D01*
X47000000Y-107894318D01*
X46843238Y-107914956D01*
X46697159Y-107975464D01*
X46571718Y-108071718D01*
X46569148Y-108075067D01*
X46515487Y-108102408D01*
X46455055Y-108092837D01*
X46431174Y-108075487D01*
X46428282Y-108071718D01*
X46302841Y-107975464D01*
X46156762Y-107914956D01*
X46000000Y-107894318D01*
X45843238Y-107914956D01*
X45697159Y-107975464D01*
X45571718Y-108071718D01*
X45475464Y-108197159D01*
X45414956Y-108343238D01*
X45394318Y-108500000D01*
X38200000Y-108500000D01*
X38200000Y-107245262D01*
X39404520Y-107245262D01*
X39410581Y-107317440D01*
X39420950Y-107440914D01*
X39421759Y-107450553D01*
X39423092Y-107455201D01*
X39423092Y-107455202D01*
X39465517Y-107603154D01*
X39478544Y-107648586D01*
X39572712Y-107831818D01*
X39700677Y-107993270D01*
X39704357Y-107996402D01*
X39704359Y-107996404D01*
X39767175Y-108049864D01*
X39857564Y-108126791D01*
X39861787Y-108129151D01*
X39861791Y-108129154D01*
X39974259Y-108192010D01*
X40037398Y-108227297D01*
X40041996Y-108228791D01*
X40228724Y-108289463D01*
X40228726Y-108289464D01*
X40233329Y-108290959D01*
X40437894Y-108315351D01*
X40442716Y-108314980D01*
X40442719Y-108314980D01*
X40510541Y-108309761D01*
X40643300Y-108299546D01*
X40841725Y-108244145D01*
X40846038Y-108241966D01*
X40846044Y-108241964D01*
X41021289Y-108153441D01*
X41021291Y-108153440D01*
X41025610Y-108151258D01*
X41029533Y-108148193D01*
X41184135Y-108027406D01*
X41184139Y-108027402D01*
X41187951Y-108024424D01*
X41199047Y-108011570D01*
X41282440Y-107914956D01*
X41322564Y-107868472D01*
X41341231Y-107835613D01*
X41421934Y-107693550D01*
X41421935Y-107693547D01*
X41424323Y-107689344D01*
X41437882Y-107648586D01*
X41487824Y-107498454D01*
X41487824Y-107498452D01*
X41489351Y-107493863D01*
X41491511Y-107476770D01*
X41514823Y-107292228D01*
X41515171Y-107289474D01*
X41515583Y-107260000D01*
X41514611Y-107250082D01*
X41514138Y-107245262D01*
X41944520Y-107245262D01*
X41950581Y-107317440D01*
X41960950Y-107440914D01*
X41961759Y-107450553D01*
X41963092Y-107455201D01*
X41963092Y-107455202D01*
X42005517Y-107603154D01*
X42018544Y-107648586D01*
X42112712Y-107831818D01*
X42240677Y-107993270D01*
X42244357Y-107996402D01*
X42244359Y-107996404D01*
X42307175Y-108049864D01*
X42397564Y-108126791D01*
X42401787Y-108129151D01*
X42401791Y-108129154D01*
X42514259Y-108192010D01*
X42577398Y-108227297D01*
X42581996Y-108228791D01*
X42768724Y-108289463D01*
X42768726Y-108289464D01*
X42773329Y-108290959D01*
X42977894Y-108315351D01*
X42982716Y-108314980D01*
X42982719Y-108314980D01*
X43050541Y-108309761D01*
X43183300Y-108299546D01*
X43381725Y-108244145D01*
X43386038Y-108241966D01*
X43386044Y-108241964D01*
X43561289Y-108153441D01*
X43561291Y-108153440D01*
X43565610Y-108151258D01*
X43569533Y-108148193D01*
X43724135Y-108027406D01*
X43724139Y-108027402D01*
X43727951Y-108024424D01*
X43739047Y-108011570D01*
X43822440Y-107914956D01*
X43862564Y-107868472D01*
X43881231Y-107835613D01*
X43961934Y-107693550D01*
X43961935Y-107693547D01*
X43964323Y-107689344D01*
X43977882Y-107648586D01*
X44027824Y-107498454D01*
X44027824Y-107498452D01*
X44029351Y-107493863D01*
X44031511Y-107476770D01*
X44054823Y-107292228D01*
X44055171Y-107289474D01*
X44055583Y-107260000D01*
X44054611Y-107250082D01*
X44035952Y-107059780D01*
X44035951Y-107059776D01*
X44035480Y-107054970D01*
X44018884Y-107000000D01*
X43977333Y-106862380D01*
X43975935Y-106857749D01*
X43879218Y-106675849D01*
X43749011Y-106516200D01*
X43726014Y-106497175D01*
X43594002Y-106387965D01*
X43594000Y-106387964D01*
X43590275Y-106384882D01*
X43478123Y-106324242D01*
X43413309Y-106289197D01*
X43413308Y-106289197D01*
X43409055Y-106286897D01*
X43305027Y-106254695D01*
X43216875Y-106227407D01*
X43216871Y-106227406D01*
X43212254Y-106225977D01*
X43207446Y-106225472D01*
X43207443Y-106225471D01*
X43012185Y-106204949D01*
X43012183Y-106204949D01*
X43007369Y-106204443D01*
X42947354Y-106209905D01*
X42807022Y-106222675D01*
X42807017Y-106222676D01*
X42802203Y-106223114D01*
X42604572Y-106281280D01*
X42600288Y-106283519D01*
X42600287Y-106283520D01*
X42572280Y-106298162D01*
X42422002Y-106376726D01*
X42418231Y-106379758D01*
X42265220Y-106502781D01*
X42265217Y-106502783D01*
X42261447Y-106505815D01*
X42258333Y-106509526D01*
X42258332Y-106509527D01*
X42134810Y-106656735D01*
X42129024Y-106663630D01*
X42126689Y-106667878D01*
X42126688Y-106667879D01*
X42107296Y-106703154D01*
X42029776Y-106844162D01*
X42028313Y-106848775D01*
X42028311Y-106848779D01*
X41990231Y-106968823D01*
X41967484Y-107040532D01*
X41966944Y-107045344D01*
X41966944Y-107045345D01*
X41955169Y-107150326D01*
X41944520Y-107245262D01*
X41514138Y-107245262D01*
X41495952Y-107059780D01*
X41495951Y-107059776D01*
X41495480Y-107054970D01*
X41478884Y-107000000D01*
X41437333Y-106862380D01*
X41435935Y-106857749D01*
X41339218Y-106675849D01*
X41209011Y-106516200D01*
X41186014Y-106497175D01*
X41054002Y-106387965D01*
X41054000Y-106387964D01*
X41050275Y-106384882D01*
X40938123Y-106324242D01*
X40873309Y-106289197D01*
X40873308Y-106289197D01*
X40869055Y-106286897D01*
X40765027Y-106254695D01*
X40676875Y-106227407D01*
X40676871Y-106227406D01*
X40672254Y-106225977D01*
X40667446Y-106225472D01*
X40667443Y-106225471D01*
X40472185Y-106204949D01*
X40472183Y-106204949D01*
X40467369Y-106204443D01*
X40407354Y-106209905D01*
X40267022Y-106222675D01*
X40267017Y-106222676D01*
X40262203Y-106223114D01*
X40064572Y-106281280D01*
X40060288Y-106283519D01*
X40060287Y-106283520D01*
X40032280Y-106298162D01*
X39882002Y-106376726D01*
X39878231Y-106379758D01*
X39725220Y-106502781D01*
X39725217Y-106502783D01*
X39721447Y-106505815D01*
X39718333Y-106509526D01*
X39718332Y-106509527D01*
X39594810Y-106656735D01*
X39589024Y-106663630D01*
X39586689Y-106667878D01*
X39586688Y-106667879D01*
X39567296Y-106703154D01*
X39489776Y-106844162D01*
X39488313Y-106848775D01*
X39488311Y-106848779D01*
X39450231Y-106968823D01*
X39427484Y-107040532D01*
X39426944Y-107045344D01*
X39426944Y-107045345D01*
X39415169Y-107150326D01*
X39404520Y-107245262D01*
X38200000Y-107245262D01*
X38200000Y-106044440D01*
X50494901Y-106044440D01*
X50495816Y-106051437D01*
X50495816Y-106051438D01*
X50497082Y-106061120D01*
X50511633Y-106172394D01*
X50514471Y-106178845D01*
X50514472Y-106178847D01*
X50560529Y-106283520D01*
X50563605Y-106290510D01*
X50584298Y-106315127D01*
X50642100Y-106383892D01*
X50642103Y-106383894D01*
X50646639Y-106389291D01*
X50754060Y-106460796D01*
X50760788Y-106462898D01*
X50760790Y-106462899D01*
X50799226Y-106474907D01*
X50877233Y-106499278D01*
X50941744Y-106500460D01*
X50999202Y-106501514D01*
X50999204Y-106501514D01*
X51006255Y-106501643D01*
X51013058Y-106499788D01*
X51013060Y-106499788D01*
X51067850Y-106484850D01*
X51130755Y-106467700D01*
X51240724Y-106400179D01*
X51290699Y-106344968D01*
X51322590Y-106309735D01*
X51322590Y-106309734D01*
X51327322Y-106304507D01*
X51383588Y-106188375D01*
X51384022Y-106188585D01*
X51416933Y-106142778D01*
X51475023Y-106123563D01*
X51533313Y-106142162D01*
X51566163Y-106182690D01*
X51610529Y-106283520D01*
X51613605Y-106290510D01*
X51634298Y-106315127D01*
X51692100Y-106383892D01*
X51692103Y-106383894D01*
X51696639Y-106389291D01*
X51804060Y-106460796D01*
X51810788Y-106462898D01*
X51810790Y-106462899D01*
X51849226Y-106474907D01*
X51927233Y-106499278D01*
X51991744Y-106500460D01*
X52049202Y-106501514D01*
X52049204Y-106501514D01*
X52056255Y-106501643D01*
X52063058Y-106499788D01*
X52063060Y-106499788D01*
X52117850Y-106484850D01*
X52180755Y-106467700D01*
X52290724Y-106400179D01*
X52340699Y-106344968D01*
X52372590Y-106309735D01*
X52372590Y-106309734D01*
X52377322Y-106304507D01*
X52433588Y-106188375D01*
X52434022Y-106188585D01*
X52466933Y-106142778D01*
X52525023Y-106123563D01*
X52583313Y-106142162D01*
X52616163Y-106182690D01*
X52660529Y-106283520D01*
X52663605Y-106290510D01*
X52684298Y-106315127D01*
X52742100Y-106383892D01*
X52742103Y-106383894D01*
X52746639Y-106389291D01*
X52854060Y-106460796D01*
X52860788Y-106462898D01*
X52860790Y-106462899D01*
X52899226Y-106474907D01*
X52977233Y-106499278D01*
X53041744Y-106500460D01*
X53099202Y-106501514D01*
X53099204Y-106501514D01*
X53106255Y-106501643D01*
X53113058Y-106499788D01*
X53113060Y-106499788D01*
X53167850Y-106484850D01*
X53230755Y-106467700D01*
X53340724Y-106400179D01*
X53390699Y-106344968D01*
X53422590Y-106309735D01*
X53422590Y-106309734D01*
X53427322Y-106304507D01*
X53483588Y-106188375D01*
X53497783Y-106103999D01*
X53504363Y-106064891D01*
X53504363Y-106064886D01*
X53504997Y-106061120D01*
X53505133Y-106050000D01*
X53486839Y-105922259D01*
X53433428Y-105804788D01*
X53380395Y-105743240D01*
X53353798Y-105712372D01*
X53353797Y-105712371D01*
X53349193Y-105707028D01*
X53343276Y-105703193D01*
X53343274Y-105703191D01*
X53246824Y-105640677D01*
X53240906Y-105636841D01*
X53234151Y-105634821D01*
X53234147Y-105634819D01*
X53184619Y-105620007D01*
X53134285Y-105585219D01*
X53114012Y-105527490D01*
X53131544Y-105468870D01*
X53180183Y-105431750D01*
X53186945Y-105429644D01*
X53230755Y-105417700D01*
X53340724Y-105350179D01*
X53368979Y-105318963D01*
X53422590Y-105259735D01*
X53422590Y-105259734D01*
X53427322Y-105254507D01*
X53483588Y-105138375D01*
X53503968Y-105017237D01*
X53504363Y-105014891D01*
X53504363Y-105014886D01*
X53504997Y-105011120D01*
X53505133Y-105000000D01*
X53486839Y-104872259D01*
X53444088Y-104778233D01*
X53436349Y-104761212D01*
X53436348Y-104761211D01*
X53433428Y-104754788D01*
X53349193Y-104657028D01*
X53343276Y-104653193D01*
X53343274Y-104653191D01*
X53289478Y-104618323D01*
X55284140Y-104618323D01*
X55285055Y-104625320D01*
X55285055Y-104625321D01*
X55299266Y-104733996D01*
X55302729Y-104760479D01*
X55305570Y-104766935D01*
X55305570Y-104766936D01*
X55349723Y-104867280D01*
X55360469Y-104891703D01*
X55388701Y-104925289D01*
X55448180Y-104996049D01*
X55448183Y-104996051D01*
X55452719Y-105001448D01*
X55458590Y-105005356D01*
X55458591Y-105005357D01*
X55470892Y-105013545D01*
X55572062Y-105080890D01*
X55645804Y-105103928D01*
X55702174Y-105121539D01*
X55702175Y-105121539D01*
X55708906Y-105123642D01*
X55780577Y-105124956D01*
X55845194Y-105126141D01*
X55845196Y-105126141D01*
X55852248Y-105126270D01*
X55859051Y-105124415D01*
X55859053Y-105124415D01*
X55934252Y-105103913D01*
X55990566Y-105088560D01*
X56112740Y-105013545D01*
X56120152Y-105005357D01*
X56204217Y-104912482D01*
X56208949Y-104907254D01*
X56228485Y-104866932D01*
X56241632Y-104839797D01*
X56284020Y-104795673D01*
X56344248Y-104784891D01*
X56399311Y-104811569D01*
X56406502Y-104819253D01*
X56412970Y-104826948D01*
X56418841Y-104830856D01*
X56418842Y-104830857D01*
X56436689Y-104842737D01*
X56532313Y-104906390D01*
X56632920Y-104937821D01*
X56662425Y-104947039D01*
X56662426Y-104947039D01*
X56669157Y-104949142D01*
X56740828Y-104950456D01*
X56805445Y-104951641D01*
X56805447Y-104951641D01*
X56812499Y-104951770D01*
X56819302Y-104949915D01*
X56819304Y-104949915D01*
X56909630Y-104925289D01*
X56950817Y-104914060D01*
X57072991Y-104839045D01*
X57080403Y-104830857D01*
X57164468Y-104737982D01*
X57169200Y-104732754D01*
X57231710Y-104603733D01*
X57234307Y-104588302D01*
X57254862Y-104466124D01*
X57254862Y-104466120D01*
X57255496Y-104462354D01*
X57255647Y-104450000D01*
X57235323Y-104308082D01*
X57175984Y-104177572D01*
X57104597Y-104094724D01*
X57087005Y-104074307D01*
X57087004Y-104074306D01*
X57082400Y-104068963D01*
X56962095Y-103990985D01*
X56824739Y-103949907D01*
X56741497Y-103949398D01*
X56688427Y-103949074D01*
X56688426Y-103949074D01*
X56681376Y-103949031D01*
X56674599Y-103950968D01*
X56674598Y-103950968D01*
X56550309Y-103986490D01*
X56550307Y-103986491D01*
X56543529Y-103988428D01*
X56422280Y-104064930D01*
X56417613Y-104070214D01*
X56417611Y-104070216D01*
X56332044Y-104167103D01*
X56332042Y-104167105D01*
X56327377Y-104172388D01*
X56298304Y-104234311D01*
X56256459Y-104278949D01*
X56196367Y-104290466D01*
X56140982Y-104264462D01*
X56133700Y-104256868D01*
X56122149Y-104243463D01*
X56001844Y-104165485D01*
X55864488Y-104124407D01*
X55781246Y-104123898D01*
X55728176Y-104123574D01*
X55728175Y-104123574D01*
X55721125Y-104123531D01*
X55714348Y-104125468D01*
X55714347Y-104125468D01*
X55590058Y-104160990D01*
X55590056Y-104160991D01*
X55583278Y-104162928D01*
X55462029Y-104239430D01*
X55457362Y-104244714D01*
X55457360Y-104244716D01*
X55371793Y-104341603D01*
X55371791Y-104341605D01*
X55367126Y-104346888D01*
X55306196Y-104476663D01*
X55305111Y-104483632D01*
X55305110Y-104483635D01*
X55291663Y-104570007D01*
X55284140Y-104618323D01*
X53289478Y-104618323D01*
X53266968Y-104603733D01*
X53240906Y-104586841D01*
X53234151Y-104584821D01*
X53234147Y-104584819D01*
X53184619Y-104570007D01*
X53134285Y-104535219D01*
X53114012Y-104477490D01*
X53131544Y-104418870D01*
X53180183Y-104381750D01*
X53186945Y-104379644D01*
X53230755Y-104367700D01*
X53319392Y-104313277D01*
X53334711Y-104303871D01*
X53340724Y-104300179D01*
X53355466Y-104283892D01*
X53422590Y-104209735D01*
X53422590Y-104209734D01*
X53427322Y-104204507D01*
X53465616Y-104125468D01*
X53480512Y-104094724D01*
X53480513Y-104094722D01*
X53483588Y-104088375D01*
X53502979Y-103973115D01*
X53504363Y-103964891D01*
X53504363Y-103964886D01*
X53504997Y-103961120D01*
X53505133Y-103950000D01*
X53486839Y-103822259D01*
X53444221Y-103728526D01*
X53436349Y-103711212D01*
X53436348Y-103711211D01*
X53433428Y-103704788D01*
X53349193Y-103607028D01*
X53343276Y-103603193D01*
X53343274Y-103603191D01*
X53246824Y-103540677D01*
X53240906Y-103536841D01*
X53234150Y-103534821D01*
X53234149Y-103534820D01*
X53191335Y-103522016D01*
X53117273Y-103499866D01*
X53040644Y-103499398D01*
X52995282Y-103499121D01*
X52988231Y-103499078D01*
X52981454Y-103501015D01*
X52981453Y-103501015D01*
X52870935Y-103532601D01*
X52870933Y-103532602D01*
X52864155Y-103534539D01*
X52755019Y-103603399D01*
X52669596Y-103700122D01*
X52614754Y-103816932D01*
X52612072Y-103815673D01*
X52584281Y-103855366D01*
X52526430Y-103875289D01*
X52467917Y-103857403D01*
X52434575Y-103817280D01*
X52433845Y-103815673D01*
X52394221Y-103728526D01*
X52386349Y-103711212D01*
X52386348Y-103711211D01*
X52383428Y-103704788D01*
X52299193Y-103607028D01*
X52293276Y-103603193D01*
X52293274Y-103603191D01*
X52196824Y-103540677D01*
X52190906Y-103536841D01*
X52184150Y-103534821D01*
X52184149Y-103534820D01*
X52141335Y-103522016D01*
X52067273Y-103499866D01*
X51990644Y-103499398D01*
X51945282Y-103499121D01*
X51938231Y-103499078D01*
X51931454Y-103501015D01*
X51931453Y-103501015D01*
X51820935Y-103532601D01*
X51820933Y-103532602D01*
X51814155Y-103534539D01*
X51705019Y-103603399D01*
X51619596Y-103700122D01*
X51564754Y-103816932D01*
X51562072Y-103815673D01*
X51534281Y-103855366D01*
X51476430Y-103875289D01*
X51417917Y-103857403D01*
X51384575Y-103817280D01*
X51383845Y-103815673D01*
X51344221Y-103728526D01*
X51336349Y-103711212D01*
X51336348Y-103711211D01*
X51333428Y-103704788D01*
X51249193Y-103607028D01*
X51243276Y-103603193D01*
X51243274Y-103603191D01*
X51146824Y-103540677D01*
X51140906Y-103536841D01*
X51134150Y-103534821D01*
X51134149Y-103534820D01*
X51091335Y-103522016D01*
X51017273Y-103499866D01*
X50940644Y-103499398D01*
X50895282Y-103499121D01*
X50888231Y-103499078D01*
X50881454Y-103501015D01*
X50881453Y-103501015D01*
X50770935Y-103532601D01*
X50770933Y-103532602D01*
X50764155Y-103534539D01*
X50655019Y-103603399D01*
X50569596Y-103700122D01*
X50514754Y-103816932D01*
X50494901Y-103944440D01*
X50495816Y-103951437D01*
X50495816Y-103951438D01*
X50497082Y-103961120D01*
X50511633Y-104072394D01*
X50514471Y-104078845D01*
X50514472Y-104078847D01*
X50560764Y-104184054D01*
X50563605Y-104190510D01*
X50600424Y-104234311D01*
X50642100Y-104283892D01*
X50642103Y-104283894D01*
X50646639Y-104289291D01*
X50754060Y-104360796D01*
X50760790Y-104362898D01*
X50760797Y-104362902D01*
X50816922Y-104380437D01*
X50866827Y-104415837D01*
X50886393Y-104473810D01*
X50868146Y-104532211D01*
X50814603Y-104570121D01*
X50764155Y-104584539D01*
X50655019Y-104653399D01*
X50569596Y-104750122D01*
X50514754Y-104866932D01*
X50494901Y-104994440D01*
X50495816Y-105001437D01*
X50495816Y-105001438D01*
X50497882Y-105017237D01*
X50511633Y-105122394D01*
X50514471Y-105128845D01*
X50514472Y-105128847D01*
X50545720Y-105199864D01*
X50563605Y-105240510D01*
X50580616Y-105260747D01*
X50642100Y-105333892D01*
X50642103Y-105333894D01*
X50646639Y-105339291D01*
X50754060Y-105410796D01*
X50760790Y-105412898D01*
X50760797Y-105412902D01*
X50816922Y-105430437D01*
X50866827Y-105465837D01*
X50886393Y-105523810D01*
X50868146Y-105582211D01*
X50814603Y-105620121D01*
X50764155Y-105634539D01*
X50655019Y-105703399D01*
X50569596Y-105800122D01*
X50514754Y-105916932D01*
X50494901Y-106044440D01*
X38200000Y-106044440D01*
X38200000Y-103173922D01*
X38809989Y-103173922D01*
X38817444Y-103196864D01*
X38821070Y-103211970D01*
X38822329Y-103219917D01*
X38824843Y-103235793D01*
X38835794Y-103257286D01*
X38841737Y-103271632D01*
X38849193Y-103294579D01*
X38853774Y-103300884D01*
X38863372Y-103314094D01*
X38871487Y-103327335D01*
X38882439Y-103348831D01*
X38905002Y-103371394D01*
X38905005Y-103371398D01*
X39309580Y-103775973D01*
X39309584Y-103775976D01*
X39332147Y-103798539D01*
X39353643Y-103809491D01*
X39366882Y-103817605D01*
X39386399Y-103831785D01*
X39393810Y-103834193D01*
X39409346Y-103839241D01*
X39423692Y-103845184D01*
X39445185Y-103856135D01*
X39452878Y-103857353D01*
X39452880Y-103857354D01*
X39469008Y-103859908D01*
X39484109Y-103863533D01*
X39507056Y-103870989D01*
X39588709Y-103870989D01*
X39646900Y-103889896D01*
X39682864Y-103939396D01*
X39682864Y-104000582D01*
X39664547Y-104033625D01*
X39613279Y-104094724D01*
X39589024Y-104123630D01*
X39586689Y-104127878D01*
X39586688Y-104127879D01*
X39579955Y-104140126D01*
X39489776Y-104304162D01*
X39488313Y-104308775D01*
X39488311Y-104308779D01*
X39452260Y-104422429D01*
X39427484Y-104500532D01*
X39426944Y-104505344D01*
X39426944Y-104505345D01*
X39409745Y-104658684D01*
X39404520Y-104705262D01*
X39406494Y-104728771D01*
X39416814Y-104851660D01*
X39421759Y-104910553D01*
X39423092Y-104915201D01*
X39423092Y-104915202D01*
X39472802Y-105088560D01*
X39478544Y-105108586D01*
X39572712Y-105291818D01*
X39700677Y-105453270D01*
X39704357Y-105456402D01*
X39704359Y-105456404D01*
X39770675Y-105512843D01*
X39857564Y-105586791D01*
X39861787Y-105589151D01*
X39861791Y-105589154D01*
X39949732Y-105638302D01*
X40037398Y-105687297D01*
X40041996Y-105688791D01*
X40228724Y-105749463D01*
X40228726Y-105749464D01*
X40233329Y-105750959D01*
X40437894Y-105775351D01*
X40442716Y-105774980D01*
X40442719Y-105774980D01*
X40510541Y-105769761D01*
X40643300Y-105759546D01*
X40841725Y-105704145D01*
X40846038Y-105701966D01*
X40846044Y-105701964D01*
X41021289Y-105613441D01*
X41021291Y-105613440D01*
X41025610Y-105611258D01*
X41041200Y-105599078D01*
X41184135Y-105487406D01*
X41184139Y-105487402D01*
X41187951Y-105484424D01*
X41200446Y-105469949D01*
X41313225Y-105339291D01*
X41322564Y-105328472D01*
X41341231Y-105295613D01*
X41421934Y-105153550D01*
X41421935Y-105153547D01*
X41424323Y-105149344D01*
X41426611Y-105142468D01*
X41487824Y-104958454D01*
X41487824Y-104958452D01*
X41489351Y-104953863D01*
X41496522Y-104897102D01*
X41514823Y-104752228D01*
X41515171Y-104749474D01*
X41515583Y-104720000D01*
X41509053Y-104653399D01*
X41495952Y-104519780D01*
X41495951Y-104519776D01*
X41495480Y-104514970D01*
X41486020Y-104483635D01*
X41443137Y-104341603D01*
X41435935Y-104317749D01*
X41339218Y-104135849D01*
X41254977Y-104032559D01*
X41232850Y-103975516D01*
X41248480Y-103916360D01*
X41295895Y-103877689D01*
X41331696Y-103870989D01*
X41543589Y-103870989D01*
X41601780Y-103889896D01*
X41613592Y-103899985D01*
X41804482Y-104090874D01*
X41984321Y-104270713D01*
X42012099Y-104325230D01*
X42008684Y-104370651D01*
X41982300Y-104453826D01*
X41967484Y-104500532D01*
X41966944Y-104505344D01*
X41966944Y-104505345D01*
X41949745Y-104658684D01*
X41944520Y-104705262D01*
X41946494Y-104728771D01*
X41956814Y-104851660D01*
X41961759Y-104910553D01*
X41963092Y-104915201D01*
X41963092Y-104915202D01*
X42012802Y-105088560D01*
X42018544Y-105108586D01*
X42112712Y-105291818D01*
X42240677Y-105453270D01*
X42244357Y-105456402D01*
X42244359Y-105456404D01*
X42310675Y-105512843D01*
X42397564Y-105586791D01*
X42401787Y-105589151D01*
X42401791Y-105589154D01*
X42489732Y-105638302D01*
X42577398Y-105687297D01*
X42581996Y-105688791D01*
X42768724Y-105749463D01*
X42768726Y-105749464D01*
X42773329Y-105750959D01*
X42977894Y-105775351D01*
X42982716Y-105774980D01*
X42982719Y-105774980D01*
X43050541Y-105769761D01*
X43183300Y-105759546D01*
X43381725Y-105704145D01*
X43386038Y-105701966D01*
X43386044Y-105701964D01*
X43561289Y-105613441D01*
X43561291Y-105613440D01*
X43565610Y-105611258D01*
X43581200Y-105599078D01*
X43724135Y-105487406D01*
X43724139Y-105487402D01*
X43727951Y-105484424D01*
X43740446Y-105469949D01*
X43853225Y-105339291D01*
X43862564Y-105328472D01*
X43881231Y-105295613D01*
X43961934Y-105153550D01*
X43961935Y-105153547D01*
X43964323Y-105149344D01*
X43966611Y-105142468D01*
X44016058Y-104993823D01*
X44494391Y-104993823D01*
X44495306Y-105000820D01*
X44495306Y-105000821D01*
X44511710Y-105126270D01*
X44512980Y-105135979D01*
X44515821Y-105142435D01*
X44515821Y-105142436D01*
X44565134Y-105254507D01*
X44570720Y-105267203D01*
X44610839Y-105314930D01*
X44658431Y-105371549D01*
X44658434Y-105371551D01*
X44662970Y-105376948D01*
X44668841Y-105380856D01*
X44668842Y-105380857D01*
X44681143Y-105389045D01*
X44782313Y-105456390D01*
X44882920Y-105487821D01*
X44912425Y-105497039D01*
X44912426Y-105497039D01*
X44919157Y-105499142D01*
X44990828Y-105500456D01*
X45055445Y-105501641D01*
X45055447Y-105501641D01*
X45062499Y-105501770D01*
X45069302Y-105499915D01*
X45069304Y-105499915D01*
X45144503Y-105479413D01*
X45200817Y-105464060D01*
X45322991Y-105389045D01*
X45330403Y-105380857D01*
X45414468Y-105287982D01*
X45419200Y-105282754D01*
X45481710Y-105153733D01*
X45483221Y-105144755D01*
X45504862Y-105016124D01*
X45504862Y-105016120D01*
X45505496Y-105012354D01*
X45505546Y-105008314D01*
X45505575Y-105005909D01*
X45505647Y-105000000D01*
X45485323Y-104858082D01*
X45463543Y-104810180D01*
X45428905Y-104733996D01*
X45428904Y-104733995D01*
X45425984Y-104727572D01*
X45358830Y-104649636D01*
X45337005Y-104624307D01*
X45337004Y-104624306D01*
X45332400Y-104618963D01*
X45212095Y-104540985D01*
X45074739Y-104499907D01*
X44991497Y-104499398D01*
X44938427Y-104499074D01*
X44938426Y-104499074D01*
X44931376Y-104499031D01*
X44924599Y-104500968D01*
X44924598Y-104500968D01*
X44800309Y-104536490D01*
X44800307Y-104536491D01*
X44793529Y-104538428D01*
X44672280Y-104614930D01*
X44667613Y-104620214D01*
X44667611Y-104620216D01*
X44582044Y-104717103D01*
X44582042Y-104717105D01*
X44577377Y-104722388D01*
X44574381Y-104728770D01*
X44574380Y-104728771D01*
X44566837Y-104744838D01*
X44516447Y-104852163D01*
X44515362Y-104859132D01*
X44515361Y-104859135D01*
X44501675Y-104947039D01*
X44494391Y-104993823D01*
X44016058Y-104993823D01*
X44027824Y-104958454D01*
X44027824Y-104958452D01*
X44029351Y-104953863D01*
X44036522Y-104897102D01*
X44054823Y-104752228D01*
X44055171Y-104749474D01*
X44055583Y-104720000D01*
X44049053Y-104653399D01*
X44035952Y-104519780D01*
X44035951Y-104519776D01*
X44035480Y-104514970D01*
X44026020Y-104483635D01*
X43983137Y-104341603D01*
X43975935Y-104317749D01*
X43879218Y-104135849D01*
X43749011Y-103976200D01*
X43735341Y-103964891D01*
X43594002Y-103847965D01*
X43594000Y-103847964D01*
X43590275Y-103844882D01*
X43409055Y-103746897D01*
X43344190Y-103726818D01*
X43216875Y-103687407D01*
X43216871Y-103687406D01*
X43212254Y-103685977D01*
X43207446Y-103685472D01*
X43207443Y-103685471D01*
X43012185Y-103664949D01*
X43012183Y-103664949D01*
X43007369Y-103664443D01*
X42947354Y-103669905D01*
X42807022Y-103682675D01*
X42807017Y-103682676D01*
X42802203Y-103683114D01*
X42728561Y-103704788D01*
X42653710Y-103726818D01*
X42647906Y-103728526D01*
X42586744Y-103726818D01*
X42549950Y-103703558D01*
X42011405Y-103165012D01*
X42011398Y-103165005D01*
X42011394Y-103165002D01*
X41988831Y-103142439D01*
X41967335Y-103131487D01*
X41954094Y-103123372D01*
X41940884Y-103113774D01*
X41934579Y-103109193D01*
X41911632Y-103101737D01*
X41897286Y-103095794D01*
X41875793Y-103084843D01*
X41868100Y-103083625D01*
X41868098Y-103083624D01*
X41851970Y-103081070D01*
X41836869Y-103077445D01*
X41813922Y-103069989D01*
X41295801Y-103069989D01*
X41237610Y-103051082D01*
X41201646Y-103001582D01*
X41201646Y-102940396D01*
X41220858Y-102906301D01*
X41270084Y-102849271D01*
X41322564Y-102788472D01*
X41341231Y-102755613D01*
X41421934Y-102613550D01*
X41421935Y-102613547D01*
X41424323Y-102609344D01*
X41428505Y-102596775D01*
X41487824Y-102418454D01*
X41487824Y-102418452D01*
X41489351Y-102413863D01*
X41515171Y-102209474D01*
X41515363Y-102195776D01*
X41515544Y-102182776D01*
X41515583Y-102180000D01*
X41504320Y-102065124D01*
X41495952Y-101979780D01*
X41495951Y-101979776D01*
X41495480Y-101974970D01*
X41473380Y-101901770D01*
X41437333Y-101782380D01*
X41435935Y-101777749D01*
X41339218Y-101595849D01*
X41209011Y-101436200D01*
X41180186Y-101412354D01*
X41054002Y-101307965D01*
X41054000Y-101307964D01*
X41050275Y-101304882D01*
X40869055Y-101206897D01*
X40815038Y-101190176D01*
X40732061Y-101164490D01*
X40682063Y-101129220D01*
X40662346Y-101071299D01*
X40680439Y-101012850D01*
X40729432Y-100976199D01*
X40740752Y-100973081D01*
X40747202Y-100971710D01*
X40953304Y-100909876D01*
X40960852Y-100906918D01*
X41154087Y-100812253D01*
X41161046Y-100808104D01*
X41336231Y-100683148D01*
X41342412Y-100677924D01*
X41494831Y-100526035D01*
X41500088Y-100519858D01*
X41625651Y-100345119D01*
X41629823Y-100338176D01*
X41641990Y-100313557D01*
X41684723Y-100269767D01*
X41745033Y-100259458D01*
X41799885Y-100286568D01*
X41815153Y-100305694D01*
X41898266Y-100441322D01*
X41903056Y-100447867D01*
X42043935Y-100610502D01*
X42049729Y-100616176D01*
X42215292Y-100753629D01*
X42221921Y-100758270D01*
X42407713Y-100866838D01*
X42415008Y-100870334D01*
X42616038Y-100947099D01*
X42623808Y-100949357D01*
X42727991Y-100970553D01*
X42781244Y-101000682D01*
X42806618Y-101056359D01*
X42794419Y-101116316D01*
X42749309Y-101157652D01*
X42736206Y-101162538D01*
X42604572Y-101201280D01*
X42600288Y-101203519D01*
X42600287Y-101203520D01*
X42591561Y-101208082D01*
X42422002Y-101296726D01*
X42418231Y-101299758D01*
X42265220Y-101422781D01*
X42265217Y-101422783D01*
X42261447Y-101425815D01*
X42258333Y-101429526D01*
X42258332Y-101429527D01*
X42154111Y-101553733D01*
X42129024Y-101583630D01*
X42126689Y-101587878D01*
X42126688Y-101587879D01*
X42114116Y-101610747D01*
X42029776Y-101764162D01*
X42028313Y-101768775D01*
X42028311Y-101768779D01*
X41987625Y-101897039D01*
X41967484Y-101960532D01*
X41966944Y-101965344D01*
X41966944Y-101965345D01*
X41955322Y-102068963D01*
X41944520Y-102165262D01*
X41947619Y-102202163D01*
X41957100Y-102315066D01*
X41961759Y-102370553D01*
X41963092Y-102375201D01*
X41963092Y-102375202D01*
X41989164Y-102466124D01*
X42018544Y-102568586D01*
X42112712Y-102751818D01*
X42240677Y-102913270D01*
X42244357Y-102916402D01*
X42244359Y-102916404D01*
X42282978Y-102949271D01*
X42397564Y-103046791D01*
X42401787Y-103049151D01*
X42401791Y-103049154D01*
X42485239Y-103095791D01*
X42577398Y-103147297D01*
X42581996Y-103148791D01*
X42768724Y-103209463D01*
X42768726Y-103209464D01*
X42773329Y-103210959D01*
X42977894Y-103235351D01*
X42982716Y-103234980D01*
X42982719Y-103234980D01*
X43050541Y-103229761D01*
X43183300Y-103219546D01*
X43381725Y-103164145D01*
X43386038Y-103161966D01*
X43386044Y-103161964D01*
X43561289Y-103073441D01*
X43561291Y-103073440D01*
X43565610Y-103071258D01*
X43569427Y-103068276D01*
X43724135Y-102947406D01*
X43724139Y-102947402D01*
X43727951Y-102944424D01*
X43754161Y-102914060D01*
X43810084Y-102849271D01*
X43862564Y-102788472D01*
X43881231Y-102755613D01*
X43961934Y-102613550D01*
X43961935Y-102613547D01*
X43964323Y-102609344D01*
X43968505Y-102596775D01*
X44027824Y-102418454D01*
X44027824Y-102418452D01*
X44029351Y-102413863D01*
X44038199Y-102343823D01*
X55894391Y-102343823D01*
X55895306Y-102350820D01*
X55895306Y-102350821D01*
X55909391Y-102458533D01*
X55912980Y-102485979D01*
X55915821Y-102492435D01*
X55915821Y-102492436D01*
X55967587Y-102610082D01*
X55970720Y-102617203D01*
X56016845Y-102672076D01*
X56058431Y-102721549D01*
X56058434Y-102721551D01*
X56062970Y-102726948D01*
X56182313Y-102806390D01*
X56248117Y-102826948D01*
X56312425Y-102847039D01*
X56312426Y-102847039D01*
X56319157Y-102849142D01*
X56390828Y-102850456D01*
X56455445Y-102851641D01*
X56455447Y-102851641D01*
X56462499Y-102851770D01*
X56469302Y-102849915D01*
X56469304Y-102849915D01*
X56544503Y-102829413D01*
X56600817Y-102814060D01*
X56660908Y-102777164D01*
X56720390Y-102762828D01*
X56776939Y-102786194D01*
X56788492Y-102797828D01*
X56812970Y-102826948D01*
X56818841Y-102830856D01*
X56818842Y-102830857D01*
X56831143Y-102839045D01*
X56932313Y-102906390D01*
X57032920Y-102937821D01*
X57062425Y-102947039D01*
X57062426Y-102947039D01*
X57069157Y-102949142D01*
X57140828Y-102950456D01*
X57205445Y-102951641D01*
X57205447Y-102951641D01*
X57212499Y-102951770D01*
X57219302Y-102949915D01*
X57219304Y-102949915D01*
X57342219Y-102916404D01*
X57350817Y-102914060D01*
X57472991Y-102839045D01*
X57480403Y-102830857D01*
X57564468Y-102737982D01*
X57569200Y-102732754D01*
X57631710Y-102603733D01*
X57637624Y-102568586D01*
X57654862Y-102466124D01*
X57654862Y-102466120D01*
X57655496Y-102462354D01*
X57655647Y-102450000D01*
X57635323Y-102308082D01*
X57575984Y-102177572D01*
X57482400Y-102068963D01*
X57476480Y-102065126D01*
X57476478Y-102065124D01*
X57456271Y-102052026D01*
X57417725Y-102004509D01*
X57414470Y-101943411D01*
X57421025Y-101925787D01*
X57428635Y-101910079D01*
X57431710Y-101903733D01*
X57439005Y-101860371D01*
X57454862Y-101766124D01*
X57454862Y-101766120D01*
X57455496Y-101762354D01*
X57455647Y-101750000D01*
X57435323Y-101608082D01*
X57382742Y-101492436D01*
X57378905Y-101483996D01*
X57378904Y-101483995D01*
X57375984Y-101477572D01*
X57282400Y-101368963D01*
X57162095Y-101290985D01*
X57024739Y-101249907D01*
X56941497Y-101249398D01*
X56888427Y-101249074D01*
X56888426Y-101249074D01*
X56881376Y-101249031D01*
X56874599Y-101250968D01*
X56874598Y-101250968D01*
X56750309Y-101286490D01*
X56750307Y-101286491D01*
X56743529Y-101288428D01*
X56622280Y-101364930D01*
X56617613Y-101370214D01*
X56617611Y-101370216D01*
X56532044Y-101467103D01*
X56532042Y-101467105D01*
X56527377Y-101472388D01*
X56466447Y-101602163D01*
X56465362Y-101609132D01*
X56465361Y-101609135D01*
X56456320Y-101667203D01*
X56444391Y-101743823D01*
X56445306Y-101750822D01*
X56445300Y-101751330D01*
X56425683Y-101809286D01*
X56375747Y-101844642D01*
X56345702Y-101849119D01*
X56339172Y-101849079D01*
X56338425Y-101849074D01*
X56331376Y-101849031D01*
X56324599Y-101850968D01*
X56324598Y-101850968D01*
X56200309Y-101886490D01*
X56200307Y-101886491D01*
X56193529Y-101888428D01*
X56072280Y-101964930D01*
X56067613Y-101970214D01*
X56067611Y-101970216D01*
X55982044Y-102067103D01*
X55982042Y-102067105D01*
X55977377Y-102072388D01*
X55916447Y-102202163D01*
X55915362Y-102209132D01*
X55915361Y-102209135D01*
X55900956Y-102301660D01*
X55894391Y-102343823D01*
X44038199Y-102343823D01*
X44055171Y-102209474D01*
X44055363Y-102195776D01*
X44055544Y-102182776D01*
X44055583Y-102180000D01*
X44044320Y-102065124D01*
X44035952Y-101979780D01*
X44035951Y-101979776D01*
X44035480Y-101974970D01*
X44013380Y-101901770D01*
X43977333Y-101782380D01*
X43975935Y-101777749D01*
X43879218Y-101595849D01*
X43749011Y-101436200D01*
X43720186Y-101412354D01*
X43697786Y-101393823D01*
X48694391Y-101393823D01*
X48695306Y-101400820D01*
X48695306Y-101400821D01*
X48705342Y-101477572D01*
X48712980Y-101535979D01*
X48715821Y-101542435D01*
X48715821Y-101542436D01*
X48742102Y-101602163D01*
X48770720Y-101667203D01*
X48783792Y-101682754D01*
X48858431Y-101771549D01*
X48858434Y-101771551D01*
X48862970Y-101776948D01*
X48868841Y-101780856D01*
X48868842Y-101780857D01*
X48881143Y-101789045D01*
X48982313Y-101856390D01*
X49082920Y-101887821D01*
X49112425Y-101897039D01*
X49112426Y-101897039D01*
X49119157Y-101899142D01*
X49190828Y-101900456D01*
X49255445Y-101901641D01*
X49255447Y-101901641D01*
X49262499Y-101901770D01*
X49269302Y-101899915D01*
X49269304Y-101899915D01*
X49344503Y-101879413D01*
X49400817Y-101864060D01*
X49522991Y-101789045D01*
X49530403Y-101780857D01*
X49614468Y-101687982D01*
X49619200Y-101682754D01*
X49681710Y-101553733D01*
X49685875Y-101528982D01*
X49704862Y-101416124D01*
X49704862Y-101416120D01*
X49705496Y-101412354D01*
X49705647Y-101400000D01*
X49697602Y-101343823D01*
X54894391Y-101343823D01*
X54895306Y-101350820D01*
X54895306Y-101350821D01*
X54896659Y-101361167D01*
X54912980Y-101485979D01*
X54915821Y-101492435D01*
X54915821Y-101492436D01*
X54966707Y-101608082D01*
X54970720Y-101617203D01*
X55012749Y-101667203D01*
X55058431Y-101721549D01*
X55058434Y-101721551D01*
X55062970Y-101726948D01*
X55068841Y-101730856D01*
X55068842Y-101730857D01*
X55077842Y-101736848D01*
X55182313Y-101806390D01*
X55282920Y-101837821D01*
X55312425Y-101847039D01*
X55312426Y-101847039D01*
X55319157Y-101849142D01*
X55390828Y-101850456D01*
X55455445Y-101851641D01*
X55455447Y-101851641D01*
X55462499Y-101851770D01*
X55469302Y-101849915D01*
X55469304Y-101849915D01*
X55544503Y-101829413D01*
X55600817Y-101814060D01*
X55722991Y-101739045D01*
X55730403Y-101730857D01*
X55814468Y-101637982D01*
X55819200Y-101632754D01*
X55881710Y-101503733D01*
X55885875Y-101478982D01*
X55904862Y-101366124D01*
X55904862Y-101366120D01*
X55905496Y-101362354D01*
X55905647Y-101350000D01*
X55885323Y-101208082D01*
X55847295Y-101124443D01*
X55828905Y-101083996D01*
X55828904Y-101083995D01*
X55825984Y-101077572D01*
X55732400Y-100968963D01*
X55612095Y-100890985D01*
X55474739Y-100849907D01*
X55391497Y-100849398D01*
X55338427Y-100849074D01*
X55338426Y-100849074D01*
X55331376Y-100849031D01*
X55324599Y-100850968D01*
X55324598Y-100850968D01*
X55200309Y-100886490D01*
X55200307Y-100886491D01*
X55193529Y-100888428D01*
X55072280Y-100964930D01*
X55067613Y-100970214D01*
X55067611Y-100970216D01*
X54982044Y-101067103D01*
X54982042Y-101067105D01*
X54977377Y-101072388D01*
X54916447Y-101202163D01*
X54915362Y-101209132D01*
X54915361Y-101209135D01*
X54903016Y-101288428D01*
X54894391Y-101343823D01*
X49697602Y-101343823D01*
X49685323Y-101258082D01*
X49641882Y-101162538D01*
X49628905Y-101133996D01*
X49628904Y-101133995D01*
X49625984Y-101127572D01*
X49532400Y-101018963D01*
X49412095Y-100940985D01*
X49274739Y-100899907D01*
X49191497Y-100899398D01*
X49138427Y-100899074D01*
X49138426Y-100899074D01*
X49131376Y-100899031D01*
X49124599Y-100900968D01*
X49124598Y-100900968D01*
X49000309Y-100936490D01*
X49000307Y-100936491D01*
X48993529Y-100938428D01*
X48872280Y-101014930D01*
X48867613Y-101020214D01*
X48867611Y-101020216D01*
X48782044Y-101117103D01*
X48782042Y-101117105D01*
X48777377Y-101122388D01*
X48716447Y-101252163D01*
X48715362Y-101259132D01*
X48715361Y-101259135D01*
X48708597Y-101302581D01*
X48694391Y-101393823D01*
X43697786Y-101393823D01*
X43594002Y-101307965D01*
X43594000Y-101307964D01*
X43590275Y-101304882D01*
X43409055Y-101206897D01*
X43355038Y-101190176D01*
X43272061Y-101164490D01*
X43222063Y-101129220D01*
X43202346Y-101071299D01*
X43220439Y-101012850D01*
X43269432Y-100976199D01*
X43280752Y-100973081D01*
X43287202Y-100971710D01*
X43493304Y-100909876D01*
X43500852Y-100906918D01*
X43694087Y-100812253D01*
X43701046Y-100808104D01*
X43876231Y-100683148D01*
X43882412Y-100677924D01*
X44034831Y-100526035D01*
X44040088Y-100519858D01*
X44165651Y-100345119D01*
X44169823Y-100338176D01*
X44241167Y-100193823D01*
X48094391Y-100193823D01*
X48095306Y-100200820D01*
X48095306Y-100200821D01*
X48096814Y-100212354D01*
X48112980Y-100335979D01*
X48115821Y-100342435D01*
X48115821Y-100342436D01*
X48141113Y-100399915D01*
X48170720Y-100467203D01*
X48183792Y-100482754D01*
X48258431Y-100571549D01*
X48258434Y-100571551D01*
X48262970Y-100576948D01*
X48268841Y-100580856D01*
X48268842Y-100580857D01*
X48281143Y-100589045D01*
X48382313Y-100656390D01*
X48451241Y-100677924D01*
X48512425Y-100697039D01*
X48512426Y-100697039D01*
X48519157Y-100699142D01*
X48590828Y-100700456D01*
X48655445Y-100701641D01*
X48655447Y-100701641D01*
X48662499Y-100701770D01*
X48669302Y-100699915D01*
X48669304Y-100699915D01*
X48749965Y-100677924D01*
X48800817Y-100664060D01*
X48922991Y-100589045D01*
X48930403Y-100580857D01*
X49014468Y-100487982D01*
X49019200Y-100482754D01*
X49081710Y-100353733D01*
X49083160Y-100345119D01*
X49104862Y-100216124D01*
X49104862Y-100216120D01*
X49105496Y-100212354D01*
X49105647Y-100200000D01*
X49085323Y-100058082D01*
X49025984Y-99927572D01*
X48996904Y-99893823D01*
X51394391Y-99893823D01*
X51395306Y-99900820D01*
X51395306Y-99900821D01*
X51396447Y-99909547D01*
X51412980Y-100035979D01*
X51415821Y-100042435D01*
X51415821Y-100042436D01*
X51466788Y-100158266D01*
X51470720Y-100167203D01*
X51508673Y-100212354D01*
X51558431Y-100271549D01*
X51558434Y-100271551D01*
X51562970Y-100276948D01*
X51568841Y-100280856D01*
X51568842Y-100280857D01*
X51577422Y-100286568D01*
X51682313Y-100356390D01*
X51782920Y-100387821D01*
X51812425Y-100397039D01*
X51812426Y-100397039D01*
X51819157Y-100399142D01*
X51890828Y-100400456D01*
X51955445Y-100401641D01*
X51955447Y-100401641D01*
X51962499Y-100401770D01*
X51969302Y-100399915D01*
X51969304Y-100399915D01*
X52044503Y-100379413D01*
X52100817Y-100364060D01*
X52222991Y-100289045D01*
X52230403Y-100280857D01*
X52314468Y-100187982D01*
X52319200Y-100182754D01*
X52328151Y-100164279D01*
X52370537Y-100120155D01*
X52430764Y-100109371D01*
X52485828Y-100136048D01*
X52493028Y-100143742D01*
X52525821Y-100182754D01*
X52562970Y-100226948D01*
X52568841Y-100230856D01*
X52568842Y-100230857D01*
X52581143Y-100239045D01*
X52682313Y-100306390D01*
X52777024Y-100335979D01*
X52812425Y-100347039D01*
X52812426Y-100347039D01*
X52819157Y-100349142D01*
X52890828Y-100350456D01*
X52955445Y-100351641D01*
X52955447Y-100351641D01*
X52962499Y-100351770D01*
X52969302Y-100349915D01*
X52969304Y-100349915D01*
X53046084Y-100328982D01*
X53100817Y-100314060D01*
X53222991Y-100239045D01*
X53227726Y-100233814D01*
X53308889Y-100144146D01*
X53361957Y-100113692D01*
X53422790Y-100120247D01*
X53466335Y-100158266D01*
X53467879Y-100160746D01*
X53470720Y-100167203D01*
X53508673Y-100212354D01*
X53558431Y-100271549D01*
X53558434Y-100271551D01*
X53562970Y-100276948D01*
X53568841Y-100280856D01*
X53568842Y-100280857D01*
X53577422Y-100286568D01*
X53682313Y-100356390D01*
X53782920Y-100387821D01*
X53812425Y-100397039D01*
X53812426Y-100397039D01*
X53819157Y-100399142D01*
X53890828Y-100400456D01*
X53955445Y-100401641D01*
X53955447Y-100401641D01*
X53962499Y-100401770D01*
X53969302Y-100399915D01*
X53969304Y-100399915D01*
X54044503Y-100379413D01*
X54100817Y-100364060D01*
X54222991Y-100289045D01*
X54230403Y-100280857D01*
X54314468Y-100187982D01*
X54319200Y-100182754D01*
X54381710Y-100053733D01*
X54385875Y-100028982D01*
X54404862Y-99916124D01*
X54404862Y-99916120D01*
X54405496Y-99912354D01*
X54405647Y-99900000D01*
X54385323Y-99758082D01*
X54325984Y-99627572D01*
X54232400Y-99518963D01*
X54112095Y-99440985D01*
X53974739Y-99399907D01*
X53891497Y-99399398D01*
X53838427Y-99399074D01*
X53838426Y-99399074D01*
X53831376Y-99399031D01*
X53824599Y-99400968D01*
X53824598Y-99400968D01*
X53700309Y-99436490D01*
X53700307Y-99436491D01*
X53693529Y-99438428D01*
X53572280Y-99514930D01*
X53567613Y-99520214D01*
X53567611Y-99520216D01*
X53491995Y-99605836D01*
X53439303Y-99636936D01*
X53378394Y-99631125D01*
X53332534Y-99590623D01*
X53329868Y-99585502D01*
X53328905Y-99583996D01*
X53325984Y-99577572D01*
X53265582Y-99507472D01*
X53237005Y-99474307D01*
X53237004Y-99474306D01*
X53232400Y-99468963D01*
X53112095Y-99390985D01*
X52974739Y-99349907D01*
X52891497Y-99349398D01*
X52838427Y-99349074D01*
X52838426Y-99349074D01*
X52831376Y-99349031D01*
X52824599Y-99350968D01*
X52824598Y-99350968D01*
X52700309Y-99386490D01*
X52700307Y-99386491D01*
X52693529Y-99388428D01*
X52572280Y-99464930D01*
X52567613Y-99470214D01*
X52567611Y-99470216D01*
X52482044Y-99567103D01*
X52482042Y-99567105D01*
X52477377Y-99572388D01*
X52472122Y-99583581D01*
X52430278Y-99628219D01*
X52370186Y-99639737D01*
X52314801Y-99613735D01*
X52307510Y-99606131D01*
X52237006Y-99524308D01*
X52237004Y-99524306D01*
X52232400Y-99518963D01*
X52112095Y-99440985D01*
X51974739Y-99399907D01*
X51891497Y-99399398D01*
X51838427Y-99399074D01*
X51838426Y-99399074D01*
X51831376Y-99399031D01*
X51824599Y-99400968D01*
X51824598Y-99400968D01*
X51700309Y-99436490D01*
X51700307Y-99436491D01*
X51693529Y-99438428D01*
X51572280Y-99514930D01*
X51567613Y-99520214D01*
X51567611Y-99520216D01*
X51482044Y-99617103D01*
X51482042Y-99617105D01*
X51477377Y-99622388D01*
X51474381Y-99628770D01*
X51474380Y-99628771D01*
X51454847Y-99670374D01*
X51416447Y-99752163D01*
X51394391Y-99893823D01*
X48996904Y-99893823D01*
X48932400Y-99818963D01*
X48812095Y-99740985D01*
X48674739Y-99699907D01*
X48591497Y-99699398D01*
X48538427Y-99699074D01*
X48538426Y-99699074D01*
X48531376Y-99699031D01*
X48524599Y-99700968D01*
X48524598Y-99700968D01*
X48400309Y-99736490D01*
X48400307Y-99736491D01*
X48393529Y-99738428D01*
X48272280Y-99814930D01*
X48267613Y-99820214D01*
X48267611Y-99820216D01*
X48182044Y-99917103D01*
X48182042Y-99917105D01*
X48177377Y-99922388D01*
X48116447Y-100052163D01*
X48115362Y-100059132D01*
X48115361Y-100059135D01*
X48101951Y-100145268D01*
X48094391Y-100193823D01*
X44241167Y-100193823D01*
X44265164Y-100145268D01*
X44268144Y-100137744D01*
X44330701Y-99931843D01*
X44332410Y-99923938D01*
X44334304Y-99909547D01*
X44331873Y-99896431D01*
X44330571Y-99895195D01*
X44325290Y-99894000D01*
X40305000Y-99894000D01*
X40246809Y-99875093D01*
X40210845Y-99825593D01*
X40206000Y-99795000D01*
X40206000Y-99485000D01*
X40224907Y-99426809D01*
X40274407Y-99390845D01*
X40305000Y-99386000D01*
X44320779Y-99386000D01*
X44332730Y-99382117D01*
X44333058Y-99372462D01*
X44290946Y-99204809D01*
X44288333Y-99197133D01*
X44216282Y-99031425D01*
X44210418Y-98970521D01*
X44241472Y-98917802D01*
X44297583Y-98893405D01*
X44361929Y-98909538D01*
X44432313Y-98956390D01*
X44526233Y-98985732D01*
X44562425Y-98997039D01*
X44562426Y-98997039D01*
X44569157Y-98999142D01*
X44640828Y-99000456D01*
X44705445Y-99001641D01*
X44705447Y-99001641D01*
X44712499Y-99001770D01*
X44719302Y-98999915D01*
X44719304Y-98999915D01*
X44741649Y-98993823D01*
X56794391Y-98993823D01*
X56795306Y-99000820D01*
X56795306Y-99000821D01*
X56796393Y-99009134D01*
X56812980Y-99135979D01*
X56815821Y-99142435D01*
X56815821Y-99142436D01*
X56823586Y-99160082D01*
X56870720Y-99267203D01*
X56883792Y-99282754D01*
X56958431Y-99371549D01*
X56958434Y-99371551D01*
X56962970Y-99376948D01*
X56968841Y-99380856D01*
X56968842Y-99380857D01*
X56999054Y-99400968D01*
X57082313Y-99456390D01*
X57173890Y-99485000D01*
X57212425Y-99497039D01*
X57212426Y-99497039D01*
X57219157Y-99499142D01*
X57290828Y-99500456D01*
X57355445Y-99501641D01*
X57355447Y-99501641D01*
X57362499Y-99501770D01*
X57369302Y-99499915D01*
X57369304Y-99499915D01*
X57444503Y-99479413D01*
X57500817Y-99464060D01*
X57622991Y-99389045D01*
X57630403Y-99380857D01*
X57714468Y-99287982D01*
X57719200Y-99282754D01*
X57781710Y-99153733D01*
X57785875Y-99128982D01*
X57804862Y-99016124D01*
X57804862Y-99016120D01*
X57805496Y-99012354D01*
X57805647Y-99000000D01*
X57785323Y-98858082D01*
X57725984Y-98727572D01*
X57662360Y-98653733D01*
X57637005Y-98624307D01*
X57637004Y-98624306D01*
X57632400Y-98618963D01*
X57512095Y-98540985D01*
X57374739Y-98499907D01*
X57291497Y-98499398D01*
X57238427Y-98499074D01*
X57238426Y-98499074D01*
X57231376Y-98499031D01*
X57224599Y-98500968D01*
X57224598Y-98500968D01*
X57100309Y-98536490D01*
X57100307Y-98536491D01*
X57093529Y-98538428D01*
X56972280Y-98614930D01*
X56967613Y-98620214D01*
X56967611Y-98620216D01*
X56882044Y-98717103D01*
X56882042Y-98717105D01*
X56877377Y-98722388D01*
X56816447Y-98852163D01*
X56815362Y-98859132D01*
X56815361Y-98859135D01*
X56807514Y-98909538D01*
X56794391Y-98993823D01*
X44741649Y-98993823D01*
X44794503Y-98979413D01*
X44850817Y-98964060D01*
X44972991Y-98889045D01*
X45069200Y-98782754D01*
X45131710Y-98653733D01*
X45132940Y-98646426D01*
X45154862Y-98516124D01*
X45154862Y-98516120D01*
X45155496Y-98512354D01*
X45155647Y-98500000D01*
X45135323Y-98358082D01*
X45082742Y-98242436D01*
X45078905Y-98233996D01*
X45078904Y-98233995D01*
X45075984Y-98227572D01*
X45000136Y-98139546D01*
X44987005Y-98124307D01*
X44987004Y-98124306D01*
X44982400Y-98118963D01*
X44943614Y-98093823D01*
X51494391Y-98093823D01*
X51495306Y-98100820D01*
X51495306Y-98100821D01*
X51502437Y-98155351D01*
X51512980Y-98235979D01*
X51515821Y-98242435D01*
X51515821Y-98242436D01*
X51566707Y-98358082D01*
X51570720Y-98367203D01*
X51587995Y-98387754D01*
X51658431Y-98471549D01*
X51658434Y-98471551D01*
X51662970Y-98476948D01*
X51668841Y-98480856D01*
X51668842Y-98480857D01*
X51697600Y-98500000D01*
X51782313Y-98556390D01*
X51882920Y-98587821D01*
X51912425Y-98597039D01*
X51912426Y-98597039D01*
X51919157Y-98599142D01*
X51990828Y-98600456D01*
X52055445Y-98601641D01*
X52055447Y-98601641D01*
X52062499Y-98601770D01*
X52069302Y-98599915D01*
X52069304Y-98599915D01*
X52144503Y-98579413D01*
X52200817Y-98564060D01*
X52322991Y-98489045D01*
X52330403Y-98480857D01*
X52414468Y-98387982D01*
X52419200Y-98382754D01*
X52481710Y-98253733D01*
X52485875Y-98228982D01*
X52504862Y-98116124D01*
X52504862Y-98116120D01*
X52505496Y-98112354D01*
X52505647Y-98100000D01*
X52485323Y-97958082D01*
X52425984Y-97827572D01*
X52332400Y-97718963D01*
X52212095Y-97640985D01*
X52074739Y-97599907D01*
X51991497Y-97599398D01*
X51938427Y-97599074D01*
X51938426Y-97599074D01*
X51931376Y-97599031D01*
X51924599Y-97600968D01*
X51924598Y-97600968D01*
X51800309Y-97636490D01*
X51800307Y-97636491D01*
X51793529Y-97638428D01*
X51672280Y-97714930D01*
X51667613Y-97720214D01*
X51667611Y-97720216D01*
X51582044Y-97817103D01*
X51582042Y-97817105D01*
X51577377Y-97822388D01*
X51516447Y-97952163D01*
X51515362Y-97959132D01*
X51515361Y-97959135D01*
X51503016Y-98038428D01*
X51494391Y-98093823D01*
X44943614Y-98093823D01*
X44862095Y-98040985D01*
X44724739Y-97999907D01*
X44641497Y-97999398D01*
X44588427Y-97999074D01*
X44588426Y-97999074D01*
X44581376Y-97999031D01*
X44574599Y-98000968D01*
X44574598Y-98000968D01*
X44450309Y-98036490D01*
X44450307Y-98036491D01*
X44443529Y-98038428D01*
X44322280Y-98114930D01*
X44317613Y-98120214D01*
X44317611Y-98120216D01*
X44232044Y-98217103D01*
X44232042Y-98217105D01*
X44227377Y-98222388D01*
X44166447Y-98352163D01*
X44165362Y-98359132D01*
X44165361Y-98359135D01*
X44150680Y-98453430D01*
X44144391Y-98493823D01*
X44159736Y-98611167D01*
X44162431Y-98631778D01*
X44151229Y-98691929D01*
X44106810Y-98734008D01*
X44046141Y-98741941D01*
X43991044Y-98711243D01*
X43932065Y-98646426D01*
X43926139Y-98640899D01*
X43757269Y-98507534D01*
X43750525Y-98503054D01*
X43562141Y-98399060D01*
X43554749Y-98395738D01*
X43351920Y-98323912D01*
X43344081Y-98321841D01*
X43274589Y-98309463D01*
X43220616Y-98280644D01*
X43193890Y-98225605D01*
X43204619Y-98165367D01*
X43248706Y-98122941D01*
X43265327Y-98116644D01*
X43321998Y-98100821D01*
X43381725Y-98084145D01*
X43386038Y-98081966D01*
X43386044Y-98081964D01*
X43561289Y-97993441D01*
X43561291Y-97993440D01*
X43565610Y-97991258D01*
X43596927Y-97966791D01*
X43724135Y-97867406D01*
X43724139Y-97867402D01*
X43727951Y-97864424D01*
X43862564Y-97708472D01*
X43881231Y-97675613D01*
X43961934Y-97533550D01*
X43961935Y-97533547D01*
X43964323Y-97529344D01*
X43977882Y-97488586D01*
X44027824Y-97338454D01*
X44027824Y-97338452D01*
X44029351Y-97333863D01*
X44055171Y-97129474D01*
X44055297Y-97120500D01*
X44055509Y-97105276D01*
X44055583Y-97100000D01*
X44042436Y-96965914D01*
X44035952Y-96899780D01*
X44035951Y-96899776D01*
X44035480Y-96894970D01*
X43975935Y-96697749D01*
X43879218Y-96515849D01*
X43861254Y-96493823D01*
X47194391Y-96493823D01*
X47195306Y-96500820D01*
X47195306Y-96500821D01*
X47212065Y-96628982D01*
X47212980Y-96635979D01*
X47215821Y-96642435D01*
X47215821Y-96642436D01*
X47236213Y-96688779D01*
X47270720Y-96767203D01*
X47312957Y-96817450D01*
X47358431Y-96871549D01*
X47358434Y-96871551D01*
X47362970Y-96876948D01*
X47368841Y-96880856D01*
X47368842Y-96880857D01*
X47381143Y-96889045D01*
X47482313Y-96956390D01*
X47582920Y-96987821D01*
X47612425Y-96997039D01*
X47612426Y-96997039D01*
X47619157Y-96999142D01*
X47690828Y-97000456D01*
X47755445Y-97001641D01*
X47755447Y-97001641D01*
X47762499Y-97001770D01*
X47769302Y-96999915D01*
X47769304Y-96999915D01*
X47844503Y-96979413D01*
X47900817Y-96964060D01*
X48022991Y-96889045D01*
X48030403Y-96880857D01*
X48114468Y-96787982D01*
X48119200Y-96782754D01*
X48172433Y-96672881D01*
X48178634Y-96660082D01*
X48181710Y-96653733D01*
X48185875Y-96628982D01*
X48204862Y-96516124D01*
X48204862Y-96516120D01*
X48205496Y-96512354D01*
X48205633Y-96501105D01*
X53319031Y-96501105D01*
X53320423Y-96506901D01*
X53320423Y-96506905D01*
X53346207Y-96614297D01*
X53358612Y-96665968D01*
X53436375Y-96816631D01*
X53547831Y-96944396D01*
X53552713Y-96947827D01*
X53552714Y-96947828D01*
X53629466Y-97001770D01*
X53686547Y-97041887D01*
X53765530Y-97072682D01*
X53835598Y-97100000D01*
X53844513Y-97103476D01*
X53850428Y-97104255D01*
X53850429Y-97104255D01*
X53963624Y-97119157D01*
X53973826Y-97120500D01*
X55162516Y-97120500D01*
X55185443Y-97117726D01*
X55282398Y-97105993D01*
X55282401Y-97105992D01*
X55288320Y-97105276D01*
X55446923Y-97045345D01*
X55451840Y-97041965D01*
X55451843Y-97041964D01*
X55573294Y-96958492D01*
X55586651Y-96949312D01*
X55699440Y-96822721D01*
X55702665Y-96816631D01*
X55765609Y-96697749D01*
X55778776Y-96672881D01*
X55818151Y-96516124D01*
X55818627Y-96514231D01*
X55818627Y-96514228D01*
X55820081Y-96508441D01*
X55820119Y-96501105D01*
X57749031Y-96501105D01*
X57750423Y-96506901D01*
X57750423Y-96506905D01*
X57776207Y-96614297D01*
X57788612Y-96665968D01*
X57866375Y-96816631D01*
X57977831Y-96944396D01*
X57982713Y-96947827D01*
X57982714Y-96947828D01*
X58059466Y-97001770D01*
X58116547Y-97041887D01*
X58195530Y-97072682D01*
X58265598Y-97100000D01*
X58274513Y-97103476D01*
X58280428Y-97104255D01*
X58280429Y-97104255D01*
X58393624Y-97119157D01*
X58403826Y-97120500D01*
X59092516Y-97120500D01*
X59115443Y-97117726D01*
X59212398Y-97105993D01*
X59212401Y-97105992D01*
X59218320Y-97105276D01*
X59376923Y-97045345D01*
X59381840Y-97041965D01*
X59381843Y-97041964D01*
X59503294Y-96958492D01*
X59516651Y-96949312D01*
X59629440Y-96822721D01*
X59632665Y-96816631D01*
X59695609Y-96697749D01*
X59708776Y-96672881D01*
X59748151Y-96516124D01*
X59748627Y-96514231D01*
X59748627Y-96514228D01*
X59750081Y-96508441D01*
X59750869Y-96358082D01*
X59750938Y-96344861D01*
X59750938Y-96344859D01*
X59750969Y-96338895D01*
X59746561Y-96320531D01*
X59723596Y-96224882D01*
X59711388Y-96174032D01*
X59672506Y-96098700D01*
X59636364Y-96028675D01*
X59636362Y-96028673D01*
X59633625Y-96023369D01*
X59522169Y-95895604D01*
X59441694Y-95839045D01*
X59388335Y-95801544D01*
X59388334Y-95801544D01*
X59383453Y-95798113D01*
X59225487Y-95736524D01*
X59219572Y-95735745D01*
X59219571Y-95735745D01*
X59099387Y-95719923D01*
X59096174Y-95719500D01*
X58407484Y-95719500D01*
X58403989Y-95719923D01*
X58287602Y-95734007D01*
X58287599Y-95734008D01*
X58281680Y-95734724D01*
X58123077Y-95794655D01*
X58118160Y-95798035D01*
X58118157Y-95798036D01*
X58005769Y-95875279D01*
X57983349Y-95890688D01*
X57870560Y-96017279D01*
X57867770Y-96022549D01*
X57867769Y-96022550D01*
X57864526Y-96028675D01*
X57791224Y-96167119D01*
X57773979Y-96235773D01*
X57753157Y-96318670D01*
X57749919Y-96331559D01*
X57749704Y-96372647D01*
X57749106Y-96486849D01*
X57749031Y-96501105D01*
X55820119Y-96501105D01*
X55820869Y-96358082D01*
X55820938Y-96344861D01*
X55820938Y-96344859D01*
X55820969Y-96338895D01*
X55816561Y-96320531D01*
X55793596Y-96224882D01*
X55781388Y-96174032D01*
X55742506Y-96098700D01*
X55706364Y-96028675D01*
X55706362Y-96028673D01*
X55703625Y-96023369D01*
X55592169Y-95895604D01*
X55511694Y-95839045D01*
X55458335Y-95801544D01*
X55458334Y-95801544D01*
X55453453Y-95798113D01*
X55295487Y-95736524D01*
X55289572Y-95735745D01*
X55289571Y-95735745D01*
X55287018Y-95735409D01*
X55285568Y-95734717D01*
X55283787Y-95734260D01*
X55283877Y-95733911D01*
X55231793Y-95709068D01*
X55202598Y-95655297D01*
X55210584Y-95594635D01*
X55252702Y-95550253D01*
X55262054Y-95545792D01*
X55384240Y-95495181D01*
X55384244Y-95495179D01*
X55390233Y-95492698D01*
X55395375Y-95488752D01*
X55395379Y-95488750D01*
X55505302Y-95404402D01*
X55510451Y-95400451D01*
X55518391Y-95390104D01*
X55598750Y-95285379D01*
X55598752Y-95285375D01*
X55602698Y-95280233D01*
X55605179Y-95274244D01*
X55605181Y-95274240D01*
X55658203Y-95146233D01*
X55660687Y-95140236D01*
X55680466Y-94990000D01*
X55660687Y-94839764D01*
X55658203Y-94833767D01*
X55605181Y-94705760D01*
X55605179Y-94705756D01*
X55602698Y-94699767D01*
X55598752Y-94694625D01*
X55598750Y-94694621D01*
X55514402Y-94584698D01*
X55510451Y-94579549D01*
X55488592Y-94562776D01*
X55395379Y-94491250D01*
X55395375Y-94491248D01*
X55390233Y-94487302D01*
X55384244Y-94484821D01*
X55384240Y-94484819D01*
X55256233Y-94431797D01*
X55250236Y-94429313D01*
X55137720Y-94414500D01*
X55062280Y-94414500D01*
X54949764Y-94429313D01*
X54943767Y-94431797D01*
X54815760Y-94484819D01*
X54815756Y-94484821D01*
X54809767Y-94487302D01*
X54804625Y-94491248D01*
X54804621Y-94491250D01*
X54711408Y-94562776D01*
X54689549Y-94579549D01*
X54685598Y-94584698D01*
X54601250Y-94694621D01*
X54601248Y-94694625D01*
X54597302Y-94699767D01*
X54594821Y-94705756D01*
X54594819Y-94705760D01*
X54541797Y-94833767D01*
X54539313Y-94839764D01*
X54519534Y-94990000D01*
X54539313Y-95140236D01*
X54541797Y-95146233D01*
X54594819Y-95274240D01*
X54594821Y-95274244D01*
X54597302Y-95280233D01*
X54601248Y-95285375D01*
X54601250Y-95285379D01*
X54681609Y-95390104D01*
X54689549Y-95400451D01*
X54694698Y-95404402D01*
X54804621Y-95488750D01*
X54804625Y-95488752D01*
X54809767Y-95492698D01*
X54815756Y-95495179D01*
X54815760Y-95495181D01*
X54897494Y-95529036D01*
X54944020Y-95568773D01*
X54958303Y-95628268D01*
X54934888Y-95684796D01*
X54882719Y-95716765D01*
X54859608Y-95719500D01*
X53977484Y-95719500D01*
X53973989Y-95719923D01*
X53857602Y-95734007D01*
X53857599Y-95734008D01*
X53851680Y-95734724D01*
X53693077Y-95794655D01*
X53688160Y-95798035D01*
X53688157Y-95798036D01*
X53575769Y-95875279D01*
X53553349Y-95890688D01*
X53440560Y-96017279D01*
X53437770Y-96022549D01*
X53437769Y-96022550D01*
X53434526Y-96028675D01*
X53361224Y-96167119D01*
X53343979Y-96235773D01*
X53323157Y-96318670D01*
X53319919Y-96331559D01*
X53319704Y-96372647D01*
X53319106Y-96486849D01*
X53319031Y-96501105D01*
X48205633Y-96501105D01*
X48205647Y-96500000D01*
X48185323Y-96358082D01*
X48156972Y-96295727D01*
X48128905Y-96233996D01*
X48128904Y-96233995D01*
X48125984Y-96227572D01*
X48032400Y-96118963D01*
X47912095Y-96040985D01*
X47774739Y-95999907D01*
X47691497Y-95999398D01*
X47638427Y-95999074D01*
X47638426Y-95999074D01*
X47631376Y-95999031D01*
X47624599Y-96000968D01*
X47624598Y-96000968D01*
X47500309Y-96036490D01*
X47500307Y-96036491D01*
X47493529Y-96038428D01*
X47372280Y-96114930D01*
X47367613Y-96120214D01*
X47367611Y-96120216D01*
X47282044Y-96217103D01*
X47282042Y-96217105D01*
X47277377Y-96222388D01*
X47216447Y-96352163D01*
X47215362Y-96359132D01*
X47215361Y-96359135D01*
X47200680Y-96453430D01*
X47194391Y-96493823D01*
X43861254Y-96493823D01*
X43749011Y-96356200D01*
X43745282Y-96353115D01*
X43745278Y-96353111D01*
X43705895Y-96320531D01*
X43673109Y-96268871D01*
X43676951Y-96207806D01*
X43710803Y-96164161D01*
X43719137Y-96158105D01*
X43721171Y-96156628D01*
X43734411Y-96148513D01*
X43755907Y-96137561D01*
X43778470Y-96114998D01*
X43778474Y-96114995D01*
X44699645Y-95193823D01*
X50194391Y-95193823D01*
X50195306Y-95200820D01*
X50195306Y-95200821D01*
X50196814Y-95212354D01*
X50212980Y-95335979D01*
X50215821Y-95342435D01*
X50215821Y-95342436D01*
X50263512Y-95450821D01*
X50270720Y-95467203D01*
X50292151Y-95492698D01*
X50358431Y-95571549D01*
X50358434Y-95571551D01*
X50362970Y-95576948D01*
X50368841Y-95580856D01*
X50368842Y-95580857D01*
X50392755Y-95596775D01*
X50482313Y-95656390D01*
X50573237Y-95684796D01*
X50612425Y-95697039D01*
X50612426Y-95697039D01*
X50619157Y-95699142D01*
X50690828Y-95700456D01*
X50755445Y-95701641D01*
X50755447Y-95701641D01*
X50762499Y-95701770D01*
X50769302Y-95699915D01*
X50769304Y-95699915D01*
X50844503Y-95679413D01*
X50900817Y-95664060D01*
X51022991Y-95589045D01*
X51030403Y-95580857D01*
X51114468Y-95487982D01*
X51119200Y-95482754D01*
X51138062Y-95443823D01*
X51894391Y-95443823D01*
X51895306Y-95450820D01*
X51895306Y-95450821D01*
X51902264Y-95504034D01*
X51912980Y-95585979D01*
X51915821Y-95592435D01*
X51915821Y-95592436D01*
X51967141Y-95709068D01*
X51970720Y-95717203D01*
X52016845Y-95772076D01*
X52058431Y-95821549D01*
X52058434Y-95821551D01*
X52062970Y-95826948D01*
X52068841Y-95830856D01*
X52068842Y-95830857D01*
X52081143Y-95839045D01*
X52182313Y-95906390D01*
X52282920Y-95937821D01*
X52312425Y-95947039D01*
X52312426Y-95947039D01*
X52319157Y-95949142D01*
X52390828Y-95950456D01*
X52455445Y-95951641D01*
X52455447Y-95951641D01*
X52462499Y-95951770D01*
X52469302Y-95949915D01*
X52469304Y-95949915D01*
X52544503Y-95929413D01*
X52600817Y-95914060D01*
X52722991Y-95839045D01*
X52730403Y-95830857D01*
X52814468Y-95737982D01*
X52819200Y-95732754D01*
X52881710Y-95603733D01*
X52884182Y-95589045D01*
X52904862Y-95466124D01*
X52904862Y-95466120D01*
X52905496Y-95462354D01*
X52905647Y-95450000D01*
X52885323Y-95308082D01*
X52856788Y-95245323D01*
X52828905Y-95183996D01*
X52828904Y-95183995D01*
X52825984Y-95177572D01*
X52732400Y-95068963D01*
X52612095Y-94990985D01*
X52474739Y-94949907D01*
X52391497Y-94949398D01*
X52338427Y-94949074D01*
X52338426Y-94949074D01*
X52331376Y-94949031D01*
X52324599Y-94950968D01*
X52324598Y-94950968D01*
X52200309Y-94986490D01*
X52200307Y-94986491D01*
X52193529Y-94988428D01*
X52072280Y-95064930D01*
X52067613Y-95070214D01*
X52067611Y-95070216D01*
X51982044Y-95167103D01*
X51982042Y-95167105D01*
X51977377Y-95172388D01*
X51974381Y-95178770D01*
X51974380Y-95178771D01*
X51962617Y-95203826D01*
X51916447Y-95302163D01*
X51915362Y-95309132D01*
X51915361Y-95309135D01*
X51901946Y-95395302D01*
X51894391Y-95443823D01*
X51138062Y-95443823D01*
X51181710Y-95353733D01*
X51184699Y-95335972D01*
X51204862Y-95216124D01*
X51204862Y-95216120D01*
X51205496Y-95212354D01*
X51205647Y-95200000D01*
X51185323Y-95058082D01*
X51163543Y-95010180D01*
X51128905Y-94933996D01*
X51128904Y-94933995D01*
X51125984Y-94927572D01*
X51055869Y-94846200D01*
X51037005Y-94824307D01*
X51037004Y-94824306D01*
X51032400Y-94818963D01*
X50912095Y-94740985D01*
X50774739Y-94699907D01*
X50691497Y-94699398D01*
X50638427Y-94699074D01*
X50638426Y-94699074D01*
X50631376Y-94699031D01*
X50624599Y-94700968D01*
X50624598Y-94700968D01*
X50500309Y-94736490D01*
X50500307Y-94736491D01*
X50493529Y-94738428D01*
X50372280Y-94814930D01*
X50367613Y-94820214D01*
X50367611Y-94820216D01*
X50282044Y-94917103D01*
X50282042Y-94917105D01*
X50277377Y-94922388D01*
X50274381Y-94928770D01*
X50274380Y-94928771D01*
X50263507Y-94951929D01*
X50216447Y-95052163D01*
X50215362Y-95059132D01*
X50215361Y-95059135D01*
X50213831Y-95068963D01*
X50194391Y-95193823D01*
X44699645Y-95193823D01*
X45205483Y-94687985D01*
X45228050Y-94665418D01*
X45239004Y-94643920D01*
X45247111Y-94630690D01*
X45261296Y-94611166D01*
X45268751Y-94588220D01*
X45274696Y-94573870D01*
X45275737Y-94571827D01*
X45285646Y-94552380D01*
X45289420Y-94528551D01*
X45293046Y-94513449D01*
X45298092Y-94497919D01*
X45298093Y-94497916D01*
X45300499Y-94490509D01*
X45300499Y-94458601D01*
X45300500Y-94458595D01*
X45300500Y-93743823D01*
X49244391Y-93743823D01*
X49245306Y-93750820D01*
X49245306Y-93750821D01*
X49246814Y-93762354D01*
X49262980Y-93885979D01*
X49265821Y-93892435D01*
X49265821Y-93892436D01*
X49304406Y-93980126D01*
X49320720Y-94017203D01*
X49333792Y-94032754D01*
X49408431Y-94121549D01*
X49408434Y-94121551D01*
X49412970Y-94126948D01*
X49418841Y-94130856D01*
X49418842Y-94130857D01*
X49431143Y-94139045D01*
X49532313Y-94206390D01*
X49632920Y-94237821D01*
X49662425Y-94247039D01*
X49662426Y-94247039D01*
X49669157Y-94249142D01*
X49740828Y-94250456D01*
X49805445Y-94251641D01*
X49805447Y-94251641D01*
X49812499Y-94251770D01*
X49819302Y-94249915D01*
X49819304Y-94249915D01*
X49894503Y-94229413D01*
X49950817Y-94214060D01*
X50072991Y-94139045D01*
X50080403Y-94130857D01*
X50164468Y-94037982D01*
X50169200Y-94032754D01*
X50231710Y-93903733D01*
X50235875Y-93878982D01*
X50254862Y-93766124D01*
X50254862Y-93766120D01*
X50255496Y-93762354D01*
X50255647Y-93750000D01*
X50235323Y-93608082D01*
X50213543Y-93560180D01*
X50178905Y-93483996D01*
X50178904Y-93483995D01*
X50175984Y-93477572D01*
X50092649Y-93380857D01*
X50087005Y-93374307D01*
X50087004Y-93374306D01*
X50082400Y-93368963D01*
X49962095Y-93290985D01*
X49824739Y-93249907D01*
X49741497Y-93249398D01*
X49688427Y-93249074D01*
X49688426Y-93249074D01*
X49681376Y-93249031D01*
X49674599Y-93250968D01*
X49674598Y-93250968D01*
X49550309Y-93286490D01*
X49550307Y-93286491D01*
X49543529Y-93288428D01*
X49422280Y-93364930D01*
X49417613Y-93370214D01*
X49417611Y-93370216D01*
X49332044Y-93467103D01*
X49332042Y-93467105D01*
X49327377Y-93472388D01*
X49266447Y-93602163D01*
X49244391Y-93743823D01*
X45300500Y-93743823D01*
X45300500Y-93031689D01*
X45310462Y-93001028D01*
X45308750Y-92993938D01*
X45487737Y-92993938D01*
X45497664Y-93018853D01*
X45501667Y-93049463D01*
X45512980Y-93135979D01*
X45515821Y-93142435D01*
X45515821Y-93142436D01*
X45563110Y-93249907D01*
X45570720Y-93267203D01*
X45589012Y-93288964D01*
X45658431Y-93371549D01*
X45658434Y-93371551D01*
X45662970Y-93376948D01*
X45668841Y-93380856D01*
X45668842Y-93380857D01*
X45681143Y-93389045D01*
X45782313Y-93456390D01*
X45882920Y-93487821D01*
X45912425Y-93497039D01*
X45912426Y-93497039D01*
X45919157Y-93499142D01*
X45990828Y-93500456D01*
X46055445Y-93501641D01*
X46055447Y-93501641D01*
X46062499Y-93501770D01*
X46069302Y-93499915D01*
X46069304Y-93499915D01*
X46170270Y-93472388D01*
X46200817Y-93464060D01*
X46322991Y-93389045D01*
X46330403Y-93380857D01*
X46414468Y-93287982D01*
X46419200Y-93282754D01*
X46481710Y-93153733D01*
X46485875Y-93128982D01*
X46504862Y-93016124D01*
X46504862Y-93016120D01*
X46505496Y-93012354D01*
X46505647Y-93000000D01*
X46485323Y-92858082D01*
X46425984Y-92727572D01*
X46365582Y-92657472D01*
X46337005Y-92624307D01*
X46337004Y-92624306D01*
X46332400Y-92618963D01*
X46212095Y-92540985D01*
X46074739Y-92499907D01*
X45991497Y-92499398D01*
X45938427Y-92499074D01*
X45938426Y-92499074D01*
X45931376Y-92499031D01*
X45924599Y-92500968D01*
X45924598Y-92500968D01*
X45800309Y-92536490D01*
X45800307Y-92536491D01*
X45793529Y-92538428D01*
X45732904Y-92576679D01*
X45708911Y-92591818D01*
X45672280Y-92614930D01*
X45667613Y-92620214D01*
X45667611Y-92620216D01*
X45582044Y-92717103D01*
X45582042Y-92717105D01*
X45577377Y-92722388D01*
X45516447Y-92852163D01*
X45507246Y-92911258D01*
X45497321Y-92975005D01*
X45487737Y-92993938D01*
X45308750Y-92993938D01*
X45300500Y-92959774D01*
X45300500Y-92006901D01*
X45319407Y-91948710D01*
X45329496Y-91936897D01*
X46172570Y-91093823D01*
X47194391Y-91093823D01*
X47195306Y-91100820D01*
X47195306Y-91100821D01*
X47198445Y-91124823D01*
X47212980Y-91235979D01*
X47215821Y-91242435D01*
X47215821Y-91242436D01*
X47244482Y-91307572D01*
X47270720Y-91367203D01*
X47283792Y-91382754D01*
X47358431Y-91471549D01*
X47358434Y-91471551D01*
X47362970Y-91476948D01*
X47368841Y-91480856D01*
X47368842Y-91480857D01*
X47381143Y-91489045D01*
X47482313Y-91556390D01*
X47582920Y-91587821D01*
X47612425Y-91597039D01*
X47612426Y-91597039D01*
X47619157Y-91599142D01*
X47690828Y-91600456D01*
X47755445Y-91601641D01*
X47755447Y-91601641D01*
X47762499Y-91601770D01*
X47769302Y-91599915D01*
X47769304Y-91599915D01*
X47865007Y-91573823D01*
X51254391Y-91573823D01*
X51255306Y-91580820D01*
X51255306Y-91580821D01*
X51260864Y-91623321D01*
X51272980Y-91715979D01*
X51275821Y-91722435D01*
X51275821Y-91722436D01*
X51318654Y-91819780D01*
X51330720Y-91847203D01*
X51343792Y-91862754D01*
X51418431Y-91951549D01*
X51418434Y-91951551D01*
X51422970Y-91956948D01*
X51428841Y-91960856D01*
X51428842Y-91960857D01*
X51441143Y-91969045D01*
X51542313Y-92036390D01*
X51593009Y-92052228D01*
X51672425Y-92077039D01*
X51672426Y-92077039D01*
X51679157Y-92079142D01*
X51750828Y-92080456D01*
X51815445Y-92081641D01*
X51815447Y-92081641D01*
X51822499Y-92081770D01*
X51829302Y-92079915D01*
X51829304Y-92079915D01*
X51930857Y-92052228D01*
X51960817Y-92044060D01*
X52082991Y-91969045D01*
X52090403Y-91960857D01*
X52174468Y-91867982D01*
X52179200Y-91862754D01*
X52241710Y-91733733D01*
X52245875Y-91708982D01*
X52264862Y-91596124D01*
X52264862Y-91596120D01*
X52265496Y-91592354D01*
X52265647Y-91580000D01*
X52245323Y-91438082D01*
X52185984Y-91307572D01*
X52107006Y-91215914D01*
X52097005Y-91204307D01*
X52097004Y-91204306D01*
X52092400Y-91198963D01*
X51972095Y-91120985D01*
X51834739Y-91079907D01*
X51751497Y-91079398D01*
X51698427Y-91079074D01*
X51698426Y-91079074D01*
X51691376Y-91079031D01*
X51684599Y-91080968D01*
X51684598Y-91080968D01*
X51560309Y-91116490D01*
X51560307Y-91116491D01*
X51553529Y-91118428D01*
X51432280Y-91194930D01*
X51427613Y-91200214D01*
X51427611Y-91200216D01*
X51342044Y-91297103D01*
X51342042Y-91297105D01*
X51337377Y-91302388D01*
X51276447Y-91432163D01*
X51275362Y-91439132D01*
X51275361Y-91439135D01*
X51267016Y-91492737D01*
X51254391Y-91573823D01*
X47865007Y-91573823D01*
X47900817Y-91564060D01*
X48022991Y-91489045D01*
X48030403Y-91480857D01*
X48114468Y-91387982D01*
X48119200Y-91382754D01*
X48181710Y-91253733D01*
X48185875Y-91228982D01*
X48204862Y-91116124D01*
X48204862Y-91116120D01*
X48205496Y-91112354D01*
X48205647Y-91100000D01*
X48185323Y-90958082D01*
X48149359Y-90878982D01*
X48128905Y-90833996D01*
X48128904Y-90833995D01*
X48125984Y-90827572D01*
X48053821Y-90743823D01*
X49194391Y-90743823D01*
X49195306Y-90750820D01*
X49195306Y-90750821D01*
X49205046Y-90825304D01*
X49212980Y-90885979D01*
X49215821Y-90892435D01*
X49215821Y-90892436D01*
X49256758Y-90985471D01*
X49270720Y-91017203D01*
X49297614Y-91049197D01*
X49358431Y-91121549D01*
X49358434Y-91121551D01*
X49362970Y-91126948D01*
X49368841Y-91130856D01*
X49368842Y-91130857D01*
X49374291Y-91134484D01*
X49482313Y-91206390D01*
X49577024Y-91235979D01*
X49612425Y-91247039D01*
X49612426Y-91247039D01*
X49619157Y-91249142D01*
X49690828Y-91250456D01*
X49755445Y-91251641D01*
X49755447Y-91251641D01*
X49762499Y-91251770D01*
X49769302Y-91249915D01*
X49769304Y-91249915D01*
X49846084Y-91228982D01*
X49900817Y-91214060D01*
X50022991Y-91139045D01*
X50030403Y-91130857D01*
X50114468Y-91037982D01*
X50119200Y-91032754D01*
X50168303Y-90931406D01*
X50178634Y-90910082D01*
X50181710Y-90903733D01*
X50185875Y-90878982D01*
X50204862Y-90766124D01*
X50204862Y-90766120D01*
X50205496Y-90762354D01*
X50205647Y-90750000D01*
X50185323Y-90608082D01*
X50125984Y-90477572D01*
X50032400Y-90368963D01*
X49912095Y-90290985D01*
X49774739Y-90249907D01*
X49691497Y-90249398D01*
X49638427Y-90249074D01*
X49638426Y-90249074D01*
X49631376Y-90249031D01*
X49624599Y-90250968D01*
X49624598Y-90250968D01*
X49500309Y-90286490D01*
X49500307Y-90286491D01*
X49493529Y-90288428D01*
X49372280Y-90364930D01*
X49367613Y-90370214D01*
X49367611Y-90370216D01*
X49282044Y-90467103D01*
X49282042Y-90467105D01*
X49277377Y-90472388D01*
X49216447Y-90602163D01*
X49215362Y-90609132D01*
X49215361Y-90609135D01*
X49209805Y-90644823D01*
X49194391Y-90743823D01*
X48053821Y-90743823D01*
X48032400Y-90718963D01*
X47912095Y-90640985D01*
X47774739Y-90599907D01*
X47691497Y-90599398D01*
X47638427Y-90599074D01*
X47638426Y-90599074D01*
X47631376Y-90599031D01*
X47624599Y-90600968D01*
X47624598Y-90600968D01*
X47500309Y-90636490D01*
X47500307Y-90636491D01*
X47493529Y-90638428D01*
X47372280Y-90714930D01*
X47367613Y-90720214D01*
X47367611Y-90720216D01*
X47282044Y-90817103D01*
X47282042Y-90817105D01*
X47277377Y-90822388D01*
X47274381Y-90828770D01*
X47274380Y-90828771D01*
X47271927Y-90833996D01*
X47216447Y-90952163D01*
X47215362Y-90959132D01*
X47215361Y-90959135D01*
X47206320Y-91017203D01*
X47194391Y-91093823D01*
X46172570Y-91093823D01*
X46305484Y-90960909D01*
X46305487Y-90960905D01*
X46328050Y-90938342D01*
X46339002Y-90916846D01*
X46347117Y-90903605D01*
X46352080Y-90896775D01*
X46361296Y-90884090D01*
X46368752Y-90861143D01*
X46374695Y-90846797D01*
X46385646Y-90825304D01*
X46389419Y-90801481D01*
X46393045Y-90786375D01*
X46400500Y-90763433D01*
X46400500Y-89593823D01*
X48744391Y-89593823D01*
X48745306Y-89600820D01*
X48745306Y-89600821D01*
X48759419Y-89708750D01*
X48762980Y-89735979D01*
X48765821Y-89742435D01*
X48765821Y-89742436D01*
X48784584Y-89785077D01*
X48820720Y-89867203D01*
X48833792Y-89882754D01*
X48908431Y-89971549D01*
X48908434Y-89971551D01*
X48912970Y-89976948D01*
X48918841Y-89980856D01*
X48918842Y-89980857D01*
X48931143Y-89989045D01*
X49032313Y-90056390D01*
X49121522Y-90084260D01*
X49162425Y-90097039D01*
X49162426Y-90097039D01*
X49169157Y-90099142D01*
X49240828Y-90100456D01*
X49305445Y-90101641D01*
X49305447Y-90101641D01*
X49312499Y-90101770D01*
X49319302Y-90099915D01*
X49319304Y-90099915D01*
X49394503Y-90079413D01*
X49450817Y-90064060D01*
X49572991Y-89989045D01*
X49580403Y-89980857D01*
X49664468Y-89887982D01*
X49669200Y-89882754D01*
X49731710Y-89753733D01*
X49735875Y-89728982D01*
X49754862Y-89616124D01*
X49754862Y-89616120D01*
X49755496Y-89612354D01*
X49755647Y-89600000D01*
X49735323Y-89458082D01*
X49690835Y-89360236D01*
X49678905Y-89333996D01*
X49678904Y-89333995D01*
X49675984Y-89327572D01*
X49582400Y-89218963D01*
X49462095Y-89140985D01*
X49324739Y-89099907D01*
X49241497Y-89099398D01*
X49188427Y-89099074D01*
X49188426Y-89099074D01*
X49181376Y-89099031D01*
X49174599Y-89100968D01*
X49174598Y-89100968D01*
X49050309Y-89136490D01*
X49050307Y-89136491D01*
X49043529Y-89138428D01*
X48922280Y-89214930D01*
X48917613Y-89220214D01*
X48917611Y-89220216D01*
X48832044Y-89317103D01*
X48832042Y-89317105D01*
X48827377Y-89322388D01*
X48766447Y-89452163D01*
X48765362Y-89459132D01*
X48765361Y-89459135D01*
X48758161Y-89505379D01*
X48744391Y-89593823D01*
X46400500Y-89593823D01*
X46400500Y-88893823D01*
X46694391Y-88893823D01*
X46695306Y-88900820D01*
X46695306Y-88900821D01*
X46705190Y-88976409D01*
X46712980Y-89035979D01*
X46715821Y-89042435D01*
X46715821Y-89042436D01*
X46764243Y-89152482D01*
X46770720Y-89167203D01*
X46810839Y-89214930D01*
X46858431Y-89271549D01*
X46858434Y-89271551D01*
X46862970Y-89276948D01*
X46868841Y-89280856D01*
X46868842Y-89280857D01*
X46881143Y-89289045D01*
X46982313Y-89356390D01*
X47082920Y-89387821D01*
X47112425Y-89397039D01*
X47112426Y-89397039D01*
X47119157Y-89399142D01*
X47190828Y-89400456D01*
X47255445Y-89401641D01*
X47255447Y-89401641D01*
X47262499Y-89401770D01*
X47269302Y-89399915D01*
X47269304Y-89399915D01*
X47344503Y-89379413D01*
X47400817Y-89364060D01*
X47522991Y-89289045D01*
X47530403Y-89280857D01*
X47614468Y-89187982D01*
X47619200Y-89182754D01*
X47681710Y-89053733D01*
X47685875Y-89028982D01*
X47704862Y-88916124D01*
X47704862Y-88916120D01*
X47705496Y-88912354D01*
X47705647Y-88900000D01*
X47685323Y-88758082D01*
X47656106Y-88693823D01*
X51944391Y-88693823D01*
X51945306Y-88700820D01*
X51945306Y-88700821D01*
X51962065Y-88828982D01*
X51962980Y-88835979D01*
X51965821Y-88842435D01*
X51965821Y-88842436D01*
X52002485Y-88925760D01*
X52020720Y-88967203D01*
X52033792Y-88982754D01*
X52108431Y-89071549D01*
X52108434Y-89071551D01*
X52112970Y-89076948D01*
X52118841Y-89080856D01*
X52118842Y-89080857D01*
X52149054Y-89100968D01*
X52232313Y-89156390D01*
X52316701Y-89182754D01*
X52362425Y-89197039D01*
X52362426Y-89197039D01*
X52369157Y-89199142D01*
X52440828Y-89200456D01*
X52505445Y-89201641D01*
X52505447Y-89201641D01*
X52512499Y-89201770D01*
X52519302Y-89199915D01*
X52519304Y-89199915D01*
X52594503Y-89179413D01*
X52650817Y-89164060D01*
X52772991Y-89089045D01*
X52780403Y-89080857D01*
X52864468Y-88987982D01*
X52869200Y-88982754D01*
X52931710Y-88853733D01*
X52935875Y-88828982D01*
X52954862Y-88716124D01*
X52954862Y-88716120D01*
X52955496Y-88712354D01*
X52955647Y-88700000D01*
X52935323Y-88558082D01*
X52899886Y-88480141D01*
X52878905Y-88433996D01*
X52878904Y-88433995D01*
X52875984Y-88427572D01*
X52782400Y-88318963D01*
X52662095Y-88240985D01*
X52524739Y-88199907D01*
X52441497Y-88199398D01*
X52388427Y-88199074D01*
X52388426Y-88199074D01*
X52381376Y-88199031D01*
X52374599Y-88200968D01*
X52374598Y-88200968D01*
X52250309Y-88236490D01*
X52250307Y-88236491D01*
X52243529Y-88238428D01*
X52122280Y-88314930D01*
X52117613Y-88320214D01*
X52117611Y-88320216D01*
X52032044Y-88417103D01*
X52032042Y-88417105D01*
X52027377Y-88422388D01*
X51966447Y-88552163D01*
X51965362Y-88559132D01*
X51965361Y-88559135D01*
X51956336Y-88617103D01*
X51944391Y-88693823D01*
X47656106Y-88693823D01*
X47628905Y-88633996D01*
X47628904Y-88633995D01*
X47625984Y-88627572D01*
X47532400Y-88518963D01*
X47412095Y-88440985D01*
X47274739Y-88399907D01*
X47191497Y-88399398D01*
X47138427Y-88399074D01*
X47138426Y-88399074D01*
X47131376Y-88399031D01*
X47124599Y-88400968D01*
X47124598Y-88400968D01*
X47000309Y-88436490D01*
X47000307Y-88436491D01*
X46993529Y-88438428D01*
X46872280Y-88514930D01*
X46867613Y-88520214D01*
X46867611Y-88520216D01*
X46782044Y-88617103D01*
X46782042Y-88617105D01*
X46777377Y-88622388D01*
X46716447Y-88752163D01*
X46715362Y-88759132D01*
X46715361Y-88759135D01*
X46703397Y-88835979D01*
X46694391Y-88893823D01*
X46400500Y-88893823D01*
X46400500Y-87593823D01*
X49894391Y-87593823D01*
X49895306Y-87600820D01*
X49895306Y-87600821D01*
X49904780Y-87673270D01*
X49912980Y-87735979D01*
X49915821Y-87742435D01*
X49915821Y-87742436D01*
X49965412Y-87855139D01*
X49970720Y-87867203D01*
X50005678Y-87908791D01*
X50058431Y-87971549D01*
X50058434Y-87971551D01*
X50062970Y-87976948D01*
X50068841Y-87980856D01*
X50068842Y-87980857D01*
X50081143Y-87989045D01*
X50182313Y-88056390D01*
X50282920Y-88087821D01*
X50312425Y-88097039D01*
X50312426Y-88097039D01*
X50319157Y-88099142D01*
X50390828Y-88100456D01*
X50455445Y-88101641D01*
X50455447Y-88101641D01*
X50462499Y-88101770D01*
X50469302Y-88099915D01*
X50469304Y-88099915D01*
X50544503Y-88079413D01*
X50600817Y-88064060D01*
X50722991Y-87989045D01*
X50730403Y-87980857D01*
X50814468Y-87887982D01*
X50819200Y-87882754D01*
X50881710Y-87753733D01*
X50890228Y-87703104D01*
X50918528Y-87648856D01*
X50973309Y-87621604D01*
X51033646Y-87631755D01*
X51069912Y-87665367D01*
X51070720Y-87667203D01*
X51102375Y-87704861D01*
X51158431Y-87771549D01*
X51158434Y-87771551D01*
X51162970Y-87776948D01*
X51168841Y-87780856D01*
X51168842Y-87780857D01*
X51181143Y-87789045D01*
X51282313Y-87856390D01*
X51366701Y-87882754D01*
X51412425Y-87897039D01*
X51412426Y-87897039D01*
X51419157Y-87899142D01*
X51490828Y-87900456D01*
X51555445Y-87901641D01*
X51555447Y-87901641D01*
X51562499Y-87901770D01*
X51569302Y-87899915D01*
X51569304Y-87899915D01*
X51644503Y-87879413D01*
X51700817Y-87864060D01*
X51705630Y-87861105D01*
X53319031Y-87861105D01*
X53320423Y-87866901D01*
X53320423Y-87866905D01*
X53333642Y-87921964D01*
X53358612Y-88025968D01*
X53436375Y-88176631D01*
X53547831Y-88304396D01*
X53552713Y-88307827D01*
X53552714Y-88307828D01*
X53681665Y-88398456D01*
X53686547Y-88401887D01*
X53725574Y-88417103D01*
X53803299Y-88447407D01*
X53844513Y-88463476D01*
X53850428Y-88464255D01*
X53850429Y-88464255D01*
X53963624Y-88479157D01*
X53973826Y-88480500D01*
X54859608Y-88480500D01*
X54917799Y-88499407D01*
X54953763Y-88548907D01*
X54953763Y-88610093D01*
X54917799Y-88659593D01*
X54897494Y-88670964D01*
X54815760Y-88704819D01*
X54815756Y-88704821D01*
X54809767Y-88707302D01*
X54804625Y-88711248D01*
X54804621Y-88711250D01*
X54742217Y-88759135D01*
X54689549Y-88799549D01*
X54685598Y-88804698D01*
X54601250Y-88914621D01*
X54601248Y-88914625D01*
X54597302Y-88919767D01*
X54594821Y-88925756D01*
X54594819Y-88925760D01*
X54544693Y-89046775D01*
X54539313Y-89059764D01*
X54533762Y-89101929D01*
X54520618Y-89201770D01*
X54519534Y-89210000D01*
X54539313Y-89360236D01*
X54541797Y-89366233D01*
X54594819Y-89494240D01*
X54594821Y-89494244D01*
X54597302Y-89500233D01*
X54601248Y-89505375D01*
X54601250Y-89505379D01*
X54670947Y-89596209D01*
X54689549Y-89620451D01*
X54694698Y-89624402D01*
X54804621Y-89708750D01*
X54804625Y-89708752D01*
X54809767Y-89712698D01*
X54815756Y-89715179D01*
X54815760Y-89715181D01*
X54924161Y-89760082D01*
X54949764Y-89770687D01*
X55062280Y-89785500D01*
X55137720Y-89785500D01*
X55250236Y-89770687D01*
X55275839Y-89760082D01*
X55384240Y-89715181D01*
X55384244Y-89715179D01*
X55390233Y-89712698D01*
X55395375Y-89708752D01*
X55395379Y-89708750D01*
X55505302Y-89624402D01*
X55510451Y-89620451D01*
X55529053Y-89596209D01*
X55598750Y-89505379D01*
X55598752Y-89505375D01*
X55602698Y-89500233D01*
X55605179Y-89494244D01*
X55605181Y-89494240D01*
X55658203Y-89366233D01*
X55660687Y-89360236D01*
X55680466Y-89210000D01*
X55679383Y-89201770D01*
X55666238Y-89101929D01*
X55660687Y-89059764D01*
X55655307Y-89046775D01*
X55605181Y-88925760D01*
X55605179Y-88925756D01*
X55602698Y-88919767D01*
X55598752Y-88914625D01*
X55598750Y-88914621D01*
X55514402Y-88804698D01*
X55510451Y-88799549D01*
X55457783Y-88759135D01*
X55395379Y-88711250D01*
X55395375Y-88711248D01*
X55390233Y-88707302D01*
X55384244Y-88704821D01*
X55384240Y-88704819D01*
X55263391Y-88654762D01*
X55216866Y-88615025D01*
X55202582Y-88555530D01*
X55225997Y-88499002D01*
X55277661Y-88467156D01*
X55282397Y-88465993D01*
X55288320Y-88465276D01*
X55293900Y-88463167D01*
X55293902Y-88463167D01*
X55395220Y-88424882D01*
X55446923Y-88405345D01*
X55451840Y-88401965D01*
X55451843Y-88401964D01*
X55581733Y-88312692D01*
X55586651Y-88309312D01*
X55699440Y-88182721D01*
X55702665Y-88176631D01*
X55742301Y-88101770D01*
X55778776Y-88032881D01*
X55812337Y-87899271D01*
X55818627Y-87874231D01*
X55818627Y-87874228D01*
X55820081Y-87868441D01*
X55820119Y-87861105D01*
X57749031Y-87861105D01*
X57750423Y-87866901D01*
X57750423Y-87866905D01*
X57763642Y-87921964D01*
X57788612Y-88025968D01*
X57866375Y-88176631D01*
X57977831Y-88304396D01*
X57982713Y-88307827D01*
X57982714Y-88307828D01*
X58111665Y-88398456D01*
X58116547Y-88401887D01*
X58155574Y-88417103D01*
X58233299Y-88447407D01*
X58274513Y-88463476D01*
X58280428Y-88464255D01*
X58280429Y-88464255D01*
X58393624Y-88479157D01*
X58403826Y-88480500D01*
X59092516Y-88480500D01*
X59115443Y-88477726D01*
X59212398Y-88465993D01*
X59212401Y-88465992D01*
X59218320Y-88465276D01*
X59376923Y-88405345D01*
X59381840Y-88401965D01*
X59381843Y-88401964D01*
X59511733Y-88312692D01*
X59516651Y-88309312D01*
X59629440Y-88182721D01*
X59632665Y-88176631D01*
X59672301Y-88101770D01*
X59708776Y-88032881D01*
X59742337Y-87899271D01*
X59748627Y-87874231D01*
X59748627Y-87874228D01*
X59750081Y-87868441D01*
X59750560Y-87776948D01*
X59750938Y-87704861D01*
X59750938Y-87704859D01*
X59750969Y-87698895D01*
X59745571Y-87676409D01*
X59714447Y-87546775D01*
X59711388Y-87534032D01*
X59650531Y-87416124D01*
X59636364Y-87388675D01*
X59636362Y-87388673D01*
X59633625Y-87383369D01*
X59522169Y-87255604D01*
X59464575Y-87215126D01*
X59388335Y-87161544D01*
X59388334Y-87161544D01*
X59383453Y-87158113D01*
X59239350Y-87101929D01*
X59231048Y-87098692D01*
X59231047Y-87098692D01*
X59225487Y-87096524D01*
X59219572Y-87095745D01*
X59219571Y-87095745D01*
X59099387Y-87079923D01*
X59096174Y-87079500D01*
X58407484Y-87079500D01*
X58403989Y-87079923D01*
X58287602Y-87094007D01*
X58287599Y-87094008D01*
X58281680Y-87094724D01*
X58123077Y-87154655D01*
X58118160Y-87158035D01*
X58118157Y-87158036D01*
X58029509Y-87218963D01*
X57983349Y-87250688D01*
X57870560Y-87377279D01*
X57867770Y-87382549D01*
X57867769Y-87382550D01*
X57864526Y-87388675D01*
X57791224Y-87527119D01*
X57784940Y-87552138D01*
X57752131Y-87682754D01*
X57749919Y-87691559D01*
X57749031Y-87861105D01*
X55820119Y-87861105D01*
X55820560Y-87776948D01*
X55820938Y-87704861D01*
X55820938Y-87704859D01*
X55820969Y-87698895D01*
X55815571Y-87676409D01*
X55784447Y-87546775D01*
X55781388Y-87534032D01*
X55720531Y-87416124D01*
X55706364Y-87388675D01*
X55706362Y-87388673D01*
X55703625Y-87383369D01*
X55592169Y-87255604D01*
X55534575Y-87215126D01*
X55458335Y-87161544D01*
X55458334Y-87161544D01*
X55453453Y-87158113D01*
X55309350Y-87101929D01*
X55301048Y-87098692D01*
X55301047Y-87098692D01*
X55295487Y-87096524D01*
X55289572Y-87095745D01*
X55289571Y-87095745D01*
X55169387Y-87079923D01*
X55166174Y-87079500D01*
X53977484Y-87079500D01*
X53973989Y-87079923D01*
X53857602Y-87094007D01*
X53857599Y-87094008D01*
X53851680Y-87094724D01*
X53693077Y-87154655D01*
X53688160Y-87158035D01*
X53688157Y-87158036D01*
X53599509Y-87218963D01*
X53553349Y-87250688D01*
X53440560Y-87377279D01*
X53437770Y-87382549D01*
X53437769Y-87382550D01*
X53434526Y-87388675D01*
X53361224Y-87527119D01*
X53354940Y-87552138D01*
X53322131Y-87682754D01*
X53319919Y-87691559D01*
X53319031Y-87861105D01*
X51705630Y-87861105D01*
X51822991Y-87789045D01*
X51830403Y-87780857D01*
X51914468Y-87687982D01*
X51919200Y-87682754D01*
X51981710Y-87553733D01*
X51984049Y-87539835D01*
X52004862Y-87416124D01*
X52004862Y-87416120D01*
X52005496Y-87412354D01*
X52005647Y-87400000D01*
X51985323Y-87258082D01*
X51956106Y-87193823D01*
X51928905Y-87133996D01*
X51928904Y-87133995D01*
X51925984Y-87127572D01*
X51832400Y-87018963D01*
X51712095Y-86940985D01*
X51574739Y-86899907D01*
X51491497Y-86899398D01*
X51438427Y-86899074D01*
X51438426Y-86899074D01*
X51431376Y-86899031D01*
X51424599Y-86900968D01*
X51424598Y-86900968D01*
X51300309Y-86936490D01*
X51300307Y-86936491D01*
X51293529Y-86938428D01*
X51172280Y-87014930D01*
X51167613Y-87020214D01*
X51167611Y-87020216D01*
X51082044Y-87117103D01*
X51082042Y-87117105D01*
X51077377Y-87122388D01*
X51016447Y-87252163D01*
X51014438Y-87265066D01*
X51009735Y-87295272D01*
X50982101Y-87349861D01*
X50927657Y-87377781D01*
X50867200Y-87368368D01*
X50828703Y-87333553D01*
X50825984Y-87327572D01*
X50816963Y-87317103D01*
X50737005Y-87224307D01*
X50737004Y-87224306D01*
X50732400Y-87218963D01*
X50612095Y-87140985D01*
X50474739Y-87099907D01*
X50391497Y-87099398D01*
X50338427Y-87099074D01*
X50338426Y-87099074D01*
X50331376Y-87099031D01*
X50324599Y-87100968D01*
X50324598Y-87100968D01*
X50200309Y-87136490D01*
X50200307Y-87136491D01*
X50193529Y-87138428D01*
X50072280Y-87214930D01*
X50067613Y-87220214D01*
X50067611Y-87220216D01*
X49982044Y-87317103D01*
X49982042Y-87317105D01*
X49977377Y-87322388D01*
X49916447Y-87452163D01*
X49915362Y-87459132D01*
X49915361Y-87459135D01*
X49904526Y-87528726D01*
X49894391Y-87593823D01*
X46400500Y-87593823D01*
X46400500Y-87538958D01*
X46416910Y-87485284D01*
X46419200Y-87482754D01*
X46481710Y-87353733D01*
X46485135Y-87333380D01*
X46504862Y-87216124D01*
X46504862Y-87216120D01*
X46505496Y-87212354D01*
X46505647Y-87200000D01*
X46485323Y-87058082D01*
X46432631Y-86942191D01*
X46428905Y-86933996D01*
X46428904Y-86933995D01*
X46425984Y-86927572D01*
X46332400Y-86818963D01*
X46212095Y-86740985D01*
X46074739Y-86699907D01*
X45991497Y-86699398D01*
X45938427Y-86699074D01*
X45938426Y-86699074D01*
X45931376Y-86699031D01*
X45924599Y-86700968D01*
X45924598Y-86700968D01*
X45800309Y-86736490D01*
X45800307Y-86736491D01*
X45793529Y-86738428D01*
X45672280Y-86814930D01*
X45667613Y-86820214D01*
X45667611Y-86820216D01*
X45582044Y-86917103D01*
X45582042Y-86917105D01*
X45577377Y-86922388D01*
X45574381Y-86928770D01*
X45574380Y-86928771D01*
X45571927Y-86933996D01*
X45516447Y-87052163D01*
X45515362Y-87059132D01*
X45515361Y-87059135D01*
X45503016Y-87138428D01*
X45494391Y-87193823D01*
X45495306Y-87200820D01*
X45495306Y-87200821D01*
X45503058Y-87260101D01*
X45512980Y-87335979D01*
X45515821Y-87342435D01*
X45515821Y-87342436D01*
X45566707Y-87458082D01*
X45570720Y-87467203D01*
X45576281Y-87473819D01*
X45576283Y-87473821D01*
X45576778Y-87475044D01*
X45578985Y-87478589D01*
X45578369Y-87478972D01*
X45599253Y-87530531D01*
X45599500Y-87537523D01*
X45599500Y-90493099D01*
X45580593Y-90551290D01*
X45570504Y-90563103D01*
X44594516Y-91539091D01*
X44594513Y-91539095D01*
X44571950Y-91561658D01*
X44560998Y-91583154D01*
X44552884Y-91596393D01*
X44538704Y-91615910D01*
X44536296Y-91623321D01*
X44531248Y-91638857D01*
X44525305Y-91653203D01*
X44514354Y-91674696D01*
X44513136Y-91682389D01*
X44513135Y-91682391D01*
X44510581Y-91698519D01*
X44506956Y-91713620D01*
X44499500Y-91736567D01*
X44499500Y-94220176D01*
X44480593Y-94278367D01*
X44470504Y-94290180D01*
X44216634Y-94544050D01*
X44162117Y-94571827D01*
X44101685Y-94562256D01*
X44058420Y-94518991D01*
X44048102Y-94483706D01*
X44048006Y-94482720D01*
X44035480Y-94354970D01*
X43975935Y-94157749D01*
X43879218Y-93975849D01*
X43749011Y-93816200D01*
X43688480Y-93766124D01*
X43594002Y-93687965D01*
X43594000Y-93687964D01*
X43590275Y-93684882D01*
X43461153Y-93615066D01*
X43413309Y-93589197D01*
X43413308Y-93589197D01*
X43409055Y-93586897D01*
X43345855Y-93567333D01*
X43216875Y-93527407D01*
X43216871Y-93527406D01*
X43212254Y-93525977D01*
X43207446Y-93525472D01*
X43207443Y-93525471D01*
X43012185Y-93504949D01*
X43012183Y-93504949D01*
X43007369Y-93504443D01*
X42947354Y-93509905D01*
X42807022Y-93522675D01*
X42807017Y-93522676D01*
X42802203Y-93523114D01*
X42604572Y-93581280D01*
X42600288Y-93583519D01*
X42600287Y-93583520D01*
X42589428Y-93589197D01*
X42422002Y-93676726D01*
X42418231Y-93679758D01*
X42265220Y-93802781D01*
X42265217Y-93802783D01*
X42261447Y-93805815D01*
X42258333Y-93809526D01*
X42258332Y-93809527D01*
X42179284Y-93903733D01*
X42129024Y-93963630D01*
X42126689Y-93967878D01*
X42126688Y-93967879D01*
X42119955Y-93980126D01*
X42029776Y-94144162D01*
X42028313Y-94148775D01*
X42028311Y-94148779D01*
X41974413Y-94318689D01*
X41967484Y-94340532D01*
X41966944Y-94345344D01*
X41966944Y-94345345D01*
X41947258Y-94520856D01*
X41944520Y-94545262D01*
X41951693Y-94630680D01*
X41961057Y-94742191D01*
X41961759Y-94750553D01*
X41963092Y-94755201D01*
X41963092Y-94755202D01*
X41982908Y-94824307D01*
X42018544Y-94948586D01*
X42112712Y-95131818D01*
X42115720Y-95135613D01*
X42115724Y-95135619D01*
X42205206Y-95248518D01*
X42226533Y-95305866D01*
X42210079Y-95364797D01*
X42162128Y-95402802D01*
X42127620Y-95409011D01*
X41331172Y-95409011D01*
X41272981Y-95390104D01*
X41237017Y-95340604D01*
X41237017Y-95279418D01*
X41256229Y-95245323D01*
X41284686Y-95212354D01*
X41322564Y-95168472D01*
X41335198Y-95146233D01*
X41421934Y-94993550D01*
X41421935Y-94993547D01*
X41424323Y-94989344D01*
X41426246Y-94983566D01*
X41487824Y-94798454D01*
X41487824Y-94798452D01*
X41489351Y-94793863D01*
X41501326Y-94699074D01*
X41514823Y-94592228D01*
X41515171Y-94589474D01*
X41515583Y-94560000D01*
X41514138Y-94545262D01*
X41495952Y-94359780D01*
X41495951Y-94359776D01*
X41495480Y-94354970D01*
X41435935Y-94157749D01*
X41339218Y-93975849D01*
X41209011Y-93816200D01*
X41148480Y-93766124D01*
X41054002Y-93687965D01*
X41054000Y-93687964D01*
X41050275Y-93684882D01*
X40921153Y-93615066D01*
X40873309Y-93589197D01*
X40873308Y-93589197D01*
X40869055Y-93586897D01*
X40805855Y-93567333D01*
X40676875Y-93527407D01*
X40676871Y-93527406D01*
X40672254Y-93525977D01*
X40667446Y-93525472D01*
X40667443Y-93525471D01*
X40472185Y-93504949D01*
X40472183Y-93504949D01*
X40467369Y-93504443D01*
X40407354Y-93509905D01*
X40267022Y-93522675D01*
X40267017Y-93522676D01*
X40262203Y-93523114D01*
X40064572Y-93581280D01*
X40060288Y-93583519D01*
X40060287Y-93583520D01*
X40049428Y-93589197D01*
X39882002Y-93676726D01*
X39878231Y-93679758D01*
X39725220Y-93802781D01*
X39725217Y-93802783D01*
X39721447Y-93805815D01*
X39718333Y-93809526D01*
X39718332Y-93809527D01*
X39639284Y-93903733D01*
X39589024Y-93963630D01*
X39586689Y-93967878D01*
X39586688Y-93967879D01*
X39579955Y-93980126D01*
X39489776Y-94144162D01*
X39488313Y-94148775D01*
X39488311Y-94148779D01*
X39434413Y-94318689D01*
X39427484Y-94340532D01*
X39426944Y-94345344D01*
X39426944Y-94345345D01*
X39407258Y-94520856D01*
X39404520Y-94545262D01*
X39411693Y-94630680D01*
X39421057Y-94742191D01*
X39421759Y-94750553D01*
X39423092Y-94755201D01*
X39423092Y-94755202D01*
X39442908Y-94824307D01*
X39478544Y-94948586D01*
X39572712Y-95131818D01*
X39633516Y-95208533D01*
X39689069Y-95278624D01*
X39710396Y-95335972D01*
X39693942Y-95394904D01*
X39656430Y-95428326D01*
X39643690Y-95434817D01*
X39629344Y-95440760D01*
X39613809Y-95445807D01*
X39613805Y-95445809D01*
X39606400Y-95448215D01*
X39586879Y-95462398D01*
X39573640Y-95470510D01*
X39559086Y-95477925D01*
X39559084Y-95477927D01*
X39552147Y-95481461D01*
X39529584Y-95504024D01*
X39529580Y-95504027D01*
X38905005Y-96128602D01*
X38905002Y-96128606D01*
X38882439Y-96151169D01*
X38871487Y-96172665D01*
X38863373Y-96185904D01*
X38849193Y-96205421D01*
X38846785Y-96212832D01*
X38841737Y-96228368D01*
X38835794Y-96242714D01*
X38824843Y-96264207D01*
X38823625Y-96271900D01*
X38823624Y-96271902D01*
X38821070Y-96288030D01*
X38817445Y-96303131D01*
X38809989Y-96326078D01*
X38809989Y-103173922D01*
X38200000Y-103173922D01*
X38200000Y-92005262D01*
X39404520Y-92005262D01*
X39421759Y-92210553D01*
X39478544Y-92408586D01*
X39572712Y-92591818D01*
X39700677Y-92753270D01*
X39704357Y-92756402D01*
X39704359Y-92756404D01*
X39809371Y-92845776D01*
X39857564Y-92886791D01*
X39861787Y-92889151D01*
X39861791Y-92889154D01*
X39901342Y-92911258D01*
X40037398Y-92987297D01*
X40041996Y-92988791D01*
X40228724Y-93049463D01*
X40228726Y-93049464D01*
X40233329Y-93050959D01*
X40437894Y-93075351D01*
X40442716Y-93074980D01*
X40442719Y-93074980D01*
X40510541Y-93069761D01*
X40643300Y-93059546D01*
X40841725Y-93004145D01*
X40846038Y-93001966D01*
X40846044Y-93001964D01*
X41021289Y-92913441D01*
X41021291Y-92913440D01*
X41025610Y-92911258D01*
X41060943Y-92883653D01*
X41184135Y-92787406D01*
X41184139Y-92787402D01*
X41187951Y-92784424D01*
X41322564Y-92628472D01*
X41341231Y-92595613D01*
X41421934Y-92453550D01*
X41421935Y-92453547D01*
X41424323Y-92449344D01*
X41437882Y-92408586D01*
X41487824Y-92258454D01*
X41487824Y-92258452D01*
X41489351Y-92253863D01*
X41515171Y-92049474D01*
X41515583Y-92020000D01*
X41514138Y-92005262D01*
X41944520Y-92005262D01*
X41961759Y-92210553D01*
X42018544Y-92408586D01*
X42112712Y-92591818D01*
X42240677Y-92753270D01*
X42244357Y-92756402D01*
X42244359Y-92756404D01*
X42349371Y-92845776D01*
X42397564Y-92886791D01*
X42401787Y-92889151D01*
X42401791Y-92889154D01*
X42441342Y-92911258D01*
X42577398Y-92987297D01*
X42581996Y-92988791D01*
X42768724Y-93049463D01*
X42768726Y-93049464D01*
X42773329Y-93050959D01*
X42977894Y-93075351D01*
X42982716Y-93074980D01*
X42982719Y-93074980D01*
X43050541Y-93069761D01*
X43183300Y-93059546D01*
X43381725Y-93004145D01*
X43386038Y-93001966D01*
X43386044Y-93001964D01*
X43561289Y-92913441D01*
X43561291Y-92913440D01*
X43565610Y-92911258D01*
X43600943Y-92883653D01*
X43724135Y-92787406D01*
X43724139Y-92787402D01*
X43727951Y-92784424D01*
X43862564Y-92628472D01*
X43881231Y-92595613D01*
X43961934Y-92453550D01*
X43961935Y-92453547D01*
X43964323Y-92449344D01*
X43977882Y-92408586D01*
X44027824Y-92258454D01*
X44027824Y-92258452D01*
X44029351Y-92253863D01*
X44055171Y-92049474D01*
X44055583Y-92020000D01*
X44049401Y-91956948D01*
X44035952Y-91819780D01*
X44035951Y-91819776D01*
X44035480Y-91814970D01*
X43975935Y-91617749D01*
X43879218Y-91435849D01*
X43749011Y-91276200D01*
X43717238Y-91249915D01*
X43594002Y-91147965D01*
X43594000Y-91147964D01*
X43590275Y-91144882D01*
X43409055Y-91046897D01*
X43342869Y-91026409D01*
X43216875Y-90987407D01*
X43216871Y-90987406D01*
X43212254Y-90985977D01*
X43207446Y-90985472D01*
X43207443Y-90985471D01*
X43012185Y-90964949D01*
X43012183Y-90964949D01*
X43007369Y-90964443D01*
X42947354Y-90969905D01*
X42807022Y-90982675D01*
X42807017Y-90982676D01*
X42802203Y-90983114D01*
X42604572Y-91041280D01*
X42600288Y-91043519D01*
X42600287Y-91043520D01*
X42589428Y-91049197D01*
X42422002Y-91136726D01*
X42418231Y-91139758D01*
X42265220Y-91262781D01*
X42265217Y-91262783D01*
X42261447Y-91265815D01*
X42258333Y-91269526D01*
X42258332Y-91269527D01*
X42171842Y-91372602D01*
X42129024Y-91423630D01*
X42126689Y-91427878D01*
X42126688Y-91427879D01*
X42121079Y-91438082D01*
X42029776Y-91604162D01*
X42028313Y-91608775D01*
X42028311Y-91608779D01*
X42009603Y-91667756D01*
X41967484Y-91800532D01*
X41966944Y-91805344D01*
X41966944Y-91805345D01*
X41965865Y-91814970D01*
X41944520Y-92005262D01*
X41514138Y-92005262D01*
X41509401Y-91956948D01*
X41495952Y-91819780D01*
X41495951Y-91819776D01*
X41495480Y-91814970D01*
X41435935Y-91617749D01*
X41339218Y-91435849D01*
X41209011Y-91276200D01*
X41177238Y-91249915D01*
X41054002Y-91147965D01*
X41054000Y-91147964D01*
X41050275Y-91144882D01*
X40869055Y-91046897D01*
X40802869Y-91026409D01*
X40676875Y-90987407D01*
X40676871Y-90987406D01*
X40672254Y-90985977D01*
X40667446Y-90985472D01*
X40667443Y-90985471D01*
X40472185Y-90964949D01*
X40472183Y-90964949D01*
X40467369Y-90964443D01*
X40407354Y-90969905D01*
X40267022Y-90982675D01*
X40267017Y-90982676D01*
X40262203Y-90983114D01*
X40064572Y-91041280D01*
X40060288Y-91043519D01*
X40060287Y-91043520D01*
X40049428Y-91049197D01*
X39882002Y-91136726D01*
X39878231Y-91139758D01*
X39725220Y-91262781D01*
X39725217Y-91262783D01*
X39721447Y-91265815D01*
X39718333Y-91269526D01*
X39718332Y-91269527D01*
X39631842Y-91372602D01*
X39589024Y-91423630D01*
X39586689Y-91427878D01*
X39586688Y-91427879D01*
X39581079Y-91438082D01*
X39489776Y-91604162D01*
X39488313Y-91608775D01*
X39488311Y-91608779D01*
X39469603Y-91667756D01*
X39427484Y-91800532D01*
X39426944Y-91805344D01*
X39426944Y-91805345D01*
X39425865Y-91814970D01*
X39404520Y-92005262D01*
X38200000Y-92005262D01*
X38200000Y-89465262D01*
X39404520Y-89465262D01*
X39407457Y-89500233D01*
X39417884Y-89624402D01*
X39421759Y-89670553D01*
X39423092Y-89675201D01*
X39423092Y-89675202D01*
X39449760Y-89768203D01*
X39478544Y-89868586D01*
X39572712Y-90051818D01*
X39700677Y-90213270D01*
X39704357Y-90216402D01*
X39704359Y-90216404D01*
X39789617Y-90288964D01*
X39857564Y-90346791D01*
X39861787Y-90349151D01*
X39861791Y-90349154D01*
X39978702Y-90414493D01*
X40037398Y-90447297D01*
X40041996Y-90448791D01*
X40228724Y-90509463D01*
X40228726Y-90509464D01*
X40233329Y-90510959D01*
X40437894Y-90535351D01*
X40442716Y-90534980D01*
X40442719Y-90534980D01*
X40510541Y-90529761D01*
X40643300Y-90519546D01*
X40841725Y-90464145D01*
X40846038Y-90461966D01*
X40846044Y-90461964D01*
X41021289Y-90373441D01*
X41021291Y-90373440D01*
X41025610Y-90371258D01*
X41126812Y-90292191D01*
X41184135Y-90247406D01*
X41184139Y-90247402D01*
X41187951Y-90244424D01*
X41322564Y-90088472D01*
X41343009Y-90052482D01*
X41421934Y-89913550D01*
X41421935Y-89913547D01*
X41424323Y-89909344D01*
X41431430Y-89887982D01*
X41487824Y-89718454D01*
X41487824Y-89718452D01*
X41489351Y-89713863D01*
X41500653Y-89624402D01*
X41514823Y-89512228D01*
X41515171Y-89509474D01*
X41515583Y-89480000D01*
X41514138Y-89465262D01*
X41944520Y-89465262D01*
X41947457Y-89500233D01*
X41957884Y-89624402D01*
X41961759Y-89670553D01*
X41963092Y-89675201D01*
X41963092Y-89675202D01*
X41989760Y-89768203D01*
X42018544Y-89868586D01*
X42112712Y-90051818D01*
X42240677Y-90213270D01*
X42244357Y-90216402D01*
X42244359Y-90216404D01*
X42329617Y-90288964D01*
X42397564Y-90346791D01*
X42401787Y-90349151D01*
X42401791Y-90349154D01*
X42518702Y-90414493D01*
X42577398Y-90447297D01*
X42581996Y-90448791D01*
X42768724Y-90509463D01*
X42768726Y-90509464D01*
X42773329Y-90510959D01*
X42977894Y-90535351D01*
X42982716Y-90534980D01*
X42982719Y-90534980D01*
X43050541Y-90529761D01*
X43183300Y-90519546D01*
X43381725Y-90464145D01*
X43386038Y-90461966D01*
X43386044Y-90461964D01*
X43561289Y-90373441D01*
X43561291Y-90373440D01*
X43565610Y-90371258D01*
X43666812Y-90292191D01*
X43724135Y-90247406D01*
X43724139Y-90247402D01*
X43727951Y-90244424D01*
X43862564Y-90088472D01*
X43883009Y-90052482D01*
X43961934Y-89913550D01*
X43961935Y-89913547D01*
X43964323Y-89909344D01*
X43971430Y-89887982D01*
X44027824Y-89718454D01*
X44027824Y-89718452D01*
X44029351Y-89713863D01*
X44040653Y-89624402D01*
X44054823Y-89512228D01*
X44055171Y-89509474D01*
X44055583Y-89480000D01*
X44052854Y-89452163D01*
X44035952Y-89279780D01*
X44035951Y-89279776D01*
X44035480Y-89274970D01*
X44018571Y-89218963D01*
X43977333Y-89082380D01*
X43975935Y-89077749D01*
X43879218Y-88895849D01*
X43749011Y-88736200D01*
X43718852Y-88711250D01*
X43594002Y-88607965D01*
X43594000Y-88607964D01*
X43590275Y-88604882D01*
X43409055Y-88506897D01*
X43322620Y-88480141D01*
X43216875Y-88447407D01*
X43216871Y-88447406D01*
X43212254Y-88445977D01*
X43207446Y-88445472D01*
X43207443Y-88445471D01*
X43012185Y-88424949D01*
X43012183Y-88424949D01*
X43007369Y-88424443D01*
X42959811Y-88428771D01*
X42807022Y-88442675D01*
X42807017Y-88442676D01*
X42802203Y-88443114D01*
X42604572Y-88501280D01*
X42600288Y-88503519D01*
X42600287Y-88503520D01*
X42589428Y-88509197D01*
X42422002Y-88596726D01*
X42418231Y-88599758D01*
X42265220Y-88722781D01*
X42265217Y-88722783D01*
X42261447Y-88725815D01*
X42258333Y-88729526D01*
X42258332Y-88729527D01*
X42154111Y-88853733D01*
X42129024Y-88883630D01*
X42126689Y-88887878D01*
X42126688Y-88887879D01*
X42113233Y-88912354D01*
X42029776Y-89064162D01*
X42028313Y-89068775D01*
X42028311Y-89068779D01*
X41990498Y-89187982D01*
X41967484Y-89260532D01*
X41966944Y-89265344D01*
X41966944Y-89265345D01*
X41946046Y-89451660D01*
X41944520Y-89465262D01*
X41514138Y-89465262D01*
X41512854Y-89452163D01*
X41495952Y-89279780D01*
X41495951Y-89279776D01*
X41495480Y-89274970D01*
X41478571Y-89218963D01*
X41437333Y-89082380D01*
X41435935Y-89077749D01*
X41339218Y-88895849D01*
X41209011Y-88736200D01*
X41178852Y-88711250D01*
X41054002Y-88607965D01*
X41054000Y-88607964D01*
X41050275Y-88604882D01*
X40869055Y-88506897D01*
X40782620Y-88480141D01*
X40676875Y-88447407D01*
X40676871Y-88447406D01*
X40672254Y-88445977D01*
X40667446Y-88445472D01*
X40667443Y-88445471D01*
X40472185Y-88424949D01*
X40472183Y-88424949D01*
X40467369Y-88424443D01*
X40419811Y-88428771D01*
X40267022Y-88442675D01*
X40267017Y-88442676D01*
X40262203Y-88443114D01*
X40064572Y-88501280D01*
X40060288Y-88503519D01*
X40060287Y-88503520D01*
X40049428Y-88509197D01*
X39882002Y-88596726D01*
X39878231Y-88599758D01*
X39725220Y-88722781D01*
X39725217Y-88722783D01*
X39721447Y-88725815D01*
X39718333Y-88729526D01*
X39718332Y-88729527D01*
X39614111Y-88853733D01*
X39589024Y-88883630D01*
X39586689Y-88887878D01*
X39586688Y-88887879D01*
X39573233Y-88912354D01*
X39489776Y-89064162D01*
X39488313Y-89068775D01*
X39488311Y-89068779D01*
X39450498Y-89187982D01*
X39427484Y-89260532D01*
X39426944Y-89265344D01*
X39426944Y-89265345D01*
X39406046Y-89451660D01*
X39404520Y-89465262D01*
X38200000Y-89465262D01*
X38200000Y-86925262D01*
X39404520Y-86925262D01*
X39405942Y-86942191D01*
X39421060Y-87122226D01*
X39421759Y-87130553D01*
X39423092Y-87135201D01*
X39423092Y-87135202D01*
X39476767Y-87322388D01*
X39478544Y-87328586D01*
X39480759Y-87332896D01*
X39509425Y-87388675D01*
X39572712Y-87511818D01*
X39700677Y-87673270D01*
X39704357Y-87676402D01*
X39704359Y-87676404D01*
X39774360Y-87735979D01*
X39857564Y-87806791D01*
X39861787Y-87809151D01*
X39861791Y-87809154D01*
X39963352Y-87865914D01*
X40037398Y-87907297D01*
X40041996Y-87908791D01*
X40228724Y-87969463D01*
X40228726Y-87969464D01*
X40233329Y-87970959D01*
X40437894Y-87995351D01*
X40442716Y-87994980D01*
X40442719Y-87994980D01*
X40519848Y-87989045D01*
X40643300Y-87979546D01*
X40841725Y-87924145D01*
X40846038Y-87921966D01*
X40846044Y-87921964D01*
X41021289Y-87833441D01*
X41021291Y-87833440D01*
X41025610Y-87831258D01*
X41074915Y-87792737D01*
X41184135Y-87707406D01*
X41184139Y-87707402D01*
X41187951Y-87704424D01*
X41192724Y-87698895D01*
X41277378Y-87600821D01*
X41322564Y-87548472D01*
X41332756Y-87530531D01*
X41421934Y-87373550D01*
X41421935Y-87373547D01*
X41424323Y-87369344D01*
X41429517Y-87353733D01*
X41487824Y-87178454D01*
X41487824Y-87178452D01*
X41489351Y-87173863D01*
X41491351Y-87158036D01*
X41514823Y-86972228D01*
X41515171Y-86969474D01*
X41515583Y-86940000D01*
X41515239Y-86936490D01*
X41514138Y-86925262D01*
X41944520Y-86925262D01*
X41945942Y-86942191D01*
X41961060Y-87122226D01*
X41961759Y-87130553D01*
X41963092Y-87135201D01*
X41963092Y-87135202D01*
X42016767Y-87322388D01*
X42018544Y-87328586D01*
X42020759Y-87332896D01*
X42049425Y-87388675D01*
X42112712Y-87511818D01*
X42240677Y-87673270D01*
X42244357Y-87676402D01*
X42244359Y-87676404D01*
X42314360Y-87735979D01*
X42397564Y-87806791D01*
X42401787Y-87809151D01*
X42401791Y-87809154D01*
X42503352Y-87865914D01*
X42577398Y-87907297D01*
X42581996Y-87908791D01*
X42768724Y-87969463D01*
X42768726Y-87969464D01*
X42773329Y-87970959D01*
X42977894Y-87995351D01*
X42982716Y-87994980D01*
X42982719Y-87994980D01*
X43059848Y-87989045D01*
X43183300Y-87979546D01*
X43381725Y-87924145D01*
X43386038Y-87921966D01*
X43386044Y-87921964D01*
X43561289Y-87833441D01*
X43561291Y-87833440D01*
X43565610Y-87831258D01*
X43614915Y-87792737D01*
X43724135Y-87707406D01*
X43724139Y-87707402D01*
X43727951Y-87704424D01*
X43732724Y-87698895D01*
X43817378Y-87600821D01*
X43862564Y-87548472D01*
X43872756Y-87530531D01*
X43961934Y-87373550D01*
X43961935Y-87373547D01*
X43964323Y-87369344D01*
X43969517Y-87353733D01*
X44027824Y-87178454D01*
X44027824Y-87178452D01*
X44029351Y-87173863D01*
X44031351Y-87158036D01*
X44054823Y-86972228D01*
X44055171Y-86969474D01*
X44055583Y-86940000D01*
X44055239Y-86936490D01*
X44035952Y-86739780D01*
X44035951Y-86739776D01*
X44035480Y-86734970D01*
X43975935Y-86537749D01*
X43879218Y-86355849D01*
X43749011Y-86196200D01*
X43590275Y-86064882D01*
X43409055Y-85966897D01*
X43345855Y-85947333D01*
X43216875Y-85907407D01*
X43216871Y-85907406D01*
X43212254Y-85905977D01*
X43207446Y-85905472D01*
X43207443Y-85905471D01*
X43012185Y-85884949D01*
X43012183Y-85884949D01*
X43007369Y-85884443D01*
X42947354Y-85889905D01*
X42807022Y-85902675D01*
X42807017Y-85902676D01*
X42802203Y-85903114D01*
X42604572Y-85961280D01*
X42600288Y-85963519D01*
X42600287Y-85963520D01*
X42544879Y-85992487D01*
X42422002Y-86056726D01*
X42418231Y-86059758D01*
X42265220Y-86182781D01*
X42265217Y-86182783D01*
X42261447Y-86185815D01*
X42258333Y-86189526D01*
X42258332Y-86189527D01*
X42249585Y-86199952D01*
X42129024Y-86343630D01*
X42126689Y-86347878D01*
X42126688Y-86347879D01*
X42119955Y-86360126D01*
X42029776Y-86524162D01*
X41967484Y-86720532D01*
X41966944Y-86725344D01*
X41966944Y-86725345D01*
X41956874Y-86815126D01*
X41944520Y-86925262D01*
X41514138Y-86925262D01*
X41495952Y-86739780D01*
X41495951Y-86739776D01*
X41495480Y-86734970D01*
X41435935Y-86537749D01*
X41339218Y-86355849D01*
X41209011Y-86196200D01*
X41050275Y-86064882D01*
X40869055Y-85966897D01*
X40805855Y-85947333D01*
X40676875Y-85907407D01*
X40676871Y-85907406D01*
X40672254Y-85905977D01*
X40667446Y-85905472D01*
X40667443Y-85905471D01*
X40472185Y-85884949D01*
X40472183Y-85884949D01*
X40467369Y-85884443D01*
X40407354Y-85889905D01*
X40267022Y-85902675D01*
X40267017Y-85902676D01*
X40262203Y-85903114D01*
X40064572Y-85961280D01*
X40060288Y-85963519D01*
X40060287Y-85963520D01*
X40004879Y-85992487D01*
X39882002Y-86056726D01*
X39878231Y-86059758D01*
X39725220Y-86182781D01*
X39725217Y-86182783D01*
X39721447Y-86185815D01*
X39718333Y-86189526D01*
X39718332Y-86189527D01*
X39709585Y-86199952D01*
X39589024Y-86343630D01*
X39586689Y-86347878D01*
X39586688Y-86347879D01*
X39579955Y-86360126D01*
X39489776Y-86524162D01*
X39427484Y-86720532D01*
X39426944Y-86725344D01*
X39426944Y-86725345D01*
X39416874Y-86815126D01*
X39404520Y-86925262D01*
X38200000Y-86925262D01*
X38200000Y-86033960D01*
X38202518Y-86011773D01*
X38202562Y-86011583D01*
X38205143Y-86000358D01*
X38202682Y-85989483D01*
X38202702Y-85978336D01*
X38202863Y-85978336D01*
X38202076Y-85968331D01*
X38214974Y-85771531D01*
X38216664Y-85758691D01*
X38260067Y-85540489D01*
X38263419Y-85527980D01*
X38334933Y-85317309D01*
X38339889Y-85305346D01*
X38438284Y-85105820D01*
X38444753Y-85094614D01*
X38568365Y-84909615D01*
X38576233Y-84899361D01*
X38722931Y-84732085D01*
X38732086Y-84722930D01*
X38899361Y-84576233D01*
X38909615Y-84568365D01*
X39094614Y-84444753D01*
X39105820Y-84438284D01*
X39223046Y-84380475D01*
X39305347Y-84339889D01*
X39317309Y-84334933D01*
X39527984Y-84263418D01*
X39540484Y-84260068D01*
X39758698Y-84216663D01*
X39771523Y-84214975D01*
X39967819Y-84202109D01*
X39977628Y-84202899D01*
X39977628Y-84202625D01*
X39988778Y-84202645D01*
X39999642Y-84205143D01*
X40010514Y-84202683D01*
X40010516Y-84202683D01*
X40011583Y-84202441D01*
X40033432Y-84200000D01*
X58966040Y-84200000D01*
X58988227Y-84202518D01*
G37*
%TD.AperFunction*%
%TD*%
M02*
